<svg width="18" height="7" viewBox="0 0 18 7" fill="none" xmlns="http://www.w3.org/2000/svg">
<path d="M0.529102 7L3.6791 -4.76837e-07H4.9591L8.1191 7H6.7591L4.0491 0.69H4.5691L1.8691 7H0.529102ZM1.9791 5.38L2.3291 4.36H6.1091L6.4591 5.38H1.9791ZM9.00934 7V-4.76837e-07H11.8893C12.5093 -4.76837e-07 13.0393 0.0999996 13.4793 0.3C13.926 0.5 14.2693 0.786666 14.5093 1.16C14.7493 1.53333 14.8693 1.97667 14.8693 2.49C14.8693 3.00333 14.7493 3.44667 14.5093 3.82C14.2693 4.19333 13.926 4.48 13.4793 4.68C13.0393 4.88 12.5093 4.98 11.8893 4.98H9.72934L10.3093 4.37V7H9.00934ZM10.3093 4.51L9.72934 3.88H11.8293C12.4027 3.88 12.8327 3.76 13.1193 3.52C13.4127 3.27333 13.5593 2.93 13.5593 2.49C13.5593 2.04333 13.4127 1.7 13.1193 1.46C12.8327 1.22 12.4027 1.1 11.8293 1.1H9.72934L10.3093 0.46V4.51ZM16.1675 7V-4.76837e-07H17.4675V7H16.1675Z" fill="white"/>
</svg>
