<svg width="190" height="50" viewBox="0 0 190 50" fill="none" xmlns="http://www.w3.org/2000/svg">
<g clip-path="url(#clip0_17_210)">
<path d="M0 0H140C158.692 0 168.038 0 175 4.01924C179.561 6.65229 183.348 10.4394 185.981 15C190 21.9615 190 31.3077 190 50V50H50C31.3077 50 21.9615 50 15 45.9808C10.4394 43.3477 6.65229 39.5606 4.01924 35C0 28.0385 0 18.6923 0 0V0Z" fill="url(#paint0_linear_17_210)"/>
<path d="M32.135 31L36.86 20.5H38.78L43.52 31H41.48L37.415 21.535H38.195L34.145 31H32.135ZM34.31 28.57L34.835 27.04H40.505L41.03 28.57H34.31ZM44.9202 31V22.99H48.8352C49.8052 22.99 50.5652 23.17 51.1152 23.53C51.6752 23.89 51.9552 24.4 51.9552 25.06C51.9552 25.71 51.6952 26.22 51.1752 26.59C50.6552 26.95 49.9652 27.13 49.1052 27.13L49.3302 26.665C50.3002 26.665 51.0202 26.845 51.4902 27.205C51.9702 27.555 52.2102 28.07 52.2102 28.75C52.2102 29.46 51.9452 30.015 51.4152 30.415C50.8852 30.805 50.0802 31 49.0002 31H44.9202ZM46.7052 29.635H48.8502C49.3602 29.635 49.7452 29.555 50.0052 29.395C50.2652 29.225 50.3952 28.97 50.3952 28.63C50.3952 28.27 50.2752 28.005 50.0352 27.835C49.7952 27.665 49.4202 27.58 48.9102 27.58H46.7052V29.635ZM46.7052 26.335H48.6702C49.1502 26.335 49.5102 26.25 49.7502 26.08C50.0002 25.9 50.1252 25.65 50.1252 25.33C50.1252 25 50.0002 24.755 49.7502 24.595C49.5102 24.435 49.1502 24.355 48.6702 24.355H46.7052V26.335ZM55.8723 31V24.13L56.3073 24.58H53.0523V22.99H60.5523V24.58H57.3123L57.7473 24.13V31H55.8723ZM65.1308 31.105C64.3108 31.105 63.5808 30.93 62.9408 30.58C62.3008 30.22 61.7958 29.73 61.4258 29.11C61.0558 28.49 60.8708 27.785 60.8708 26.995C60.8708 26.195 61.0558 25.49 61.4258 24.88C61.7958 24.26 62.3008 23.775 62.9408 23.425C63.5808 23.075 64.3108 22.9 65.1308 22.9C65.9608 22.9 66.6958 23.075 67.3358 23.425C67.9858 23.775 68.4908 24.255 68.8508 24.865C69.2208 25.475 69.4058 26.185 69.4058 26.995C69.4058 27.785 69.2208 28.49 68.8508 29.11C68.4908 29.73 67.9858 30.22 67.3358 30.58C66.6958 30.93 65.9608 31.105 65.1308 31.105ZM65.1308 29.5C65.5908 29.5 66.0008 29.4 66.3608 29.2C66.7208 29 67.0008 28.71 67.2008 28.33C67.4108 27.95 67.5158 27.505 67.5158 26.995C67.5158 26.475 67.4108 26.03 67.2008 25.66C67.0008 25.28 66.7208 24.99 66.3608 24.79C66.0008 24.59 65.5958 24.49 65.1458 24.49C64.6858 24.49 64.2758 24.59 63.9158 24.79C63.5658 24.99 63.2858 25.28 63.0758 25.66C62.8658 26.03 62.7608 26.475 62.7608 26.995C62.7608 27.505 62.8658 27.95 63.0758 28.33C63.2858 28.71 63.5658 29 63.9158 29.2C64.2758 29.4 64.6808 29.5 65.1308 29.5ZM75.698 31.105C75.048 31.105 74.453 30.955 73.913 30.655C73.383 30.355 72.958 29.905 72.638 29.305C72.328 28.695 72.173 27.925 72.173 26.995C72.173 26.055 72.323 25.285 72.623 24.685C72.933 24.085 73.353 23.64 73.883 23.35C74.413 23.05 75.018 22.9 75.698 22.9C76.488 22.9 77.183 23.07 77.783 23.41C78.393 23.75 78.873 24.225 79.223 24.835C79.583 25.445 79.763 26.165 79.763 26.995C79.763 27.825 79.583 28.55 79.223 29.17C78.873 29.78 78.393 30.255 77.783 30.595C77.183 30.935 76.488 31.105 75.698 31.105ZM71.258 33.91V22.99H73.043V24.88L72.983 27.01L73.133 29.14V33.91H71.258ZM75.488 29.5C75.938 29.5 76.338 29.4 76.688 29.2C77.048 29 77.333 28.71 77.543 28.33C77.753 27.95 77.858 27.505 77.858 26.995C77.858 26.475 77.753 26.03 77.543 25.66C77.333 25.28 77.048 24.99 76.688 24.79C76.338 24.59 75.938 24.49 75.488 24.49C75.038 24.49 74.633 24.59 74.273 24.79C73.913 24.99 73.628 25.28 73.418 25.66C73.208 26.03 73.103 26.475 73.103 26.995C73.103 27.505 73.208 27.95 73.418 28.33C73.628 28.71 73.913 29 74.273 29.2C74.633 29.4 75.038 29.5 75.488 29.5ZM81.6291 31V22.99H83.5041V28.27L87.9291 22.99H89.6391V31H87.7641V25.72L83.3541 31H81.6291ZM94.5938 31.135C93.9838 31.135 93.3788 31.065 92.7788 30.925C92.1888 30.775 91.6538 30.565 91.1738 30.295L91.6988 28.9C92.0888 29.12 92.5288 29.29 93.0188 29.41C93.5088 29.53 93.9988 29.59 94.4888 29.59C94.9088 29.59 95.2688 29.55 95.5688 29.47C95.8688 29.38 96.0988 29.25 96.2588 29.08C96.4288 28.91 96.5138 28.715 96.5138 28.495C96.5138 28.175 96.3738 27.935 96.0938 27.775C95.8238 27.605 95.4338 27.52 94.9238 27.52H93.3788V26.26H94.7738C95.0938 26.26 95.3638 26.225 95.5838 26.155C95.8138 26.085 95.9888 25.98 96.1088 25.84C96.2288 25.7 96.2888 25.535 96.2888 25.345C96.2888 25.155 96.2138 24.99 96.0638 24.85C95.9238 24.7 95.7188 24.59 95.4488 24.52C95.1788 24.44 94.8538 24.4 94.4738 24.4C94.0738 24.4 93.6588 24.45 93.2288 24.55C92.8088 24.65 92.3788 24.795 91.9388 24.985L91.4588 23.605C91.9688 23.375 92.4638 23.2 92.9438 23.08C93.4338 22.95 93.9188 22.88 94.3988 22.87C95.1288 22.84 95.7788 22.915 96.3488 23.095C96.9188 23.275 97.3688 23.535 97.6988 23.875C98.0288 24.215 98.1938 24.615 98.1938 25.075C98.1938 25.455 98.0738 25.8 97.8338 26.11C97.6038 26.41 97.2838 26.645 96.8738 26.815C96.4738 26.985 96.0138 27.07 95.4938 27.07L95.5538 26.665C96.4438 26.665 97.1438 26.845 97.6538 27.205C98.1638 27.555 98.4188 28.035 98.4188 28.645C98.4188 29.135 98.2538 29.57 97.9238 29.95C97.5938 30.32 97.1388 30.61 96.5588 30.82C95.9888 31.03 95.3338 31.135 94.5938 31.135ZM103.92 31.105C103.1 31.105 102.37 30.93 101.73 30.58C101.09 30.22 100.585 29.73 100.215 29.11C99.8448 28.49 99.6598 27.785 99.6598 26.995C99.6598 26.195 99.8448 25.49 100.215 24.88C100.585 24.26 101.09 23.775 101.73 23.425C102.37 23.075 103.1 22.9 103.92 22.9C104.75 22.9 105.485 23.075 106.125 23.425C106.775 23.775 107.28 24.255 107.64 24.865C108.01 25.475 108.195 26.185 108.195 26.995C108.195 27.785 108.01 28.49 107.64 29.11C107.28 29.73 106.775 30.22 106.125 30.58C105.485 30.93 104.75 31.105 103.92 31.105ZM103.92 29.5C104.38 29.5 104.79 29.4 105.15 29.2C105.51 29 105.79 28.71 105.99 28.33C106.2 27.95 106.305 27.505 106.305 26.995C106.305 26.475 106.2 26.03 105.99 25.66C105.79 25.28 105.51 24.99 105.15 24.79C104.79 24.59 104.385 24.49 103.935 24.49C103.475 24.49 103.065 24.59 102.705 24.79C102.355 24.99 102.075 25.28 101.865 25.66C101.655 26.03 101.55 26.475 101.55 26.995C101.55 27.505 101.655 27.95 101.865 28.33C102.075 28.71 102.355 29 102.705 29.2C103.065 29.4 103.47 29.5 103.92 29.5ZM110.047 31V22.99H113.962C114.932 22.99 115.692 23.17 116.242 23.53C116.802 23.89 117.082 24.4 117.082 25.06C117.082 25.71 116.822 26.22 116.302 26.59C115.782 26.95 115.092 27.13 114.232 27.13L114.457 26.665C115.427 26.665 116.147 26.845 116.617 27.205C117.097 27.555 117.337 28.07 117.337 28.75C117.337 29.46 117.072 30.015 116.542 30.415C116.012 30.805 115.207 31 114.127 31H110.047ZM111.832 29.635H113.977C114.487 29.635 114.872 29.555 115.132 29.395C115.392 29.225 115.522 28.97 115.522 28.63C115.522 28.27 115.402 28.005 115.162 27.835C114.922 27.665 114.547 27.58 114.037 27.58H111.832V29.635ZM111.832 26.335H113.797C114.277 26.335 114.637 26.25 114.877 26.08C115.127 25.9 115.252 25.65 115.252 25.33C115.252 25 115.127 24.755 114.877 24.595C114.637 24.435 114.277 24.355 113.797 24.355H111.832V26.335ZM124.194 31V29.38L124.089 29.035V26.2C124.089 25.65 123.924 25.225 123.594 24.925C123.264 24.615 122.764 24.46 122.094 24.46C121.644 24.46 121.199 24.53 120.759 24.67C120.329 24.81 119.964 25.005 119.664 25.255L118.929 23.89C119.359 23.56 119.869 23.315 120.459 23.155C121.059 22.985 121.679 22.9 122.319 22.9C123.479 22.9 124.374 23.18 125.004 23.74C125.644 24.29 125.964 25.145 125.964 26.305V31H124.194ZM121.674 31.105C121.074 31.105 120.549 31.005 120.099 30.805C119.649 30.595 119.299 30.31 119.049 29.95C118.809 29.58 118.689 29.165 118.689 28.705C118.689 28.255 118.794 27.85 119.004 27.49C119.224 27.13 119.579 26.845 120.069 26.635C120.559 26.425 121.209 26.32 122.019 26.32H124.344V27.565H122.154C121.514 27.565 121.084 27.67 120.864 27.88C120.644 28.08 120.534 28.33 120.534 28.63C120.534 28.97 120.669 29.24 120.939 29.44C121.209 29.64 121.584 29.74 122.064 29.74C122.524 29.74 122.934 29.635 123.294 29.425C123.664 29.215 123.929 28.905 124.089 28.495L124.404 29.62C124.224 30.09 123.899 30.455 123.429 30.715C122.969 30.975 122.384 31.105 121.674 31.105ZM129.949 31V24.13L130.384 24.58H127.129V22.99H134.629V24.58H131.389L131.824 24.13V31H129.949ZM140.009 25.63C141.039 25.63 141.824 25.86 142.364 26.32C142.904 26.78 143.174 27.43 143.174 28.27C143.174 29.14 142.874 29.82 142.274 30.31C141.674 30.79 140.829 31.025 139.739 31.015L135.989 31V22.99H137.864V25.615L140.009 25.63ZM139.574 29.635C140.124 29.645 140.544 29.53 140.834 29.29C141.124 29.05 141.269 28.7 141.269 28.24C141.269 27.78 141.124 27.45 140.834 27.25C140.554 27.04 140.134 26.93 139.574 26.92L137.864 26.905V29.62L139.574 29.635ZM148.468 31.105C147.628 31.105 146.878 30.93 146.218 30.58C145.568 30.22 145.058 29.73 144.688 29.11C144.318 28.49 144.133 27.785 144.133 26.995C144.133 26.195 144.318 25.49 144.688 24.88C145.058 24.26 145.568 23.775 146.218 23.425C146.878 23.075 147.628 22.9 148.468 22.9C149.248 22.9 149.933 23.06 150.523 23.38C151.123 23.69 151.578 24.15 151.888 24.76L150.448 25.6C150.208 25.22 149.913 24.94 149.563 24.76C149.223 24.58 148.853 24.49 148.453 24.49C147.993 24.49 147.578 24.59 147.208 24.79C146.838 24.99 146.548 25.28 146.338 25.66C146.128 26.03 146.023 26.475 146.023 26.995C146.023 27.515 146.128 27.965 146.338 28.345C146.548 28.715 146.838 29 147.208 29.2C147.578 29.4 147.993 29.5 148.453 29.5C148.853 29.5 149.223 29.41 149.563 29.23C149.913 29.05 150.208 28.77 150.448 28.39L151.888 29.23C151.578 29.83 151.123 30.295 150.523 30.625C149.933 30.945 149.248 31.105 148.468 31.105ZM158.404 31V28.27L158.674 28.585H156.274C155.174 28.585 154.309 28.355 153.679 27.895C153.059 27.425 152.749 26.75 152.749 25.87C152.749 24.93 153.079 24.215 153.739 23.725C154.409 23.235 155.299 22.99 156.409 22.99H160.084V31H158.404ZM152.644 31L154.804 27.94H156.724L154.654 31H152.644ZM158.404 27.67V24.07L158.674 24.565H156.469C155.889 24.565 155.439 24.675 155.119 24.895C154.809 25.105 154.654 25.45 154.654 25.93C154.654 26.83 155.239 27.28 156.409 27.28H158.674L158.404 27.67Z" fill="white"/>
</g>
<defs>
<linearGradient id="paint0_linear_17_210" x1="0" y1="25" x2="190" y2="25" gradientUnits="userSpaceOnUse">
<stop stop-color="#9BEC8B"/>
<stop offset="1" stop-color="#24B8B1"/>
</linearGradient>
<clipPath id="clip0_17_210">
<path d="M0 0H140C158.692 0 168.038 0 175 4.01924C179.561 6.65229 183.348 10.4394 185.981 15C190 21.9615 190 31.3077 190 50V50H50C31.3077 50 21.9615 50 15 45.9808C10.4394 43.3477 6.65229 39.5606 4.01924 35C0 28.0385 0 18.6923 0 0V0Z" fill="white"/>
</clipPath>
</defs>
</svg>
