<svg width="143" height="18" viewBox="0 0 143 18" fill="none" xmlns="http://www.w3.org/2000/svg">
<path d="M0.16 14L6.4 -9.53674e-07H9.6L15.86 14H12.46L7.34 1.64H8.62L3.48 14H0.16ZM3.28 11L4.14 8.54H11.34L12.22 11H3.28ZM17.4766 14V3.24H22.9766C24.3232 3.24 25.3766 3.48667 26.1366 3.98C26.8966 4.46 27.2766 5.14 27.2766 6.02C27.2766 6.9 26.9166 7.59333 26.1966 8.1C25.4899 8.59333 24.5499 8.84 23.3766 8.84L23.6966 8.12C25.0032 8.12 25.9766 8.36 26.6166 8.84C27.2699 9.32 27.5966 10.02 27.5966 10.94C27.5966 11.8867 27.2366 12.6333 26.5166 13.18C25.7966 13.7267 24.6966 14 23.2166 14H17.4766ZM20.3366 11.88H22.9566C23.5299 11.88 23.9566 11.7867 24.2366 11.6C24.5299 11.4 24.6766 11.1 24.6766 10.7C24.6766 10.2867 24.5432 9.98667 24.2766 9.8C24.0099 9.6 23.5899 9.5 23.0166 9.5H20.3366V11.88ZM20.3366 7.66H22.6966C23.2432 7.66 23.6499 7.56 23.9166 7.36C24.1966 7.16 24.3366 6.87333 24.3366 6.5C24.3366 6.11333 24.1966 5.82667 23.9166 5.64C23.6499 5.45333 23.2432 5.36 22.6966 5.36H20.3366V7.66ZM32.218 14V5.08L32.918 5.8H28.578V3.24H38.958V5.8H34.618L35.318 5.08V14H32.218ZM45.2119 14.16C44.0652 14.16 43.0452 13.92 42.1519 13.44C41.2719 12.96 40.5719 12.3067 40.0519 11.48C39.5452 10.64 39.2919 9.68667 39.2919 8.62C39.2919 7.54 39.5452 6.58667 40.0519 5.76C40.5719 4.92 41.2719 4.26667 42.1519 3.8C43.0452 3.32 44.0652 3.08 45.2119 3.08C46.3452 3.08 47.3585 3.32 48.2519 3.8C49.1452 4.26667 49.8452 4.91333 50.3519 5.74C50.8585 6.56667 51.1119 7.52667 51.1119 8.62C51.1119 9.68667 50.8585 10.64 50.3519 11.48C49.8452 12.3067 49.1452 12.96 48.2519 13.44C47.3585 13.92 46.3452 14.16 45.2119 14.16ZM45.2119 11.6C45.7319 11.6 46.1985 11.48 46.6119 11.24C47.0252 11 47.3519 10.66 47.5919 10.22C47.8319 9.76667 47.9519 9.23333 47.9519 8.62C47.9519 7.99333 47.8319 7.46 47.5919 7.02C47.3519 6.58 47.0252 6.24 46.6119 6C46.1985 5.76 45.7319 5.64 45.2119 5.64C44.6919 5.64 44.2252 5.76 43.8119 6C43.3985 6.24 43.0652 6.58 42.8119 7.02C42.5719 7.46 42.4519 7.99333 42.4519 8.62C42.4519 9.23333 42.5719 9.76667 42.8119 10.22C43.0652 10.66 43.3985 11 43.8119 11.24C44.2252 11.48 44.6919 11.6 45.2119 11.6ZM59.5978 14.16C58.6911 14.16 57.8978 13.96 57.2178 13.56C56.5378 13.16 56.0045 12.5533 55.6178 11.74C55.2445 10.9133 55.0578 9.87333 55.0578 8.62C55.0578 7.35333 55.2378 6.31333 55.5978 5.5C55.9578 4.68667 56.4778 4.08 57.1578 3.68C57.8378 3.28 58.6511 3.08 59.5978 3.08C60.6111 3.08 61.5178 3.31333 62.3178 3.78C63.1311 4.23333 63.7711 4.87333 64.2378 5.7C64.7178 6.52667 64.9578 7.5 64.9578 8.62C64.9578 9.75333 64.7178 10.7333 64.2378 11.56C63.7711 12.3867 63.1311 13.0267 62.3178 13.48C61.5178 13.9333 60.6111 14.16 59.5978 14.16ZM53.2378 17.88V3.24H56.2178V5.44L56.1578 8.64L56.3578 11.82V17.88H53.2378ZM59.0578 11.6C59.5778 11.6 60.0378 11.48 60.4378 11.24C60.8511 11 61.1778 10.66 61.4178 10.22C61.6711 9.76667 61.7978 9.23333 61.7978 8.62C61.7978 7.99333 61.6711 7.46 61.4178 7.02C61.1778 6.58 60.8511 6.24 60.4378 6C60.0378 5.76 59.5778 5.64 59.0578 5.64C58.5378 5.64 58.0711 5.76 57.6578 6C57.2445 6.24 56.9178 6.58 56.6778 7.02C56.4378 7.46 56.3178 7.99333 56.3178 8.62C56.3178 9.23333 56.4378 9.76667 56.6778 10.22C56.9178 10.66 57.2445 11 57.6578 11.24C58.0711 11.48 58.5378 11.6 59.0578 11.6ZM67.1445 14V3.24H70.2445V9.64L75.4845 3.24H78.3445V14H75.2445V7.6L70.0245 14H67.1445ZM84.8861 14.2C84.0594 14.2 83.2328 14.1133 82.4061 13.94C81.5928 13.7667 80.8394 13.5067 80.1461 13.16L80.9861 10.98C81.5328 11.2467 82.1261 11.4533 82.7661 11.6C83.4194 11.7333 84.0794 11.8 84.7461 11.8C85.2261 11.8 85.6394 11.7533 85.9861 11.66C86.3461 11.5533 86.6194 11.4067 86.8061 11.22C86.9928 11.0333 87.0861 10.8067 87.0861 10.54C87.0861 10.1933 86.9394 9.93333 86.6461 9.76C86.3528 9.57333 85.9261 9.48 85.3661 9.48H83.1661V7.54H85.1061C85.4661 7.54 85.7728 7.5 86.0261 7.42C86.2794 7.34 86.4661 7.22667 86.5861 7.08C86.7194 6.92 86.7861 6.73333 86.7861 6.52C86.7861 6.29333 86.7061 6.1 86.5461 5.94C86.3861 5.78 86.1528 5.66 85.8461 5.58C85.5394 5.48667 85.1528 5.44 84.6861 5.44C84.1528 5.44 83.5994 5.50667 83.0261 5.64C82.4528 5.76 81.8661 5.94 81.2661 6.18L80.5061 4.02C81.2128 3.72667 81.9128 3.49333 82.6061 3.32C83.2994 3.14667 83.9861 3.05333 84.6661 3.04C85.6661 3.01333 86.5661 3.12 87.3661 3.36C88.1661 3.6 88.7928 3.94667 89.2461 4.4C89.7128 4.85333 89.9461 5.40667 89.9461 6.06C89.9461 6.58 89.7861 7.04667 89.4661 7.46C89.1594 7.87333 88.7328 8.2 88.1861 8.44C87.6394 8.66667 87.0261 8.78 86.3461 8.78L86.4261 8.16C87.6128 8.16 88.5461 8.4 89.2261 8.88C89.9061 9.34667 90.2461 9.98667 90.2461 10.8C90.2461 11.4933 90.0061 12.1 89.5261 12.62C89.0594 13.1267 88.4194 13.52 87.6061 13.8C86.8061 14.0667 85.8994 14.2 84.8861 14.2ZM98.9166 14V11.9L98.7166 11.44V7.68C98.7166 7.01333 98.5099 6.49333 98.0966 6.12C97.6966 5.74667 97.0766 5.56 96.2366 5.56C95.6632 5.56 95.0966 5.65333 94.5366 5.84C93.9899 6.01333 93.5232 6.25333 93.1366 6.56L92.0166 4.38C92.6032 3.96667 93.3099 3.64667 94.1366 3.42C94.9632 3.19333 95.8032 3.08 96.6566 3.08C98.2966 3.08 99.5699 3.46667 100.477 4.24C101.383 5.01333 101.837 6.22 101.837 7.86V14H98.9166ZM95.6366 14.16C94.7966 14.16 94.0766 14.02 93.4766 13.74C92.8766 13.4467 92.4166 13.0533 92.0966 12.56C91.7766 12.0667 91.6166 11.5133 91.6166 10.9C91.6166 10.26 91.7699 9.7 92.0766 9.22C92.3966 8.74 92.8966 8.36667 93.5766 8.1C94.2566 7.82 95.1432 7.68 96.2366 7.68H99.0966V9.5H96.5766C95.8432 9.5 95.3366 9.62 95.0566 9.86C94.7899 10.1 94.6566 10.4 94.6566 10.76C94.6566 11.16 94.8099 11.48 95.1166 11.72C95.4366 11.9467 95.8699 12.06 96.4166 12.06C96.9366 12.06 97.4032 11.94 97.8166 11.7C98.2299 11.4467 98.5299 11.08 98.7166 10.6L99.1966 12.04C98.9699 12.7333 98.5566 13.26 97.9566 13.62C97.3566 13.98 96.5832 14.16 95.6366 14.16ZM104.547 14V3.24H107.647V11.44H111.987V3.24H115.107V14H104.547ZM113.767 16.32V13.96L114.487 14H111.987V11.44H116.667V16.32H113.767ZM118.629 14V3.24H121.729V9.64L126.969 3.24H129.829V14H126.729V7.6L121.509 14H118.629ZM139.608 14V10.42L140.048 10.92H137.068C135.521 10.92 134.308 10.6 133.428 9.96C132.548 9.32 132.108 8.4 132.108 7.2C132.108 5.92 132.568 4.94 133.488 4.26C134.421 3.58 135.675 3.24 137.248 3.24H142.388V14H139.608ZM131.948 14L134.808 9.9H137.988L135.268 14H131.948ZM139.608 9.46V4.98L140.048 5.78H137.308C136.668 5.78 136.168 5.9 135.808 6.14C135.461 6.38 135.288 6.76667 135.288 7.3C135.288 8.32667 135.948 8.84 137.268 8.84H140.048L139.608 9.46Z" fill="white"/>
</svg>
