<svg width="187" height="42" viewBox="0 0 187 42" fill="none" xmlns="http://www.w3.org/2000/svg">
<path d="M0 0H166.956C178.001 0 186.956 8.95431 186.956 20V41.5381H20C8.9543 41.5381 0 32.5838 0 21.5381V0Z" fill="url(#paint0_linear_556_807)"/>
<path d="M31.782 27V14.4H42.924V27H40.62V15.804L41.16 16.38H33.546L34.086 15.804V27H31.782ZM51.5529 27.126C50.7729 27.126 50.0589 26.946 49.4109 26.586C48.7749 26.226 48.2649 25.686 47.8809 24.966C47.5089 24.234 47.3229 23.31 47.3229 22.194C47.3229 21.066 47.5029 20.142 47.8629 19.422C48.2349 18.702 48.7389 18.168 49.3749 17.82C50.0109 17.46 50.7369 17.28 51.5529 17.28C52.5009 17.28 53.3349 17.484 54.0549 17.892C54.7869 18.3 55.3629 18.87 55.7829 19.602C56.2149 20.334 56.4309 21.198 56.4309 22.194C56.4309 23.19 56.2149 24.06 55.7829 24.804C55.3629 25.536 54.7869 26.106 54.0549 26.514C53.3349 26.922 52.5009 27.126 51.5529 27.126ZM46.2249 30.492V17.388H48.3669V19.656L48.2949 22.212L48.4749 24.768V30.492H46.2249ZM51.3009 25.2C51.8409 25.2 52.3209 25.08 52.7409 24.84C53.1729 24.6 53.5149 24.252 53.7669 23.796C54.0189 23.34 54.1449 22.806 54.1449 22.194C54.1449 21.57 54.0189 21.036 53.7669 20.592C53.5149 20.136 53.1729 19.788 52.7409 19.548C52.3209 19.308 51.8409 19.188 51.3009 19.188C50.7609 19.188 50.2749 19.308 49.8429 19.548C49.4109 19.788 49.0689 20.136 48.8169 20.592C48.5649 21.036 48.4389 21.57 48.4389 22.194C48.4389 22.806 48.5649 23.34 48.8169 23.796C49.0689 24.252 49.4109 24.6 49.8429 24.84C50.2749 25.08 50.7609 25.2 51.3009 25.2ZM62.9542 27.126C61.9702 27.126 61.0942 26.916 60.3262 26.496C59.5582 26.064 58.9522 25.476 58.5082 24.732C58.0642 23.988 57.8422 23.142 57.8422 22.194C57.8422 21.234 58.0642 20.388 58.5082 19.656C58.9522 18.912 59.5582 18.33 60.3262 17.91C61.0942 17.49 61.9702 17.28 62.9542 17.28C63.9502 17.28 64.8322 17.49 65.6002 17.91C66.3802 18.33 66.9862 18.906 67.4182 19.638C67.8622 20.37 68.0842 21.222 68.0842 22.194C68.0842 23.142 67.8622 23.988 67.4182 24.732C66.9862 25.476 66.3802 26.064 65.6002 26.496C64.8322 26.916 63.9502 27.126 62.9542 27.126ZM62.9542 25.2C63.5062 25.2 63.9982 25.08 64.4302 24.84C64.8622 24.6 65.1982 24.252 65.4382 23.796C65.6902 23.34 65.8162 22.806 65.8162 22.194C65.8162 21.57 65.6902 21.036 65.4382 20.592C65.1982 20.136 64.8622 19.788 64.4302 19.548C63.9982 19.308 63.5122 19.188 62.9722 19.188C62.4202 19.188 61.9282 19.308 61.4962 19.548C61.0762 19.788 60.7402 20.136 60.4882 20.592C60.2362 21.036 60.1102 21.57 60.1102 22.194C60.1102 22.806 60.2362 23.34 60.4882 23.796C60.7402 24.252 61.0762 24.6 61.4962 24.84C61.9282 25.08 62.4142 25.2 62.9542 25.2ZM76.7895 25.956V19.296H73.0995L73.0455 20.844C73.0215 21.396 72.9855 21.93 72.9375 22.446C72.8895 22.95 72.8115 23.418 72.7035 23.85C72.5955 24.27 72.4395 24.618 72.2355 24.894C72.0315 25.17 71.7615 25.35 71.4255 25.434L69.1935 25.092C69.5535 25.092 69.8415 24.978 70.0575 24.75C70.2855 24.51 70.4595 24.186 70.5795 23.778C70.7115 23.358 70.8075 22.884 70.8675 22.356C70.9275 21.816 70.9695 21.258 70.9935 20.682L71.1195 17.388H79.0395V25.956H76.7895ZM68.8515 29.142V25.092H80.4615V29.142H78.3555V27H70.9395V29.142H68.8515ZM86.755 27.126C85.771 27.126 84.895 26.916 84.127 26.496C83.359 26.064 82.753 25.476 82.309 24.732C81.865 23.988 81.643 23.142 81.643 22.194C81.643 21.234 81.865 20.388 82.309 19.656C82.753 18.912 83.359 18.33 84.127 17.91C84.895 17.49 85.771 17.28 86.755 17.28C87.751 17.28 88.633 17.49 89.401 17.91C90.181 18.33 90.787 18.906 91.219 19.638C91.663 20.37 91.885 21.222 91.885 22.194C91.885 23.142 91.663 23.988 91.219 24.732C90.787 25.476 90.181 26.064 89.401 26.496C88.633 26.916 87.751 27.126 86.755 27.126ZM86.755 25.2C87.307 25.2 87.799 25.08 88.231 24.84C88.663 24.6 88.999 24.252 89.239 23.796C89.491 23.34 89.617 22.806 89.617 22.194C89.617 21.57 89.491 21.036 89.239 20.592C88.999 20.136 88.663 19.788 88.231 19.548C87.799 19.308 87.313 19.188 86.773 19.188C86.221 19.188 85.729 19.308 85.297 19.548C84.877 19.788 84.541 20.136 84.289 20.592C84.037 21.036 83.911 21.57 83.911 22.194C83.911 22.806 84.037 23.34 84.289 23.796C84.541 24.252 84.877 24.6 85.297 24.84C85.729 25.08 86.215 25.2 86.755 25.2ZM92.5982 26.982L92.7062 25.092C92.7902 25.104 92.8682 25.116 92.9402 25.128C93.0122 25.14 93.0782 25.146 93.1382 25.146C93.5102 25.146 93.7982 25.032 94.0022 24.804C94.2062 24.576 94.3562 24.27 94.4522 23.886C94.5602 23.49 94.6322 23.052 94.6682 22.572C94.7162 22.08 94.7522 21.588 94.7762 21.096L94.9382 17.388H102.714V27H100.464V18.684L100.986 19.296H96.4142L96.9002 18.666L96.7742 21.204C96.7382 22.056 96.6662 22.848 96.5582 23.58C96.4622 24.3 96.3062 24.93 96.0902 25.47C95.8862 26.01 95.5982 26.43 95.2262 26.73C94.8662 27.03 94.4042 27.18 93.8402 27.18C93.6602 27.18 93.4622 27.162 93.2462 27.126C93.0422 27.09 92.8262 27.042 92.5982 26.982ZM117.21 27L114.402 22.392L116.238 21.258L119.892 27H117.21ZM112.584 23.148V21.276H115.806V23.148H112.584ZM116.454 22.464L114.33 22.212L117.246 17.388H119.64L116.454 22.464ZM107.058 27H104.394L108.03 21.258L109.866 22.392L107.058 27ZM113.25 27H111.018V17.388H113.25V27ZM111.684 23.148H108.48V21.276H111.684V23.148ZM107.814 22.464L104.628 17.388H107.022L109.92 22.212L107.814 22.464ZM121.565 27V17.388H123.815V23.724L129.125 17.388H131.177V27H128.927V20.664L123.635 27H121.565ZM136.201 27V18.756L136.723 19.296H132.817V17.388H141.817V19.296H137.929L138.451 18.756V27H136.201ZM148.274 20.556C149.51 20.556 150.452 20.832 151.1 21.384C151.748 21.936 152.072 22.716 152.072 23.724C152.072 24.768 151.712 25.584 150.992 26.172C150.272 26.748 149.258 27.03 147.95 27.018L143.45 27V17.388H145.7V20.538L148.274 20.556ZM147.752 25.362C148.412 25.374 148.916 25.236 149.264 24.948C149.612 24.66 149.786 24.24 149.786 23.688C149.786 23.136 149.612 22.74 149.264 22.5C148.928 22.248 148.424 22.116 147.752 22.104L145.7 22.086V25.344L147.752 25.362Z" fill="white"/>
<defs>
<linearGradient id="paint0_linear_556_807" x1="0" y1="20.769" x2="186.956" y2="20.769" gradientUnits="userSpaceOnUse">
<stop stop-color="#9BEC8B"/>
<stop offset="1" stop-color="#24B8B1"/>
</linearGradient>
</defs>
</svg>
