<svg width="369" height="57" viewBox="0 0 369 57" fill="none" xmlns="http://www.w3.org/2000/svg">
<rect x="9" width="360" height="43" rx="8" fill="url(#paint0_linear_498_154)"/>
<path d="M40.124 29V16.4H41.438V26.84L49.502 16.4H50.708V29H49.394V18.578L41.33 29H40.124ZM54.6539 29V19.55H55.9319V23.726H61.8899V19.55H63.1679V29H61.8899V24.824H55.9319V29H54.6539ZM66.8004 29V19.55H70.9764C72.0444 19.55 72.8844 19.754 73.4964 20.162C74.1204 20.57 74.4324 21.17 74.4324 21.962C74.4324 22.73 74.1384 23.324 73.5504 23.744C72.9624 24.152 72.1884 24.356 71.2284 24.356L71.4804 23.978C72.6084 23.978 73.4364 24.188 73.9644 24.608C74.4924 25.028 74.7564 25.634 74.7564 26.426C74.7564 27.242 74.4564 27.878 73.8564 28.334C73.2684 28.778 72.3504 29 71.1024 29H66.8004ZM68.0424 27.992H71.0484C71.8524 27.992 72.4584 27.866 72.8664 27.614C73.2864 27.35 73.4964 26.93 73.4964 26.354C73.4964 25.778 73.3104 25.358 72.9384 25.094C72.5664 24.83 71.9784 24.698 71.1744 24.698H68.0424V27.992ZM68.0424 23.744H70.8864C71.6184 23.744 72.1764 23.606 72.5604 23.33C72.9564 23.054 73.1544 22.652 73.1544 22.124C73.1544 21.596 72.9564 21.2 72.5604 20.936C72.1764 20.672 71.6184 20.54 70.8864 20.54H68.0424V23.744ZM81.8016 29.09C80.8176 29.09 79.9536 28.886 79.2096 28.478C78.4656 28.058 77.8836 27.488 77.4636 26.768C77.0436 26.036 76.8336 25.202 76.8336 24.266C76.8336 23.33 77.0316 22.502 77.4276 21.782C77.8356 21.062 78.3876 20.498 79.0836 20.09C79.7916 19.67 80.5836 19.46 81.4596 19.46C82.3476 19.46 83.1336 19.664 83.8176 20.072C84.5136 20.468 85.0596 21.032 85.4556 21.764C85.8516 22.484 86.0496 23.318 86.0496 24.266C86.0496 24.326 86.0436 24.392 86.0316 24.464C86.0316 24.524 86.0316 24.59 86.0316 24.662H77.8056V23.708H85.3476L84.8436 24.086C84.8436 23.402 84.6936 22.796 84.3936 22.268C84.1056 21.728 83.7096 21.308 83.2056 21.008C82.7016 20.708 82.1196 20.558 81.4596 20.558C80.8116 20.558 80.2296 20.708 79.7136 21.008C79.1976 21.308 78.7956 21.728 78.5076 22.268C78.2196 22.808 78.0756 23.426 78.0756 24.122V24.32C78.0756 25.04 78.2316 25.676 78.5436 26.228C78.8676 26.768 79.3116 27.194 79.8756 27.506C80.4516 27.806 81.1056 27.956 81.8376 27.956C82.4136 27.956 82.9476 27.854 83.4396 27.65C83.9436 27.446 84.3756 27.134 84.7356 26.714L85.4556 27.542C85.0356 28.046 84.5076 28.43 83.8716 28.694C83.2476 28.958 82.5576 29.09 81.8016 29.09ZM92.8385 29.09C91.9025 29.09 91.0625 28.886 90.3185 28.478C89.5865 28.058 89.0105 27.488 88.5905 26.768C88.1705 26.036 87.9605 25.202 87.9605 24.266C87.9605 23.318 88.1705 22.484 88.5905 21.764C89.0105 21.044 89.5865 20.48 90.3185 20.072C91.0625 19.664 91.9025 19.46 92.8385 19.46C93.6425 19.46 94.3685 19.616 95.0165 19.928C95.6645 20.24 96.1745 20.708 96.5465 21.332L95.5925 21.98C95.2685 21.5 94.8665 21.146 94.3865 20.918C93.9065 20.69 93.3845 20.576 92.8205 20.576C92.1485 20.576 91.5425 20.732 91.0025 21.044C90.4625 21.344 90.0365 21.77 89.7245 22.322C89.4125 22.874 89.2565 23.522 89.2565 24.266C89.2565 25.01 89.4125 25.658 89.7245 26.21C90.0365 26.762 90.4625 27.194 91.0025 27.506C91.5425 27.806 92.1485 27.956 92.8205 27.956C93.3845 27.956 93.9065 27.842 94.3865 27.614C94.8665 27.386 95.2685 27.038 95.5925 26.57L96.5465 27.218C96.1745 27.83 95.6645 28.298 95.0165 28.622C94.3685 28.934 93.6425 29.09 92.8385 29.09ZM100.645 29V20.324L100.969 20.666H97.0633V19.55H105.505V20.666H101.599L101.923 20.324V29H100.645ZM107.353 29V19.55H108.631V27.056L114.949 19.55H116.083V29H114.805V21.476L108.505 29H107.353ZM124.624 29.09C123.808 29.09 123.07 28.904 122.41 28.532C121.75 28.148 121.222 27.602 120.826 26.894C120.442 26.174 120.25 25.298 120.25 24.266C120.25 23.234 120.442 22.364 120.826 21.656C121.21 20.936 121.732 20.39 122.392 20.018C123.052 19.646 123.796 19.46 124.624 19.46C125.524 19.46 126.328 19.664 127.036 20.072C127.756 20.468 128.32 21.032 128.728 21.764C129.136 22.484 129.34 23.318 129.34 24.266C129.34 25.226 129.136 26.066 128.728 26.786C128.32 27.506 127.756 28.07 127.036 28.478C126.328 28.886 125.524 29.09 124.624 29.09ZM119.746 32.492V19.55H120.97V22.394L120.844 24.284L121.024 26.192V32.492H119.746ZM124.534 27.956C125.206 27.956 125.806 27.806 126.334 27.506C126.862 27.194 127.282 26.762 127.594 26.21C127.906 25.646 128.062 24.998 128.062 24.266C128.062 23.534 127.906 22.892 127.594 22.34C127.282 21.788 126.862 21.356 126.334 21.044C125.806 20.732 125.206 20.576 124.534 20.576C123.862 20.576 123.256 20.732 122.716 21.044C122.188 21.356 121.768 21.788 121.456 22.34C121.156 22.892 121.006 23.534 121.006 24.266C121.006 24.998 121.156 25.646 121.456 26.21C121.768 26.762 122.188 27.194 122.716 27.506C123.256 27.806 123.862 27.956 124.534 27.956ZM131.984 32.582C131.54 32.582 131.114 32.51 130.706 32.366C130.31 32.222 129.968 32.006 129.68 31.718L130.274 30.764C130.514 30.992 130.772 31.166 131.048 31.286C131.336 31.418 131.654 31.484 132.002 31.484C132.422 31.484 132.782 31.364 133.082 31.124C133.394 30.896 133.688 30.488 133.964 29.9L134.576 28.514L134.72 28.316L138.608 19.55H139.868L135.134 30.134C134.87 30.746 134.576 31.232 134.252 31.592C133.94 31.952 133.598 32.204 133.226 32.348C132.854 32.504 132.44 32.582 131.984 32.582ZM134.504 29.27L130.148 19.55H131.48L135.332 28.226L134.504 29.27ZM145.645 29.09C144.661 29.09 143.797 28.886 143.053 28.478C142.309 28.058 141.727 27.488 141.307 26.768C140.887 26.036 140.677 25.202 140.677 24.266C140.677 23.33 140.875 22.502 141.271 21.782C141.679 21.062 142.231 20.498 142.927 20.09C143.635 19.67 144.427 19.46 145.303 19.46C146.191 19.46 146.977 19.664 147.661 20.072C148.357 20.468 148.903 21.032 149.299 21.764C149.695 22.484 149.893 23.318 149.893 24.266C149.893 24.326 149.887 24.392 149.875 24.464C149.875 24.524 149.875 24.59 149.875 24.662H141.649V23.708H149.191L148.687 24.086C148.687 23.402 148.537 22.796 148.237 22.268C147.949 21.728 147.553 21.308 147.049 21.008C146.545 20.708 145.963 20.558 145.303 20.558C144.655 20.558 144.073 20.708 143.557 21.008C143.041 21.308 142.639 21.728 142.351 22.268C142.063 22.808 141.919 23.426 141.919 24.122V24.32C141.919 25.04 142.075 25.676 142.387 26.228C142.711 26.768 143.155 27.194 143.719 27.506C144.295 27.806 144.949 27.956 145.681 27.956C146.257 27.956 146.791 27.854 147.283 27.65C147.787 27.446 148.219 27.134 148.579 26.714L149.299 27.542C148.879 28.046 148.351 28.43 147.715 28.694C147.091 28.958 146.401 29.09 145.645 29.09ZM152.722 29V19.55H154.018L158.302 26.804H157.762L162.118 19.55H163.306V29H162.136V21.008L162.37 21.116L158.302 27.848H157.726L153.622 21.044L153.892 20.99V29H152.722ZM176.159 29V19.55H177.437V29H176.159ZM170.921 22.88C172.109 22.892 173.015 23.156 173.639 23.672C174.263 24.188 174.575 24.932 174.575 25.904C174.575 26.912 174.239 27.686 173.567 28.226C172.895 28.766 171.935 29.03 170.687 29.018L166.943 29V19.55H168.221V22.844L170.921 22.88ZM170.597 28.046C171.485 28.058 172.151 27.884 172.595 27.524C173.051 27.152 173.279 26.612 173.279 25.904C173.279 25.196 173.057 24.68 172.613 24.356C172.169 24.02 171.497 23.846 170.597 23.834L168.221 23.798V28.01L170.597 28.046ZM185.126 29.09C184.142 29.09 183.278 28.886 182.534 28.478C181.79 28.058 181.208 27.488 180.788 26.768C180.368 26.036 180.158 25.202 180.158 24.266C180.158 23.33 180.356 22.502 180.752 21.782C181.16 21.062 181.712 20.498 182.408 20.09C183.116 19.67 183.908 19.46 184.784 19.46C185.672 19.46 186.458 19.664 187.142 20.072C187.838 20.468 188.384 21.032 188.78 21.764C189.176 22.484 189.374 23.318 189.374 24.266C189.374 24.326 189.368 24.392 189.356 24.464C189.356 24.524 189.356 24.59 189.356 24.662H181.13V23.708H188.672L188.168 24.086C188.168 23.402 188.018 22.796 187.718 22.268C187.43 21.728 187.034 21.308 186.53 21.008C186.026 20.708 185.444 20.558 184.784 20.558C184.136 20.558 183.554 20.708 183.038 21.008C182.522 21.308 182.12 21.728 181.832 22.268C181.544 22.808 181.4 23.426 181.4 24.122V24.32C181.4 25.04 181.556 25.676 181.868 26.228C182.192 26.768 182.636 27.194 183.2 27.506C183.776 27.806 184.43 27.956 185.162 27.956C185.738 27.956 186.272 27.854 186.764 27.65C187.268 27.446 187.7 27.134 188.06 26.714L188.78 27.542C188.36 28.046 187.832 28.43 187.196 28.694C186.572 28.958 185.882 29.09 185.126 29.09ZM196.914 29V19.55H205.41V29H204.132V20.324L204.456 20.666H197.868L198.192 20.324V29H196.914ZM213.921 29.09C213.105 29.09 212.367 28.904 211.707 28.532C211.047 28.148 210.519 27.602 210.123 26.894C209.739 26.174 209.547 25.298 209.547 24.266C209.547 23.234 209.739 22.364 210.123 21.656C210.507 20.936 211.029 20.39 211.689 20.018C212.349 19.646 213.093 19.46 213.921 19.46C214.821 19.46 215.625 19.664 216.333 20.072C217.053 20.468 217.617 21.032 218.025 21.764C218.433 22.484 218.637 23.318 218.637 24.266C218.637 25.226 218.433 26.066 218.025 26.786C217.617 27.506 217.053 28.07 216.333 28.478C215.625 28.886 214.821 29.09 213.921 29.09ZM209.043 32.492V19.55H210.267V22.394L210.141 24.284L210.321 26.192V32.492H209.043ZM213.831 27.956C214.503 27.956 215.103 27.806 215.631 27.506C216.159 27.194 216.579 26.762 216.891 26.21C217.203 25.646 217.359 24.998 217.359 24.266C217.359 23.534 217.203 22.892 216.891 22.34C216.579 21.788 216.159 21.356 215.631 21.044C215.103 20.732 214.503 20.576 213.831 20.576C213.159 20.576 212.553 20.732 212.013 21.044C211.485 21.356 211.065 21.788 210.753 22.34C210.453 22.892 210.303 23.534 210.303 24.266C210.303 24.998 210.453 25.646 210.753 26.21C211.065 26.762 211.485 27.194 212.013 27.506C212.553 27.806 213.159 27.956 213.831 27.956ZM225.27 29.09C224.358 29.09 223.536 28.886 222.804 28.478C222.084 28.058 221.514 27.488 221.094 26.768C220.674 26.036 220.464 25.202 220.464 24.266C220.464 23.318 220.674 22.484 221.094 21.764C221.514 21.044 222.084 20.48 222.804 20.072C223.524 19.664 224.346 19.46 225.27 19.46C226.206 19.46 227.034 19.664 227.754 20.072C228.486 20.48 229.056 21.044 229.464 21.764C229.884 22.484 230.094 23.318 230.094 24.266C230.094 25.202 229.884 26.036 229.464 26.768C229.056 27.488 228.486 28.058 227.754 28.478C227.022 28.886 226.194 29.09 225.27 29.09ZM225.27 27.956C225.954 27.956 226.56 27.806 227.088 27.506C227.616 27.194 228.03 26.762 228.33 26.21C228.642 25.646 228.798 24.998 228.798 24.266C228.798 23.522 228.642 22.874 228.33 22.322C228.03 21.77 227.616 21.344 227.088 21.044C226.56 20.732 225.96 20.576 225.288 20.576C224.616 20.576 224.016 20.732 223.488 21.044C222.96 21.344 222.54 21.77 222.228 22.322C221.916 22.874 221.76 23.522 221.76 24.266C221.76 24.998 221.916 25.646 222.228 26.21C222.54 26.762 222.96 27.194 223.488 27.506C224.016 27.806 224.61 27.956 225.27 27.956ZM236.876 29.09C235.892 29.09 235.028 28.886 234.284 28.478C233.54 28.058 232.958 27.488 232.538 26.768C232.118 26.036 231.908 25.202 231.908 24.266C231.908 23.33 232.106 22.502 232.502 21.782C232.91 21.062 233.462 20.498 234.158 20.09C234.866 19.67 235.658 19.46 236.534 19.46C237.422 19.46 238.208 19.664 238.892 20.072C239.588 20.468 240.134 21.032 240.53 21.764C240.926 22.484 241.124 23.318 241.124 24.266C241.124 24.326 241.118 24.392 241.106 24.464C241.106 24.524 241.106 24.59 241.106 24.662H232.88V23.708H240.422L239.918 24.086C239.918 23.402 239.768 22.796 239.468 22.268C239.18 21.728 238.784 21.308 238.28 21.008C237.776 20.708 237.194 20.558 236.534 20.558C235.886 20.558 235.304 20.708 234.788 21.008C234.272 21.308 233.87 21.728 233.582 22.268C233.294 22.808 233.15 23.426 233.15 24.122V24.32C233.15 25.04 233.306 25.676 233.618 26.228C233.942 26.768 234.386 27.194 234.95 27.506C235.526 27.806 236.18 27.956 236.912 27.956C237.488 27.956 238.022 27.854 238.514 27.65C239.018 27.446 239.45 27.134 239.81 26.714L240.53 27.542C240.11 28.046 239.582 28.43 238.946 28.694C238.322 28.958 237.632 29.09 236.876 29.09ZM250.883 29L246.995 24.32L248.057 23.69L252.395 29H250.883ZM243.953 29V19.55H245.231V29H243.953ZM244.835 24.788V23.69H247.877V24.788H244.835ZM248.165 24.41L246.977 24.23L250.739 19.55H252.125L248.165 24.41ZM256.018 29V20.324L256.342 20.666H252.436V19.55H260.878V20.666H256.972L257.296 20.324V29H256.018ZM271.942 29V19.55H273.22V29H271.942ZM266.704 22.88C267.892 22.892 268.798 23.156 269.422 23.672C270.046 24.188 270.358 24.932 270.358 25.904C270.358 26.912 270.022 27.686 269.35 28.226C268.678 28.766 267.718 29.03 266.47 29.018L262.726 29V19.55H264.004V22.844L266.704 22.88ZM266.38 28.046C267.268 28.058 267.934 27.884 268.378 27.524C268.834 27.152 269.062 26.612 269.062 25.904C269.062 25.196 268.84 24.68 268.396 24.356C267.952 24.02 267.28 23.846 266.38 23.834L264.004 23.798V28.01L266.38 28.046Z" fill="white"/>
<path d="M344.323 12.0999L351.115 20.2499C351.917 21.2124 351.917 22.7874 351.115 23.7499L344.323 31.8999" stroke="#63B2A4" stroke-width="2" stroke-miterlimit="10" stroke-linecap="round" stroke-linejoin="round"/>
<path d="M25.8889 30H4.11111C2.39289 30 1 31.2692 1 32.8348V52.6783C1 54.244 2.39289 55.5131 4.11111 55.5131H25.8889C27.6072 55.5131 29 54.244 29 52.6783V32.8348C29 31.2692 27.6072 30 25.8889 30Z" stroke="#98EB8D" stroke-width="2" stroke-linecap="round" stroke-linejoin="round"/>
<path d="M7.22266 35.6694H22.7782" stroke="#98EB8D" stroke-width="2" stroke-linecap="round" stroke-linejoin="round"/>
<path d="M7.22266 42.7563H22.7782" stroke="#98EB8D" stroke-width="2" stroke-linecap="round" stroke-linejoin="round"/>
<path d="M7.22266 49.8438H16.556" stroke="#98EB8D" stroke-width="2" stroke-linecap="round" stroke-linejoin="round"/>
<defs>
<linearGradient id="paint0_linear_498_154" x1="9" y1="20.8858" x2="397.269" y2="20.8857" gradientUnits="userSpaceOnUse">
<stop stop-color="#65B7A8"/>
<stop offset="0.614236" stop-color="#254046"/>
<stop offset="1" stop-color="#14222D"/>
</linearGradient>
</defs>
</svg>
