<svg width="154" height="87" viewBox="0 0 154 87" fill="none" xmlns="http://www.w3.org/2000/svg">
<g clip-path="url(#clip0_362_492)">
<rect width="154" height="87" fill="#1B2D3B"/>
<path d="M0.5 0.5H134C144.77 0.5 153.5 9.23045 153.5 20V86.5H20C9.23045 86.5 0.5 77.7695 0.5 67V0.5Z" stroke="white"/>
<path d="M70.36 49.09C69.57 49.09 68.84 48.96 68.17 48.7C67.5 48.43 66.92 48.055 66.43 47.575C65.94 47.095 65.555 46.53 65.275 45.88C65.005 45.23 64.87 44.52 64.87 43.75C64.87 42.98 65.005 42.27 65.275 41.62C65.555 40.97 65.94 40.405 66.43 39.925C66.93 39.445 67.515 39.075 68.185 38.815C68.855 38.545 69.585 38.41 70.375 38.41C71.135 38.41 71.85 38.54 72.52 38.8C73.19 39.05 73.755 39.43 74.215 39.94L73.51 40.645C73.08 40.205 72.605 39.89 72.085 39.7C71.565 39.5 71.005 39.4 70.405 39.4C69.775 39.4 69.19 39.51 68.65 39.73C68.11 39.94 67.64 40.245 67.24 40.645C66.84 41.035 66.525 41.495 66.295 42.025C66.075 42.545 65.965 43.12 65.965 43.75C65.965 44.38 66.075 44.96 66.295 45.49C66.525 46.01 66.84 46.47 67.24 46.87C67.64 47.26 68.11 47.565 68.65 47.785C69.19 47.995 69.775 48.1 70.405 48.1C71.005 48.1 71.565 48 72.085 47.8C72.605 47.6 73.08 47.28 73.51 46.84L74.215 47.545C73.755 48.055 73.19 48.44 72.52 48.7C71.85 48.96 71.13 49.09 70.36 49.09ZM77.5326 49V41.77L77.8026 42.055H74.5476V41.125H81.5826V42.055H78.3276L78.5976 41.77V49H77.5326ZM88.0124 49V47.26L87.9674 46.975V44.065C87.9674 43.395 87.7774 42.88 87.3974 42.52C87.0274 42.16 86.4724 41.98 85.7324 41.98C85.2224 41.98 84.7374 42.065 84.2774 42.235C83.8174 42.405 83.4274 42.63 83.1074 42.91L82.6274 42.115C83.0274 41.775 83.5074 41.515 84.0674 41.335C84.6274 41.145 85.2174 41.05 85.8374 41.05C86.8574 41.05 87.6424 41.305 88.1924 41.815C88.7524 42.315 89.0324 43.08 89.0324 44.11V49H88.0124ZM85.2974 49.075C84.7074 49.075 84.1924 48.98 83.7524 48.79C83.3224 48.59 82.9924 48.32 82.7624 47.98C82.5324 47.63 82.4174 47.23 82.4174 46.78C82.4174 46.37 82.5124 46 82.7024 45.67C82.9024 45.33 83.2224 45.06 83.6624 44.86C84.1124 44.65 84.7124 44.545 85.4624 44.545H88.1774V45.34H85.4924C84.7324 45.34 84.2024 45.475 83.9024 45.745C83.6124 46.015 83.4674 46.35 83.4674 46.75C83.4674 47.2 83.6424 47.56 83.9924 47.83C84.3424 48.1 84.8324 48.235 85.4624 48.235C86.0624 48.235 86.5774 48.1 87.0074 47.83C87.4474 47.55 87.7674 47.15 87.9674 46.63L88.2074 47.365C88.0074 47.885 87.6574 48.3 87.1574 48.61C86.6674 48.92 86.0474 49.075 85.2974 49.075ZM95.9325 49.075C95.2525 49.075 94.6375 48.92 94.0875 48.61C93.5375 48.29 93.0975 47.835 92.7675 47.245C92.4475 46.645 92.2875 45.915 92.2875 45.055C92.2875 44.195 92.4475 43.47 92.7675 42.88C93.0875 42.28 93.5225 41.825 94.0725 41.515C94.6225 41.205 95.2425 41.05 95.9325 41.05C96.6825 41.05 97.3525 41.22 97.9425 41.56C98.5425 41.89 99.0125 42.36 99.3525 42.97C99.6925 43.57 99.8625 44.265 99.8625 45.055C99.8625 45.855 99.6925 46.555 99.3525 47.155C99.0125 47.755 98.5425 48.225 97.9425 48.565C97.3525 48.905 96.6825 49.075 95.9325 49.075ZM91.8675 51.91V41.125H92.8875V43.495L92.7825 45.07L92.9325 46.66V51.91H91.8675ZM95.8575 48.13C96.4175 48.13 96.9175 48.005 97.3575 47.755C97.7975 47.495 98.1475 47.135 98.4075 46.675C98.6675 46.205 98.7975 45.665 98.7975 45.055C98.7975 44.445 98.6675 43.91 98.4075 43.45C98.1475 42.99 97.7975 42.63 97.3575 42.37C96.9175 42.11 96.4175 41.98 95.8575 41.98C95.2975 41.98 94.7925 42.11 94.3425 42.37C93.9025 42.63 93.5525 42.99 93.2925 43.45C93.0425 43.91 92.9175 44.445 92.9175 45.055C92.9175 45.665 93.0425 46.205 93.2925 46.675C93.5525 47.135 93.9025 47.495 94.3425 47.755C94.7925 48.005 95.2975 48.13 95.8575 48.13ZM103.358 49V41.77L103.628 42.055H100.373V41.125H107.408V42.055H104.153L104.423 41.77V49H103.358ZM113.838 49V47.26L113.793 46.975V44.065C113.793 43.395 113.603 42.88 113.223 42.52C112.853 42.16 112.298 41.98 111.558 41.98C111.048 41.98 110.563 42.065 110.103 42.235C109.643 42.405 109.253 42.63 108.933 42.91L108.453 42.115C108.853 41.775 109.333 41.515 109.893 41.335C110.453 41.145 111.043 41.05 111.663 41.05C112.683 41.05 113.468 41.305 114.018 41.815C114.578 42.315 114.858 43.08 114.858 44.11V49H113.838ZM111.123 49.075C110.533 49.075 110.018 48.98 109.578 48.79C109.148 48.59 108.818 48.32 108.588 47.98C108.358 47.63 108.243 47.23 108.243 46.78C108.243 46.37 108.338 46 108.528 45.67C108.728 45.33 109.048 45.06 109.488 44.86C109.938 44.65 110.538 44.545 111.288 44.545H114.003V45.34H111.318C110.558 45.34 110.028 45.475 109.728 45.745C109.438 46.015 109.293 46.35 109.293 46.75C109.293 47.2 109.468 47.56 109.818 47.83C110.168 48.1 110.658 48.235 111.288 48.235C111.888 48.235 112.403 48.1 112.833 47.83C113.273 47.55 113.593 47.15 113.793 46.63L114.033 47.365C113.833 47.885 113.483 48.3 112.983 48.61C112.493 48.92 111.873 49.075 111.123 49.075ZM117.693 49V41.125H124.773V49H123.708V41.77L123.978 42.055H118.488L118.758 41.77V49H117.693Z" fill="white"/>
<path d="M40.4502 44.4124C40.4502 45.4292 41.2752 46.2468 42.2872 46.2468H44.3552C45.2352 46.2468 45.9502 45.534 45.9502 44.643C45.9502 43.6892 45.5102 43.3433 44.8612 43.1231L41.5502 42.0225C40.9012 41.8024 40.4612 41.467 40.4612 40.5027C40.4612 39.6222 41.1762 38.8989 42.0562 38.8989H44.1242C45.1362 38.8989 45.9612 39.7165 45.9612 40.7333" stroke="white" stroke-width="1.5" stroke-linecap="round" stroke-linejoin="round"/>
<path d="M43.2002 37.8613V47.2951" stroke="white" stroke-width="1.5" stroke-linecap="round" stroke-linejoin="round"/>
<path d="M54.2002 42.5781C54.2002 48.3641 49.2722 53.06 43.2002 53.06C37.1282 53.06 32.2002 48.3641 32.2002 42.5781C32.2002 36.7921 37.1282 32.0962 43.2002 32.0962" stroke="white" stroke-width="1.5" stroke-linecap="round" stroke-linejoin="round"/>
<path d="M48.7002 33.1445V37.3373H53.1002" stroke="white" stroke-width="1.5" stroke-linecap="round" stroke-linejoin="round"/>
<path d="M54.2002 32.0962L48.7002 37.3372" stroke="white" stroke-width="1.5" stroke-linecap="round" stroke-linejoin="round"/>
</g>
<defs>
<clipPath id="clip0_362_492">
<rect width="154" height="87" fill="white"/>
</clipPath>
</defs>
</svg>
