<svg width="42" height="42" viewBox="0 0 42 42" fill="none" xmlns="http://www.w3.org/2000/svg">
<path d="M29.1667 12.7881V5.19405C29.1667 3.38905 29.1667 2.48655 28.7871 1.93193C28.4554 1.44735 27.9417 1.11817 27.3635 1.01961C26.7016 0.906805 25.8835 1.285 24.2473 2.0414L5.02786 10.9261C3.5686 11.6007 2.83896 11.938 2.30456 12.4611C1.83213 12.9236 1.4715 13.4881 1.25026 14.1115C1 14.8168 1 15.6216 1 17.2314V27.9791M30.25 26.8941H30.2717M1 19.7326L1 34.0555C1 36.4863 1 37.7017 1.4723 38.6302C1.88776 39.4468 2.55067 40.1108 3.36604 40.5269C4.29299 41 5.50644 41 7.93333 41H33.0667C35.4936 41 36.707 41 37.634 40.5269C38.4493 40.1108 39.1122 39.4468 39.5277 38.6302C40 37.7017 40 36.4863 40 34.0555V19.7326C40 17.3018 40 16.0864 39.5277 15.158C39.1122 14.3413 38.4493 13.6773 37.634 13.2612C36.707 12.7881 35.4936 12.7881 33.0667 12.7881L7.93334 12.7881C5.50644 12.7881 4.29299 12.7881 3.36604 13.2612C2.55067 13.6773 1.88776 14.3413 1.47231 15.158C1 16.0864 1 17.3018 1 19.7326ZM31.3333 26.8941C31.3333 27.4933 30.8483 27.9791 30.25 27.9791C29.6517 27.9791 29.1667 27.4933 29.1667 26.8941C29.1667 26.2948 29.6517 25.809 30.25 25.809C30.8483 25.809 31.3333 26.2948 31.3333 26.8941Z" stroke="white" stroke-width="2" stroke-linecap="round" stroke-linejoin="round"/>
</svg>
