<svg width="170" height="17" viewBox="0 0 170 17" fill="none" xmlns="http://www.w3.org/2000/svg">
<path d="M6.632 13.108C5.684 13.108 4.808 12.952 4.004 12.64C3.2 12.316 2.504 11.866 1.916 11.29C1.328 10.714 0.866 10.036 0.53 9.256C0.206 8.476 0.044 7.624 0.044 6.7C0.044 5.776 0.206 4.924 0.53 4.144C0.866 3.364 1.328 2.686 1.916 2.11C2.516 1.534 3.218 1.09 4.022 0.778C4.826 0.454 5.702 0.291999 6.65 0.291999C7.562 0.291999 8.42 0.448 9.224 0.76C10.028 1.06 10.706 1.516 11.258 2.128L10.412 2.974C9.896 2.446 9.326 2.068 8.702 1.84C8.078 1.6 7.406 1.48 6.686 1.48C5.93 1.48 5.228 1.612 4.58 1.876C3.932 2.128 3.368 2.494 2.888 2.974C2.408 3.442 2.03 3.994 1.754 4.63C1.49 5.254 1.358 5.944 1.358 6.7C1.358 7.456 1.49 8.152 1.754 8.788C2.03 9.412 2.408 9.964 2.888 10.444C3.368 10.912 3.932 11.278 4.58 11.542C5.228 11.794 5.93 11.92 6.686 11.92C7.406 11.92 8.078 11.8 8.702 11.56C9.326 11.32 9.896 10.936 10.412 10.408L11.258 11.254C10.706 11.866 10.028 12.328 9.224 12.64C8.42 12.952 7.556 13.108 6.632 13.108ZM17.1689 13.09C16.2569 13.09 15.4349 12.886 14.7029 12.478C13.9829 12.058 13.4129 11.488 12.9929 10.768C12.5729 10.036 12.3629 9.202 12.3629 8.266C12.3629 7.318 12.5729 6.484 12.9929 5.764C13.4129 5.044 13.9829 4.48 14.7029 4.072C15.4229 3.664 16.2449 3.46 17.1689 3.46C18.1049 3.46 18.9329 3.664 19.6529 4.072C20.3849 4.48 20.9549 5.044 21.3629 5.764C21.7829 6.484 21.9929 7.318 21.9929 8.266C21.9929 9.202 21.7829 10.036 21.3629 10.768C20.9549 11.488 20.3849 12.058 19.6529 12.478C18.9209 12.886 18.0929 13.09 17.1689 13.09ZM17.1689 11.956C17.8529 11.956 18.4589 11.806 18.9869 11.506C19.5149 11.194 19.9289 10.762 20.2289 10.21C20.5409 9.646 20.6969 8.998 20.6969 8.266C20.6969 7.522 20.5409 6.874 20.2289 6.322C19.9289 5.77 19.5149 5.344 18.9869 5.044C18.4589 4.732 17.8589 4.576 17.1869 4.576C16.5149 4.576 15.9149 4.732 15.3869 5.044C14.8589 5.344 14.4389 5.77 14.1269 6.322C13.8149 6.874 13.6589 7.522 13.6589 8.266C13.6589 8.998 13.8149 9.646 14.1269 10.21C14.4389 10.762 14.8589 11.194 15.3869 11.506C15.9149 11.806 16.5089 11.956 17.1689 11.956ZM27.1919 13.108C26.5079 13.108 25.8299 13.012 25.1579 12.82C24.4859 12.628 23.8919 12.334 23.3759 11.938L23.7899 10.984C24.2459 11.32 24.7739 11.578 25.3739 11.758C25.9739 11.926 26.5679 12.01 27.1559 12.01C27.7439 11.998 28.2539 11.914 28.6859 11.758C29.1179 11.602 29.4539 11.386 29.6939 11.11C29.9339 10.834 30.0539 10.522 30.0539 10.174C30.0539 9.67 29.8259 9.28 29.3699 9.004C28.9139 8.716 28.2899 8.572 27.4979 8.572H25.8779V7.636H27.4079C27.8759 7.636 28.2899 7.576 28.6499 7.456C29.0099 7.336 29.2859 7.162 29.4779 6.934C29.6819 6.706 29.7839 6.436 29.7839 6.124C29.7839 5.788 29.6639 5.5 29.4239 5.26C29.1959 5.02 28.8779 4.84 28.4699 4.72C28.0619 4.6 27.5999 4.54 27.0839 4.54C26.6159 4.552 26.1299 4.624 25.6259 4.756C25.1219 4.876 24.6239 5.062 24.1319 5.314L23.7719 4.324C24.3239 4.036 24.8699 3.82 25.4099 3.676C25.9619 3.52 26.5139 3.442 27.0659 3.442C27.8219 3.418 28.4999 3.508 29.0999 3.712C29.7119 3.916 30.1979 4.21 30.5579 4.594C30.9179 4.966 31.0979 5.416 31.0979 5.944C31.0979 6.412 30.9539 6.82 30.6659 7.168C30.3779 7.516 29.9939 7.786 29.5139 7.978C29.0339 8.17 28.4879 8.266 27.8759 8.266L27.9299 7.924C29.0099 7.924 29.8499 8.134 30.4499 8.554C31.0619 8.974 31.3679 9.544 31.3679 10.264C31.3679 10.828 31.1819 11.326 30.8099 11.758C30.4379 12.178 29.9339 12.508 29.2979 12.748C28.6739 12.988 27.9719 13.108 27.1919 13.108ZM40.7492 12.388V4.666H36.1952L36.0872 6.772C36.0632 7.408 36.0212 8.032 35.9612 8.644C35.9132 9.256 35.8232 9.82 35.6912 10.336C35.5712 10.84 35.3972 11.254 35.1692 11.578C34.9412 11.89 34.6472 12.07 34.2872 12.118L33.0092 11.884C33.3812 11.896 33.6872 11.764 33.9272 11.488C34.1672 11.2 34.3532 10.81 34.4852 10.318C34.6172 9.826 34.7132 9.268 34.7732 8.644C34.8332 8.008 34.8812 7.36 34.9172 6.7L35.0432 3.55H42.0272V12.388H40.7492ZM32.6132 15.286V11.884H43.5032V15.286H42.2972V13H33.8192V15.286H32.6132ZM51.8618 13V10.912L51.8078 10.57V7.078C51.8078 6.274 51.5798 5.656 51.1238 5.224C50.6798 4.792 50.0138 4.576 49.1258 4.576C48.5138 4.576 47.9318 4.678 47.3798 4.882C46.8278 5.086 46.3598 5.356 45.9758 5.692L45.3998 4.738C45.8798 4.33 46.4558 4.018 47.1278 3.802C47.7998 3.574 48.5078 3.46 49.2518 3.46C50.4758 3.46 51.4178 3.766 52.0778 4.378C52.7498 4.978 53.0858 5.896 53.0858 7.132V13H51.8618ZM48.6038 13.09C47.8958 13.09 47.2778 12.976 46.7498 12.748C46.2338 12.508 45.8378 12.184 45.5618 11.776C45.2858 11.356 45.1478 10.876 45.1478 10.336C45.1478 9.844 45.2618 9.4 45.4898 9.004C45.7298 8.596 46.1138 8.272 46.6418 8.032C47.1818 7.78 47.9018 7.654 48.8018 7.654H52.0598V8.608H48.8378C47.9258 8.608 47.2898 8.77 46.9298 9.094C46.5818 9.418 46.4078 9.82 46.4078 10.3C46.4078 10.84 46.6178 11.272 47.0378 11.596C47.4578 11.92 48.0458 12.082 48.8018 12.082C49.5218 12.082 50.1398 11.92 50.6558 11.596C51.1838 11.26 51.5678 10.78 51.8078 10.156L52.0958 11.038C51.8558 11.662 51.4358 12.16 50.8358 12.532C50.2478 12.904 49.5038 13.09 48.6038 13.09ZM56.4879 13V3.55H57.7659V7.726H63.7239V3.55H65.0019V13H63.7239V8.824H57.7659V13H56.4879ZM68.6344 13V3.55H69.9124V11.056L76.2304 3.55H77.3644V13H76.0864V5.476L69.7864 13H68.6344ZM85.077 13.09C84.093 13.09 83.229 12.886 82.485 12.478C81.741 12.058 81.159 11.488 80.739 10.768C80.319 10.036 80.109 9.202 80.109 8.266C80.109 7.33 80.307 6.502 80.703 5.782C81.111 5.062 81.663 4.498 82.359 4.09C83.067 3.67 83.859 3.46 84.735 3.46C85.623 3.46 86.409 3.664 87.093 4.072C87.789 4.468 88.335 5.032 88.731 5.764C89.127 6.484 89.325 7.318 89.325 8.266C89.325 8.326 89.319 8.392 89.307 8.464C89.307 8.524 89.307 8.59 89.307 8.662H81.081V7.708H88.623L88.119 8.086C88.119 7.402 87.969 6.796 87.669 6.268C87.381 5.728 86.985 5.308 86.481 5.008C85.977 4.708 85.395 4.558 84.735 4.558C84.087 4.558 83.505 4.708 82.989 5.008C82.473 5.308 82.071 5.728 81.783 6.268C81.495 6.808 81.351 7.426 81.351 8.122V8.32C81.351 9.04 81.507 9.676 81.819 10.228C82.143 10.768 82.587 11.194 83.151 11.506C83.727 11.806 84.381 11.956 85.113 11.956C85.689 11.956 86.223 11.854 86.715 11.65C87.219 11.446 87.651 11.134 88.011 10.714L88.731 11.542C88.311 12.046 87.783 12.43 87.147 12.694C86.523 12.958 85.833 13.09 85.077 13.09ZM96.8649 13V3.55H105.361V13H104.083V4.324L104.407 4.666H97.8189L98.1429 4.324V13H96.8649ZM113.872 13.09C113.056 13.09 112.318 12.904 111.658 12.532C110.998 12.148 110.47 11.602 110.074 10.894C109.69 10.174 109.498 9.298 109.498 8.266C109.498 7.234 109.69 6.364 110.074 5.656C110.458 4.936 110.98 4.39 111.64 4.018C112.3 3.646 113.044 3.46 113.872 3.46C114.772 3.46 115.576 3.664 116.284 4.072C117.004 4.468 117.568 5.032 117.976 5.764C118.384 6.484 118.588 7.318 118.588 8.266C118.588 9.226 118.384 10.066 117.976 10.786C117.568 11.506 117.004 12.07 116.284 12.478C115.576 12.886 114.772 13.09 113.872 13.09ZM108.994 16.492V3.55H110.218V6.394L110.092 8.284L110.272 10.192V16.492H108.994ZM113.782 11.956C114.454 11.956 115.054 11.806 115.582 11.506C116.11 11.194 116.53 10.762 116.842 10.21C117.154 9.646 117.31 8.998 117.31 8.266C117.31 7.534 117.154 6.892 116.842 6.34C116.53 5.788 116.11 5.356 115.582 5.044C115.054 4.732 114.454 4.576 113.782 4.576C113.11 4.576 112.504 4.732 111.964 5.044C111.436 5.356 111.016 5.788 110.704 6.34C110.404 6.892 110.254 7.534 110.254 8.266C110.254 8.998 110.404 9.646 110.704 10.21C111.016 10.762 111.436 11.194 111.964 11.506C112.504 11.806 113.11 11.956 113.782 11.956ZM125.222 13.09C124.31 13.09 123.488 12.886 122.756 12.478C122.036 12.058 121.466 11.488 121.046 10.768C120.626 10.036 120.416 9.202 120.416 8.266C120.416 7.318 120.626 6.484 121.046 5.764C121.466 5.044 122.036 4.48 122.756 4.072C123.476 3.664 124.298 3.46 125.222 3.46C126.158 3.46 126.986 3.664 127.706 4.072C128.438 4.48 129.008 5.044 129.416 5.764C129.836 6.484 130.046 7.318 130.046 8.266C130.046 9.202 129.836 10.036 129.416 10.768C129.008 11.488 128.438 12.058 127.706 12.478C126.974 12.886 126.146 13.09 125.222 13.09ZM125.222 11.956C125.906 11.956 126.512 11.806 127.04 11.506C127.568 11.194 127.982 10.762 128.282 10.21C128.594 9.646 128.75 8.998 128.75 8.266C128.75 7.522 128.594 6.874 128.282 6.322C127.982 5.77 127.568 5.344 127.04 5.044C126.512 4.732 125.912 4.576 125.24 4.576C124.568 4.576 123.968 4.732 123.44 5.044C122.912 5.344 122.492 5.77 122.18 6.322C121.868 6.874 121.712 7.522 121.712 8.266C121.712 8.998 121.868 9.646 122.18 10.21C122.492 10.762 122.912 11.194 123.44 11.506C123.968 11.806 124.562 11.956 125.222 11.956ZM136.827 13.09C135.843 13.09 134.979 12.886 134.235 12.478C133.491 12.058 132.909 11.488 132.489 10.768C132.069 10.036 131.859 9.202 131.859 8.266C131.859 7.33 132.057 6.502 132.453 5.782C132.861 5.062 133.413 4.498 134.109 4.09C134.817 3.67 135.609 3.46 136.485 3.46C137.373 3.46 138.159 3.664 138.843 4.072C139.539 4.468 140.085 5.032 140.481 5.764C140.877 6.484 141.075 7.318 141.075 8.266C141.075 8.326 141.069 8.392 141.057 8.464C141.057 8.524 141.057 8.59 141.057 8.662H132.831V7.708H140.373L139.869 8.086C139.869 7.402 139.719 6.796 139.419 6.268C139.131 5.728 138.735 5.308 138.231 5.008C137.727 4.708 137.145 4.558 136.485 4.558C135.837 4.558 135.255 4.708 134.739 5.008C134.223 5.308 133.821 5.728 133.533 6.268C133.245 6.808 133.101 7.426 133.101 8.122V8.32C133.101 9.04 133.257 9.676 133.569 10.228C133.893 10.768 134.337 11.194 134.901 11.506C135.477 11.806 136.131 11.956 136.863 11.956C137.439 11.956 137.973 11.854 138.465 11.65C138.969 11.446 139.401 11.134 139.761 10.714L140.481 11.542C140.061 12.046 139.533 12.43 138.897 12.694C138.273 12.958 137.583 13.09 136.827 13.09ZM150.834 13L146.946 8.32L148.008 7.69L152.346 13H150.834ZM143.904 13V3.55H145.182V13H143.904ZM144.786 8.788V7.69H147.828V8.788H144.786ZM148.116 8.41L146.928 8.23L150.69 3.55H152.076L148.116 8.41ZM155.97 13V4.324L156.294 4.666H152.388V3.55H160.83V4.666H156.924L157.248 4.324V13H155.97ZM168.545 13V10.912L168.491 10.57V7.078C168.491 6.274 168.263 5.656 167.807 5.224C167.363 4.792 166.697 4.576 165.809 4.576C165.197 4.576 164.615 4.678 164.063 4.882C163.511 5.086 163.043 5.356 162.659 5.692L162.083 4.738C162.563 4.33 163.139 4.018 163.811 3.802C164.483 3.574 165.191 3.46 165.935 3.46C167.159 3.46 168.101 3.766 168.761 4.378C169.433 4.978 169.769 5.896 169.769 7.132V13H168.545ZM165.287 13.09C164.579 13.09 163.961 12.976 163.433 12.748C162.917 12.508 162.521 12.184 162.245 11.776C161.969 11.356 161.831 10.876 161.831 10.336C161.831 9.844 161.945 9.4 162.173 9.004C162.413 8.596 162.797 8.272 163.325 8.032C163.865 7.78 164.585 7.654 165.485 7.654H168.743V8.608H165.521C164.609 8.608 163.973 8.77 163.613 9.094C163.265 9.418 163.091 9.82 163.091 10.3C163.091 10.84 163.301 11.272 163.721 11.596C164.141 11.92 164.729 12.082 165.485 12.082C166.205 12.082 166.823 11.92 167.339 11.596C167.867 11.26 168.251 10.78 168.491 10.156L168.779 11.038C168.539 11.662 168.119 12.16 167.519 12.532C166.931 12.904 166.187 13.09 165.287 13.09Z" fill="white"/>
</svg>
