<svg width="190" height="50" viewBox="0 0 190 50" fill="none" xmlns="http://www.w3.org/2000/svg">
<g clip-path="url(#clip0_288_528)">
<path d="M0 0H140C158.692 0 168.038 0 175 4.01924C179.561 6.65229 183.348 10.4394 185.981 15C190 21.9615 190 31.3077 190 50V50H50C31.3077 50 21.9615 50 15 45.9808C10.4394 43.3477 6.65229 39.5606 4.01924 35C0 28.0385 0 18.6923 0 0V0Z" fill="url(#paint0_linear_288_528)"/>
<path d="M39.392 30V18.8H44.24C45.2427 18.8 46.1067 18.9653 46.832 19.296C47.5573 19.616 48.1173 20.08 48.512 20.688C48.9067 21.296 49.104 22.0213 49.104 22.864C49.104 23.696 48.9067 24.416 48.512 25.024C48.1173 25.632 47.5573 26.1013 46.832 26.432C46.1067 26.752 45.2427 26.912 44.24 26.912H40.832L41.984 25.744V30H39.392ZM41.984 26.032L40.832 24.8H44.096C44.896 24.8 45.4933 24.6293 45.888 24.288C46.2827 23.9467 46.48 23.472 46.48 22.864C46.48 22.2453 46.2827 21.7653 45.888 21.424C45.4933 21.0827 44.896 20.912 44.096 20.912H40.832L41.984 19.68V26.032ZM54.8143 30.128C53.8329 30.128 52.9689 29.936 52.2223 29.552C51.4863 29.168 50.9156 28.6453 50.5103 27.984C50.1049 27.312 49.9023 26.5493 49.9023 25.696C49.9023 24.832 50.0996 24.0693 50.4943 23.408C50.8996 22.736 51.4489 22.2133 52.1423 21.84C52.8356 21.456 53.6196 21.264 54.4943 21.264C55.3369 21.264 56.0943 21.4453 56.7663 21.808C57.4489 22.16 57.9876 22.672 58.3823 23.344C58.7769 24.0053 58.9743 24.8 58.9743 25.728C58.9743 25.824 58.9689 25.936 58.9583 26.064C58.9476 26.1813 58.9369 26.2933 58.9263 26.4H51.9343V24.944H57.6143L56.6543 25.376C56.6543 24.928 56.5636 24.5387 56.3823 24.208C56.2009 23.8773 55.9503 23.6213 55.6303 23.44C55.3103 23.248 54.9369 23.152 54.5103 23.152C54.0836 23.152 53.7049 23.248 53.3743 23.44C53.0543 23.6213 52.8036 23.8827 52.6223 24.224C52.4409 24.5547 52.3503 24.9493 52.3503 25.408V25.792C52.3503 26.2613 52.4516 26.6773 52.6543 27.04C52.8676 27.392 53.1609 27.664 53.5343 27.856C53.9183 28.0373 54.3663 28.128 54.8783 28.128C55.3369 28.128 55.7369 28.0587 56.0783 27.92C56.4303 27.7813 56.7503 27.5733 57.0383 27.296L58.3663 28.736C57.9716 29.184 57.4756 29.5307 56.8783 29.776C56.2809 30.0107 55.5929 30.128 54.8143 30.128ZM60.8875 30V21.392H67.7835V23.44H62.8075L63.3675 22.896V30H60.8875ZM69.1063 30V21.392H71.5863V26.512L75.7783 21.392H78.0663V30H75.5863V24.88L71.4103 30H69.1063ZM84.5616 30.128C83.6336 30.128 82.807 29.9413 82.0816 29.568C81.3563 29.184 80.7856 28.656 80.3696 27.984C79.9643 27.312 79.7616 26.5493 79.7616 25.696C79.7616 24.832 79.9643 24.0693 80.3696 23.408C80.7856 22.736 81.3563 22.2133 82.0816 21.84C82.807 21.456 83.6336 21.264 84.5616 21.264C85.4683 21.264 86.2576 21.456 86.9296 21.84C87.6016 22.2133 88.0976 22.752 88.4176 23.456L86.4816 24.496C86.2576 24.0907 85.975 23.792 85.6336 23.6C85.303 23.408 84.9403 23.312 84.5456 23.312C84.119 23.312 83.735 23.408 83.3936 23.6C83.0523 23.792 82.7803 24.064 82.5776 24.416C82.3856 24.768 82.2896 25.1947 82.2896 25.696C82.2896 26.1973 82.3856 26.624 82.5776 26.976C82.7803 27.328 83.0523 27.6 83.3936 27.792C83.735 27.984 84.119 28.08 84.5456 28.08C84.9403 28.08 85.303 27.9893 85.6336 27.808C85.975 27.616 86.2576 27.312 86.4816 26.896L88.4176 27.952C88.0976 28.6453 87.6016 29.184 86.9296 29.568C86.2576 29.9413 85.4683 30.128 84.5616 30.128ZM91.7588 30V22.864L92.3188 23.44H88.8468V21.392H97.1508V23.44H93.6788L94.2388 22.864V30H91.7588ZM103.553 30.128C102.828 30.128 102.193 29.968 101.649 29.648C101.105 29.328 100.679 28.8427 100.369 28.192C100.071 27.5307 99.9213 26.6987 99.9213 25.696C99.9213 24.6827 100.065 23.8507 100.353 23.2C100.641 22.5493 101.057 22.064 101.601 21.744C102.145 21.424 102.796 21.264 103.553 21.264C104.364 21.264 105.089 21.4507 105.729 21.824C106.38 22.1867 106.892 22.6987 107.265 23.36C107.649 24.0213 107.841 24.8 107.841 25.696C107.841 26.6027 107.649 27.3867 107.265 28.048C106.892 28.7093 106.38 29.2213 105.729 29.584C105.089 29.9467 104.364 30.128 103.553 30.128ZM98.4653 33.104V21.392H100.849V23.152L100.801 25.712L100.961 28.256V33.104H98.4653ZM103.121 28.08C103.537 28.08 103.905 27.984 104.225 27.792C104.556 27.6 104.817 27.328 105.009 26.976C105.212 26.6133 105.313 26.1867 105.313 25.696C105.313 25.1947 105.212 24.768 105.009 24.416C104.817 24.064 104.556 23.792 104.225 23.6C103.905 23.408 103.537 23.312 103.121 23.312C102.705 23.312 102.332 23.408 102.001 23.6C101.671 23.792 101.409 24.064 101.217 24.416C101.025 24.768 100.929 25.1947 100.929 25.696C100.929 26.1867 101.025 26.6133 101.217 26.976C101.409 27.328 101.671 27.6 102.001 27.792C102.332 27.984 102.705 28.08 103.121 28.08ZM114.602 30V28.32L114.442 27.952V24.944C114.442 24.4107 114.277 23.9947 113.946 23.696C113.626 23.3973 113.13 23.248 112.458 23.248C111.999 23.248 111.546 23.3227 111.098 23.472C110.661 23.6107 110.287 23.8027 109.978 24.048L109.082 22.304C109.551 21.9733 110.117 21.7173 110.778 21.536C111.439 21.3547 112.111 21.264 112.794 21.264C114.106 21.264 115.125 21.5733 115.85 22.192C116.575 22.8107 116.938 23.776 116.938 25.088V30H114.602ZM111.978 30.128C111.306 30.128 110.73 30.016 110.25 29.792C109.77 29.5573 109.402 29.2427 109.146 28.848C108.89 28.4533 108.762 28.0107 108.762 27.52C108.762 27.008 108.885 26.56 109.13 26.176C109.386 25.792 109.786 25.4933 110.33 25.28C110.874 25.056 111.583 24.944 112.458 24.944H114.746V26.4H112.73C112.143 26.4 111.738 26.496 111.514 26.688C111.301 26.88 111.194 27.12 111.194 27.408C111.194 27.728 111.317 27.984 111.562 28.176C111.818 28.3573 112.165 28.448 112.602 28.448C113.018 28.448 113.391 28.352 113.722 28.16C114.053 27.9573 114.293 27.664 114.442 27.28L114.826 28.432C114.645 28.9867 114.314 29.408 113.834 29.696C113.354 29.984 112.735 30.128 111.978 30.128ZM119.106 30V21.392H121.586V27.952H125.058V21.392H127.554V30H119.106ZM126.482 31.856V29.968L127.058 30H125.058V27.952H128.802V31.856H126.482ZM130.372 30V21.392H132.852V26.512L137.044 21.392H139.332V30H136.852V24.88L132.676 30H130.372ZM147.155 30V27.136L147.507 27.536H145.123C143.886 27.536 142.915 27.28 142.211 26.768C141.507 26.256 141.155 25.52 141.155 24.56C141.155 23.536 141.523 22.752 142.259 22.208C143.006 21.664 144.009 21.392 145.267 21.392H149.379V30H147.155ZM141.027 30L143.315 26.72H145.859L143.683 30H141.027ZM147.155 26.368V22.784L147.507 23.424H145.315C144.803 23.424 144.403 23.52 144.115 23.712C143.838 23.904 143.699 24.2133 143.699 24.64C143.699 25.4613 144.227 25.872 145.283 25.872H147.507L147.155 26.368Z" fill="white"/>
</g>
<defs>
<linearGradient id="paint0_linear_288_528" x1="0" y1="25" x2="190" y2="25" gradientUnits="userSpaceOnUse">
<stop stop-color="#9BEC8B"/>
<stop offset="1" stop-color="#24B8B1"/>
</linearGradient>
<clipPath id="clip0_288_528">
<path d="M0 0H140C158.692 0 168.038 0 175 4.01924C179.561 6.65229 183.348 10.4394 185.981 15C190 21.9615 190 31.3077 190 50V50H50C31.3077 50 21.9615 50 15 45.9808C10.4394 43.3477 6.65229 39.5606 4.01924 35C0 28.0385 0 18.6923 0 0V0Z" fill="white"/>
</clipPath>
</defs>
</svg>
