<svg width="370" height="51" viewBox="0 0 370 51" fill="none" xmlns="http://www.w3.org/2000/svg">
<rect x="10" y="8" width="360" height="43" rx="8" fill="url(#paint0_linear_362_722)"/>
<path d="M52.6 24H54.06V38H52.6V24ZM43.84 38H42.36V24H43.84V38ZM52.74 31.54H43.68V30.24H52.74V31.54ZM64.9658 38V35.68L64.9058 35.3V31.42C64.9058 30.5267 64.6524 29.84 64.1458 29.36C63.6524 28.88 62.9124 28.64 61.9258 28.64C61.2458 28.64 60.5991 28.7533 59.9858 28.98C59.3724 29.2067 58.8524 29.5067 58.4258 29.88L57.7858 28.82C58.3191 28.3667 58.9591 28.02 59.7058 27.78C60.4524 27.5267 61.2391 27.4 62.0658 27.4C63.4258 27.4 64.4724 27.74 65.2058 28.42C65.9524 29.0867 66.3258 30.1067 66.3258 31.48V38H64.9658ZM61.3458 38.1C60.5591 38.1 59.8724 37.9733 59.2858 37.72C58.7124 37.4533 58.2724 37.0933 57.9658 36.64C57.6591 36.1733 57.5058 35.64 57.5058 35.04C57.5058 34.4933 57.6324 34 57.8858 33.56C58.1524 33.1067 58.5791 32.7467 59.1658 32.48C59.7658 32.2 60.5658 32.06 61.5658 32.06H65.1858V33.12H61.6058C60.5924 33.12 59.8858 33.3 59.4858 33.66C59.0991 34.02 58.9058 34.4667 58.9058 35C58.9058 35.6 59.1391 36.08 59.6058 36.44C60.0724 36.8 60.7258 36.98 61.5658 36.98C62.3658 36.98 63.0524 36.8 63.6258 36.44C64.2124 36.0667 64.6391 35.5333 64.9058 34.84L65.2258 35.82C64.9591 36.5133 64.4924 37.0667 63.8258 37.48C63.1724 37.8933 62.3458 38.1 61.3458 38.1ZM74.5059 38.1C73.4659 38.1 72.5326 37.8733 71.7059 37.42C70.8926 36.9533 70.2526 36.32 69.7859 35.52C69.3193 34.7067 69.0859 33.78 69.0859 32.74C69.0859 31.6867 69.3193 30.76 69.7859 29.96C70.2526 29.16 70.8926 28.5333 71.7059 28.08C72.5326 27.6267 73.4659 27.4 74.5059 27.4C75.3993 27.4 76.2059 27.5733 76.9259 27.92C77.6459 28.2667 78.2126 28.7867 78.6259 29.48L77.5659 30.2C77.2059 29.6667 76.7593 29.2733 76.2259 29.02C75.6926 28.7667 75.1126 28.64 74.4859 28.64C73.7393 28.64 73.0659 28.8133 72.4659 29.16C71.8659 29.4933 71.3926 29.9667 71.0459 30.58C70.6993 31.1933 70.5259 31.9133 70.5259 32.74C70.5259 33.5667 70.6993 34.2867 71.0459 34.9C71.3926 35.5133 71.8659 35.9933 72.4659 36.34C73.0659 36.6733 73.7393 36.84 74.4859 36.84C75.1126 36.84 75.6926 36.7133 76.2259 36.46C76.7593 36.2067 77.2059 35.82 77.5659 35.3L78.6259 36.02C78.2126 36.7 77.6459 37.22 76.9259 37.58C76.2059 37.9267 75.3993 38.1 74.5059 38.1ZM83.1802 38V28.36L83.5402 28.74H79.2002V27.5H88.5802V28.74H84.2402L84.6002 28.36V38H83.1802ZM96.0533 38.1C95.1466 38.1 94.3266 37.8933 93.5933 37.48C92.8599 37.0533 92.2733 36.4467 91.8333 35.66C91.4066 34.86 91.1933 33.8867 91.1933 32.74C91.1933 31.5933 91.4066 30.6267 91.8333 29.84C92.2599 29.04 92.8399 28.4333 93.5733 28.02C94.3066 27.6067 95.1333 27.4 96.0533 27.4C97.0533 27.4 97.9466 27.6267 98.7333 28.08C99.5333 28.52 100.16 29.1467 100.613 29.96C101.067 30.76 101.293 31.6867 101.293 32.74C101.293 33.8067 101.067 34.74 100.613 35.54C100.16 36.34 99.5333 36.9667 98.7333 37.42C97.9466 37.8733 97.0533 38.1 96.0533 38.1ZM90.6333 41.88V27.5H91.9933V30.66L91.8533 32.76L92.0533 34.88V41.88H90.6333ZM95.9533 36.84C96.6999 36.84 97.3666 36.6733 97.9533 36.34C98.5399 35.9933 99.0066 35.5133 99.3533 34.9C99.6999 34.2733 99.8733 33.5533 99.8733 32.74C99.8733 31.9267 99.6999 31.2133 99.3533 30.6C99.0066 29.9867 98.5399 29.5067 97.9533 29.16C97.3666 28.8133 96.6999 28.64 95.9533 28.64C95.2066 28.64 94.5333 28.8133 93.9333 29.16C93.3466 29.5067 92.8799 29.9867 92.5333 30.6C92.1999 31.2133 92.0333 31.9267 92.0333 32.74C92.0333 33.5533 92.1999 34.2733 92.5333 34.9C92.8799 35.5133 93.3466 35.9933 93.9333 36.34C94.5333 36.6733 95.2066 36.84 95.9533 36.84ZM108.664 38.1C107.651 38.1 106.738 37.8733 105.924 37.42C105.124 36.9533 104.491 36.32 104.024 35.52C103.558 34.7067 103.324 33.78 103.324 32.74C103.324 31.6867 103.558 30.76 104.024 29.96C104.491 29.16 105.124 28.5333 105.924 28.08C106.724 27.6267 107.638 27.4 108.664 27.4C109.704 27.4 110.624 27.6267 111.424 28.08C112.238 28.5333 112.871 29.16 113.324 29.96C113.791 30.76 114.024 31.6867 114.024 32.74C114.024 33.78 113.791 34.7067 113.324 35.52C112.871 36.32 112.238 36.9533 111.424 37.42C110.611 37.8733 109.691 38.1 108.664 38.1ZM108.664 36.84C109.424 36.84 110.098 36.6733 110.684 36.34C111.271 35.9933 111.731 35.5133 112.064 34.9C112.411 34.2733 112.584 33.5533 112.584 32.74C112.584 31.9133 112.411 31.1933 112.064 30.58C111.731 29.9667 111.271 29.4933 110.684 29.16C110.098 28.8133 109.431 28.64 108.684 28.64C107.938 28.64 107.271 28.8133 106.684 29.16C106.098 29.4933 105.631 29.9667 105.284 30.58C104.938 31.1933 104.764 31.9133 104.764 32.74C104.764 33.5533 104.938 34.2733 105.284 34.9C105.631 35.5133 106.098 35.9933 106.684 36.34C107.271 36.6733 107.931 36.84 108.664 36.84ZM117.059 38V27.5H118.479V35.84L125.499 27.5H126.759V38H125.339V29.64L118.339 38H117.059ZM121.819 25.98C120.939 25.98 120.226 25.76 119.679 25.32C119.146 24.8667 118.866 24.22 118.839 23.38H119.859C119.872 23.9133 120.059 24.3333 120.419 24.64C120.779 24.9467 121.246 25.1 121.819 25.1C122.392 25.1 122.859 24.9467 123.219 24.64C123.592 24.3333 123.786 23.9133 123.799 23.38H124.819C124.806 24.22 124.526 24.8667 123.979 25.32C123.432 25.76 122.712 25.98 121.819 25.98ZM138.529 38L134.209 32.8L135.389 32.1L140.209 38H138.529ZM130.829 38V27.5H132.249V38H130.829ZM131.809 33.32V32.1H135.189V33.32H131.809ZM135.509 32.9L134.189 32.7L138.369 27.5H139.909L135.509 32.9ZM142.45 38V27.5H143.87V35.84L150.89 27.5H152.15V38H150.73V29.64L143.73 38H142.45Z" fill="white"/>
<path d="M350.323 20.2217L357.115 28.5658C357.917 29.5512 357.917 31.1637 357.115 32.1491L350.323 40.4932" stroke="#64B4A6" stroke-width="2" stroke-miterlimit="10" stroke-linecap="round" stroke-linejoin="round"/>
<path d="M16.5006 19.4208C19.0688 19.4208 21.1506 17.5177 21.1506 15.1699C21.1506 12.8221 19.0688 10.9189 16.5006 10.9189C13.9324 10.9189 11.8506 12.8221 11.8506 15.1699C11.8506 17.5177 13.9324 19.4208 16.5006 19.4208Z" stroke="#98EB8D" stroke-width="2" stroke-linecap="round" stroke-linejoin="round"/>
<path d="M28.3147 12.8961L26.6133 9.14027L28.9 6.66792L25.8 3.83396L23.1103 5.93527L18.9146 4.35788L17.9497 1H14.9205L13.9411 4.40236L9.84184 5.98205L7.2 3.83396L4.1 6.66792L6.35272 9.20269L4.67737 12.9682L1 13.7528V16.5868L4.72172 17.5156L6.44941 21.2624L4.1 23.6717L7.2 26.5057L9.9763 24.4373L14.0154 25.9563L14.95 29.3396H18.05L18.987 25.9576L23.0954 24.4021C23.7802 24.8496 25.8 26.5057 25.8 26.5057L28.9 23.6717L26.5996 21.1911L28.3015 17.4341L31.9998 16.5545L32 13.7528L28.3147 12.8961Z" stroke="#98EB8D" stroke-width="2" stroke-linecap="round" stroke-linejoin="round"/>
<defs>
<linearGradient id="paint0_linear_362_722" x1="10" y1="28.8858" x2="398.269" y2="28.8857" gradientUnits="userSpaceOnUse">
<stop stop-color="#65B7A8"/>
<stop offset="0.614236" stop-color="#254046"/>
<stop offset="1" stop-color="#14222D"/>
</linearGradient>
</defs>
</svg>
