<svg width="437" height="55" viewBox="0 0 437 55" fill="none" xmlns="http://www.w3.org/2000/svg">
<rect x="10" y="12" width="427" height="43" rx="8" fill="url(#paint0_linear_362_722)"/>
<path d="M48.6 28H50.06V42H48.6V28ZM39.84 42H38.36V28H39.84V42ZM48.74 35.54H39.68V34.24H48.74V35.54ZM60.9658 42V39.68L60.9058 39.3V35.42C60.9058 34.5267 60.6524 33.84 60.1458 33.36C59.6524 32.88 58.9124 32.64 57.9258 32.64C57.2458 32.64 56.5991 32.7533 55.9858 32.98C55.3724 33.2067 54.8524 33.5067 54.4258 33.88L53.7858 32.82C54.3191 32.3667 54.9591 32.02 55.7058 31.78C56.4524 31.5267 57.2391 31.4 58.0658 31.4C59.4258 31.4 60.4724 31.74 61.2058 32.42C61.9524 33.0867 62.3258 34.1067 62.3258 35.48V42H60.9658ZM57.3458 42.1C56.5591 42.1 55.8724 41.9733 55.2858 41.72C54.7124 41.4533 54.2724 41.0933 53.9658 40.64C53.6591 40.1733 53.5058 39.64 53.5058 39.04C53.5058 38.4933 53.6324 38 53.8858 37.56C54.1524 37.1067 54.5791 36.7467 55.1658 36.48C55.7658 36.2 56.5658 36.06 57.5658 36.06H61.1858V37.12H57.6058C56.5924 37.12 55.8858 37.3 55.4858 37.66C55.0991 38.02 54.9058 38.4667 54.9058 39C54.9058 39.6 55.1391 40.08 55.6058 40.44C56.0724 40.8 56.7258 40.98 57.5658 40.98C58.3658 40.98 59.0524 40.8 59.6258 40.44C60.2124 40.0667 60.6391 39.5333 60.9058 38.84L61.2258 39.82C60.9591 40.5133 60.4924 41.0667 59.8258 41.48C59.1724 41.8933 58.3458 42.1 57.3458 42.1ZM70.5059 42.1C69.4659 42.1 68.5326 41.8733 67.7059 41.42C66.8926 40.9533 66.2526 40.32 65.7859 39.52C65.3193 38.7067 65.0859 37.78 65.0859 36.74C65.0859 35.6867 65.3193 34.76 65.7859 33.96C66.2526 33.16 66.8926 32.5333 67.7059 32.08C68.5326 31.6267 69.4659 31.4 70.5059 31.4C71.3993 31.4 72.2059 31.5733 72.9259 31.92C73.6459 32.2667 74.2126 32.7867 74.6259 33.48L73.5659 34.2C73.2059 33.6667 72.7593 33.2733 72.2259 33.02C71.6926 32.7667 71.1126 32.64 70.4859 32.64C69.7393 32.64 69.0659 32.8133 68.4659 33.16C67.8659 33.4933 67.3926 33.9667 67.0459 34.58C66.6993 35.1933 66.5259 35.9133 66.5259 36.74C66.5259 37.5667 66.6993 38.2867 67.0459 38.9C67.3926 39.5133 67.8659 39.9933 68.4659 40.34C69.0659 40.6733 69.7393 40.84 70.4859 40.84C71.1126 40.84 71.6926 40.7133 72.2259 40.46C72.7593 40.2067 73.2059 39.82 73.5659 39.3L74.6259 40.02C74.2126 40.7 73.6459 41.22 72.9259 41.58C72.2059 41.9267 71.3993 42.1 70.5059 42.1ZM79.1802 42V32.36L79.5402 32.74H75.2002V31.5H84.5802V32.74H80.2402L80.6002 32.36V42H79.1802ZM92.0533 42.1C91.1466 42.1 90.3266 41.8933 89.5933 41.48C88.8599 41.0533 88.2733 40.4467 87.8333 39.66C87.4066 38.86 87.1933 37.8867 87.1933 36.74C87.1933 35.5933 87.4066 34.6267 87.8333 33.84C88.2599 33.04 88.8399 32.4333 89.5733 32.02C90.3066 31.6067 91.1333 31.4 92.0533 31.4C93.0533 31.4 93.9466 31.6267 94.7333 32.08C95.5333 32.52 96.1599 33.1467 96.6133 33.96C97.0666 34.76 97.2933 35.6867 97.2933 36.74C97.2933 37.8067 97.0666 38.74 96.6133 39.54C96.1599 40.34 95.5333 40.9667 94.7333 41.42C93.9466 41.8733 93.0533 42.1 92.0533 42.1ZM86.6333 45.88V31.5H87.9933V34.66L87.8533 36.76L88.0533 38.88V45.88H86.6333ZM91.9533 40.84C92.6999 40.84 93.3666 40.6733 93.9533 40.34C94.5399 39.9933 95.0066 39.5133 95.3533 38.9C95.6999 38.2733 95.8733 37.5533 95.8733 36.74C95.8733 35.9267 95.6999 35.2133 95.3533 34.6C95.0066 33.9867 94.5399 33.5067 93.9533 33.16C93.3666 32.8133 92.6999 32.64 91.9533 32.64C91.2066 32.64 90.5333 32.8133 89.9333 33.16C89.3466 33.5067 88.8799 33.9867 88.5333 34.6C88.1999 35.2133 88.0333 35.9267 88.0333 36.74C88.0333 37.5533 88.1999 38.2733 88.5333 38.9C88.8799 39.5133 89.3466 39.9933 89.9333 40.34C90.5333 40.6733 91.2066 40.84 91.9533 40.84ZM104.664 42.1C103.651 42.1 102.738 41.8733 101.924 41.42C101.124 40.9533 100.491 40.32 100.024 39.52C99.5576 38.7067 99.3242 37.78 99.3242 36.74C99.3242 35.6867 99.5576 34.76 100.024 33.96C100.491 33.16 101.124 32.5333 101.924 32.08C102.724 31.6267 103.638 31.4 104.664 31.4C105.704 31.4 106.624 31.6267 107.424 32.08C108.238 32.5333 108.871 33.16 109.324 33.96C109.791 34.76 110.024 35.6867 110.024 36.74C110.024 37.78 109.791 38.7067 109.324 39.52C108.871 40.32 108.238 40.9533 107.424 41.42C106.611 41.8733 105.691 42.1 104.664 42.1ZM104.664 40.84C105.424 40.84 106.098 40.6733 106.684 40.34C107.271 39.9933 107.731 39.5133 108.064 38.9C108.411 38.2733 108.584 37.5533 108.584 36.74C108.584 35.9133 108.411 35.1933 108.064 34.58C107.731 33.9667 107.271 33.4933 106.684 33.16C106.098 32.8133 105.431 32.64 104.684 32.64C103.938 32.64 103.271 32.8133 102.684 33.16C102.098 33.4933 101.631 33.9667 101.284 34.58C100.938 35.1933 100.764 35.9133 100.764 36.74C100.764 37.5533 100.938 38.2733 101.284 38.9C101.631 39.5133 102.098 39.9933 102.684 40.34C103.271 40.6733 103.931 40.84 104.664 40.84ZM113.059 42V31.5H114.479V39.84L121.499 31.5H122.759V42H121.339V33.64L114.339 42H113.059ZM117.819 29.98C116.939 29.98 116.226 29.76 115.679 29.32C115.146 28.8667 114.866 28.22 114.839 27.38H115.859C115.872 27.9133 116.059 28.3333 116.419 28.64C116.779 28.9467 117.246 29.1 117.819 29.1C118.392 29.1 118.859 28.9467 119.219 28.64C119.592 28.3333 119.786 27.9133 119.799 27.38H120.819C120.806 28.22 120.526 28.8667 119.979 29.32C119.432 29.76 118.712 29.98 117.819 29.98ZM134.529 42L130.209 36.8L131.389 36.1L136.209 42H134.529ZM126.829 42V31.5H128.249V42H126.829ZM127.809 37.32V36.1H131.189V37.32H127.809ZM131.509 36.9L130.189 36.7L134.369 31.5H135.909L131.509 36.9ZM138.45 42V31.5H139.87V39.84L146.89 31.5H148.15V42H146.73V33.64L139.73 42H138.45Z" fill="white"/>
<path d="M417.323 24.2217L424.115 32.5658C424.917 33.5512 424.917 35.1637 424.115 36.1491L417.323 44.4932" stroke="#64B4A6" stroke-width="2" stroke-miterlimit="10" stroke-linecap="round" stroke-linejoin="round"/>
<path d="M16.5006 19.4208C19.0688 19.4208 21.1506 17.5177 21.1506 15.1699C21.1506 12.8221 19.0688 10.9189 16.5006 10.9189C13.9324 10.9189 11.8506 12.8221 11.8506 15.1699C11.8506 17.5177 13.9324 19.4208 16.5006 19.4208Z" stroke="#98EB8D" stroke-width="2" stroke-linecap="round" stroke-linejoin="round"/>
<path d="M28.3147 12.8961L26.6133 9.14027L28.9 6.66792L25.8 3.83396L23.1103 5.93527L18.9146 4.35788L17.9497 1H14.9205L13.9411 4.40236L9.84184 5.98205L7.2 3.83396L4.1 6.66792L6.35272 9.20269L4.67737 12.9682L1 13.7528V16.5868L4.72172 17.5156L6.44941 21.2624L4.1 23.6717L7.2 26.5057L9.9763 24.4373L14.0154 25.9563L14.95 29.3396H18.05L18.987 25.9576L23.0954 24.4021C23.7802 24.8496 25.8 26.5057 25.8 26.5057L28.9 23.6717L26.5996 21.1911L28.3015 17.4341L31.9998 16.5545L32 13.7528L28.3147 12.8961Z" stroke="#98EB8D" stroke-width="2" stroke-linecap="round" stroke-linejoin="round"/>
<defs>
<linearGradient id="paint0_linear_362_722" x1="10" y1="32.8858" x2="470.53" y2="32.8856" gradientUnits="userSpaceOnUse">
<stop stop-color="#65B7A8"/>
<stop offset="0.614236" stop-color="#254046"/>
<stop offset="1" stop-color="#14222D"/>
</linearGradient>
</defs>
</svg>
