<svg width="367" height="56" viewBox="0 0 367 56" fill="none" xmlns="http://www.w3.org/2000/svg">
<rect x="7" width="360" height="43" rx="8" fill="url(#paint0_linear_362_713)"/>
<path d="M43.632 29.108C42.684 29.108 41.808 28.952 41.004 28.64C40.2 28.316 39.504 27.866 38.916 27.29C38.328 26.714 37.866 26.036 37.53 25.256C37.206 24.476 37.044 23.624 37.044 22.7C37.044 21.776 37.206 20.924 37.53 20.144C37.866 19.364 38.328 18.686 38.916 18.11C39.516 17.534 40.218 17.09 41.022 16.778C41.826 16.454 42.702 16.292 43.65 16.292C44.562 16.292 45.42 16.448 46.224 16.76C47.028 17.06 47.706 17.516 48.258 18.128L47.412 18.974C46.896 18.446 46.326 18.068 45.702 17.84C45.078 17.6 44.406 17.48 43.686 17.48C42.93 17.48 42.228 17.612 41.58 17.876C40.932 18.128 40.368 18.494 39.888 18.974C39.408 19.442 39.03 19.994 38.754 20.63C38.49 21.254 38.358 21.944 38.358 22.7C38.358 23.456 38.49 24.152 38.754 24.788C39.03 25.412 39.408 25.964 39.888 26.444C40.368 26.912 40.932 27.278 41.58 27.542C42.228 27.794 42.93 27.92 43.686 27.92C44.406 27.92 45.078 27.8 45.702 27.56C46.326 27.32 46.896 26.936 47.412 26.408L48.258 27.254C47.706 27.866 47.028 28.328 46.224 28.64C45.42 28.952 44.556 29.108 43.632 29.108ZM54.1689 29.09C53.2569 29.09 52.4349 28.886 51.7029 28.478C50.9829 28.058 50.4129 27.488 49.9929 26.768C49.5729 26.036 49.3629 25.202 49.3629 24.266C49.3629 23.318 49.5729 22.484 49.9929 21.764C50.4129 21.044 50.9829 20.48 51.7029 20.072C52.4229 19.664 53.2449 19.46 54.1689 19.46C55.1049 19.46 55.9329 19.664 56.6529 20.072C57.3849 20.48 57.9549 21.044 58.3629 21.764C58.7829 22.484 58.9929 23.318 58.9929 24.266C58.9929 25.202 58.7829 26.036 58.3629 26.768C57.9549 27.488 57.3849 28.058 56.6529 28.478C55.9209 28.886 55.0929 29.09 54.1689 29.09ZM54.1689 27.956C54.8529 27.956 55.4589 27.806 55.9869 27.506C56.5149 27.194 56.9289 26.762 57.2289 26.21C57.5409 25.646 57.6969 24.998 57.6969 24.266C57.6969 23.522 57.5409 22.874 57.2289 22.322C56.9289 21.77 56.5149 21.344 55.9869 21.044C55.4589 20.732 54.8589 20.576 54.1869 20.576C53.5149 20.576 52.9149 20.732 52.3869 21.044C51.8589 21.344 51.4389 21.77 51.1269 22.322C50.8149 22.874 50.6589 23.522 50.6589 24.266C50.6589 24.998 50.8149 25.646 51.1269 26.21C51.4389 26.762 51.8589 27.194 52.3869 27.506C52.9149 27.806 53.5089 27.956 54.1689 27.956ZM64.1919 29.108C63.5079 29.108 62.8299 29.012 62.1579 28.82C61.4859 28.628 60.8919 28.334 60.3759 27.938L60.7899 26.984C61.2459 27.32 61.7739 27.578 62.3739 27.758C62.9739 27.926 63.5679 28.01 64.1559 28.01C64.7439 27.998 65.2539 27.914 65.6859 27.758C66.1179 27.602 66.4539 27.386 66.6939 27.11C66.9339 26.834 67.0539 26.522 67.0539 26.174C67.0539 25.67 66.8259 25.28 66.3699 25.004C65.9139 24.716 65.2899 24.572 64.4979 24.572H62.8779V23.636H64.4079C64.8759 23.636 65.2899 23.576 65.6499 23.456C66.0099 23.336 66.2859 23.162 66.4779 22.934C66.6819 22.706 66.7839 22.436 66.7839 22.124C66.7839 21.788 66.6639 21.5 66.4239 21.26C66.1959 21.02 65.8779 20.84 65.4699 20.72C65.0619 20.6 64.5999 20.54 64.0839 20.54C63.6159 20.552 63.1299 20.624 62.6259 20.756C62.1219 20.876 61.6239 21.062 61.1319 21.314L60.7719 20.324C61.3239 20.036 61.8699 19.82 62.4099 19.676C62.9619 19.52 63.5139 19.442 64.0659 19.442C64.8219 19.418 65.4999 19.508 66.0999 19.712C66.7119 19.916 67.1979 20.21 67.5579 20.594C67.9179 20.966 68.0979 21.416 68.0979 21.944C68.0979 22.412 67.9539 22.82 67.6659 23.168C67.3779 23.516 66.9939 23.786 66.5139 23.978C66.0339 24.17 65.4879 24.266 64.8759 24.266L64.9299 23.924C66.0099 23.924 66.8499 24.134 67.4499 24.554C68.0619 24.974 68.3679 25.544 68.3679 26.264C68.3679 26.828 68.1819 27.326 67.8099 27.758C67.4379 28.178 66.9339 28.508 66.2979 28.748C65.6739 28.988 64.9719 29.108 64.1919 29.108ZM77.7492 28.388V20.666H73.1952L73.0872 22.772C73.0632 23.408 73.0212 24.032 72.9612 24.644C72.9132 25.256 72.8232 25.82 72.6912 26.336C72.5712 26.84 72.3972 27.254 72.1692 27.578C71.9412 27.89 71.6472 28.07 71.2872 28.118L70.0092 27.884C70.3812 27.896 70.6872 27.764 70.9272 27.488C71.1672 27.2 71.3532 26.81 71.4852 26.318C71.6172 25.826 71.7132 25.268 71.7732 24.644C71.8332 24.008 71.8812 23.36 71.9172 22.7L72.0432 19.55H79.0272V28.388H77.7492ZM69.6132 31.286V27.884H80.5032V31.286H79.2972V29H70.8192V31.286H69.6132ZM88.8618 29V26.912L88.8078 26.57V23.078C88.8078 22.274 88.5798 21.656 88.1238 21.224C87.6798 20.792 87.0138 20.576 86.1258 20.576C85.5138 20.576 84.9318 20.678 84.3798 20.882C83.8278 21.086 83.3598 21.356 82.9758 21.692L82.3998 20.738C82.8798 20.33 83.4558 20.018 84.1278 19.802C84.7998 19.574 85.5078 19.46 86.2518 19.46C87.4758 19.46 88.4178 19.766 89.0778 20.378C89.7498 20.978 90.0858 21.896 90.0858 23.132V29H88.8618ZM85.6038 29.09C84.8958 29.09 84.2778 28.976 83.7498 28.748C83.2338 28.508 82.8378 28.184 82.5618 27.776C82.2858 27.356 82.1478 26.876 82.1478 26.336C82.1478 25.844 82.2618 25.4 82.4898 25.004C82.7298 24.596 83.1138 24.272 83.6418 24.032C84.1818 23.78 84.9018 23.654 85.8018 23.654H89.0598V24.608H85.8378C84.9258 24.608 84.2898 24.77 83.9298 25.094C83.5818 25.418 83.4078 25.82 83.4078 26.3C83.4078 26.84 83.6178 27.272 84.0378 27.596C84.4578 27.92 85.0458 28.082 85.8018 28.082C86.5218 28.082 87.1398 27.92 87.6558 27.596C88.1838 27.26 88.5678 26.78 88.8078 26.156L89.0958 27.038C88.8558 27.662 88.4358 28.16 87.8358 28.532C87.2478 28.904 86.5038 29.09 85.6038 29.09ZM93.4879 29V19.55H94.7659V23.726H100.724V19.55H102.002V29H100.724V24.824H94.7659V29H93.4879ZM105.634 29V19.55H106.912V27.056L113.23 19.55H114.364V29H113.086V21.476L106.786 29H105.634ZM122.077 29.09C121.093 29.09 120.229 28.886 119.485 28.478C118.741 28.058 118.159 27.488 117.739 26.768C117.319 26.036 117.109 25.202 117.109 24.266C117.109 23.33 117.307 22.502 117.703 21.782C118.111 21.062 118.663 20.498 119.359 20.09C120.067 19.67 120.859 19.46 121.735 19.46C122.623 19.46 123.409 19.664 124.093 20.072C124.789 20.468 125.335 21.032 125.731 21.764C126.127 22.484 126.325 23.318 126.325 24.266C126.325 24.326 126.319 24.392 126.307 24.464C126.307 24.524 126.307 24.59 126.307 24.662H118.081V23.708H125.623L125.119 24.086C125.119 23.402 124.969 22.796 124.669 22.268C124.381 21.728 123.985 21.308 123.481 21.008C122.977 20.708 122.395 20.558 121.735 20.558C121.087 20.558 120.505 20.708 119.989 21.008C119.473 21.308 119.071 21.728 118.783 22.268C118.495 22.808 118.351 23.426 118.351 24.122V24.32C118.351 25.04 118.507 25.676 118.819 26.228C119.143 26.768 119.587 27.194 120.151 27.506C120.727 27.806 121.381 27.956 122.113 27.956C122.689 27.956 123.223 27.854 123.715 27.65C124.219 27.446 124.651 27.134 125.011 26.714L125.731 27.542C125.311 28.046 124.783 28.43 124.147 28.694C123.523 28.958 122.833 29.09 122.077 29.09ZM133.865 29V19.55H142.361V29H141.083V20.324L141.407 20.666H134.819L135.143 20.324V29H133.865ZM150.872 29.09C150.056 29.09 149.318 28.904 148.658 28.532C147.998 28.148 147.47 27.602 147.074 26.894C146.69 26.174 146.498 25.298 146.498 24.266C146.498 23.234 146.69 22.364 147.074 21.656C147.458 20.936 147.98 20.39 148.64 20.018C149.3 19.646 150.044 19.46 150.872 19.46C151.772 19.46 152.576 19.664 153.284 20.072C154.004 20.468 154.568 21.032 154.976 21.764C155.384 22.484 155.588 23.318 155.588 24.266C155.588 25.226 155.384 26.066 154.976 26.786C154.568 27.506 154.004 28.07 153.284 28.478C152.576 28.886 151.772 29.09 150.872 29.09ZM145.994 32.492V19.55H147.218V22.394L147.092 24.284L147.272 26.192V32.492H145.994ZM150.782 27.956C151.454 27.956 152.054 27.806 152.582 27.506C153.11 27.194 153.53 26.762 153.842 26.21C154.154 25.646 154.31 24.998 154.31 24.266C154.31 23.534 154.154 22.892 153.842 22.34C153.53 21.788 153.11 21.356 152.582 21.044C152.054 20.732 151.454 20.576 150.782 20.576C150.11 20.576 149.504 20.732 148.964 21.044C148.436 21.356 148.016 21.788 147.704 22.34C147.404 22.892 147.254 23.534 147.254 24.266C147.254 24.998 147.404 25.646 147.704 26.21C148.016 26.762 148.436 27.194 148.964 27.506C149.504 27.806 150.11 27.956 150.782 27.956ZM162.222 29.09C161.31 29.09 160.488 28.886 159.756 28.478C159.036 28.058 158.466 27.488 158.046 26.768C157.626 26.036 157.416 25.202 157.416 24.266C157.416 23.318 157.626 22.484 158.046 21.764C158.466 21.044 159.036 20.48 159.756 20.072C160.476 19.664 161.298 19.46 162.222 19.46C163.158 19.46 163.986 19.664 164.706 20.072C165.438 20.48 166.008 21.044 166.416 21.764C166.836 22.484 167.046 23.318 167.046 24.266C167.046 25.202 166.836 26.036 166.416 26.768C166.008 27.488 165.438 28.058 164.706 28.478C163.974 28.886 163.146 29.09 162.222 29.09ZM162.222 27.956C162.906 27.956 163.512 27.806 164.04 27.506C164.568 27.194 164.982 26.762 165.282 26.21C165.594 25.646 165.75 24.998 165.75 24.266C165.75 23.522 165.594 22.874 165.282 22.322C164.982 21.77 164.568 21.344 164.04 21.044C163.512 20.732 162.912 20.576 162.24 20.576C161.568 20.576 160.968 20.732 160.44 21.044C159.912 21.344 159.492 21.77 159.18 22.322C158.868 22.874 158.712 23.522 158.712 24.266C158.712 24.998 158.868 25.646 159.18 26.21C159.492 26.762 159.912 27.194 160.44 27.506C160.968 27.806 161.562 27.956 162.222 27.956ZM173.827 29.09C172.843 29.09 171.979 28.886 171.235 28.478C170.491 28.058 169.909 27.488 169.489 26.768C169.069 26.036 168.859 25.202 168.859 24.266C168.859 23.33 169.057 22.502 169.453 21.782C169.861 21.062 170.413 20.498 171.109 20.09C171.817 19.67 172.609 19.46 173.485 19.46C174.373 19.46 175.159 19.664 175.843 20.072C176.539 20.468 177.085 21.032 177.481 21.764C177.877 22.484 178.075 23.318 178.075 24.266C178.075 24.326 178.069 24.392 178.057 24.464C178.057 24.524 178.057 24.59 178.057 24.662H169.831V23.708H177.373L176.869 24.086C176.869 23.402 176.719 22.796 176.419 22.268C176.131 21.728 175.735 21.308 175.231 21.008C174.727 20.708 174.145 20.558 173.485 20.558C172.837 20.558 172.255 20.708 171.739 21.008C171.223 21.308 170.821 21.728 170.533 22.268C170.245 22.808 170.101 23.426 170.101 24.122V24.32C170.101 25.04 170.257 25.676 170.569 26.228C170.893 26.768 171.337 27.194 171.901 27.506C172.477 27.806 173.131 27.956 173.863 27.956C174.439 27.956 174.973 27.854 175.465 27.65C175.969 27.446 176.401 27.134 176.761 26.714L177.481 27.542C177.061 28.046 176.533 28.43 175.897 28.694C175.273 28.958 174.583 29.09 173.827 29.09ZM187.834 29L183.946 24.32L185.008 23.69L189.346 29H187.834ZM180.904 29V19.55H182.182V29H180.904ZM181.786 24.788V23.69H184.828V24.788H181.786ZM185.116 24.41L183.928 24.23L187.69 19.55H189.076L185.116 24.41ZM192.97 29V20.324L193.294 20.666H189.388V19.55H197.83V20.666H193.924L194.248 20.324V29H192.97ZM205.545 29V26.912L205.491 26.57V23.078C205.491 22.274 205.263 21.656 204.807 21.224C204.363 20.792 203.697 20.576 202.809 20.576C202.197 20.576 201.615 20.678 201.063 20.882C200.511 21.086 200.043 21.356 199.659 21.692L199.083 20.738C199.563 20.33 200.139 20.018 200.811 19.802C201.483 19.574 202.191 19.46 202.935 19.46C204.159 19.46 205.101 19.766 205.761 20.378C206.433 20.978 206.769 21.896 206.769 23.132V29H205.545ZM202.287 29.09C201.579 29.09 200.961 28.976 200.433 28.748C199.917 28.508 199.521 28.184 199.245 27.776C198.969 27.356 198.831 26.876 198.831 26.336C198.831 25.844 198.945 25.4 199.173 25.004C199.413 24.596 199.797 24.272 200.325 24.032C200.865 23.78 201.585 23.654 202.485 23.654H205.743V24.608H202.521C201.609 24.608 200.973 24.77 200.613 25.094C200.265 25.418 200.091 25.82 200.091 26.3C200.091 26.84 200.301 27.272 200.721 27.596C201.141 27.92 201.729 28.082 202.485 28.082C203.205 28.082 203.823 27.92 204.339 27.596C204.867 27.26 205.251 26.78 205.491 26.156L205.779 27.038C205.539 27.662 205.119 28.16 204.519 28.532C203.931 28.904 203.187 29.09 202.287 29.09Z" fill="white"/>
<path d="M345.323 11.0999L352.115 19.2499C352.917 20.2124 352.917 21.7874 352.115 22.7499L345.323 30.8999" stroke="#63B2A4" stroke-width="2" stroke-miterlimit="10" stroke-linecap="round" stroke-linejoin="round"/>
<path d="M25.8889 29H4.11111C2.39289 29 1 30.2692 1 31.8348V51.6783C1 53.244 2.39289 54.5131 4.11111 54.5131H25.8889C27.6072 54.5131 29 53.244 29 51.6783V31.8348C29 30.2692 27.6072 29 25.8889 29Z" stroke="#98EB8D" stroke-width="2" stroke-linecap="round" stroke-linejoin="round"/>
<path d="M7.22266 34.6694H22.7782" stroke="#98EB8D" stroke-width="2" stroke-linecap="round" stroke-linejoin="round"/>
<path d="M7.22266 41.7563H22.7782" stroke="#98EB8D" stroke-width="2" stroke-linecap="round" stroke-linejoin="round"/>
<path d="M7.22266 48.8438H16.556" stroke="#98EB8D" stroke-width="2" stroke-linecap="round" stroke-linejoin="round"/>
<defs>
<linearGradient id="paint0_linear_362_713" x1="7" y1="20.8858" x2="395.269" y2="20.8857" gradientUnits="userSpaceOnUse">
<stop stop-color="#65B7A8"/>
<stop offset="0.614236" stop-color="#254046"/>
<stop offset="1" stop-color="#14222D"/>
</linearGradient>
</defs>
</svg>
