<svg width="315" height="14" viewBox="0 0 315 14" fill="none" xmlns="http://www.w3.org/2000/svg">
<path d="M0.525 9.74L0.93 8.945C1.39 9.345 1.905 9.645 2.475 9.845C3.055 10.035 3.635 10.135 4.215 10.145C4.795 10.145 5.325 10.06 5.805 9.89C6.295 9.72 6.69 9.47 6.99 9.14C7.29 8.8 7.44 8.39 7.44 7.91C7.44 7.3 7.195 6.83 6.705 6.5C6.225 6.17 5.555 6.005 4.695 6.005H2.445V5.105H4.635C5.375 5.105 5.95 4.95 6.36 4.64C6.78 4.32 6.99 3.88 6.99 3.32C6.99 2.92 6.87 2.58 6.63 2.3C6.4 2.01 6.08 1.79 5.67 1.64C5.27 1.48 4.82 1.395 4.32 1.385C3.82 1.365 3.3 1.43 2.76 1.58C2.23 1.72 1.715 1.945 1.215 2.255L0.855 1.34C1.475 0.969999 2.12 0.714999 2.79 0.574999C3.46 0.424999 4.11 0.374999 4.74 0.424999C5.37 0.474999 5.935 0.619999 6.435 0.859999C6.945 1.1 7.35 1.415 7.65 1.805C7.95 2.195 8.1 2.66 8.1 3.2C8.1 3.7 7.97 4.14 7.71 4.52C7.46 4.9 7.105 5.195 6.645 5.405C6.195 5.605 5.66 5.705 5.04 5.705L5.1 5.375C5.8 5.375 6.405 5.485 6.915 5.705C7.435 5.925 7.835 6.24 8.115 6.65C8.405 7.05 8.55 7.52 8.55 8.06C8.55 8.57 8.42 9.025 8.16 9.425C7.91 9.815 7.56 10.145 7.11 10.415C6.67 10.675 6.175 10.865 5.625 10.985C5.075 11.095 4.5 11.125 3.9 11.075C3.3 11.025 2.71 10.895 2.13 10.685C1.55 10.465 1.015 10.15 0.525 9.74ZM15.9411 11V9.26L15.8961 8.975V6.065C15.8961 5.395 15.7061 4.88 15.3261 4.52C14.9561 4.16 14.4011 3.98 13.6611 3.98C13.1511 3.98 12.6661 4.065 12.2061 4.235C11.7461 4.405 11.3561 4.63 11.0361 4.91L10.5561 4.115C10.9561 3.775 11.4361 3.515 11.9961 3.335C12.5561 3.145 13.1461 3.05 13.7661 3.05C14.7861 3.05 15.5711 3.305 16.1211 3.815C16.6811 4.315 16.9611 5.08 16.9611 6.11V11H15.9411ZM13.2261 11.075C12.6361 11.075 12.1211 10.98 11.6811 10.79C11.2511 10.59 10.9211 10.32 10.6911 9.98C10.4611 9.63 10.3461 9.23 10.3461 8.78C10.3461 8.37 10.4411 8 10.6311 7.67C10.8311 7.33 11.1511 7.06 11.5911 6.86C12.0411 6.65 12.6411 6.545 13.3911 6.545H16.1061V7.34H13.4211C12.6611 7.34 12.1311 7.475 11.8311 7.745C11.5411 8.015 11.3961 8.35 11.3961 8.75C11.3961 9.2 11.5711 9.56 11.9211 9.83C12.2711 10.1 12.7611 10.235 13.3911 10.235C13.9911 10.235 14.5061 10.1 14.9361 9.83C15.3761 9.55 15.6961 9.15 15.8961 8.63L16.1361 9.365C15.9361 9.885 15.5861 10.3 15.0861 10.61C14.5961 10.92 13.9761 11.075 13.2261 11.075ZM19.7963 11V3.125H26.8763V11H25.8113V3.77L26.0813 4.055H20.5913L20.8613 3.77V11H19.7963ZM33.1437 11.075C32.3837 11.075 31.6987 10.905 31.0887 10.565C30.4887 10.215 30.0137 9.74 29.6637 9.14C29.3137 8.53 29.1387 7.835 29.1387 7.055C29.1387 6.265 29.3137 5.57 29.6637 4.97C30.0137 4.37 30.4887 3.9 31.0887 3.56C31.6887 3.22 32.3737 3.05 33.1437 3.05C33.9237 3.05 34.6137 3.22 35.2137 3.56C35.8237 3.9 36.2987 4.37 36.6387 4.97C36.9887 5.57 37.1637 6.265 37.1637 7.055C37.1637 7.835 36.9887 8.53 36.6387 9.14C36.2987 9.74 35.8237 10.215 35.2137 10.565C34.6037 10.905 33.9137 11.075 33.1437 11.075ZM33.1437 10.13C33.7137 10.13 34.2187 10.005 34.6587 9.755C35.0987 9.495 35.4437 9.135 35.6937 8.675C35.9537 8.205 36.0837 7.665 36.0837 7.055C36.0837 6.435 35.9537 5.895 35.6937 5.435C35.4437 4.975 35.0987 4.62 34.6587 4.37C34.2187 4.11 33.7187 3.98 33.1587 3.98C32.5987 3.98 32.0987 4.11 31.6587 4.37C31.2187 4.62 30.8687 4.975 30.6087 5.435C30.3487 5.895 30.2187 6.435 30.2187 7.055C30.2187 7.665 30.3487 8.205 30.6087 8.675C30.8687 9.135 31.2187 9.495 31.6587 9.755C32.0987 10.005 32.5937 10.13 33.1437 10.13ZM37.9559 10.985L38.0309 10.07C38.1009 10.08 38.1659 10.095 38.2259 10.115C38.2959 10.125 38.3559 10.13 38.4059 10.13C38.7259 10.13 38.9809 10.01 39.1709 9.77C39.3709 9.53 39.5209 9.21 39.6209 8.81C39.7209 8.41 39.7909 7.96 39.8309 7.46C39.8709 6.95 39.9059 6.44 39.9359 5.93L40.0709 3.125H45.8459V11H44.7809V3.74L45.0509 4.055H40.7609L41.0159 3.725L40.8959 6.005C40.8659 6.685 40.8109 7.335 40.7309 7.955C40.6609 8.575 40.5459 9.12 40.3859 9.59C40.2359 10.06 40.0259 10.43 39.7559 10.7C39.4859 10.96 39.1409 11.09 38.7209 11.09C38.6009 11.09 38.4759 11.08 38.3459 11.06C38.2259 11.04 38.0959 11.015 37.9559 10.985ZM48.8734 11V3.125H49.9384V6.605H54.9034V3.125H55.9684V11H54.9034V7.52H49.9384V11H48.8734ZM58.9955 11V3.125H60.0605V9.38L65.3255 3.125H66.2705V11H65.2055V4.73L59.9555 11H58.9955ZM70.8226 11V3.77L71.0926 4.055H67.8376V3.125H74.8726V4.055H71.6176L71.8876 3.77V11H70.8226ZM79.4213 11.075C78.6013 11.075 77.8813 10.905 77.2613 10.565C76.6413 10.215 76.1563 9.74 75.8063 9.14C75.4563 8.53 75.2813 7.835 75.2813 7.055C75.2813 6.275 75.4463 5.585 75.7763 4.985C76.1163 4.385 76.5763 3.915 77.1563 3.575C77.7463 3.225 78.4063 3.05 79.1363 3.05C79.8763 3.05 80.5313 3.22 81.1013 3.56C81.6813 3.89 82.1363 4.36 82.4663 4.97C82.7963 5.57 82.9613 6.265 82.9613 7.055C82.9613 7.105 82.9563 7.16 82.9463 7.22C82.9463 7.27 82.9463 7.325 82.9463 7.385H76.0913V6.59H82.3763L81.9563 6.905C81.9563 6.335 81.8313 5.83 81.5813 5.39C81.3413 4.94 81.0113 4.59 80.5913 4.34C80.1713 4.09 79.6863 3.965 79.1363 3.965C78.5963 3.965 78.1113 4.09 77.6813 4.34C77.2513 4.59 76.9163 4.94 76.6763 5.39C76.4363 5.84 76.3163 6.355 76.3163 6.935V7.1C76.3163 7.7 76.4463 8.23 76.7063 8.69C76.9763 9.14 77.3463 9.495 77.8163 9.755C78.2963 10.005 78.8413 10.13 79.4513 10.13C79.9313 10.13 80.3763 10.045 80.7863 9.875C81.2063 9.705 81.5663 9.445 81.8663 9.095L82.4663 9.785C82.1163 10.205 81.6763 10.525 81.1463 10.745C80.6263 10.965 80.0513 11.075 79.4213 11.075ZM89.2445 11V3.125H96.3245V11H95.2595V3.77L95.5295 4.055H90.0395L90.3095 3.77V11H89.2445ZM102.592 11.075C101.832 11.075 101.147 10.905 100.537 10.565C99.9369 10.215 99.4619 9.74 99.1119 9.14C98.7619 8.53 98.5869 7.835 98.5869 7.055C98.5869 6.265 98.7619 5.57 99.1119 4.97C99.4619 4.37 99.9369 3.9 100.537 3.56C101.137 3.22 101.822 3.05 102.592 3.05C103.372 3.05 104.062 3.22 104.662 3.56C105.272 3.9 105.747 4.37 106.087 4.97C106.437 5.57 106.612 6.265 106.612 7.055C106.612 7.835 106.437 8.53 106.087 9.14C105.747 9.74 105.272 10.215 104.662 10.565C104.052 10.905 103.362 11.075 102.592 11.075ZM102.592 10.13C103.162 10.13 103.667 10.005 104.107 9.755C104.547 9.495 104.892 9.135 105.142 8.675C105.402 8.205 105.532 7.665 105.532 7.055C105.532 6.435 105.402 5.895 105.142 5.435C104.892 4.975 104.547 4.62 104.107 4.37C103.667 4.11 103.167 3.98 102.607 3.98C102.047 3.98 101.547 4.11 101.107 4.37C100.667 4.62 100.317 4.975 100.057 5.435C99.7969 5.895 99.6669 6.435 99.6669 7.055C99.6669 7.665 99.7969 8.205 100.057 8.675C100.317 9.135 100.667 9.495 101.107 9.755C101.547 10.005 102.042 10.13 102.592 10.13ZM107.404 10.985L107.479 10.07C107.549 10.08 107.614 10.095 107.674 10.115C107.744 10.125 107.804 10.13 107.854 10.13C108.174 10.13 108.429 10.01 108.619 9.77C108.819 9.53 108.969 9.21 109.069 8.81C109.169 8.41 109.239 7.96 109.279 7.46C109.319 6.95 109.354 6.44 109.384 5.93L109.519 3.125H115.294V11H114.229V3.74L114.499 4.055H110.209L110.464 3.725L110.344 6.005C110.314 6.685 110.259 7.335 110.179 7.955C110.109 8.575 109.994 9.12 109.834 9.59C109.684 10.06 109.474 10.43 109.204 10.7C108.934 10.96 108.589 11.09 108.169 11.09C108.049 11.09 107.924 11.08 107.794 11.06C107.674 11.04 107.544 11.015 107.404 10.985ZM123.407 11V8.165L123.602 8.39H120.932C119.922 8.39 119.132 8.17 118.562 7.73C117.992 7.29 117.707 6.65 117.707 5.81C117.707 4.91 118.012 4.24 118.622 3.8C119.232 3.35 120.047 3.125 121.067 3.125H124.382V11H123.407ZM117.647 11L119.807 7.97H120.917L118.802 11H117.647ZM123.407 7.85V3.74L123.602 4.055H121.097C120.367 4.055 119.797 4.195 119.387 4.475C118.987 4.755 118.787 5.21 118.787 5.84C118.787 7.01 119.532 7.595 121.022 7.595H123.602L123.407 7.85ZM131.344 11V3.125H132.409V9.38L137.674 3.125H138.619V11H137.554V4.73L132.304 11H131.344ZM148.897 11.075C148.117 11.075 147.417 10.905 146.797 10.565C146.187 10.215 145.707 9.74 145.357 9.14C145.007 8.53 144.832 7.835 144.832 7.055C144.832 6.265 145.007 5.57 145.357 4.97C145.707 4.37 146.187 3.9 146.797 3.56C147.417 3.22 148.117 3.05 148.897 3.05C149.567 3.05 150.172 3.18 150.712 3.44C151.252 3.7 151.677 4.09 151.987 4.61L151.192 5.15C150.922 4.75 150.587 4.455 150.187 4.265C149.787 4.075 149.352 3.98 148.882 3.98C148.322 3.98 147.817 4.11 147.367 4.37C146.917 4.62 146.562 4.975 146.302 5.435C146.042 5.895 145.912 6.435 145.912 7.055C145.912 7.675 146.042 8.215 146.302 8.675C146.562 9.135 146.917 9.495 147.367 9.755C147.817 10.005 148.322 10.13 148.882 10.13C149.352 10.13 149.787 10.035 150.187 9.845C150.587 9.655 150.922 9.365 151.192 8.975L151.987 9.515C151.677 10.025 151.252 10.415 150.712 10.685C150.172 10.945 149.567 11.075 148.897 11.075ZM157.157 11.075C156.397 11.075 155.712 10.905 155.102 10.565C154.502 10.215 154.027 9.74 153.677 9.14C153.327 8.53 153.152 7.835 153.152 7.055C153.152 6.265 153.327 5.57 153.677 4.97C154.027 4.37 154.502 3.9 155.102 3.56C155.702 3.22 156.387 3.05 157.157 3.05C157.937 3.05 158.627 3.22 159.227 3.56C159.837 3.9 160.312 4.37 160.652 4.97C161.002 5.57 161.177 6.265 161.177 7.055C161.177 7.835 161.002 8.53 160.652 9.14C160.312 9.74 159.837 10.215 159.227 10.565C158.617 10.905 157.927 11.075 157.157 11.075ZM157.157 10.13C157.727 10.13 158.232 10.005 158.672 9.755C159.112 9.495 159.457 9.135 159.707 8.675C159.967 8.205 160.097 7.665 160.097 7.055C160.097 6.435 159.967 5.895 159.707 5.435C159.457 4.975 159.112 4.62 158.672 4.37C158.232 4.11 157.732 3.98 157.172 3.98C156.612 3.98 156.112 4.11 155.672 4.37C155.232 4.62 154.882 4.975 154.622 5.435C154.362 5.895 154.232 6.435 154.232 7.055C154.232 7.665 154.362 8.205 154.622 8.675C154.882 9.135 155.232 9.495 155.672 9.755C156.112 10.005 156.607 10.13 157.157 10.13ZM165.51 11.09C164.94 11.09 164.375 11.01 163.815 10.85C163.255 10.69 162.76 10.445 162.33 10.115L162.675 9.32C163.055 9.6 163.495 9.815 163.995 9.965C164.495 10.105 164.99 10.175 165.48 10.175C165.97 10.165 166.395 10.095 166.755 9.965C167.115 9.835 167.395 9.655 167.595 9.425C167.795 9.195 167.895 8.935 167.895 8.645C167.895 8.225 167.705 7.9 167.325 7.67C166.945 7.43 166.425 7.31 165.765 7.31H164.415V6.53H165.69C166.08 6.53 166.425 6.48 166.725 6.38C167.025 6.28 167.255 6.135 167.415 5.945C167.585 5.755 167.67 5.53 167.67 5.27C167.67 4.99 167.57 4.75 167.37 4.55C167.18 4.35 166.915 4.2 166.575 4.1C166.235 4 165.85 3.95 165.42 3.95C165.03 3.96 164.625 4.02 164.205 4.13C163.785 4.23 163.37 4.385 162.96 4.595L162.66 3.77C163.12 3.53 163.575 3.35 164.025 3.23C164.485 3.1 164.945 3.035 165.405 3.035C166.035 3.015 166.6 3.09 167.1 3.26C167.61 3.43 168.015 3.675 168.315 3.995C168.615 4.305 168.765 4.68 168.765 5.12C168.765 5.51 168.645 5.85 168.405 6.14C168.165 6.43 167.845 6.655 167.445 6.815C167.045 6.975 166.59 7.055 166.08 7.055L166.125 6.77C167.025 6.77 167.725 6.945 168.225 7.295C168.735 7.645 168.99 8.12 168.99 8.72C168.99 9.19 168.835 9.605 168.525 9.965C168.215 10.315 167.795 10.59 167.265 10.79C166.745 10.99 166.16 11.09 165.51 11.09ZM176.808 10.49V4.055H173.013L172.923 5.81C172.903 6.34 172.868 6.86 172.818 7.37C172.778 7.88 172.703 8.35 172.593 8.78C172.493 9.2 172.348 9.545 172.158 9.815C171.968 10.075 171.723 10.225 171.423 10.265L170.358 10.07C170.668 10.08 170.923 9.97 171.123 9.74C171.323 9.5 171.478 9.175 171.588 8.765C171.698 8.355 171.778 7.89 171.828 7.37C171.878 6.84 171.918 6.3 171.948 5.75L172.053 3.125H177.873V10.49H176.808ZM170.028 12.905V10.07H179.103V12.905H178.098V11H171.033V12.905H170.028ZM186.068 11V9.26L186.023 8.975V6.065C186.023 5.395 185.833 4.88 185.453 4.52C185.083 4.16 184.528 3.98 183.788 3.98C183.278 3.98 182.793 4.065 182.333 4.235C181.873 4.405 181.483 4.63 181.163 4.91L180.683 4.115C181.083 3.775 181.563 3.515 182.123 3.335C182.683 3.145 183.273 3.05 183.893 3.05C184.913 3.05 185.698 3.305 186.248 3.815C186.808 4.315 187.088 5.08 187.088 6.11V11H186.068ZM183.353 11.075C182.763 11.075 182.248 10.98 181.808 10.79C181.378 10.59 181.048 10.32 180.818 9.98C180.588 9.63 180.473 9.23 180.473 8.78C180.473 8.37 180.568 8 180.758 7.67C180.958 7.33 181.278 7.06 181.718 6.86C182.168 6.65 182.768 6.545 183.518 6.545H186.233V7.34H183.548C182.788 7.34 182.258 7.475 181.958 7.745C181.668 8.015 181.523 8.35 181.523 8.75C181.523 9.2 181.698 9.56 182.048 9.83C182.398 10.1 182.888 10.235 183.518 10.235C184.118 10.235 184.633 10.1 185.063 9.83C185.503 9.55 185.823 9.15 186.023 8.63L186.263 9.365C186.063 9.885 185.713 10.3 185.213 10.61C184.723 10.92 184.103 11.075 183.353 11.075ZM189.923 11V3.125H190.988V9.38L196.253 3.125H197.198V11H196.133V4.73L190.883 11H189.923ZM193.493 1.985C192.833 1.985 192.298 1.82 191.888 1.49C191.488 1.15 191.278 0.665 191.258 0.0349999H192.023C192.033 0.435 192.173 0.749999 192.443 0.979999C192.713 1.21 193.063 1.325 193.493 1.325C193.923 1.325 194.273 1.21 194.543 0.979999C194.823 0.749999 194.968 0.435 194.978 0.0349999H195.743C195.733 0.665 195.523 1.15 195.113 1.49C194.703 1.82 194.163 1.985 193.493 1.985ZM201.75 11V3.77L202.02 4.055H198.765V3.125H205.8V4.055H202.545L202.815 3.77V11H201.75ZM210.349 11.075C209.529 11.075 208.809 10.905 208.189 10.565C207.569 10.215 207.084 9.74 206.734 9.14C206.384 8.53 206.209 7.835 206.209 7.055C206.209 6.275 206.374 5.585 206.704 4.985C207.044 4.385 207.504 3.915 208.084 3.575C208.674 3.225 209.334 3.05 210.064 3.05C210.804 3.05 211.459 3.22 212.029 3.56C212.609 3.89 213.064 4.36 213.394 4.97C213.724 5.57 213.889 6.265 213.889 7.055C213.889 7.105 213.884 7.16 213.874 7.22C213.874 7.27 213.874 7.325 213.874 7.385H207.019V6.59H213.304L212.884 6.905C212.884 6.335 212.759 5.83 212.509 5.39C212.269 4.94 211.939 4.59 211.519 4.34C211.099 4.09 210.614 3.965 210.064 3.965C209.524 3.965 209.039 4.09 208.609 4.34C208.179 4.59 207.844 4.94 207.604 5.39C207.364 5.84 207.244 6.355 207.244 6.935V7.1C207.244 7.7 207.374 8.23 207.634 8.69C207.904 9.14 208.274 9.495 208.744 9.755C209.224 10.005 209.769 10.13 210.379 10.13C210.859 10.13 211.304 10.045 211.714 9.875C212.134 9.705 212.494 9.445 212.794 9.095L213.394 9.785C213.044 10.205 212.604 10.525 212.074 10.745C211.554 10.965 210.979 11.075 210.349 11.075ZM223.472 11.075C222.692 11.075 221.992 10.905 221.372 10.565C220.762 10.215 220.282 9.74 219.932 9.14C219.582 8.53 219.407 7.835 219.407 7.055C219.407 6.265 219.582 5.57 219.932 4.97C220.282 4.37 220.762 3.9 221.372 3.56C221.992 3.22 222.692 3.05 223.472 3.05C224.142 3.05 224.747 3.18 225.287 3.44C225.827 3.7 226.252 4.09 226.562 4.61L225.767 5.15C225.497 4.75 225.162 4.455 224.762 4.265C224.362 4.075 223.927 3.98 223.457 3.98C222.897 3.98 222.392 4.11 221.942 4.37C221.492 4.62 221.137 4.975 220.877 5.435C220.617 5.895 220.487 6.435 220.487 7.055C220.487 7.675 220.617 8.215 220.877 8.675C221.137 9.135 221.492 9.495 221.942 9.755C222.392 10.005 222.897 10.13 223.457 10.13C223.927 10.13 224.362 10.035 224.762 9.845C225.162 9.655 225.497 9.365 225.767 8.975L226.562 9.515C226.252 10.025 225.827 10.415 225.287 10.685C224.747 10.945 224.142 11.075 223.472 11.075ZM228.624 11V3.125H232.104C232.994 3.125 233.694 3.295 234.204 3.635C234.724 3.975 234.984 4.475 234.984 5.135C234.984 5.775 234.739 6.27 234.249 6.62C233.759 6.96 233.114 7.13 232.314 7.13L232.524 6.815C233.464 6.815 234.154 6.99 234.594 7.34C235.034 7.69 235.254 8.195 235.254 8.855C235.254 9.535 235.004 10.065 234.504 10.445C234.014 10.815 233.249 11 232.209 11H228.624ZM229.659 10.16H232.164C232.834 10.16 233.339 10.055 233.679 9.845C234.029 9.625 234.204 9.275 234.204 8.795C234.204 8.315 234.049 7.965 233.739 7.745C233.429 7.525 232.939 7.415 232.269 7.415H229.659V10.16ZM229.659 6.62H232.029C232.639 6.62 233.104 6.505 233.424 6.275C233.754 6.045 233.919 5.71 233.919 5.27C233.919 4.83 233.754 4.5 233.424 4.28C233.104 4.06 232.639 3.95 232.029 3.95H229.659V6.62ZM240.99 11.075C240.23 11.075 239.545 10.905 238.935 10.565C238.335 10.215 237.86 9.74 237.51 9.14C237.16 8.53 236.985 7.835 236.985 7.055C236.985 6.265 237.16 5.57 237.51 4.97C237.86 4.37 238.335 3.9 238.935 3.56C239.535 3.22 240.22 3.05 240.99 3.05C241.77 3.05 242.46 3.22 243.06 3.56C243.67 3.9 244.145 4.37 244.485 4.97C244.835 5.57 245.01 6.265 245.01 7.055C245.01 7.835 244.835 8.53 244.485 9.14C244.145 9.74 243.67 10.215 243.06 10.565C242.45 10.905 241.76 11.075 240.99 11.075ZM240.99 10.13C241.56 10.13 242.065 10.005 242.505 9.755C242.945 9.495 243.29 9.135 243.54 8.675C243.8 8.205 243.93 7.665 243.93 7.055C243.93 6.435 243.8 5.895 243.54 5.435C243.29 4.975 242.945 4.62 242.505 4.37C242.065 4.11 241.565 3.98 241.005 3.98C240.445 3.98 239.945 4.11 239.505 4.37C239.065 4.62 238.715 4.975 238.455 5.435C238.195 5.895 238.065 6.435 238.065 7.055C238.065 7.665 238.195 8.205 238.455 8.675C238.715 9.135 239.065 9.495 239.505 9.755C239.945 10.005 240.44 10.13 240.99 10.13ZM247.286 11V3.125H248.351V9.38L253.616 3.125H254.561V11H253.496V4.73L248.246 11H247.286ZM250.856 1.985C250.196 1.985 249.661 1.82 249.251 1.49C248.851 1.15 248.641 0.665 248.621 0.0349999H249.386C249.396 0.435 249.536 0.749999 249.806 0.979999C250.076 1.21 250.426 1.325 250.856 1.325C251.286 1.325 251.636 1.21 251.906 0.979999C252.186 0.749999 252.331 0.435 252.341 0.0349999H253.106C253.096 0.665 252.886 1.15 252.476 1.49C252.066 1.82 251.526 1.985 250.856 1.985ZM261.539 11V3.125H268.619V11H267.554V3.77L267.824 4.055H262.334L262.604 3.77V11H261.539ZM275.712 11.075C275.032 11.075 274.417 10.92 273.867 10.61C273.317 10.29 272.877 9.835 272.547 9.245C272.227 8.645 272.067 7.915 272.067 7.055C272.067 6.195 272.227 5.47 272.547 4.88C272.867 4.28 273.302 3.825 273.852 3.515C274.402 3.205 275.022 3.05 275.712 3.05C276.462 3.05 277.132 3.22 277.722 3.56C278.322 3.89 278.792 4.36 279.132 4.97C279.472 5.57 279.642 6.265 279.642 7.055C279.642 7.855 279.472 8.555 279.132 9.155C278.792 9.755 278.322 10.225 277.722 10.565C277.132 10.905 276.462 11.075 275.712 11.075ZM271.647 13.91V3.125H272.667V5.495L272.562 7.07L272.712 8.66V13.91H271.647ZM275.637 10.13C276.197 10.13 276.697 10.005 277.137 9.755C277.577 9.495 277.927 9.135 278.187 8.675C278.447 8.205 278.577 7.665 278.577 7.055C278.577 6.445 278.447 5.91 278.187 5.45C277.927 4.99 277.577 4.63 277.137 4.37C276.697 4.11 276.197 3.98 275.637 3.98C275.077 3.98 274.572 4.11 274.122 4.37C273.682 4.63 273.332 4.99 273.072 5.45C272.822 5.91 272.697 6.445 272.697 7.055C272.697 7.665 272.822 8.205 273.072 8.675C273.332 9.135 273.682 9.495 274.122 9.755C274.572 10.005 275.077 10.13 275.637 10.13ZM285.17 11.075C284.41 11.075 283.725 10.905 283.115 10.565C282.515 10.215 282.04 9.74 281.69 9.14C281.34 8.53 281.165 7.835 281.165 7.055C281.165 6.265 281.34 5.57 281.69 4.97C282.04 4.37 282.515 3.9 283.115 3.56C283.715 3.22 284.4 3.05 285.17 3.05C285.95 3.05 286.64 3.22 287.24 3.56C287.85 3.9 288.325 4.37 288.665 4.97C289.015 5.57 289.19 6.265 289.19 7.055C289.19 7.835 289.015 8.53 288.665 9.14C288.325 9.74 287.85 10.215 287.24 10.565C286.63 10.905 285.94 11.075 285.17 11.075ZM285.17 10.13C285.74 10.13 286.245 10.005 286.685 9.755C287.125 9.495 287.47 9.135 287.72 8.675C287.98 8.205 288.11 7.665 288.11 7.055C288.11 6.435 287.98 5.895 287.72 5.435C287.47 4.975 287.125 4.62 286.685 4.37C286.245 4.11 285.745 3.98 285.185 3.98C284.625 3.98 284.125 4.11 283.685 4.37C283.245 4.62 282.895 4.975 282.635 5.435C282.375 5.895 282.245 6.435 282.245 7.055C282.245 7.665 282.375 8.205 282.635 8.675C282.895 9.135 283.245 9.495 283.685 9.755C284.125 10.005 284.62 10.13 285.17 10.13ZM294.841 11.075C294.021 11.075 293.301 10.905 292.681 10.565C292.061 10.215 291.576 9.74 291.226 9.14C290.876 8.53 290.701 7.835 290.701 7.055C290.701 6.275 290.866 5.585 291.196 4.985C291.536 4.385 291.996 3.915 292.576 3.575C293.166 3.225 293.826 3.05 294.556 3.05C295.296 3.05 295.951 3.22 296.521 3.56C297.101 3.89 297.556 4.36 297.886 4.97C298.216 5.57 298.381 6.265 298.381 7.055C298.381 7.105 298.376 7.16 298.366 7.22C298.366 7.27 298.366 7.325 298.366 7.385H291.511V6.59H297.796L297.376 6.905C297.376 6.335 297.251 5.83 297.001 5.39C296.761 4.94 296.431 4.59 296.011 4.34C295.591 4.09 295.106 3.965 294.556 3.965C294.016 3.965 293.531 4.09 293.101 4.34C292.671 4.59 292.336 4.94 292.096 5.39C291.856 5.84 291.736 6.355 291.736 6.935V7.1C291.736 7.7 291.866 8.23 292.126 8.69C292.396 9.14 292.766 9.495 293.236 9.755C293.716 10.005 294.261 10.13 294.871 10.13C295.351 10.13 295.796 10.045 296.206 9.875C296.626 9.705 296.986 9.445 297.286 9.095L297.886 9.785C297.536 10.205 297.096 10.525 296.566 10.745C296.046 10.965 295.471 11.075 294.841 11.075ZM306.514 11L303.274 7.1L304.159 6.575L307.774 11H306.514ZM300.739 11V3.125H301.804V11H300.739ZM301.474 7.49V6.575H304.009V7.49H301.474ZM304.249 7.175L303.259 7.025L306.394 3.125H307.549L304.249 7.175ZM310.793 11V3.77L311.063 4.055H307.808V3.125H314.843V4.055H311.588L311.858 3.77V11H310.793Z" fill="white"/>
</svg>
