<svg width="397" height="307" viewBox="0 0 397 307" fill="none" xmlns="http://www.w3.org/2000/svg">
<path fill-rule="evenodd" clip-rule="evenodd" d="M0 0.281476V198.999C77.87 197.836 140.325 225.301 201.643 252.678C260.277 278.855 318.326 304.966 391 306V108.762C320.764 107.003 264.909 81.1669 208.356 55.0126C145.87 26.1145 82.0941 -3.19395 0 0.281476Z" fill="url(#paint0_linear_608_552)"/>
<g filter="url(#filter0_b_608_552)">
<g filter="url(#filter1_b_608_552)">
<path d="M288.719 295.586H340.281C343.129 295.586 345.438 293.249 345.438 290.366C345.438 287.484 343.129 285.147 340.281 285.147H288.719C285.871 285.147 283.562 287.484 283.562 290.366C283.562 293.249 285.871 295.586 288.719 295.586Z" fill="url(#paint1_radial_608_552)"/>
<path fill-rule="evenodd" clip-rule="evenodd" d="M282.487 255.759C282.487 255.759 281.43 253.574 279.545 252.067C279.545 252.067 269.288 243.988 263.558 232.18C263.558 232.18 257.824 220.363 257.781 207.204C257.781 207.204 257.729 195.723 262.048 185.128C262.048 185.128 266.218 174.901 273.866 166.913C273.866 166.913 281.52 158.918 291.481 154.396C291.481 154.396 301.814 149.705 313.153 149.441C313.153 149.441 331.47 149.001 346.58 159.492C346.58 159.492 361.69 169.983 367.88 187.44C367.88 187.44 374.071 204.896 369.003 222.72C369.003 222.72 363.935 240.544 349.493 252.022C349.493 252.022 347.579 253.52 346.511 255.717C346.511 255.717 345.442 257.915 345.437 260.354V264.269C345.437 264.269 345.437 268.593 342.417 271.65C342.417 271.65 339.397 274.708 335.125 274.708H293.875C293.875 274.708 289.603 274.708 286.583 271.65C286.583 271.65 283.562 268.593 283.562 264.269L283.563 260.39C283.563 260.39 283.546 257.95 282.487 255.759ZM285.916 243.858C285.916 243.858 289.657 246.842 291.749 251.169C291.749 251.169 293.842 255.498 293.875 260.318L293.875 264.269H335.125V260.354C335.125 260.354 335.134 255.476 337.258 251.108C337.258 251.108 339.381 246.74 343.186 243.763C343.186 243.763 354.947 234.416 359.093 219.833C359.093 219.833 363.24 205.25 358.174 190.967C358.174 190.967 353.109 176.684 340.747 168.101C340.747 168.101 328.384 159.517 313.398 159.877C313.398 159.877 304.133 160.093 295.701 163.921C295.701 163.921 287.547 167.623 281.271 174.178C281.271 174.178 274.997 180.731 271.581 189.111C271.581 189.111 268.051 197.77 268.094 207.156C268.094 207.156 268.128 217.921 272.814 227.577C272.814 227.577 277.5 237.233 285.89 243.837L285.916 243.858Z" fill="url(#paint2_radial_608_552)"/>
<path d="M332.722 188.44C338.516 194.291 339.905 202.455 339.905 202.455C340.33 204.959 342.476 206.789 344.986 206.789L345.043 206.789C345.317 206.786 345.591 206.761 345.861 206.714C348.335 206.282 350.142 204.111 350.142 201.57L350.142 201.512C350.139 201.235 350.114 200.958 350.068 200.684C348.122 189.248 340.005 181.05 340.005 181.05C331.887 172.853 320.582 170.913 320.582 170.913C320.298 170.864 320.009 170.84 319.72 170.84L319.643 170.84C317.157 170.878 315.052 172.706 314.637 175.187C314.588 175.475 314.564 175.767 314.564 176.059L314.566 176.198C314.593 177.233 314.924 178.237 315.516 179.081C316.308 180.21 317.51 180.974 318.859 181.205C326.928 182.59 332.722 188.44 332.722 188.44Z" fill="url(#paint3_radial_608_552)"/>
<path d="M288.719 295.586H340.281C343.129 295.586 345.438 293.249 345.438 290.366C345.438 287.484 343.129 285.147 340.281 285.147H288.719C285.871 285.147 283.562 287.484 283.562 290.366C283.562 293.249 285.871 295.586 288.719 295.586Z" stroke="url(#paint4_radial_608_552)" stroke-width="3"/>
<path d="M288.719 295.586H340.281C343.129 295.586 345.438 293.249 345.438 290.366C345.438 287.484 343.129 285.147 340.281 285.147H288.719C285.871 285.147 283.562 287.484 283.562 290.366C283.562 293.249 285.871 295.586 288.719 295.586Z" stroke="url(#paint5_radial_608_552)" stroke-width="3"/>
<path fill-rule="evenodd" clip-rule="evenodd" d="M282.487 255.759C282.487 255.759 281.43 253.574 279.545 252.067C279.545 252.067 269.288 243.988 263.558 232.18C263.558 232.18 257.824 220.363 257.781 207.204C257.781 207.204 257.729 195.723 262.048 185.128C262.048 185.128 266.218 174.901 273.866 166.913C273.866 166.913 281.52 158.918 291.481 154.396C291.481 154.396 301.814 149.705 313.153 149.441C313.153 149.441 331.47 149.001 346.58 159.492C346.58 159.492 361.69 169.983 367.88 187.44C367.88 187.44 374.071 204.896 369.003 222.72C369.003 222.72 363.935 240.544 349.493 252.022C349.493 252.022 347.579 253.52 346.511 255.717C346.511 255.717 345.442 257.915 345.437 260.354V264.269C345.437 264.269 345.437 268.593 342.417 271.65C342.417 271.65 339.397 274.708 335.125 274.708H293.875C293.875 274.708 289.603 274.708 286.583 271.65C286.583 271.65 283.562 268.593 283.562 264.269L283.563 260.39C283.563 260.39 283.546 257.95 282.487 255.759ZM285.916 243.858C285.916 243.858 289.657 246.842 291.749 251.169C291.749 251.169 293.842 255.498 293.875 260.318L293.875 264.269H335.125V260.354C335.125 260.354 335.134 255.476 337.258 251.108C337.258 251.108 339.381 246.74 343.186 243.763C343.186 243.763 354.947 234.416 359.093 219.833C359.093 219.833 363.24 205.25 358.174 190.967C358.174 190.967 353.109 176.684 340.747 168.101C340.747 168.101 328.384 159.517 313.398 159.877C313.398 159.877 304.133 160.093 295.701 163.921C295.701 163.921 287.547 167.623 281.271 174.178C281.271 174.178 274.997 180.731 271.581 189.111C271.581 189.111 268.051 197.77 268.094 207.156C268.094 207.156 268.128 217.921 272.814 227.577C272.814 227.577 277.5 237.233 285.89 243.837L285.916 243.858Z" stroke="url(#paint6_radial_608_552)" stroke-width="3"/>
<path fill-rule="evenodd" clip-rule="evenodd" d="M282.487 255.759C282.487 255.759 281.43 253.574 279.545 252.067C279.545 252.067 269.288 243.988 263.558 232.18C263.558 232.18 257.824 220.363 257.781 207.204C257.781 207.204 257.729 195.723 262.048 185.128C262.048 185.128 266.218 174.901 273.866 166.913C273.866 166.913 281.52 158.918 291.481 154.396C291.481 154.396 301.814 149.705 313.153 149.441C313.153 149.441 331.47 149.001 346.58 159.492C346.58 159.492 361.69 169.983 367.88 187.44C367.88 187.44 374.071 204.896 369.003 222.72C369.003 222.72 363.935 240.544 349.493 252.022C349.493 252.022 347.579 253.52 346.511 255.717C346.511 255.717 345.442 257.915 345.437 260.354V264.269C345.437 264.269 345.437 268.593 342.417 271.65C342.417 271.65 339.397 274.708 335.125 274.708H293.875C293.875 274.708 289.603 274.708 286.583 271.65C286.583 271.65 283.562 268.593 283.562 264.269L283.563 260.39C283.563 260.39 283.546 257.95 282.487 255.759ZM285.916 243.858C285.916 243.858 289.657 246.842 291.749 251.169C291.749 251.169 293.842 255.498 293.875 260.318L293.875 264.269H335.125V260.354C335.125 260.354 335.134 255.476 337.258 251.108C337.258 251.108 339.381 246.74 343.186 243.763C343.186 243.763 354.947 234.416 359.093 219.833C359.093 219.833 363.24 205.25 358.174 190.967C358.174 190.967 353.109 176.684 340.747 168.101C340.747 168.101 328.384 159.517 313.398 159.877C313.398 159.877 304.133 160.093 295.701 163.921C295.701 163.921 287.547 167.623 281.271 174.178C281.271 174.178 274.997 180.731 271.581 189.111C271.581 189.111 268.051 197.77 268.094 207.156C268.094 207.156 268.128 217.921 272.814 227.577C272.814 227.577 277.5 237.233 285.89 243.837L285.916 243.858Z" stroke="url(#paint7_radial_608_552)" stroke-width="3"/>
<path d="M332.722 188.44C338.516 194.291 339.905 202.455 339.905 202.455C340.33 204.959 342.476 206.789 344.986 206.789L345.043 206.789C345.317 206.786 345.591 206.761 345.861 206.714C348.335 206.282 350.142 204.111 350.142 201.57L350.142 201.512C350.139 201.235 350.114 200.958 350.068 200.684C348.122 189.248 340.005 181.05 340.005 181.05C331.887 172.853 320.582 170.913 320.582 170.913C320.298 170.864 320.009 170.84 319.72 170.84L319.643 170.84C317.157 170.878 315.052 172.706 314.637 175.187C314.588 175.475 314.564 175.767 314.564 176.059L314.566 176.198C314.593 177.233 314.924 178.237 315.516 179.081C316.308 180.21 317.51 180.974 318.859 181.205C326.928 182.59 332.722 188.44 332.722 188.44Z" stroke="url(#paint8_radial_608_552)" stroke-width="3"/>
<path d="M332.722 188.44C338.516 194.291 339.905 202.455 339.905 202.455C340.33 204.959 342.476 206.789 344.986 206.789L345.043 206.789C345.317 206.786 345.591 206.761 345.861 206.714C348.335 206.282 350.142 204.111 350.142 201.57L350.142 201.512C350.139 201.235 350.114 200.958 350.068 200.684C348.122 189.248 340.005 181.05 340.005 181.05C331.887 172.853 320.582 170.913 320.582 170.913C320.298 170.864 320.009 170.84 319.72 170.84L319.643 170.84C317.157 170.878 315.052 172.706 314.637 175.187C314.588 175.475 314.564 175.767 314.564 176.059L314.566 176.198C314.593 177.233 314.924 178.237 315.516 179.081C316.308 180.21 317.51 180.974 318.859 181.205C326.928 182.59 332.722 188.44 332.722 188.44Z" stroke="url(#paint9_radial_608_552)" stroke-width="3"/>
</g>
</g>
<g filter="url(#filter2_b_608_552)">
<path d="M275.416 164.796C267.956 160.878 260.032 157.901 252.185 154.811C247.634 153.024 243.277 150.936 239.424 148.019C231.835 142.261 233.224 132.864 242.046 129.113C244.544 128.052 247.164 127.705 249.824 127.545C260.074 126.982 269.83 128.751 279.132 133C283.763 135.125 285.285 134.444 286.822 129.817C288.435 124.928 289.774 119.964 291.27 115.037C292.267 111.728 291.001 109.553 287.744 108.175C281.78 105.679 275.663 103.898 269.239 102.944C260.856 101.734 260.856 101.696 260.767 93.6197C260.657 82.237 260.657 82.237 248.76 82.2795C247.038 82.2856 245.316 82.2542 243.594 82.2979C238.038 82.4681 237.104 83.4106 236.981 88.7833C236.918 91.1878 237.011 93.5918 236.987 96.0338C236.992 103.172 236.953 103.059 229.845 105.564C212.663 111.636 202.089 122.944 201.066 140.981C200.148 156.95 208.903 167.701 222.61 175.504C231.054 180.32 240.386 183.142 249.332 186.904C252.825 188.357 256.162 190.035 259.072 192.354C267.685 199.123 266.19 210.437 256.041 214.756C250.616 217.067 244.866 217.651 238.953 216.958C229.827 215.901 221.086 213.641 212.842 209.575C208.014 207.188 206.609 207.832 204.996 212.834C203.614 217.159 202.389 221.522 201.164 225.884C199.517 231.75 200.152 233.138 206 235.86C213.457 239.289 221.413 241.027 229.522 242.237C235.868 243.191 236.065 243.454 236.182 249.765C236.239 252.62 236.257 255.512 236.314 258.367C236.376 261.974 238.189 264.071 242.064 264.132C246.448 264.192 250.87 264.176 255.252 264.047C258.852 263.959 260.68 262.075 260.658 258.581C260.634 254.674 260.805 250.729 260.624 246.822C260.404 242.841 262.191 240.806 266.176 239.74C275.358 237.302 283.156 232.541 289.139 225.457C305.767 205.862 299.21 177.296 275.416 164.796Z" fill="url(#paint10_radial_608_552)"/>
<path d="M266.176 239.74C262.191 240.806 260.404 242.841 260.624 246.822L259.126 246.888C259.126 246.89 259.126 246.892 259.126 246.894M266.176 239.74L291.27 115.037M266.176 239.74C275.358 237.302 283.156 232.541 289.139 225.457L266.176 239.74ZM259.126 246.894C259.004 244.669 259.435 242.76 260.654 241.245C261.852 239.757 263.642 238.864 265.785 238.29L265.788 238.29C274.694 235.926 282.22 231.322 287.992 224.487L287.994 224.485C303.939 205.695 297.751 178.222 274.721 166.124C268.185 162.691 261.286 159.988 254.309 157.254C253.42 156.906 252.53 156.557 251.639 156.206C247.029 154.396 242.53 152.249 238.521 149.214L238.519 149.213C234.362 146.059 232.506 141.76 233.096 137.599C233.684 133.451 236.653 129.774 241.456 127.732L241.456 127.732C244.189 126.572 247.011 126.211 249.73 126.048L249.738 126.047C260.222 125.472 270.221 127.282 279.752 131.636L279.754 131.637C280.873 132.151 281.712 132.45 282.36 132.579C282.994 132.705 283.34 132.647 283.554 132.557C283.763 132.469 284.031 132.273 284.355 131.761C284.69 131.232 285.027 130.457 285.398 129.342C286.421 126.241 287.324 123.139 288.237 120.006C288.758 118.215 289.283 116.414 289.834 114.598M259.126 246.894C259.24 249.368 259.212 251.811 259.182 254.299C259.166 255.709 259.149 257.133 259.158 258.586C259.167 260.08 258.783 260.989 258.243 261.538C257.699 262.091 256.77 262.51 255.212 262.548L255.204 262.548C250.848 262.676 246.448 262.692 242.082 262.632M259.126 246.894L242.082 262.632M289.834 114.598C289.834 114.598 289.834 114.598 289.834 114.598L291.27 115.037M289.834 114.598C289.834 114.599 289.834 114.6 289.833 114.601L291.27 115.037M289.834 114.598C290.254 113.201 290.138 112.262 289.777 111.582C289.401 110.872 288.616 110.171 287.165 109.557M291.27 115.037C292.267 111.728 291.001 109.553 287.744 108.175M287.165 109.557C287.166 109.557 287.167 109.558 287.168 109.558L287.744 108.175M287.165 109.557C287.164 109.557 287.163 109.556 287.162 109.556L287.744 108.175M287.165 109.557C281.307 107.106 275.313 105.362 269.026 104.428C266.963 104.13 265.3 103.89 264.026 103.566C262.749 103.242 261.611 102.777 260.782 101.862C259.945 100.937 259.619 99.7683 259.461 98.4945C259.307 97.2521 259.289 95.6655 259.268 93.7243L259.267 93.6323L259.267 93.6302C259.239 90.7463 259.217 88.7161 259.029 87.2231C258.841 85.7259 258.518 85.0967 258.155 84.7543C257.779 84.3992 257.083 84.0884 255.49 83.9249C253.914 83.7631 251.778 83.7687 248.769 83.7795C248.171 83.7816 247.586 83.7794 247.006 83.7772C245.874 83.773 244.766 83.7688 243.64 83.7973C242.273 83.8393 241.292 83.9276 240.567 84.0908C239.857 84.251 239.509 84.4586 239.304 84.66C239.103 84.8581 238.901 85.1875 238.748 85.8621C238.591 86.5563 238.511 87.4988 238.481 88.8216L238.481 88.8267C238.444 90.2017 238.459 91.5017 238.474 92.8385C238.486 93.8684 238.498 94.9202 238.487 96.0448C238.488 97.7936 238.489 99.2184 238.364 100.351C238.236 101.51 237.96 102.552 237.277 103.448C236.605 104.329 235.667 104.899 234.581 105.389C233.586 105.839 232.304 106.29 230.74 106.841C230.611 106.886 230.48 106.932 230.347 106.979C221.936 109.952 215.248 114.169 210.544 119.754C205.853 125.324 203.058 132.343 202.564 141.07L202.563 141.071C202.123 148.738 203.999 155.093 207.599 160.473C211.216 165.878 216.625 170.373 223.349 174.201L223.35 174.201C229.009 177.429 234.998 179.715 241.12 182.052C244.027 183.161 246.963 184.282 249.908 185.521C253.455 186.996 256.935 188.737 260.001 191.179C264.672 194.852 266.723 199.876 266.079 204.677C265.434 209.478 262.13 213.796 256.632 216.136C250.928 218.565 244.91 219.165 238.784 218.448C238.783 218.448 238.783 218.448 238.782 218.448L238.953 216.958L287.744 108.175M242.082 262.632C240.406 262.606 239.422 262.147 238.839 261.541C238.245 260.924 237.841 259.92 237.814 258.346L237.814 258.341C237.786 256.92 237.767 255.488 237.748 254.05L237.748 254.049C237.729 252.614 237.711 251.173 237.682 249.741C237.653 248.187 237.619 246.887 237.469 245.849C237.317 244.798 237.02 243.807 236.312 243.003C235.606 242.2 234.658 241.776 233.627 241.485C232.606 241.197 231.306 240.989 229.741 240.754L229.739 240.754C221.687 239.551 213.894 237.84 206.626 234.498C205.184 233.827 204.15 233.276 203.409 232.753C202.68 232.239 202.317 231.807 202.123 231.403C201.718 230.564 201.765 229.297 202.608 226.293L242.082 262.632ZM202.608 226.293C203.834 221.927 205.052 217.591 206.425 213.295L202.608 226.293Z" stroke="url(#paint11_radial_608_552)" stroke-width="3"/>
<path d="M266.176 239.74C262.191 240.806 260.404 242.841 260.624 246.822L259.126 246.888C259.126 246.89 259.126 246.892 259.126 246.894M266.176 239.74L291.27 115.037M266.176 239.74C275.358 237.302 283.156 232.541 289.139 225.457L266.176 239.74ZM259.126 246.894C259.004 244.669 259.435 242.76 260.654 241.245C261.852 239.757 263.642 238.864 265.785 238.29L265.788 238.29C274.694 235.926 282.22 231.322 287.992 224.487L287.994 224.485C303.939 205.695 297.751 178.222 274.721 166.124C268.185 162.691 261.286 159.988 254.309 157.254C253.42 156.906 252.53 156.557 251.639 156.206C247.029 154.396 242.53 152.249 238.521 149.214L238.519 149.213C234.362 146.059 232.506 141.76 233.096 137.599C233.684 133.451 236.653 129.774 241.456 127.732L241.456 127.732C244.189 126.572 247.011 126.211 249.73 126.048L249.738 126.047C260.222 125.472 270.221 127.282 279.752 131.636L279.754 131.637C280.873 132.151 281.712 132.45 282.36 132.579C282.994 132.705 283.34 132.647 283.554 132.557C283.763 132.469 284.031 132.273 284.355 131.761C284.69 131.232 285.027 130.457 285.398 129.342C286.421 126.241 287.324 123.139 288.237 120.006C288.758 118.215 289.283 116.414 289.834 114.598M259.126 246.894C259.24 249.368 259.212 251.811 259.182 254.299C259.166 255.709 259.149 257.133 259.158 258.586C259.167 260.08 258.783 260.989 258.243 261.538C257.699 262.091 256.77 262.51 255.212 262.548L255.204 262.548C250.848 262.676 246.448 262.692 242.082 262.632M259.126 246.894L242.082 262.632M289.834 114.598C289.834 114.598 289.834 114.598 289.834 114.598L291.27 115.037M289.834 114.598C289.834 114.599 289.834 114.6 289.833 114.601L291.27 115.037M289.834 114.598C290.254 113.201 290.138 112.262 289.777 111.582C289.401 110.872 288.616 110.171 287.165 109.557M291.27 115.037C292.267 111.728 291.001 109.553 287.744 108.175M287.165 109.557C287.166 109.557 287.167 109.558 287.168 109.558L287.744 108.175M287.165 109.557C287.164 109.557 287.163 109.556 287.162 109.556L287.744 108.175M287.165 109.557C281.307 107.106 275.313 105.362 269.026 104.428C266.963 104.13 265.3 103.89 264.026 103.566C262.749 103.242 261.611 102.777 260.782 101.862C259.945 100.937 259.619 99.7683 259.461 98.4945C259.307 97.2521 259.289 95.6655 259.268 93.7243L259.267 93.6323L259.267 93.6302C259.239 90.7463 259.217 88.7161 259.029 87.2231C258.841 85.7259 258.518 85.0967 258.155 84.7543C257.779 84.3992 257.083 84.0884 255.49 83.9249C253.914 83.7631 251.778 83.7687 248.769 83.7795C248.171 83.7816 247.586 83.7794 247.006 83.7772C245.874 83.773 244.766 83.7688 243.64 83.7973C242.273 83.8393 241.292 83.9276 240.567 84.0908C239.857 84.251 239.509 84.4586 239.304 84.66C239.103 84.8581 238.901 85.1875 238.748 85.8621C238.591 86.5563 238.511 87.4988 238.481 88.8216L238.481 88.8267C238.444 90.2017 238.459 91.5017 238.474 92.8385C238.486 93.8684 238.498 94.9202 238.487 96.0448C238.488 97.7936 238.489 99.2184 238.364 100.351C238.236 101.51 237.96 102.552 237.277 103.448C236.605 104.329 235.667 104.899 234.581 105.389C233.586 105.839 232.304 106.29 230.74 106.841C230.611 106.886 230.48 106.932 230.347 106.979C221.936 109.952 215.248 114.169 210.544 119.754C205.853 125.324 203.058 132.343 202.564 141.07L202.563 141.071C202.123 148.738 203.999 155.093 207.599 160.473C211.216 165.878 216.625 170.373 223.349 174.201L223.35 174.201C229.009 177.429 234.998 179.715 241.12 182.052C244.027 183.161 246.963 184.282 249.908 185.521C253.455 186.996 256.935 188.737 260.001 191.179C264.672 194.852 266.723 199.876 266.079 204.677C265.434 209.478 262.13 213.796 256.632 216.136C250.928 218.565 244.91 219.165 238.784 218.448C238.783 218.448 238.783 218.448 238.782 218.448L238.953 216.958L287.744 108.175M242.082 262.632C240.406 262.606 239.422 262.147 238.839 261.541C238.245 260.924 237.841 259.92 237.814 258.346L237.814 258.341C237.786 256.92 237.767 255.488 237.748 254.05L237.748 254.049C237.729 252.614 237.711 251.173 237.682 249.741C237.653 248.187 237.619 246.887 237.469 245.849C237.317 244.798 237.02 243.807 236.312 243.003C235.606 242.2 234.658 241.776 233.627 241.485C232.606 241.197 231.306 240.989 229.741 240.754L229.739 240.754C221.687 239.551 213.894 237.84 206.626 234.498C205.184 233.827 204.15 233.276 203.409 232.753C202.68 232.239 202.317 231.807 202.123 231.403C201.718 230.564 201.765 229.297 202.608 226.293L242.082 262.632ZM202.608 226.293C203.834 221.927 205.052 217.591 206.425 213.295L202.608 226.293Z" stroke="url(#paint12_radial_608_552)" stroke-width="3"/>
<path d="M266.176 239.74C262.191 240.806 260.404 242.841 260.624 246.822L259.126 246.888C259.126 246.89 259.126 246.892 259.126 246.894M266.176 239.74L291.27 115.037M266.176 239.74C275.358 237.302 283.156 232.541 289.139 225.457L266.176 239.74ZM259.126 246.894C259.004 244.669 259.435 242.76 260.654 241.245C261.852 239.757 263.642 238.864 265.785 238.29L265.788 238.29C274.694 235.926 282.22 231.322 287.992 224.487L287.994 224.485C303.939 205.695 297.751 178.222 274.721 166.124C268.185 162.691 261.286 159.988 254.309 157.254C253.42 156.906 252.53 156.557 251.639 156.206C247.029 154.396 242.53 152.249 238.521 149.214L238.519 149.213C234.362 146.059 232.506 141.76 233.096 137.599C233.684 133.451 236.653 129.774 241.456 127.732L241.456 127.732C244.189 126.572 247.011 126.211 249.73 126.048L249.738 126.047C260.222 125.472 270.221 127.282 279.752 131.636L279.754 131.637C280.873 132.151 281.712 132.45 282.36 132.579C282.994 132.705 283.34 132.647 283.554 132.557C283.763 132.469 284.031 132.273 284.355 131.761C284.69 131.232 285.027 130.457 285.398 129.342C286.421 126.241 287.324 123.139 288.237 120.006C288.758 118.215 289.283 116.414 289.834 114.598M259.126 246.894C259.24 249.368 259.212 251.811 259.182 254.299C259.166 255.709 259.149 257.133 259.158 258.586C259.167 260.08 258.783 260.989 258.243 261.538C257.699 262.091 256.77 262.51 255.212 262.548L255.204 262.548C250.848 262.676 246.448 262.692 242.082 262.632M259.126 246.894L242.082 262.632M289.834 114.598C289.834 114.598 289.834 114.598 289.834 114.598L291.27 115.037M289.834 114.598C289.834 114.599 289.834 114.6 289.833 114.601L291.27 115.037M289.834 114.598C290.254 113.201 290.138 112.262 289.777 111.582C289.401 110.872 288.616 110.171 287.165 109.557M291.27 115.037C292.267 111.728 291.001 109.553 287.744 108.175M287.165 109.557C287.166 109.557 287.167 109.558 287.168 109.558L287.744 108.175M287.165 109.557C287.164 109.557 287.163 109.556 287.162 109.556L287.744 108.175M287.165 109.557C281.307 107.106 275.313 105.362 269.026 104.428C266.963 104.13 265.3 103.89 264.026 103.566C262.749 103.242 261.611 102.777 260.782 101.862C259.945 100.937 259.619 99.7683 259.461 98.4945C259.307 97.2521 259.289 95.6655 259.268 93.7243L259.267 93.6323L259.267 93.6302C259.239 90.7463 259.217 88.7161 259.029 87.2231C258.841 85.7259 258.518 85.0967 258.155 84.7543C257.779 84.3992 257.083 84.0884 255.49 83.9249C253.914 83.7631 251.778 83.7687 248.769 83.7795C248.171 83.7816 247.586 83.7794 247.006 83.7772C245.874 83.773 244.766 83.7688 243.64 83.7973C242.273 83.8393 241.292 83.9276 240.567 84.0908C239.857 84.251 239.509 84.4586 239.304 84.66C239.103 84.8581 238.901 85.1875 238.748 85.8621C238.591 86.5563 238.511 87.4988 238.481 88.8216L238.481 88.8267C238.444 90.2017 238.459 91.5017 238.474 92.8385C238.486 93.8684 238.498 94.9202 238.487 96.0448C238.488 97.7936 238.489 99.2184 238.364 100.351C238.236 101.51 237.96 102.552 237.277 103.448C236.605 104.329 235.667 104.899 234.581 105.389C233.586 105.839 232.304 106.29 230.74 106.841C230.611 106.886 230.48 106.932 230.347 106.979C221.936 109.952 215.248 114.169 210.544 119.754C205.853 125.324 203.058 132.343 202.564 141.07L202.563 141.071C202.123 148.738 203.999 155.093 207.599 160.473C211.216 165.878 216.625 170.373 223.349 174.201L223.35 174.201C229.009 177.429 234.998 179.715 241.12 182.052C244.027 183.161 246.963 184.282 249.908 185.521C253.455 186.996 256.935 188.737 260.001 191.179C264.672 194.852 266.723 199.876 266.079 204.677C265.434 209.478 262.13 213.796 256.632 216.136C250.928 218.565 244.91 219.165 238.784 218.448C238.783 218.448 238.783 218.448 238.782 218.448L238.953 216.958L287.744 108.175M242.082 262.632C240.406 262.606 239.422 262.147 238.839 261.541C238.245 260.924 237.841 259.92 237.814 258.346L237.814 258.341C237.786 256.92 237.767 255.488 237.748 254.05L237.748 254.049C237.729 252.614 237.711 251.173 237.682 249.741C237.653 248.187 237.619 246.887 237.469 245.849C237.317 244.798 237.02 243.807 236.312 243.003C235.606 242.2 234.658 241.776 233.627 241.485C232.606 241.197 231.306 240.989 229.741 240.754L229.739 240.754C221.687 239.551 213.894 237.84 206.626 234.498C205.184 233.827 204.15 233.276 203.409 232.753C202.68 232.239 202.317 231.807 202.123 231.403C201.718 230.564 201.765 229.297 202.608 226.293L242.082 262.632ZM202.608 226.293C203.834 221.927 205.052 217.591 206.425 213.295L202.608 226.293Z" stroke="url(#paint13_linear_608_552)" stroke-width="3"/>
</g>
<defs>
<filter id="filter0_b_608_552" x="228" y="135" width="173" height="175.024" filterUnits="userSpaceOnUse" color-interpolation-filters="sRGB">
<feFlood flood-opacity="0" result="BackgroundImageFix"/>
<feGaussianBlur in="BackgroundImageFix" stdDeviation="2"/>
<feComposite in2="SourceAlpha" operator="in" result="effect1_backgroundBlur_608_552"/>
<feBlend mode="normal" in="SourceGraphic" in2="effect1_backgroundBlur_608_552" result="shape"/>
</filter>
<filter id="filter1_b_608_552" x="214.281" y="105.938" width="200.216" height="233.148" filterUnits="userSpaceOnUse" color-interpolation-filters="sRGB">
<feFlood flood-opacity="0" result="BackgroundImageFix"/>
<feGaussianBlur in="BackgroundImageFix" stdDeviation="21"/>
<feComposite in2="SourceAlpha" operator="in" result="effect1_backgroundBlur_608_552"/>
<feBlend mode="normal" in="SourceGraphic" in2="effect1_backgroundBlur_608_552" result="shape"/>
</filter>
<filter id="filter2_b_608_552" x="158.377" y="40.2744" width="182.001" height="265.891" filterUnits="userSpaceOnUse" color-interpolation-filters="sRGB">
<feFlood flood-opacity="0" result="BackgroundImageFix"/>
<feGaussianBlur in="BackgroundImageFix" stdDeviation="21"/>
<feComposite in2="SourceAlpha" operator="in" result="effect1_backgroundBlur_608_552"/>
<feBlend mode="normal" in="SourceGraphic" in2="effect1_backgroundBlur_608_552" result="shape"/>
</filter>
<linearGradient id="paint0_linear_608_552" x1="6.68905e-06" y1="78.1904" x2="606.554" y2="218.668" gradientUnits="userSpaceOnUse">
<stop stop-color="#9BEC8B"/>
<stop offset="1" stop-color="#24B8B1"/>
</linearGradient>
<radialGradient id="paint1_radial_608_552" cx="0" cy="0" r="1" gradientUnits="userSpaceOnUse" gradientTransform="translate(258.8 153.786) rotate(51.3361) scale(176.807 276.034)">
<stop stop-color="#90E78E" stop-opacity="0.65"/>
<stop offset="1" stop-color="white" stop-opacity="0"/>
</radialGradient>
<radialGradient id="paint2_radial_608_552" cx="0" cy="0" r="1" gradientUnits="userSpaceOnUse" gradientTransform="translate(258.8 153.786) rotate(51.3361) scale(176.807 276.034)">
<stop stop-color="#90E78E" stop-opacity="0.65"/>
<stop offset="1" stop-color="white" stop-opacity="0"/>
</radialGradient>
<radialGradient id="paint3_radial_608_552" cx="0" cy="0" r="1" gradientUnits="userSpaceOnUse" gradientTransform="translate(258.8 153.786) rotate(51.3361) scale(176.807 276.034)">
<stop stop-color="#90E78E" stop-opacity="0.65"/>
<stop offset="1" stop-color="white" stop-opacity="0"/>
</radialGradient>
<radialGradient id="paint4_radial_608_552" cx="0" cy="0" r="1" gradientUnits="userSpaceOnUse" gradientTransform="translate(258.8 153.786) rotate(51.3361) scale(176.807 276.034)">
<stop stop-color="#4E6847" stop-opacity="0.24"/>
<stop offset="1" stop-color="#DAFFD1"/>
</radialGradient>
<radialGradient id="paint5_radial_608_552" cx="0" cy="0" r="1" gradientUnits="userSpaceOnUse" gradientTransform="translate(259.339 291.117) rotate(-51.3257) scale(175.905 274.361)">
<stop stop-color="#4DDB2C" stop-opacity="0.04"/>
<stop offset="1" stop-color="#DAFFD1"/>
</radialGradient>
<radialGradient id="paint6_radial_608_552" cx="0" cy="0" r="1" gradientUnits="userSpaceOnUse" gradientTransform="translate(258.8 153.786) rotate(51.3361) scale(176.807 276.034)">
<stop stop-color="#4E6847" stop-opacity="0.24"/>
<stop offset="1" stop-color="#DAFFD1"/>
</radialGradient>
<radialGradient id="paint7_radial_608_552" cx="0" cy="0" r="1" gradientUnits="userSpaceOnUse" gradientTransform="translate(259.339 291.117) rotate(-51.3257) scale(175.905 274.361)">
<stop stop-color="#4DDB2C" stop-opacity="0.04"/>
<stop offset="1" stop-color="#DAFFD1"/>
</radialGradient>
<radialGradient id="paint8_radial_608_552" cx="0" cy="0" r="1" gradientUnits="userSpaceOnUse" gradientTransform="translate(258.8 153.786) rotate(51.3361) scale(176.807 276.034)">
<stop stop-color="#4E6847" stop-opacity="0.24"/>
<stop offset="1" stop-color="#DAFFD1"/>
</radialGradient>
<radialGradient id="paint9_radial_608_552" cx="0" cy="0" r="1" gradientUnits="userSpaceOnUse" gradientTransform="translate(259.339 291.117) rotate(-51.3257) scale(175.905 274.361)">
<stop stop-color="#4DDB2C" stop-opacity="0.04"/>
<stop offset="1" stop-color="#DAFFD1"/>
</radialGradient>
<radialGradient id="paint10_radial_608_552" cx="0" cy="0" r="1" gradientUnits="userSpaceOnUse" gradientTransform="translate(200.375 87.8475) rotate(60.5397) scale(196.945 267.471)">
<stop stop-color="#93E98E" stop-opacity="0.4"/>
<stop offset="1" stop-color="white" stop-opacity="0"/>
</radialGradient>
<radialGradient id="paint11_radial_608_552" cx="0" cy="0" r="1" gradientUnits="userSpaceOnUse" gradientTransform="translate(200.375 87.8475) rotate(60.5397) scale(196.945 267.471)">
<stop stop-color="#D8D8D8" stop-opacity="0"/>
<stop offset="1" stop-color="#D8D8D8"/>
</radialGradient>
<radialGradient id="paint12_radial_608_552" cx="0" cy="0" r="1" gradientUnits="userSpaceOnUse" gradientTransform="translate(201.906 258.766) rotate(-61.1716) scale(195.488 266.465)">
<stop stop-color="#D8D8D8" stop-opacity="0"/>
<stop offset="1" stop-color="#D8D8D8"/>
</radialGradient>
<linearGradient id="paint13_linear_608_552" x1="201.307" y1="87.3932" x2="331.04" y2="118.553" gradientUnits="userSpaceOnUse">
<stop stop-color="#93E98E" stop-opacity="0.9"/>
<stop offset="1" stop-color="#93E98E" stop-opacity="0"/>
</linearGradient>
</defs>
</svg>
