<svg width="42" height="8" viewBox="0 0 42 8" fill="none" xmlns="http://www.w3.org/2000/svg">
<path d="M0.964609 7V-4.76837e-07H5.71461L5.70461 1.1H1.93461L2.23461 0.789999L2.24461 7H0.964609ZM4.38031 6.99L4.44031 5.94C4.48698 5.94667 4.53031 5.95333 4.57031 5.96C4.61031 5.96667 4.64698 5.97 4.68031 5.97C4.88698 5.97 5.04698 5.90667 5.16031 5.78C5.27365 5.65333 5.35698 5.48333 5.41031 5.27C5.47031 5.05 5.51031 4.80667 5.53031 4.54C5.55698 4.26667 5.57698 3.99333 5.59031 3.72L5.68031 1.66H10.0003V7H8.75031V2.38L9.04031 2.72H6.50031L6.77031 2.37L6.70031 3.78C6.68031 4.25333 6.64031 4.69333 6.58031 5.1C6.52698 5.5 6.44031 5.85 6.32031 6.15C6.20698 6.45 6.04698 6.68333 5.84031 6.85C5.64031 7.01667 5.38365 7.1 5.07031 7.1C4.97031 7.1 4.86031 7.09 4.74031 7.07C4.62698 7.05 4.50698 7.02333 4.38031 6.99ZM14.9238 7V5.92L14.8538 5.69V3.8C14.8538 3.43333 14.7438 3.15 14.5238 2.95C14.3038 2.74333 13.9704 2.64 13.5238 2.64C13.2238 2.64 12.9271 2.68667 12.6338 2.78C12.3471 2.87333 12.1038 3.00333 11.9038 3.17L11.4138 2.26C11.7004 2.04 12.0404 1.87667 12.4338 1.77C12.8338 1.65667 13.2471 1.6 13.6738 1.6C14.4471 1.6 15.0438 1.78667 15.4638 2.16C15.8904 2.52667 16.1038 3.09667 16.1038 3.87V7H14.9238ZM13.2438 7.07C12.8438 7.07 12.4938 7.00333 12.1938 6.87C11.8938 6.73 11.6604 6.54 11.4938 6.3C11.3338 6.05333 11.2538 5.77667 11.2538 5.47C11.2538 5.17 11.3238 4.9 11.4638 4.66C11.6104 4.42 11.8471 4.23 12.1738 4.09C12.5004 3.95 12.9338 3.88 13.4738 3.88H15.0238V4.71H13.5638C13.1371 4.71 12.8504 4.78 12.7038 4.92C12.5571 5.05333 12.4838 5.22 12.4838 5.42C12.4838 5.64667 12.5738 5.82667 12.7538 5.96C12.9338 6.09333 13.1838 6.16 13.5038 6.16C13.8104 6.16 14.0838 6.09 14.3238 5.95C14.5704 5.81 14.7471 5.60333 14.8538 5.33L15.0638 6.08C14.9438 6.39333 14.7271 6.63667 14.4138 6.81C14.1071 6.98333 13.7171 7.07 13.2438 7.07ZM17.6505 7V1.66H20.2605C20.9072 1.66 21.4139 1.78 21.7805 2.02C22.1539 2.26 22.3405 2.6 22.3405 3.04C22.3405 3.47333 22.1672 3.81333 21.8205 4.06C21.4739 4.3 21.0139 4.42 20.4405 4.42L20.5905 4.11C21.2372 4.11 21.7172 4.23 22.0305 4.47C22.3505 4.70333 22.5105 5.04667 22.5105 5.5C22.5105 5.97333 22.3339 6.34333 21.9805 6.61C21.6272 6.87 21.0905 7 20.3705 7H17.6505ZM18.8405 6.09H20.2705C20.6105 6.09 20.8672 6.03667 21.0405 5.93C21.2139 5.81667 21.3005 5.64667 21.3005 5.42C21.3005 5.18 21.2205 5.00333 21.0605 4.89C20.9005 4.77667 20.6505 4.72 20.3105 4.72H18.8405V6.09ZM18.8405 3.89H20.1505C20.4705 3.89 20.7105 3.83333 20.8705 3.72C21.0372 3.6 21.1205 3.43333 21.1205 3.22C21.1205 3 21.0372 2.83667 20.8705 2.73C20.7105 2.62333 20.4705 2.57 20.1505 2.57H18.8405V3.89ZM23.842 7V1.66H25.092V3.83H27.782V1.66H29.032V7H27.782V4.89H25.092V7H23.842ZM33.9472 7V5.92L33.8772 5.69V3.8C33.8772 3.43333 33.7672 3.15 33.5472 2.95C33.3272 2.74333 32.9939 2.64 32.5472 2.64C32.2472 2.64 31.9505 2.68667 31.6572 2.78C31.3705 2.87333 31.1272 3.00333 30.9272 3.17L30.4372 2.26C30.7239 2.04 31.0639 1.87667 31.4572 1.77C31.8572 1.65667 32.2705 1.6 32.6972 1.6C33.4705 1.6 34.0672 1.78667 34.4872 2.16C34.9139 2.52667 35.1272 3.09667 35.1272 3.87V7H33.9472ZM32.2672 7.07C31.8672 7.07 31.5172 7.00333 31.2172 6.87C30.9172 6.73 30.6839 6.54 30.5172 6.3C30.3572 6.05333 30.2772 5.77667 30.2772 5.47C30.2772 5.17 30.3472 4.9 30.4872 4.66C30.6339 4.42 30.8705 4.23 31.1972 4.09C31.5239 3.95 31.9572 3.88 32.4972 3.88H34.0472V4.71H32.5872C32.1605 4.71 31.8739 4.78 31.7272 4.92C31.5805 5.05333 31.5072 5.22 31.5072 5.42C31.5072 5.64667 31.5972 5.82667 31.7772 5.96C31.9572 6.09333 32.2072 6.16 32.5272 6.16C32.8339 6.16 33.1072 6.09 33.3472 5.95C33.5939 5.81 33.7705 5.60333 33.8772 5.33L34.0872 6.08C33.9672 6.39333 33.7505 6.63667 33.4372 6.81C33.1305 6.98333 32.7405 7.07 32.2672 7.07ZM40.064 7V5.18L40.244 5.39H38.644C37.9107 5.39 37.334 5.23667 36.914 4.93C36.5007 4.61667 36.294 4.16667 36.294 3.58C36.294 2.95333 36.514 2.47667 36.954 2.15C37.4007 1.82333 37.994 1.66 38.734 1.66H41.184V7H40.064ZM36.224 7L37.664 4.96H38.944L37.564 7H36.224ZM40.064 4.78V2.38L40.244 2.71H38.774C38.3873 2.71 38.0873 2.78333 37.874 2.93C37.6673 3.07 37.564 3.3 37.564 3.62C37.564 4.22 37.954 4.52 38.734 4.52H40.244L40.064 4.78Z" fill="white"/>
</svg>
