<svg width="205" height="20" viewBox="0 0 205 20" fill="none" xmlns="http://www.w3.org/2000/svg">
<path d="M0.58 13.62L1.42 11.72C2.02 12.1333 2.67333 12.4533 3.38 12.68C4.1 12.8933 4.81333 13.0067 5.52 13.02C6.22667 13.0333 6.86667 12.9533 7.44 12.78C8.02667 12.6067 8.49333 12.3467 8.84 12C9.18667 11.6533 9.36 11.22 9.36 10.7C9.36 10.0733 9.1 9.60667 8.58 9.3C8.07333 8.98 7.38 8.82 6.5 8.82H3.24V6.78H6.3C7.08667 6.78 7.69333 6.62 8.12 6.3C8.56 5.98 8.78 5.54667 8.78 5C8.78 4.54667 8.63333 4.17333 8.34 3.88C8.06 3.58667 7.67333 3.36667 7.18 3.22C6.7 3.07333 6.15333 3.00667 5.54 3.02C4.94 3.02 4.31333 3.11333 3.66 3.3C3.00667 3.47333 2.38667 3.73333 1.8 4.08L0.98 1.98C1.86 1.51333 2.78 1.18667 3.74 0.999999C4.71333 0.813332 5.65333 0.759999 6.56 0.84C7.46667 0.92 8.28 1.12667 9 1.46C9.73333 1.79333 10.32 2.23333 10.76 2.78C11.2 3.31333 11.42 3.94667 11.42 4.68C11.42 5.34667 11.24 5.94 10.88 6.46C10.5333 6.96667 10.0533 7.36 9.44 7.64C8.82667 7.92 8.11333 8.06 7.3 8.06L7.4 7.42C8.32 7.42 9.12 7.58 9.8 7.9C10.4933 8.20667 11.0267 8.63333 11.4 9.18C11.7867 9.72667 11.98 10.36 11.98 11.08C11.98 11.76 11.8067 12.3667 11.46 12.9C11.1133 13.42 10.64 13.86 10.04 14.22C9.44 14.5667 8.75333 14.8267 7.98 15C7.20667 15.16 6.39333 15.22 5.54 15.18C4.68667 15.14 3.83333 14.9933 2.98 14.74C2.14 14.4867 1.34 14.1133 0.58 13.62ZM21.9883 13.84V6.44H17.8883L17.8283 8.16C17.8016 8.77333 17.7616 9.36667 17.7083 9.94C17.6549 10.5 17.5683 11.02 17.4483 11.5C17.3283 11.9667 17.1549 12.3533 16.9283 12.66C16.7016 12.9667 16.4016 13.1667 16.0283 13.26L13.5483 12.88C13.9483 12.88 14.2683 12.7533 14.5083 12.5C14.7616 12.2333 14.9549 11.8733 15.0883 11.42C15.2349 10.9533 15.3416 10.4267 15.4083 9.84C15.4749 9.24 15.5216 8.62 15.5483 7.98L15.6883 4.32H24.4883V13.84H21.9883ZM13.1683 17.38V12.88H26.0683V17.38H23.7283V15H15.4883V17.38H13.1683ZM34.2211 15.14C33.3544 15.14 32.5611 14.94 31.8411 14.54C31.1344 14.14 30.5678 13.54 30.1411 12.74C29.7278 11.9267 29.5211 10.9 29.5211 9.66C29.5211 8.40667 29.7211 7.38 30.1211 6.58C30.5344 5.78 31.0944 5.18667 31.8011 4.8C32.5078 4.4 33.3144 4.2 34.2211 4.2C35.2744 4.2 36.2011 4.42667 37.0011 4.88C37.8144 5.33333 38.4544 5.96667 38.9211 6.78C39.4011 7.59333 39.6411 8.55333 39.6411 9.66C39.6411 10.7667 39.4011 11.7333 38.9211 12.56C38.4544 13.3733 37.8144 14.0067 37.0011 14.46C36.2011 14.9133 35.2744 15.14 34.2211 15.14ZM28.3011 18.88V4.32H30.6811V6.84L30.6011 9.68L30.8011 12.52V18.88H28.3011ZM33.9411 13C34.5411 13 35.0744 12.8667 35.5411 12.6C36.0211 12.3333 36.4011 11.9467 36.6811 11.44C36.9611 10.9333 37.1011 10.34 37.1011 9.66C37.1011 8.96667 36.9611 8.37333 36.6811 7.88C36.4011 7.37333 36.0211 6.98667 35.5411 6.72C35.0744 6.45333 34.5411 6.32 33.9411 6.32C33.3411 6.32 32.8011 6.45333 32.3211 6.72C31.8411 6.98667 31.4611 7.37333 31.1811 7.88C30.9011 8.37333 30.7611 8.96667 30.7611 9.66C30.7611 10.34 30.9011 10.9333 31.1811 11.44C31.4611 11.9467 31.8411 12.3333 32.3211 12.6C32.8011 12.8667 33.3411 13 33.9411 13ZM48.4725 15V12.84L48.3325 12.38V8.6C48.3325 7.86667 48.1125 7.3 47.6725 6.9C47.2325 6.48667 46.5658 6.28 45.6725 6.28C45.0725 6.28 44.4792 6.37333 43.8925 6.56C43.3192 6.74667 42.8325 7.00667 42.4325 7.34L41.4525 5.52C42.0258 5.08 42.7058 4.75333 43.4925 4.54C44.2925 4.31333 45.1192 4.2 45.9725 4.2C47.5192 4.2 48.7125 4.57333 49.5525 5.32C50.4058 6.05333 50.8325 7.19333 50.8325 8.74V15H48.4725ZM45.1125 15.14C44.3125 15.14 43.6125 15.0067 43.0125 14.74C42.4125 14.46 41.9458 14.08 41.6125 13.6C41.2925 13.1067 41.1325 12.5533 41.1325 11.94C41.1325 11.34 41.2725 10.8 41.5525 10.32C41.8458 9.84 42.3192 9.46 42.9725 9.18C43.6258 8.9 44.4925 8.76 45.5725 8.76H48.6725V10.42H45.7525C44.8992 10.42 44.3258 10.56 44.0325 10.84C43.7392 11.1067 43.5925 11.44 43.5925 11.84C43.5925 12.2933 43.7725 12.6533 44.1325 12.92C44.4925 13.1867 44.9925 13.32 45.6325 13.32C46.2458 13.32 46.7925 13.18 47.2725 12.9C47.7658 12.62 48.1192 12.2067 48.3325 11.66L48.7525 13.16C48.5125 13.7867 48.0792 14.2733 47.4525 14.62C46.8392 14.9667 46.0592 15.14 45.1125 15.14ZM53.9261 15V4.32H59.1461C60.4394 4.32 61.4528 4.56 62.1861 5.04C62.9328 5.52 63.3061 6.2 63.3061 7.08C63.3061 7.94667 62.9594 8.62667 62.2661 9.12C61.5728 9.6 60.6528 9.84 59.5061 9.84L59.8061 9.22C61.0994 9.22 62.0594 9.46 62.6861 9.94C63.3261 10.4067 63.6461 11.0933 63.6461 12C63.6461 12.9467 63.2928 13.6867 62.5861 14.22C61.8794 14.74 60.8061 15 59.3661 15H53.9261ZM56.3061 13.18H59.1661C59.8461 13.18 60.3594 13.0733 60.7061 12.86C61.0528 12.6333 61.2261 12.2933 61.2261 11.84C61.2261 11.36 61.0661 11.0067 60.7461 10.78C60.4261 10.5533 59.9261 10.44 59.2461 10.44H56.3061V13.18ZM56.3061 8.78H58.9261C59.5661 8.78 60.0461 8.66667 60.3661 8.44C60.6994 8.2 60.8661 7.86667 60.8661 7.44C60.8661 7 60.6994 6.67333 60.3661 6.46C60.0461 6.24667 59.5661 6.14 58.9261 6.14H56.3061V8.78ZM71.1689 15.14C70.0489 15.14 69.0489 14.9067 68.1689 14.44C67.3022 13.96 66.6222 13.3067 66.1289 12.48C65.6356 11.6533 65.3889 10.7133 65.3889 9.66C65.3889 8.59333 65.6356 7.65333 66.1289 6.84C66.6222 6.01333 67.3022 5.36667 68.1689 4.9C69.0489 4.43333 70.0489 4.2 71.1689 4.2C72.2089 4.2 73.1222 4.41333 73.9089 4.84C74.7089 5.25333 75.3156 5.86667 75.7289 6.68L73.8089 7.8C73.4889 7.29333 73.0956 6.92 72.6289 6.68C72.1756 6.44 71.6822 6.32 71.1489 6.32C70.5356 6.32 69.9822 6.45333 69.4889 6.72C68.9956 6.98667 68.6089 7.37333 68.3289 7.88C68.0489 8.37333 67.9089 8.96667 67.9089 9.66C67.9089 10.3533 68.0489 10.9533 68.3289 11.46C68.6089 11.9533 68.9956 12.3333 69.4889 12.6C69.9822 12.8667 70.5356 13 71.1489 13C71.6822 13 72.1756 12.88 72.6289 12.64C73.0956 12.4 73.4889 12.0267 73.8089 11.52L75.7289 12.64C75.3156 13.44 74.7089 14.06 73.9089 14.5C73.1222 14.9267 72.2089 15.14 71.1689 15.14ZM80.0719 15V5.84L80.6519 6.44H76.3119V4.32H86.3119V6.44H81.9919L82.5719 5.84V15H80.0719ZM88.1253 15V4.32H93.3453C94.6386 4.32 95.652 4.56 96.3853 5.04C97.132 5.52 97.5053 6.2 97.5053 7.08C97.5053 7.94667 97.1586 8.62667 96.4653 9.12C95.772 9.6 94.852 9.84 93.7053 9.84L94.0053 9.22C95.2986 9.22 96.2586 9.46 96.8853 9.94C97.5253 10.4067 97.8453 11.0933 97.8453 12C97.8453 12.9467 97.492 13.6867 96.7853 14.22C96.0786 14.74 95.0053 15 93.5653 15H88.1253ZM90.5053 13.18H93.3653C94.0453 13.18 94.5586 13.0733 94.9053 12.86C95.252 12.6333 95.4253 12.2933 95.4253 11.84C95.4253 11.36 95.2653 11.0067 94.9453 10.78C94.6253 10.5533 94.1253 10.44 93.4453 10.44H90.5053V13.18ZM90.5053 8.78H93.1253C93.7653 8.78 94.2453 8.66667 94.5653 8.44C94.8986 8.2 95.0653 7.86667 95.0653 7.44C95.0653 7 94.8986 6.67333 94.5653 6.46C94.2453 6.24667 93.7653 6.14 93.1253 6.14H90.5053V8.78ZM101.468 19.02C100.948 19.02 100.428 18.9333 99.9081 18.76C99.3881 18.5867 98.9548 18.3467 98.6081 18.04L99.6081 16.2C99.8615 16.4267 100.148 16.6067 100.468 16.74C100.788 16.8733 101.115 16.94 101.448 16.94C101.901 16.94 102.268 16.8267 102.548 16.6C102.828 16.3733 103.088 15.9933 103.328 15.46L103.948 14.06L104.148 13.76L108.188 4.32H110.588L105.588 15.86C105.255 16.66 104.881 17.2933 104.468 17.76C104.068 18.2267 103.615 18.5533 103.108 18.74C102.615 18.9267 102.068 19.02 101.468 19.02ZM103.668 15.38L98.8481 4.32H101.448L105.368 13.54L103.668 15.38ZM112.325 15V4.32H114.825V11.36L120.725 4.32H123.005V15H120.505V7.96L114.625 15H112.325ZM117.505 3.06C116.438 3.06 115.618 2.81333 115.045 2.32C114.471 1.81333 114.178 1.08 114.165 0.12H115.825C115.838 0.6 115.985 0.98 116.265 1.26C116.558 1.54 116.965 1.68 117.485 1.68C117.991 1.68 118.391 1.54 118.685 1.26C118.991 0.98 119.151 0.6 119.165 0.12H120.865C120.851 1.08 120.551 1.81333 119.965 2.32C119.391 2.81333 118.571 3.06 117.505 3.06ZM128.588 15V5.84L129.168 6.44H124.828V4.32H134.828V6.44H130.508L131.088 5.84V15H128.588ZM141.152 15.14C139.966 15.14 138.926 14.9067 138.032 14.44C137.152 13.96 136.466 13.3067 135.972 12.48C135.492 11.6533 135.252 10.7133 135.252 9.66C135.252 8.59333 135.486 7.65333 135.952 6.84C136.432 6.01333 137.086 5.36667 137.912 4.9C138.752 4.43333 139.706 4.2 140.772 4.2C141.812 4.2 142.739 4.42667 143.552 4.88C144.366 5.33333 145.006 5.97333 145.472 6.8C145.939 7.62667 146.172 8.6 146.172 9.72C146.172 9.82667 146.166 9.94667 146.152 10.08C146.152 10.2133 146.146 10.34 146.132 10.46H137.232V8.8H144.812L143.832 9.32C143.846 8.70667 143.719 8.16667 143.452 7.7C143.186 7.23333 142.819 6.86667 142.352 6.6C141.899 6.33333 141.372 6.2 140.772 6.2C140.159 6.2 139.619 6.33333 139.152 6.6C138.699 6.86667 138.339 7.24 138.072 7.72C137.819 8.18667 137.692 8.74 137.692 9.38V9.78C137.692 10.42 137.839 10.9867 138.132 11.48C138.426 11.9733 138.839 12.3533 139.372 12.62C139.906 12.8867 140.519 13.02 141.212 13.02C141.812 13.02 142.352 12.9267 142.832 12.74C143.312 12.5533 143.739 12.26 144.112 11.86L145.452 13.4C144.972 13.96 144.366 14.3933 143.632 14.7C142.912 14.9933 142.086 15.14 141.152 15.14ZM148.207 18.02L149.367 13.6L149.707 15.08C149.24 15.08 148.847 14.94 148.527 14.66C148.22 14.3667 148.067 13.9733 148.067 13.48C148.067 12.9733 148.22 12.5733 148.527 12.28C148.847 11.9733 149.233 11.82 149.687 11.82C150.153 11.82 150.54 11.9733 150.847 12.28C151.153 12.5867 151.307 12.9867 151.307 13.48C151.307 13.6133 151.293 13.76 151.267 13.92C151.24 14.0667 151.193 14.24 151.127 14.44C151.073 14.64 150.98 14.8933 150.847 15.2L149.827 18.02H148.207ZM159.317 15V4.32H161.817V11.36L167.717 4.32H169.997V15H167.497V7.96L161.617 15H159.317ZM173.36 15V4.32H175.98L180.28 11.9H179.24L183.76 4.32H186.1L186.12 15H183.86V7L184.26 7.26L180.26 13.88H179.18L175.16 7.08L175.64 6.96V15H173.36ZM196.253 15V11.36L196.613 11.78H193.413C191.946 11.78 190.793 11.4733 189.953 10.86C189.126 10.2333 188.713 9.33333 188.713 8.16C188.713 6.90667 189.153 5.95333 190.033 5.3C190.926 4.64667 192.113 4.32 193.593 4.32H198.493V15H196.253ZM188.573 15L191.453 10.92H194.013L191.253 15H188.573ZM196.253 10.56V5.76L196.613 6.42H193.673C192.9 6.42 192.3 6.56667 191.873 6.86C191.46 7.14 191.253 7.6 191.253 8.24C191.253 9.44 192.033 10.04 193.593 10.04H196.613L196.253 10.56ZM201.976 10.36L201.496 0.999999H204.456L203.956 10.36H201.976ZM202.976 15.14C202.509 15.14 202.122 14.9867 201.816 14.68C201.509 14.3733 201.356 14.0067 201.356 13.58C201.356 13.1533 201.509 12.7933 201.816 12.5C202.122 12.1933 202.509 12.04 202.976 12.04C203.442 12.04 203.822 12.1933 204.116 12.5C204.409 12.7933 204.556 13.1533 204.556 13.58C204.556 14.0067 204.409 14.3733 204.116 14.68C203.822 14.9867 203.442 15.14 202.976 15.14Z" fill="white"/>
</svg>
