<svg width="50" height="50" viewBox="0 0 50 50" fill="none" xmlns="http://www.w3.org/2000/svg">
<g clip-path="url(#clip0_38_1360)">
<path d="M0 20C0 8.9543 8.95431 0 20 0H50V30C50 41.0457 41.0457 50 30 50H0V20Z" fill="url(#paint0_linear_38_1360)"/>
<path d="M9 19.3125L24.8066 9L40.6133 19.3125" stroke="white" stroke-width="2" stroke-linecap="round" stroke-linejoin="round"/>
<path d="M37.1008 25.875V37.875C37.1008 38.4964 36.629 39 36.047 39H13.5665C12.9845 39 12.5127 38.4964 12.5127 37.875V25.875" stroke="white" stroke-width="2" stroke-linecap="round" stroke-linejoin="round"/>
</g>
<defs>
<linearGradient id="paint0_linear_38_1360" x1="24.5455" y1="-41.8182" x2="24.5455" y2="56.8182" gradientUnits="userSpaceOnUse">
<stop stop-color="#9BEC8B"/>
<stop offset="1" stop-color="#24B8B1"/>
</linearGradient>
<clipPath id="clip0_38_1360">
<path d="M0 20C0 8.9543 8.95431 0 20 0H50V30C50 41.0457 41.0457 50 30 50H0V20Z" fill="white"/>
</clipPath>
</defs>
</svg>
