<svg width="33" height="30" viewBox="0 0 33 30" fill="none" xmlns="http://www.w3.org/2000/svg">
<g clip-path="url(#clip0_42_1651)">
<path d="M16.5003 19.1263C19.0685 19.1263 21.1503 17.35 21.1503 15.1587C21.1503 12.9674 19.0685 11.1912 16.5003 11.1912C13.9321 11.1912 11.8503 12.9674 11.8503 15.1587C11.8503 17.35 13.9321 19.1263 16.5003 19.1263Z" stroke="#98EB8D" stroke-width="2" stroke-linecap="round" stroke-linejoin="round"/>
<path d="M28.3147 12.7536L26.6133 9.04272L28.9 6.6L25.8 3.8L23.1103 5.87613L18.9146 4.31764L17.9497 1H14.9205L13.9411 4.36158L9.84184 5.92234L7.2 3.8L4.1 6.6L6.35272 9.10439L4.67737 12.8248L1 13.6V16.4L4.72172 17.3177L6.44941 21.0196L4.1 23.4L7.2 26.2L9.9763 24.1564L14.0154 25.6572L14.95 29H18.05L18.987 25.6585L23.0954 24.1217C23.7802 24.5638 25.8 26.2 25.8 26.2L28.9 23.4L26.5996 20.9492L28.3015 17.2372L31.9998 16.3681L32 13.6L28.3147 12.7536Z" stroke="#98EB8D" stroke-width="2" stroke-linecap="round" stroke-linejoin="round"/>
</g>
<defs>
<clipPath id="clip0_42_1651">
<rect width="33" height="30" fill="white"/>
</clipPath>
</defs>
</svg>
