<svg width="288" height="16" viewBox="0 0 288 16" fill="none" xmlns="http://www.w3.org/2000/svg">
<path d="M0.888 13V1.8H5.08C6.02933 1.8 6.84533 1.95467 7.528 2.264C8.21067 2.56267 8.73333 3 9.096 3.576C9.46933 4.14133 9.656 4.82933 9.656 5.64C9.656 6.42933 9.46933 7.112 9.096 7.688C8.73333 8.25333 8.21067 8.69067 7.528 9C6.84533 9.30933 6.02933 9.464 5.08 9.464H1.544L2.072 8.904V13H0.888ZM2.072 9L1.544 8.424H5.048C6.168 8.424 7.016 8.184 7.592 7.704C8.17867 7.21333 8.472 6.52533 8.472 5.64C8.472 4.744 8.17867 4.05067 7.592 3.56C7.016 3.06933 6.168 2.824 5.048 2.824H1.544L2.072 2.264V9ZM16.9414 13V11.144L16.8934 10.84V7.736C16.8934 7.02133 16.6907 6.472 16.2854 6.088C15.8907 5.704 15.2987 5.512 14.5094 5.512C13.9654 5.512 13.448 5.60267 12.9574 5.784C12.4667 5.96533 12.0507 6.20533 11.7094 6.504L11.1974 5.656C11.624 5.29333 12.136 5.016 12.7334 4.824C13.3307 4.62133 13.96 4.52 14.6214 4.52C15.7094 4.52 16.5467 4.792 17.1334 5.336C17.7307 5.86933 18.0294 6.68533 18.0294 7.784V13H16.9414ZM14.0454 13.08C13.416 13.08 12.8667 12.9787 12.3974 12.776C11.9387 12.5627 11.5867 12.2747 11.3414 11.912C11.096 11.5387 10.9734 11.112 10.9734 10.632C10.9734 10.1947 11.0747 9.8 11.2774 9.448C11.4907 9.08533 11.832 8.79733 12.3014 8.584C12.7814 8.36 13.4214 8.248 14.2214 8.248H17.1174V9.096H14.2534C13.4427 9.096 12.8774 9.24 12.5574 9.528C12.248 9.816 12.0934 10.1733 12.0934 10.6C12.0934 11.08 12.28 11.464 12.6534 11.752C13.0267 12.04 13.5494 12.184 14.2214 12.184C14.8614 12.184 15.4107 12.04 15.8694 11.752C16.3387 11.4533 16.68 11.0267 16.8934 10.472L17.1494 11.256C16.936 11.8107 16.5627 12.2533 16.0294 12.584C15.5067 12.9147 14.8454 13.08 14.0454 13.08ZM24.5735 13.08C23.7415 13.08 22.9948 12.8987 22.3335 12.536C21.6828 12.1627 21.1708 11.656 20.7975 11.016C20.4242 10.3653 20.2375 9.624 20.2375 8.792C20.2375 7.94933 20.4242 7.208 20.7975 6.568C21.1708 5.928 21.6828 5.42667 22.3335 5.064C22.9948 4.70133 23.7415 4.52 24.5735 4.52C25.2882 4.52 25.9335 4.65867 26.5095 4.936C27.0855 5.21333 27.5388 5.62933 27.8695 6.184L27.0215 6.76C26.7335 6.33333 26.3762 6.01867 25.9495 5.816C25.5228 5.61333 25.0588 5.512 24.5575 5.512C23.9602 5.512 23.4215 5.65067 22.9415 5.928C22.4615 6.19467 22.0828 6.57333 21.8055 7.064C21.5282 7.55467 21.3895 8.13067 21.3895 8.792C21.3895 9.45333 21.5282 10.0293 21.8055 10.52C22.0828 11.0107 22.4615 11.3947 22.9415 11.672C23.4215 11.9387 23.9602 12.072 24.5575 12.072C25.0588 12.072 25.5228 11.9707 25.9495 11.768C26.3762 11.5653 26.7335 11.256 27.0215 10.84L27.8695 11.416C27.5388 11.96 27.0855 12.376 26.5095 12.664C25.9335 12.9413 25.2882 13.08 24.5735 13.08ZM33.4485 13.08C32.6165 13.08 31.8698 12.8987 31.2085 12.536C30.5578 12.1627 30.0458 11.656 29.6725 11.016C29.2992 10.3653 29.1125 9.624 29.1125 8.792C29.1125 7.94933 29.2992 7.208 29.6725 6.568C30.0458 5.928 30.5578 5.42667 31.2085 5.064C31.8698 4.70133 32.6165 4.52 33.4485 4.52C34.1632 4.52 34.8085 4.65867 35.3845 4.936C35.9605 5.21333 36.4138 5.62933 36.7445 6.184L35.8965 6.76C35.6085 6.33333 35.2512 6.01867 34.8245 5.816C34.3978 5.61333 33.9338 5.512 33.4325 5.512C32.8352 5.512 32.2965 5.65067 31.8165 5.928C31.3365 6.19467 30.9578 6.57333 30.6805 7.064C30.4032 7.55467 30.2645 8.13067 30.2645 8.792C30.2645 9.45333 30.4032 10.0293 30.6805 10.52C30.9578 11.0107 31.3365 11.3947 31.8165 11.672C32.2965 11.9387 32.8352 12.072 33.4325 12.072C33.9338 12.072 34.3978 11.9707 34.8245 11.768C35.2512 11.5653 35.6085 11.256 35.8965 10.84L36.7445 11.416C36.4138 11.96 35.9605 12.376 35.3845 12.664C34.8085 12.9413 34.1632 13.08 33.4485 13.08ZM45.1041 13L41.6481 8.84L42.5921 8.28L46.4481 13H45.1041ZM38.9441 13V4.6H40.0801V13H38.9441ZM39.7281 9.256V8.28H42.4321V9.256H39.7281ZM42.6881 8.92L41.6321 8.76L44.9761 4.6H46.2081L42.6881 8.92ZM53.3008 13V11.144L53.2528 10.84V7.736C53.2528 7.02133 53.0501 6.472 52.6448 6.088C52.2501 5.704 51.6581 5.512 50.8688 5.512C50.3248 5.512 49.8074 5.60267 49.3168 5.784C48.8261 5.96533 48.4101 6.20533 48.0688 6.504L47.5568 5.656C47.9834 5.29333 48.4954 5.016 49.0928 4.824C49.6901 4.62133 50.3194 4.52 50.9808 4.52C52.0688 4.52 52.9061 4.792 53.4928 5.336C54.0901 5.86933 54.3888 6.68533 54.3888 7.784V13H53.3008ZM50.4048 13.08C49.7754 13.08 49.2261 12.9787 48.7568 12.776C48.2981 12.5627 47.9461 12.2747 47.7008 11.912C47.4554 11.5387 47.3328 11.112 47.3328 10.632C47.3328 10.1947 47.4341 9.8 47.6368 9.448C47.8501 9.08533 48.1914 8.79733 48.6608 8.584C49.1408 8.36 49.7808 8.248 50.5807 8.248H53.4768V9.096H50.6128C49.8021 9.096 49.2368 9.24 48.9168 9.528C48.6074 9.816 48.4528 10.1733 48.4528 10.6C48.4528 11.08 48.6394 11.464 49.0128 11.752C49.3861 12.04 49.9088 12.184 50.5807 12.184C51.2208 12.184 51.7701 12.04 52.2288 11.752C52.6981 11.4533 53.0394 11.0267 53.2528 10.472L53.5088 11.256C53.2954 11.8107 52.9221 12.2533 52.3888 12.584C51.8661 12.9147 51.2048 13.08 50.4048 13.08ZM67.3809 13L64.5009 8.84L65.4449 8.28L68.7409 13H67.3809ZM62.6129 9.256V8.28H65.2689V9.256H62.6129ZM65.5569 8.92L64.4689 8.76L67.2689 4.6H68.5009L65.5569 8.92ZM57.4289 13H56.0689L59.3649 8.28L60.2929 8.84L57.4289 13ZM62.9649 13H61.8289V4.6H62.9649V13ZM62.1809 9.256H59.5409V8.28H62.1809V9.256ZM59.2689 8.92L56.3089 4.6H57.5409L60.3249 8.76L59.2689 8.92ZM70.6316 13V4.6H71.7676V11.272L77.3836 4.6H78.3916V13H77.2556V6.312L71.6556 13H70.6316ZM83.2473 13V5.288L83.5353 5.592H80.0633V4.6H87.5673V5.592H84.0953L84.3833 5.288V13H83.2473ZM92.4191 13.08C91.5445 13.08 90.7765 12.8987 90.1151 12.536C89.4538 12.1627 88.9365 11.656 88.5631 11.016C88.1898 10.3653 88.0031 9.624 88.0031 8.792C88.0031 7.96 88.1791 7.224 88.5311 6.584C88.8938 5.944 89.3845 5.44267 90.0031 5.08C90.6325 4.70667 91.3365 4.52 92.1151 4.52C92.9045 4.52 93.6031 4.70133 94.2111 5.064C94.8298 5.416 95.3151 5.91733 95.6671 6.568C96.0191 7.208 96.1951 7.94933 96.1951 8.792C96.1951 8.84533 96.1898 8.904 96.1791 8.968C96.1791 9.02133 96.1791 9.08 96.1791 9.144H88.8671V8.296H95.5711L95.1231 8.632C95.1231 8.024 94.9898 7.48533 94.7231 7.016C94.4671 6.536 94.1151 6.16267 93.6671 5.896C93.2191 5.62933 92.7018 5.496 92.1151 5.496C91.5391 5.496 91.0218 5.62933 90.5631 5.896C90.1045 6.16267 89.7471 6.536 89.4911 7.016C89.2351 7.496 89.1071 8.04533 89.1071 8.664V8.84C89.1071 9.48 89.2458 10.0453 89.5231 10.536C89.8111 11.016 90.2058 11.3947 90.7071 11.672C91.2191 11.9387 91.8005 12.072 92.4511 12.072C92.9631 12.072 93.4378 11.9813 93.8751 11.8C94.3231 11.6187 94.7071 11.3413 95.0271 10.968L95.6671 11.704C95.2938 12.152 94.8245 12.4933 94.2591 12.728C93.7045 12.9627 93.0911 13.08 92.4191 13.08ZM106.353 13.08C105.543 13.08 104.812 12.8987 104.161 12.536C103.521 12.1627 103.015 11.656 102.641 11.016C102.268 10.3653 102.081 9.624 102.081 8.792C102.081 7.94933 102.268 7.208 102.641 6.568C103.015 5.928 103.521 5.42667 104.161 5.064C104.801 4.70133 105.532 4.52 106.353 4.52C107.185 4.52 107.921 4.70133 108.561 5.064C109.212 5.42667 109.719 5.928 110.081 6.568C110.455 7.208 110.641 7.94933 110.641 8.792C110.641 9.624 110.455 10.3653 110.081 11.016C109.719 11.656 109.212 12.1627 108.561 12.536C107.911 12.8987 107.175 13.08 106.353 13.08ZM106.353 12.072C106.961 12.072 107.5 11.9387 107.969 11.672C108.439 11.3947 108.807 11.0107 109.073 10.52C109.351 10.0187 109.489 9.44267 109.489 8.792C109.489 8.13067 109.351 7.55467 109.073 7.064C108.807 6.57333 108.439 6.19467 107.969 5.928C107.5 5.65067 106.967 5.512 106.369 5.512C105.772 5.512 105.239 5.65067 104.769 5.928C104.3 6.19467 103.927 6.57333 103.649 7.064C103.372 7.55467 103.233 8.13067 103.233 8.792C103.233 9.44267 103.372 10.0187 103.649 10.52C103.927 11.0107 104.3 11.3947 104.769 11.672C105.239 11.9387 105.767 12.072 106.353 12.072ZM120.777 13.08C119.945 13.08 119.198 12.8987 118.537 12.536C117.886 12.1627 117.374 11.656 117.001 11.016C116.627 10.3653 116.441 9.624 116.441 8.792C116.441 7.94933 116.627 7.208 117.001 6.568C117.374 5.928 117.886 5.42667 118.537 5.064C119.198 4.70133 119.945 4.52 120.777 4.52C121.491 4.52 122.137 4.65867 122.713 4.936C123.289 5.21333 123.742 5.62933 124.073 6.184L123.225 6.76C122.937 6.33333 122.579 6.01867 122.153 5.816C121.726 5.61333 121.262 5.512 120.761 5.512C120.163 5.512 119.625 5.65067 119.145 5.928C118.665 6.19467 118.286 6.57333 118.009 7.064C117.731 7.55467 117.593 8.13067 117.593 8.792C117.593 9.45333 117.731 10.0293 118.009 10.52C118.286 11.0107 118.665 11.3947 119.145 11.672C119.625 11.9387 120.163 12.072 120.761 12.072C121.262 12.072 121.726 11.9707 122.153 11.768C122.579 11.5653 122.937 11.256 123.225 10.84L124.073 11.416C123.742 11.96 123.289 12.376 122.713 12.664C122.137 12.9413 121.491 13.08 120.777 13.08ZM129.732 13.08C128.857 13.08 128.089 12.8987 127.428 12.536C126.766 12.1627 126.249 11.656 125.876 11.016C125.502 10.3653 125.316 9.624 125.316 8.792C125.316 7.96 125.492 7.224 125.844 6.584C126.206 5.944 126.697 5.44267 127.316 5.08C127.945 4.70667 128.649 4.52 129.428 4.52C130.217 4.52 130.916 4.70133 131.524 5.064C132.142 5.416 132.628 5.91733 132.98 6.568C133.332 7.208 133.508 7.94933 133.508 8.792C133.508 8.84533 133.502 8.904 133.492 8.968C133.492 9.02133 133.492 9.08 133.492 9.144H126.18V8.296H132.884L132.436 8.632C132.436 8.024 132.302 7.48533 132.036 7.016C131.78 6.536 131.428 6.16267 130.98 5.896C130.532 5.62933 130.014 5.496 129.428 5.496C128.852 5.496 128.334 5.62933 127.876 5.896C127.417 6.16267 127.06 6.536 126.804 7.016C126.548 7.496 126.42 8.04533 126.42 8.664V8.84C126.42 9.48 126.558 10.0453 126.836 10.536C127.124 11.016 127.518 11.3947 128.02 11.672C128.532 11.9387 129.113 12.072 129.764 12.072C130.276 12.072 130.75 11.9813 131.188 11.8C131.636 11.6187 132.02 11.3413 132.34 10.968L132.98 11.704C132.606 12.152 132.137 12.4933 131.572 12.728C131.017 12.9627 130.404 13.08 129.732 13.08ZM139.798 13.096C139.116 13.096 138.508 12.984 137.974 12.76C137.452 12.536 137.004 12.1947 136.63 11.736C136.257 11.2773 135.974 10.712 135.782 10.04C135.59 9.35733 135.494 8.568 135.494 7.672C135.494 6.872 135.569 6.17333 135.718 5.576C135.868 4.968 136.076 4.44533 136.342 4.008C136.609 3.57067 136.918 3.20267 137.27 2.904C137.633 2.59467 138.022 2.34933 138.438 2.168C138.865 1.976 139.302 1.832 139.75 1.736L143.526 0.855999L143.718 1.912L140.166 2.712C139.942 2.76533 139.67 2.84 139.35 2.936C139.041 3.032 138.721 3.176 138.39 3.368C138.07 3.56 137.772 3.82667 137.494 4.168C137.217 4.50933 136.993 4.952 136.822 5.496C136.662 6.02933 136.582 6.696 136.582 7.496C136.582 7.66667 136.588 7.80533 136.598 7.912C136.609 8.008 136.62 8.11467 136.63 8.232C136.652 8.33867 136.668 8.49867 136.678 8.712L136.182 8.296C136.3 7.64533 136.54 7.08 136.902 6.6C137.265 6.10933 137.718 5.73067 138.262 5.464C138.817 5.18667 139.43 5.048 140.102 5.048C140.881 5.048 141.574 5.21867 142.182 5.56C142.79 5.89067 143.265 6.35467 143.606 6.952C143.958 7.54933 144.134 8.24267 144.134 9.032C144.134 9.81067 143.953 10.5093 143.59 11.128C143.238 11.7467 142.737 12.232 142.086 12.584C141.436 12.9253 140.673 13.096 139.798 13.096ZM139.926 12.152C140.524 12.152 141.052 12.0187 141.51 11.752C141.969 11.4747 142.326 11.1013 142.582 10.632C142.849 10.1627 142.982 9.63467 142.982 9.048C142.982 8.472 142.849 7.96 142.582 7.512C142.326 7.064 141.969 6.712 141.51 6.456C141.052 6.18933 140.518 6.056 139.91 6.056C139.313 6.056 138.785 6.184 138.326 6.44C137.868 6.68533 137.505 7.032 137.238 7.48C136.982 7.928 136.854 8.44533 136.854 9.032C136.854 9.61867 136.982 10.1467 137.238 10.616C137.505 11.0853 137.868 11.4587 138.326 11.736C138.796 12.0133 139.329 12.152 139.926 12.152ZM150.169 13.08C149.294 13.08 148.526 12.8987 147.865 12.536C147.204 12.1627 146.686 11.656 146.313 11.016C145.94 10.3653 145.753 9.624 145.753 8.792C145.753 7.96 145.929 7.224 146.281 6.584C146.644 5.944 147.134 5.44267 147.753 5.08C148.382 4.70667 149.086 4.52 149.865 4.52C150.654 4.52 151.353 4.70133 151.961 5.064C152.58 5.416 153.065 5.91733 153.417 6.568C153.769 7.208 153.945 7.94933 153.945 8.792C153.945 8.84533 153.94 8.904 153.929 8.968C153.929 9.02133 153.929 9.08 153.929 9.144H146.617V8.296H153.321L152.873 8.632C152.873 8.024 152.74 7.48533 152.473 7.016C152.217 6.536 151.865 6.16267 151.417 5.896C150.969 5.62933 150.452 5.496 149.865 5.496C149.289 5.496 148.772 5.62933 148.313 5.896C147.854 6.16267 147.497 6.536 147.241 7.016C146.985 7.496 146.857 8.04533 146.857 8.664V8.84C146.857 9.48 146.996 10.0453 147.273 10.536C147.561 11.016 147.956 11.3947 148.457 11.672C148.969 11.9387 149.55 12.072 150.201 12.072C150.713 12.072 151.188 11.9813 151.625 11.8C152.073 11.6187 152.457 11.3413 152.777 10.968L153.417 11.704C153.044 12.152 152.574 12.4933 152.009 12.728C151.454 12.9627 150.841 13.08 150.169 13.08ZM160.647 13V4.6H161.783V11.272L167.399 4.6H168.407V13H167.271V6.312L161.671 13H160.647ZM179.306 13.08C178.496 13.08 177.765 12.8987 177.114 12.536C176.474 12.1627 175.968 11.656 175.594 11.016C175.221 10.3653 175.034 9.624 175.034 8.792C175.034 7.94933 175.221 7.208 175.594 6.568C175.968 5.928 176.474 5.42667 177.114 5.064C177.754 4.70133 178.485 4.52 179.306 4.52C180.138 4.52 180.874 4.70133 181.514 5.064C182.165 5.42667 182.672 5.928 183.034 6.568C183.408 7.208 183.594 7.94933 183.594 8.792C183.594 9.624 183.408 10.3653 183.034 11.016C182.672 11.656 182.165 12.1627 181.514 12.536C180.864 12.8987 180.128 13.08 179.306 13.08ZM179.306 12.072C179.914 12.072 180.453 11.9387 180.922 11.672C181.392 11.3947 181.76 11.0107 182.026 10.52C182.304 10.0187 182.442 9.44267 182.442 8.792C182.442 8.13067 182.304 7.55467 182.026 7.064C181.76 6.57333 181.392 6.19467 180.922 5.928C180.453 5.65067 179.92 5.512 179.322 5.512C178.725 5.512 178.192 5.65067 177.722 5.928C177.253 6.19467 176.88 6.57333 176.602 7.064C176.325 7.55467 176.186 8.13067 176.186 8.792C176.186 9.44267 176.325 10.0187 176.602 10.52C176.88 11.0107 177.253 11.3947 177.722 11.672C178.192 11.9387 178.72 12.072 179.306 12.072ZM190.21 13V4.6H193.922C194.871 4.6 195.618 4.78133 196.162 5.144C196.716 5.50667 196.994 6.04 196.994 6.744C196.994 7.42667 196.732 7.95467 196.21 8.328C195.687 8.69067 194.999 8.872 194.146 8.872L194.37 8.536C195.372 8.536 196.108 8.72267 196.578 9.096C197.047 9.46933 197.282 10.008 197.282 10.712C197.282 11.4373 197.015 12.0027 196.482 12.408C195.959 12.8027 195.143 13 194.034 13H190.21ZM191.314 12.104H193.986C194.7 12.104 195.239 11.992 195.602 11.768C195.975 11.5333 196.162 11.16 196.162 10.648C196.162 10.136 195.996 9.76267 195.666 9.528C195.335 9.29333 194.812 9.176 194.098 9.176H191.314V12.104ZM191.314 8.328H193.842C194.492 8.328 194.988 8.20533 195.33 7.96C195.682 7.71467 195.858 7.35733 195.858 6.888C195.858 6.41867 195.682 6.06667 195.33 5.832C194.988 5.59733 194.492 5.48 193.842 5.48H191.314V8.328ZM205.16 13V11.144L205.112 10.84V7.736C205.112 7.02133 204.909 6.472 204.504 6.088C204.109 5.704 203.517 5.512 202.728 5.512C202.184 5.512 201.667 5.60267 201.176 5.784C200.685 5.96533 200.269 6.20533 199.928 6.504L199.416 5.656C199.843 5.29333 200.355 5.016 200.952 4.824C201.549 4.62133 202.179 4.52 202.84 4.52C203.928 4.52 204.765 4.792 205.352 5.336C205.949 5.86933 206.248 6.68533 206.248 7.784V13H205.16ZM202.264 13.08C201.635 13.08 201.085 12.9787 200.616 12.776C200.157 12.5627 199.805 12.2747 199.56 11.912C199.315 11.5387 199.192 11.112 199.192 10.632C199.192 10.1947 199.293 9.8 199.496 9.448C199.709 9.08533 200.051 8.79733 200.52 8.584C201 8.36 201.64 8.248 202.44 8.248H205.336V9.096H202.472C201.661 9.096 201.096 9.24 200.776 9.528C200.467 9.816 200.312 10.1733 200.312 10.6C200.312 11.08 200.499 11.464 200.872 11.752C201.245 12.04 201.768 12.184 202.44 12.184C203.08 12.184 203.629 12.04 204.088 11.752C204.557 11.4533 204.899 11.0267 205.112 10.472L205.368 11.256C205.155 11.8107 204.781 12.2533 204.248 12.584C203.725 12.9147 203.064 13.08 202.264 13.08ZM214.792 12.008L214.536 12.312V4.6H215.672V12.312L215.368 12.008H220.056L219.752 12.312V4.6H220.888V13H209.272V4.6H210.408V12.312L210.12 12.008H214.792ZM227.716 13.08C226.841 13.08 226.073 12.8987 225.412 12.536C224.751 12.1627 224.233 11.656 223.86 11.016C223.487 10.3653 223.3 9.624 223.3 8.792C223.3 7.96 223.476 7.224 223.828 6.584C224.191 5.944 224.681 5.44267 225.3 5.08C225.929 4.70667 226.633 4.52 227.412 4.52C228.201 4.52 228.9 4.70133 229.508 5.064C230.127 5.416 230.612 5.91733 230.964 6.568C231.316 7.208 231.492 7.94933 231.492 8.792C231.492 8.84533 231.487 8.904 231.476 8.968C231.476 9.02133 231.476 9.08 231.476 9.144H224.164V8.296H230.868L230.42 8.632C230.42 8.024 230.287 7.48533 230.02 7.016C229.764 6.536 229.412 6.16267 228.964 5.896C228.516 5.62933 227.999 5.496 227.412 5.496C226.836 5.496 226.319 5.62933 225.86 5.896C225.401 6.16267 225.044 6.536 224.788 7.016C224.532 7.496 224.404 8.04533 224.404 8.664V8.84C224.404 9.48 224.543 10.0453 224.82 10.536C225.108 11.016 225.503 11.3947 226.004 11.672C226.516 11.9387 227.097 12.072 227.748 12.072C228.26 12.072 228.735 11.9813 229.172 11.8C229.62 11.6187 230.004 11.3413 230.324 10.968L230.964 11.704C230.591 12.152 230.121 12.4933 229.556 12.728C229.001 12.9627 228.388 13.08 227.716 13.08ZM234.007 13V4.6H235.143V11.272L240.759 4.6H241.767V13H240.631V6.312L235.031 13H234.007ZM237.815 3.384C237.111 3.384 236.54 3.208 236.103 2.856C235.676 2.49333 235.452 1.976 235.431 1.304H236.247C236.257 1.73067 236.407 2.06667 236.695 2.312C236.983 2.55733 237.356 2.68 237.815 2.68C238.273 2.68 238.647 2.55733 238.935 2.312C239.233 2.06667 239.388 1.73067 239.399 1.304H240.215C240.204 1.976 239.98 2.49333 239.543 2.856C239.105 3.208 238.529 3.384 237.815 3.384ZM249.21 13V4.6H250.346V11.272L255.962 4.6H256.97V13H255.834V6.312L250.234 13H249.21ZM265.985 12.456V5.592H261.937L261.841 7.464C261.82 8.02933 261.783 8.584 261.729 9.128C261.687 9.672 261.607 10.1733 261.489 10.632C261.383 11.08 261.228 11.448 261.025 11.736C260.823 12.0133 260.561 12.1733 260.241 12.216L259.105 12.008C259.436 12.0187 259.708 11.9013 259.921 11.656C260.135 11.4 260.3 11.0533 260.417 10.616C260.535 10.1787 260.62 9.68267 260.673 9.128C260.727 8.56267 260.769 7.98667 260.801 7.4L260.913 4.6H267.121V12.456H265.985ZM258.753 15.032V12.008H268.433V15.032H267.361V13H259.825V15.032H258.753ZM274.247 13.08C273.373 13.08 272.605 12.8987 271.943 12.536C271.282 12.1627 270.765 11.656 270.391 11.016C270.018 10.3653 269.831 9.624 269.831 8.792C269.831 7.96 270.007 7.224 270.359 6.584C270.722 5.944 271.213 5.44267 271.831 5.08C272.461 4.70667 273.165 4.52 273.943 4.52C274.733 4.52 275.431 4.70133 276.039 5.064C276.658 5.416 277.143 5.91733 277.495 6.568C277.847 7.208 278.023 7.94933 278.023 8.792C278.023 8.84533 278.018 8.904 278.007 8.968C278.007 9.02133 278.007 9.08 278.007 9.144H270.695V8.296H277.399L276.951 8.632C276.951 8.024 276.818 7.48533 276.551 7.016C276.295 6.536 275.943 6.16267 275.495 5.896C275.047 5.62933 274.53 5.496 273.943 5.496C273.367 5.496 272.85 5.62933 272.391 5.896C271.933 6.16267 271.575 6.536 271.319 7.016C271.063 7.496 270.935 8.04533 270.935 8.664V8.84C270.935 9.48 271.074 10.0453 271.351 10.536C271.639 11.016 272.034 11.3947 272.535 11.672C273.047 11.9387 273.629 12.072 274.279 12.072C274.791 12.072 275.266 11.9813 275.703 11.8C276.151 11.6187 276.535 11.3413 276.855 10.968L277.495 11.704C277.122 12.152 276.653 12.4933 276.087 12.728C275.533 12.9627 274.919 13.08 274.247 13.08ZM284.138 13.08C283.263 13.08 282.495 12.8987 281.834 12.536C281.173 12.1627 280.655 11.656 280.282 11.016C279.909 10.3653 279.722 9.624 279.722 8.792C279.722 7.96 279.898 7.224 280.25 6.584C280.613 5.944 281.103 5.44267 281.722 5.08C282.351 4.70667 283.055 4.52 283.834 4.52C284.623 4.52 285.322 4.70133 285.93 5.064C286.549 5.416 287.034 5.91733 287.386 6.568C287.738 7.208 287.914 7.94933 287.914 8.792C287.914 8.84533 287.909 8.904 287.898 8.968C287.898 9.02133 287.898 9.08 287.898 9.144H280.586V8.296H287.29L286.842 8.632C286.842 8.024 286.709 7.48533 286.442 7.016C286.186 6.536 285.834 6.16267 285.386 5.896C284.938 5.62933 284.421 5.496 283.834 5.496C283.258 5.496 282.741 5.62933 282.282 5.896C281.823 6.16267 281.466 6.536 281.21 7.016C280.954 7.496 280.826 8.04533 280.826 8.664V8.84C280.826 9.48 280.965 10.0453 281.242 10.536C281.53 11.016 281.925 11.3947 282.426 11.672C282.938 11.9387 283.519 12.072 284.17 12.072C284.682 12.072 285.157 11.9813 285.594 11.8C286.042 11.6187 286.426 11.3413 286.746 10.968L287.386 11.704C287.013 12.152 286.543 12.4933 285.978 12.728C285.423 12.9627 284.81 13.08 284.138 13.08Z" fill="white"/>
</svg>
