<svg width="154" height="87" viewBox="0 0 154 87" fill="none" xmlns="http://www.w3.org/2000/svg">
<g clip-path="url(#clip0_362_487)">
<rect width="154" height="87" fill="#1B2D3B"/>
<path d="M0.5 0.5H134C144.77 0.5 153.5 9.23045 153.5 20V86.5H20C9.23044 86.5 0.5 77.7695 0.5 67V0.5Z" stroke="white"/>
<path d="M60.955 49L56.92 43.765L57.82 43.225L62.23 49H60.955ZM53.77 49V38.5H54.85V49H53.77ZM54.52 44.185V43.21H57.805V44.185H54.52ZM57.91 43.87L56.89 43.69L60.805 38.5H62.005L57.91 43.87ZM66.8331 49.075C66.0731 49.075 65.3881 48.905 64.7781 48.565C64.1781 48.215 63.7031 47.74 63.3531 47.14C63.0031 46.53 62.8281 45.835 62.8281 45.055C62.8281 44.265 63.0031 43.57 63.3531 42.97C63.7031 42.37 64.1781 41.9 64.7781 41.56C65.3781 41.22 66.0631 41.05 66.8331 41.05C67.6131 41.05 68.3031 41.22 68.9031 41.56C69.5131 41.9 69.9881 42.37 70.3281 42.97C70.6781 43.57 70.8531 44.265 70.8531 45.055C70.8531 45.835 70.6781 46.53 70.3281 47.14C69.9881 47.74 69.5131 48.215 68.9031 48.565C68.2931 48.905 67.6031 49.075 66.8331 49.075ZM66.8331 48.13C67.4031 48.13 67.9081 48.005 68.3481 47.755C68.7881 47.495 69.1331 47.135 69.3831 46.675C69.6431 46.205 69.7731 45.665 69.7731 45.055C69.7731 44.435 69.6431 43.895 69.3831 43.435C69.1331 42.975 68.7881 42.62 68.3481 42.37C67.9081 42.11 67.4081 41.98 66.8481 41.98C66.2881 41.98 65.7881 42.11 65.3481 42.37C64.9081 42.62 64.5581 42.975 64.2981 43.435C64.0381 43.895 63.9081 44.435 63.9081 45.055C63.9081 45.665 64.0381 46.205 64.2981 46.675C64.5581 47.135 64.9081 47.495 65.3481 47.755C65.7881 48.005 66.2831 48.13 66.8331 48.13ZM73.1293 49V41.125H74.2093L77.7793 47.17H77.3293L80.9593 41.125H81.9493V49H80.9743V42.34L81.1693 42.43L77.7793 48.04H77.2993L73.8793 42.37L74.1043 42.325V49H73.1293ZM84.9798 49V41.125H92.0598V49H90.9948V41.77L91.2648 42.055H85.7748L86.0448 41.77V49H84.9798ZM99.9773 49V47.26L99.9323 46.975V44.065C99.9323 43.395 99.7423 42.88 99.3623 42.52C98.9923 42.16 98.4373 41.98 97.6973 41.98C97.1873 41.98 96.7023 42.065 96.2423 42.235C95.7823 42.405 95.3923 42.63 95.0723 42.91L94.5923 42.115C94.9923 41.775 95.4723 41.515 96.0323 41.335C96.5923 41.145 97.1823 41.05 97.8023 41.05C98.8223 41.05 99.6073 41.305 100.157 41.815C100.717 42.315 100.997 43.08 100.997 44.11V49H99.9773ZM97.2623 49.075C96.6723 49.075 96.1573 48.98 95.7173 48.79C95.2873 48.59 94.9573 48.32 94.7273 47.98C94.4973 47.63 94.3823 47.23 94.3823 46.78C94.3823 46.37 94.4773 46 94.6673 45.67C94.8673 45.33 95.1873 45.06 95.6273 44.86C96.0773 44.65 96.6773 44.545 97.4273 44.545H100.142V45.34H97.4573C96.6973 45.34 96.1673 45.475 95.8673 45.745C95.5773 46.015 95.4323 46.35 95.4323 46.75C95.4323 47.2 95.6073 47.56 95.9573 47.83C96.3073 48.1 96.7973 48.235 97.4273 48.235C98.0273 48.235 98.5423 48.1 98.9723 47.83C99.4123 47.55 99.7323 47.15 99.9323 46.63L100.172 47.365C99.9723 47.885 99.6223 48.3 99.1223 48.61C98.6323 48.92 98.0123 49.075 97.2623 49.075ZM103.832 49V41.125H104.897V44.605H109.862V41.125H110.927V49H109.862V45.52H104.897V49H103.832ZM113.954 49V41.125H115.019V47.38L120.284 41.125H121.229V49H120.164V42.73L114.914 49H113.954ZM124.282 49V41.125H125.347V47.38L130.612 41.125H131.557V49H130.492V42.73L125.242 49H124.282Z" fill="white"/>
<path d="M29.5469 44.4124C29.5469 45.4292 30.3795 46.2468 31.4009 46.2468H33.4881C34.3763 46.2468 35.0979 45.534 35.0979 44.643C35.0979 43.6892 34.6539 43.3433 33.9988 43.1231L30.6571 42.0225C30.0021 41.8024 29.558 41.467 29.558 40.5027C29.558 39.6222 30.2796 38.8989 31.1678 38.8989H33.255C34.2764 38.8989 35.109 39.7165 35.109 40.7333" stroke="white" stroke-width="1.5" stroke-linecap="round" stroke-linejoin="round"/>
<path d="M32.3223 37.8613V47.2951" stroke="white" stroke-width="1.5" stroke-linecap="round" stroke-linejoin="round"/>
<path d="M43.4249 42.5781C43.4249 48.3641 38.4512 53.06 32.3228 53.06C26.1944 53.06 21.2207 48.3641 21.2207 42.5781C21.2207 36.7921 26.1944 32.0962 32.3228 32.0962" stroke="white" stroke-width="1.5" stroke-linecap="round" stroke-linejoin="round"/>
<path d="M43.4242 36.289V32.0962H38.9834" stroke="white" stroke-width="1.5" stroke-linecap="round" stroke-linejoin="round"/>
<path d="M37.874 37.3372L43.4251 32.0962" stroke="white" stroke-width="1.5" stroke-linecap="round" stroke-linejoin="round"/>
</g>
<defs>
<clipPath id="clip0_362_487">
<rect width="154" height="87" fill="white"/>
</clipPath>
</defs>
</svg>
