<svg width="224" height="19" viewBox="0 0 224 19" fill="none" xmlns="http://www.w3.org/2000/svg">
<path d="M8.4 15.2C7.33333 15.2 6.34 15.0267 5.42 14.68C4.51333 14.32 3.72 13.82 3.04 13.18C2.37333 12.5267 1.85333 11.76 1.48 10.88C1.10667 10 0.92 9.04 0.92 8C0.92 6.96 1.10667 6 1.48 5.12C1.85333 4.24 2.38 3.48 3.06 2.84C3.74 2.18667 4.53333 1.68667 5.44 1.34C6.34667 0.979999 7.34 0.799999 8.42 0.799999C9.56667 0.799999 10.6133 0.999999 11.56 1.4C12.5067 1.78667 13.3067 2.36667 13.96 3.14L12.28 4.72C11.7733 4.17333 11.2067 3.76667 10.58 3.5C9.95333 3.22 9.27333 3.08 8.54 3.08C7.80667 3.08 7.13333 3.2 6.52 3.44C5.92 3.68 5.39333 4.02 4.94 4.46C4.5 4.9 4.15333 5.42 3.9 6.02C3.66 6.62 3.54 7.28 3.54 8C3.54 8.72 3.66 9.38 3.9 9.98C4.15333 10.58 4.5 11.1 4.94 11.54C5.39333 11.98 5.92 12.32 6.52 12.56C7.13333 12.8 7.80667 12.92 8.54 12.92C9.27333 12.92 9.95333 12.7867 10.58 12.52C11.2067 12.24 11.7733 11.82 12.28 11.26L13.96 12.86C13.3067 13.62 12.5067 14.2 11.56 14.6C10.6133 15 9.56 15.2 8.4 15.2ZM16.0941 15V4.32H26.3341V15H23.8541V5.86L24.4341 6.44H18.0141L18.5941 5.86V15H16.0941ZM29.7073 15V4.32H32.2073V11.36L38.1073 4.32H40.3873V15H37.8873V7.96L32.0073 15H29.7073ZM48.6103 15.14C47.4903 15.14 46.4903 14.9067 45.6103 14.44C44.7436 13.96 44.0636 13.3067 43.5703 12.48C43.077 11.6533 42.8303 10.7133 42.8303 9.66C42.8303 8.59333 43.077 7.65333 43.5703 6.84C44.0636 6.01333 44.7436 5.36667 45.6103 4.9C46.4903 4.43333 47.4903 4.2 48.6103 4.2C49.6503 4.2 50.5636 4.41333 51.3503 4.84C52.1503 5.25333 52.757 5.86667 53.1703 6.68L51.2503 7.8C50.9303 7.29333 50.537 6.92 50.0703 6.68C49.617 6.44 49.1236 6.32 48.5903 6.32C47.977 6.32 47.4236 6.45333 46.9303 6.72C46.437 6.98667 46.0503 7.37333 45.7703 7.88C45.4903 8.37333 45.3503 8.96667 45.3503 9.66C45.3503 10.3533 45.4903 10.9533 45.7703 11.46C46.0503 11.9533 46.437 12.3333 46.9303 12.6C47.4236 12.8667 47.977 13 48.5903 13C49.1236 13 49.617 12.88 50.0703 12.64C50.537 12.4 50.9303 12.0267 51.2503 11.52L53.1703 12.64C52.757 13.44 52.1503 14.06 51.3503 14.5C50.5636 14.9267 49.6503 15.14 48.6103 15.14ZM59.9752 15.14C58.8818 15.14 57.9085 14.9067 57.0552 14.44C56.2018 13.96 55.5285 13.3067 55.0352 12.48C54.5418 11.6533 54.2952 10.7133 54.2952 9.66C54.2952 8.59333 54.5418 7.65333 55.0352 6.84C55.5285 6.01333 56.2018 5.36667 57.0552 4.9C57.9085 4.43333 58.8818 4.2 59.9752 4.2C61.0818 4.2 62.0618 4.43333 62.9152 4.9C63.7818 5.36667 64.4552 6.00667 64.9352 6.82C65.4285 7.63333 65.6752 8.58 65.6752 9.66C65.6752 10.7133 65.4285 11.6533 64.9352 12.48C64.4552 13.3067 63.7818 13.96 62.9152 14.44C62.0618 14.9067 61.0818 15.14 59.9752 15.14ZM59.9752 13C60.5885 13 61.1352 12.8667 61.6152 12.6C62.0952 12.3333 62.4685 11.9467 62.7352 11.44C63.0152 10.9333 63.1552 10.34 63.1552 9.66C63.1552 8.96667 63.0152 8.37333 62.7352 7.88C62.4685 7.37333 62.0952 6.98667 61.6152 6.72C61.1352 6.45333 60.5952 6.32 59.9952 6.32C59.3818 6.32 58.8352 6.45333 58.3552 6.72C57.8885 6.98667 57.5152 7.37333 57.2352 7.88C56.9552 8.37333 56.8152 8.96667 56.8152 9.66C56.8152 10.34 56.9552 10.9333 57.2352 11.44C57.5152 11.9467 57.8885 12.3333 58.3552 12.6C58.8352 12.8667 59.3752 13 59.9752 13ZM75.8048 15L71.9448 9.88L73.9848 8.62L78.7448 15H75.8048ZM68.1448 15V4.32H70.6448V15H68.1448ZM69.9048 10.72V8.64H73.5248V10.72H69.9048ZM74.2248 9.96L71.8848 9.68L75.8048 4.32H78.4848L74.2248 9.96ZM90.8955 15.14C89.7755 15.14 88.7755 14.9067 87.8955 14.44C87.0288 13.96 86.3488 13.3067 85.8555 12.48C85.3621 11.6533 85.1155 10.7133 85.1155 9.66C85.1155 8.59333 85.3621 7.65333 85.8555 6.84C86.3488 6.01333 87.0288 5.36667 87.8955 4.9C88.7755 4.43333 89.7755 4.2 90.8955 4.2C91.9355 4.2 92.8488 4.41333 93.6355 4.84C94.4355 5.25333 95.0421 5.86667 95.4555 6.68L93.5355 7.8C93.2155 7.29333 92.8221 6.92 92.3555 6.68C91.9021 6.44 91.4088 6.32 90.8755 6.32C90.2621 6.32 89.7088 6.45333 89.2155 6.72C88.7221 6.98667 88.3355 7.37333 88.0555 7.88C87.7755 8.37333 87.6355 8.96667 87.6355 9.66C87.6355 10.3533 87.7755 10.9533 88.0555 11.46C88.3355 11.9533 88.7221 12.3333 89.2155 12.6C89.7088 12.8667 90.2621 13 90.8755 13C91.4088 13 91.9021 12.88 92.3555 12.64C92.8221 12.4 93.2155 12.0267 93.5355 11.52L95.4555 12.64C95.0421 13.44 94.4355 14.06 93.6355 14.5C92.8488 14.9267 91.9355 15.14 90.8955 15.14ZM99.7984 15V5.84L100.378 6.44H96.0384V4.32H106.038V6.44H101.718L102.298 5.84V15H99.7984ZM114.332 15V12.84L114.192 12.38V8.6C114.192 7.86667 113.972 7.3 113.532 6.9C113.092 6.48667 112.425 6.28 111.532 6.28C110.932 6.28 110.339 6.37333 109.752 6.56C109.179 6.74667 108.692 7.00667 108.292 7.34L107.312 5.52C107.885 5.08 108.565 4.75333 109.352 4.54C110.152 4.31333 110.979 4.2 111.832 4.2C113.379 4.2 114.572 4.57333 115.412 5.32C116.265 6.05333 116.692 7.19333 116.692 8.74V15H114.332ZM110.972 15.14C110.172 15.14 109.472 15.0067 108.872 14.74C108.272 14.46 107.805 14.08 107.472 13.6C107.152 13.1067 106.992 12.5533 106.992 11.94C106.992 11.34 107.132 10.8 107.412 10.32C107.705 9.84 108.179 9.46 108.832 9.18C109.485 8.9 110.352 8.76 111.432 8.76H114.532V10.42H111.612C110.759 10.42 110.185 10.56 109.892 10.84C109.599 11.1067 109.452 11.44 109.452 11.84C109.452 12.2933 109.632 12.6533 109.992 12.92C110.352 13.1867 110.852 13.32 111.492 13.32C112.105 13.32 112.652 13.18 113.132 12.9C113.625 12.62 113.979 12.2067 114.192 11.66L114.612 13.16C114.372 13.7867 113.939 14.2733 113.312 14.62C112.699 14.9667 111.919 15.14 110.972 15.14ZM125.705 15.14C124.839 15.14 124.045 14.94 123.325 14.54C122.619 14.14 122.052 13.54 121.625 12.74C121.212 11.9267 121.005 10.9 121.005 9.66C121.005 8.40667 121.205 7.38 121.605 6.58C122.019 5.78 122.579 5.18667 123.285 4.8C123.992 4.4 124.799 4.2 125.705 4.2C126.759 4.2 127.685 4.42667 128.485 4.88C129.299 5.33333 129.939 5.96667 130.405 6.78C130.885 7.59333 131.125 8.55333 131.125 9.66C131.125 10.7667 130.885 11.7333 130.405 12.56C129.939 13.3733 129.299 14.0067 128.485 14.46C127.685 14.9133 126.759 15.14 125.705 15.14ZM119.785 18.88V4.32H122.165V6.84L122.085 9.68L122.285 12.52V18.88H119.785ZM125.425 13C126.025 13 126.559 12.8667 127.025 12.6C127.505 12.3333 127.885 11.9467 128.165 11.44C128.445 10.9333 128.585 10.34 128.585 9.66C128.585 8.96667 128.445 8.37333 128.165 7.88C127.885 7.37333 127.505 6.98667 127.025 6.72C126.559 6.45333 126.025 6.32 125.425 6.32C124.825 6.32 124.285 6.45333 123.805 6.72C123.325 6.98667 122.945 7.37333 122.665 7.88C122.385 8.37333 122.245 8.96667 122.245 9.66C122.245 10.34 122.385 10.9333 122.665 11.44C122.945 11.9467 123.325 12.3333 123.805 12.6C124.285 12.8667 124.825 13 125.425 13ZM135.443 15V5.84L136.023 6.44H131.683V4.32H141.683V6.44H137.363L137.943 5.84V15H135.443ZM149.976 15V12.84L149.836 12.38V8.6C149.836 7.86667 149.616 7.3 149.176 6.9C148.736 6.48667 148.07 6.28 147.176 6.28C146.576 6.28 145.983 6.37333 145.396 6.56C144.823 6.74667 144.336 7.00667 143.936 7.34L142.956 5.52C143.53 5.08 144.21 4.75333 144.996 4.54C145.796 4.31333 146.623 4.2 147.476 4.2C149.023 4.2 150.216 4.57333 151.056 5.32C151.91 6.05333 152.336 7.19333 152.336 8.74V15H149.976ZM146.616 15.14C145.816 15.14 145.116 15.0067 144.516 14.74C143.916 14.46 143.45 14.08 143.116 13.6C142.796 13.1067 142.636 12.5533 142.636 11.94C142.636 11.34 142.776 10.8 143.056 10.32C143.35 9.84 143.823 9.46 144.476 9.18C145.13 8.9 145.996 8.76 147.076 8.76H150.176V10.42H147.256C146.403 10.42 145.83 10.56 145.536 10.84C145.243 11.1067 145.096 11.44 145.096 11.84C145.096 12.2933 145.276 12.6533 145.636 12.92C145.996 13.1867 146.496 13.32 147.136 13.32C147.75 13.32 148.296 13.18 148.776 12.9C149.27 12.62 149.623 12.2067 149.836 11.66L150.256 13.16C150.016 13.7867 149.583 14.2733 148.956 14.62C148.343 14.9667 147.563 15.14 146.616 15.14ZM155.43 15V4.32H165.67V15H163.19V5.86L163.77 6.44H157.35L157.93 5.86V15H155.43ZM174.023 15.14C172.837 15.14 171.797 14.9067 170.903 14.44C170.023 13.96 169.337 13.3067 168.843 12.48C168.363 11.6533 168.123 10.7133 168.123 9.66C168.123 8.59333 168.357 7.65333 168.823 6.84C169.303 6.01333 169.957 5.36667 170.783 4.9C171.623 4.43333 172.577 4.2 173.643 4.2C174.683 4.2 175.61 4.42667 176.423 4.88C177.237 5.33333 177.877 5.97333 178.343 6.8C178.81 7.62667 179.043 8.6 179.043 9.72C179.043 9.82667 179.037 9.94667 179.023 10.08C179.023 10.2133 179.017 10.34 179.003 10.46H170.103V8.8H177.683L176.703 9.32C176.717 8.70667 176.59 8.16667 176.323 7.7C176.057 7.23333 175.69 6.86667 175.223 6.6C174.77 6.33333 174.243 6.2 173.643 6.2C173.03 6.2 172.49 6.33333 172.023 6.6C171.57 6.86667 171.21 7.24 170.943 7.72C170.69 8.18667 170.563 8.74 170.563 9.38V9.78C170.563 10.42 170.71 10.9867 171.003 11.48C171.297 11.9733 171.71 12.3533 172.243 12.62C172.777 12.8867 173.39 13.02 174.083 13.02C174.683 13.02 175.223 12.9267 175.703 12.74C176.183 12.5533 176.61 12.26 176.983 11.86L178.323 13.4C177.843 13.96 177.237 14.3933 176.503 14.7C175.783 14.9933 174.957 15.14 174.023 15.14ZM187.698 15.14C186.831 15.14 186.038 14.94 185.318 14.54C184.611 14.14 184.044 13.54 183.618 12.74C183.204 11.9267 182.998 10.9 182.998 9.66C182.998 8.40667 183.198 7.38 183.598 6.58C184.011 5.78 184.571 5.18667 185.278 4.8C185.984 4.4 186.791 4.2 187.698 4.2C188.751 4.2 189.678 4.42667 190.478 4.88C191.291 5.33333 191.931 5.96667 192.398 6.78C192.878 7.59333 193.118 8.55333 193.118 9.66C193.118 10.7667 192.878 11.7333 192.398 12.56C191.931 13.3733 191.291 14.0067 190.478 14.46C189.678 14.9133 188.751 15.14 187.698 15.14ZM181.778 18.88V4.32H184.158V6.84L184.078 9.68L184.278 12.52V18.88H181.778ZM187.418 13C188.018 13 188.551 12.8667 189.018 12.6C189.498 12.3333 189.878 11.9467 190.158 11.44C190.438 10.9333 190.578 10.34 190.578 9.66C190.578 8.96667 190.438 8.37333 190.158 7.88C189.878 7.37333 189.498 6.98667 189.018 6.72C188.551 6.45333 188.018 6.32 187.418 6.32C186.818 6.32 186.278 6.45333 185.798 6.72C185.318 6.98667 184.938 7.37333 184.658 7.88C184.378 8.37333 184.238 8.96667 184.238 9.66C184.238 10.34 184.378 10.9333 184.658 11.44C184.938 11.9467 185.318 12.3333 185.798 12.6C186.278 12.8667 186.818 13 187.418 13ZM200.366 15.14C199.272 15.14 198.299 14.9067 197.446 14.44C196.592 13.96 195.919 13.3067 195.426 12.48C194.932 11.6533 194.686 10.7133 194.686 9.66C194.686 8.59333 194.932 7.65333 195.426 6.84C195.919 6.01333 196.592 5.36667 197.446 4.9C198.299 4.43333 199.272 4.2 200.366 4.2C201.472 4.2 202.452 4.43333 203.306 4.9C204.172 5.36667 204.846 6.00667 205.326 6.82C205.819 7.63333 206.066 8.58 206.066 9.66C206.066 10.7133 205.819 11.6533 205.326 12.48C204.846 13.3067 204.172 13.96 203.306 14.44C202.452 14.9067 201.472 15.14 200.366 15.14ZM200.366 13C200.979 13 201.526 12.8667 202.006 12.6C202.486 12.3333 202.859 11.9467 203.126 11.44C203.406 10.9333 203.546 10.34 203.546 9.66C203.546 8.96667 203.406 8.37333 203.126 7.88C202.859 7.37333 202.486 6.98667 202.006 6.72C201.526 6.45333 200.986 6.32 200.386 6.32C199.772 6.32 199.226 6.45333 198.746 6.72C198.279 6.98667 197.906 7.37333 197.626 7.88C197.346 8.37333 197.206 8.96667 197.206 9.66C197.206 10.34 197.346 10.9333 197.626 11.44C197.906 11.9467 198.279 12.3333 198.746 12.6C199.226 12.8667 199.766 13 200.366 13ZM208.535 15V4.32H213.755C215.049 4.32 216.062 4.56 216.795 5.04C217.542 5.52 217.915 6.2 217.915 7.08C217.915 7.94667 217.569 8.62667 216.875 9.12C216.182 9.6 215.262 9.84 214.115 9.84L214.415 9.22C215.709 9.22 216.669 9.46 217.295 9.94C217.935 10.4067 218.255 11.0933 218.255 12C218.255 12.9467 217.902 13.6867 217.195 14.22C216.489 14.74 215.415 15 213.975 15H208.535ZM210.915 13.18H213.775C214.455 13.18 214.969 13.0733 215.315 12.86C215.662 12.6333 215.835 12.2933 215.835 11.84C215.835 11.36 215.675 11.0067 215.355 10.78C215.035 10.5533 214.535 10.44 213.855 10.44H210.915V13.18ZM210.915 8.78H213.535C214.175 8.78 214.655 8.66667 214.975 8.44C215.309 8.2 215.475 7.86667 215.475 7.44C215.475 7 215.309 6.67333 214.975 6.46C214.655 6.24667 214.175 6.14 213.535 6.14H210.915V8.78ZM221.678 7.52C221.225 7.52 220.838 7.36667 220.518 7.06C220.198 6.74 220.038 6.34 220.038 5.86C220.038 5.35333 220.198 4.95333 220.518 4.66C220.838 4.35333 221.225 4.2 221.678 4.2C222.132 4.2 222.518 4.35333 222.838 4.66C223.158 4.95333 223.318 5.35333 223.318 5.86C223.318 6.34 223.158 6.74 222.838 7.06C222.518 7.36667 222.132 7.52 221.678 7.52ZM221.678 15.14C221.225 15.14 220.838 14.9867 220.518 14.68C220.198 14.36 220.038 13.96 220.038 13.48C220.038 12.9733 220.198 12.5733 220.518 12.28C220.838 11.9733 221.225 11.82 221.678 11.82C222.132 11.82 222.518 11.9733 222.838 12.28C223.158 12.5733 223.318 12.9733 223.318 13.48C223.318 13.96 223.158 14.36 222.838 14.68C222.518 14.9867 222.132 15.14 221.678 15.14Z" fill="white"/>
</svg>
