<svg width="50" height="50" viewBox="0 0 50 50" fill="none" xmlns="http://www.w3.org/2000/svg">
<g clip-path="url(#clip0_43_1738)">
<path d="M0 0H30C41.0457 0 50 8.95431 50 20V50H20C8.9543 50 0 41.0457 0 30V0Z" fill="url(#paint0_linear_43_1738)"/>
<rect x="11" y="11" width="28" height="28" rx="14" stroke="#FEFEFE" stroke-width="2"/>
<path d="M25.3539 24.3617C25.277 24.354 25.1847 24.354 25.1 24.3617C23.2693 24.3001 21.8154 22.8001 21.8154 20.954C21.8154 19.0693 23.3385 17.5386 25.2308 17.5386C27.1154 17.5386 28.6462 19.0693 28.6462 20.954C28.6385 22.8001 27.1847 24.3001 25.3539 24.3617Z" stroke="white" stroke-width="1.5" stroke-linecap="round" stroke-linejoin="round"/>
<path d="M21.5077 27.2001C19.6462 28.4462 19.6462 30.477 21.5077 31.7154C23.6231 33.1308 27.0923 33.1308 29.2077 31.7154C31.0693 30.4693 31.0693 28.4385 29.2077 27.2001C27.1 25.7924 23.6308 25.7924 21.5077 27.2001Z" stroke="white" stroke-width="1.5" stroke-linecap="round" stroke-linejoin="round"/>
</g>
<defs>
<linearGradient id="paint0_linear_43_1738" x1="24.5455" y1="-41.8182" x2="24.5455" y2="56.8182" gradientUnits="userSpaceOnUse">
<stop stop-color="#9BEC8B"/>
<stop offset="1" stop-color="#24B8B1"/>
</linearGradient>
<clipPath id="clip0_43_1738">
<path d="M0 0H30C41.0457 0 50 8.95431 50 20V50H20C8.9543 50 0 41.0457 0 30V0Z" fill="white"/>
</clipPath>
</defs>
</svg>
