<svg width="48" height="12" viewBox="0 0 48 12" fill="none" xmlns="http://www.w3.org/2000/svg">
<path d="M1.005 11.09C0.865 11.09 0.73 11.08 0.6 11.06C0.47 11.05 0.325 11.025 0.165 10.985L0.255 9.995C0.425 10.035 0.59 10.055 0.75 10.055C1.2 10.055 1.56 9.88 1.83 9.53C2.11 9.17 2.32 8.62 2.46 7.88C2.6 7.13 2.69 6.17 2.73 5L2.88 0.499999H10.005V11H8.91V1.16L9.195 1.46H3.585L3.855 1.145L3.72 4.97C3.68 6.02 3.605 6.93 3.495 7.7C3.385 8.46 3.225 9.095 3.015 9.605C2.805 10.105 2.535 10.48 2.205 10.73C1.875 10.97 1.475 11.09 1.005 11.09ZM16.5323 11.075C15.7723 11.075 15.0873 10.905 14.4773 10.565C13.8773 10.215 13.4023 9.74 13.0523 9.14C12.7023 8.53 12.5273 7.835 12.5273 7.055C12.5273 6.265 12.7023 5.57 13.0523 4.97C13.4023 4.37 13.8773 3.9 14.4773 3.56C15.0773 3.22 15.7623 3.05 16.5323 3.05C17.3123 3.05 18.0023 3.22 18.6023 3.56C19.2123 3.9 19.6873 4.37 20.0273 4.97C20.3773 5.57 20.5523 6.265 20.5523 7.055C20.5523 7.835 20.3773 8.53 20.0273 9.14C19.6873 9.74 19.2123 10.215 18.6023 10.565C17.9923 10.905 17.3023 11.075 16.5323 11.075ZM16.5323 10.13C17.1023 10.13 17.6073 10.005 18.0473 9.755C18.4873 9.495 18.8323 9.135 19.0823 8.675C19.3423 8.205 19.4723 7.665 19.4723 7.055C19.4723 6.435 19.3423 5.895 19.0823 5.435C18.8323 4.975 18.4873 4.62 18.0473 4.37C17.6073 4.11 17.1073 3.98 16.5473 3.98C15.9873 3.98 15.4873 4.11 15.0473 4.37C14.6073 4.62 14.2573 4.975 13.9973 5.435C13.7373 5.895 13.6073 6.435 13.6073 7.055C13.6073 7.665 13.7373 8.205 13.9973 8.675C14.2573 9.135 14.6073 9.495 15.0473 9.755C15.4873 10.005 15.9823 10.13 16.5323 10.13ZM22.8285 11V3.125H28.4085V4.055H23.6235L23.8935 3.785V11H22.8285ZM29.9476 11V3.125H31.0126V9.38L36.2776 3.125H37.2226V11H36.1576V4.73L30.9076 11H29.9476ZM40.2748 11V3.125H41.3398V6.605H46.3048V3.125H47.3698V11H46.3048V7.52H41.3398V11H40.2748Z" fill="white"/>
</svg>
