<svg width="136" height="18" viewBox="0 0 136 18" fill="none" xmlns="http://www.w3.org/2000/svg">
<path d="M0.36 14V-9.53674e-07H1.58L7.98 10.92H7.34L13.68 -9.53674e-07H14.9V14H13.48V2.22H13.82L7.98 12.22H7.28L1.4 2.22H1.78V14H0.36ZM23.5978 14.1C22.5845 14.1 21.6711 13.8733 20.8578 13.42C20.0578 12.9533 19.4245 12.32 18.9578 11.52C18.4911 10.7067 18.2578 9.78 18.2578 8.74C18.2578 7.68667 18.4911 6.76 18.9578 5.96C19.4245 5.16 20.0578 4.53333 20.8578 4.08C21.6578 3.62667 22.5711 3.4 23.5978 3.4C24.6378 3.4 25.5578 3.62667 26.3578 4.08C27.1711 4.53333 27.8045 5.16 28.2578 5.96C28.7245 6.76 28.9578 7.68667 28.9578 8.74C28.9578 9.78 28.7245 10.7067 28.2578 11.52C27.8045 12.32 27.1711 12.9533 26.3578 13.42C25.5445 13.8733 24.6245 14.1 23.5978 14.1ZM23.5978 12.84C24.3578 12.84 25.0311 12.6733 25.6178 12.34C26.2045 11.9933 26.6645 11.5133 26.9978 10.9C27.3445 10.2733 27.5178 9.55333 27.5178 8.74C27.5178 7.91333 27.3445 7.19333 26.9978 6.58C26.6645 5.96667 26.2045 5.49333 25.6178 5.16C25.0311 4.81333 24.3645 4.64 23.6178 4.64C22.8711 4.64 22.2045 4.81333 21.6178 5.16C21.0311 5.49333 20.5645 5.96667 20.2178 6.58C19.8711 7.19333 19.6978 7.91333 19.6978 8.74C19.6978 9.55333 19.8711 10.2733 20.2178 10.9C20.5645 11.5133 21.0311 11.9933 21.6178 12.34C22.2045 12.6733 22.8645 12.84 23.5978 12.84ZM31.9927 14V3.5H33.4127V11.84L40.4327 3.5H41.6927V14H40.2727V5.64L33.2727 14H31.9927ZM50.9966 14V3.5H60.4366V14H59.0166V4.36L59.3766 4.74H52.0566L52.4166 4.36V14H50.9966ZM69.8931 14.1C68.9865 14.1 68.1665 13.8933 67.4331 13.48C66.6998 13.0533 66.1131 12.4467 65.6731 11.66C65.2465 10.86 65.0331 9.88667 65.0331 8.74C65.0331 7.59333 65.2465 6.62667 65.6731 5.84C66.0998 5.04 66.6798 4.43333 67.4131 4.02C68.1465 3.60667 68.9731 3.4 69.8931 3.4C70.8931 3.4 71.7865 3.62667 72.5731 4.08C73.3731 4.52 73.9998 5.14667 74.4531 5.96C74.9065 6.76 75.1331 7.68667 75.1331 8.74C75.1331 9.80667 74.9065 10.74 74.4531 11.54C73.9998 12.34 73.3731 12.9667 72.5731 13.42C71.7865 13.8733 70.8931 14.1 69.8931 14.1ZM64.4731 17.88V3.5H65.8331V6.66L65.6931 8.76L65.8931 10.88V17.88H64.4731ZM69.7931 12.84C70.5398 12.84 71.2065 12.6733 71.7931 12.34C72.3798 11.9933 72.8465 11.5133 73.1931 10.9C73.5398 10.2733 73.7131 9.55333 73.7131 8.74C73.7131 7.92667 73.5398 7.21333 73.1931 6.6C72.8465 5.98667 72.3798 5.50667 71.7931 5.16C71.2065 4.81333 70.5398 4.64 69.7931 4.64C69.0465 4.64 68.3731 4.81333 67.7731 5.16C67.1865 5.50667 66.7198 5.98667 66.3731 6.6C66.0398 7.21333 65.8731 7.92667 65.8731 8.74C65.8731 9.55333 66.0398 10.2733 66.3731 10.9C66.7198 11.5133 67.1865 11.9933 67.7731 12.34C68.3731 12.6733 69.0465 12.84 69.7931 12.84ZM82.5041 14.1C81.4907 14.1 80.5774 13.8733 79.7641 13.42C78.9641 12.9533 78.3307 12.32 77.8641 11.52C77.3974 10.7067 77.1641 9.78 77.1641 8.74C77.1641 7.68667 77.3974 6.76 77.8641 5.96C78.3307 5.16 78.9641 4.53333 79.7641 4.08C80.5641 3.62667 81.4774 3.4 82.5041 3.4C83.5441 3.4 84.4641 3.62667 85.2641 4.08C86.0774 4.53333 86.7107 5.16 87.1641 5.96C87.6307 6.76 87.8641 7.68667 87.8641 8.74C87.8641 9.78 87.6307 10.7067 87.1641 11.52C86.7107 12.32 86.0774 12.9533 85.2641 13.42C84.4507 13.8733 83.5307 14.1 82.5041 14.1ZM82.5041 12.84C83.2641 12.84 83.9374 12.6733 84.5241 12.34C85.1107 11.9933 85.5707 11.5133 85.9041 10.9C86.2507 10.2733 86.4241 9.55333 86.4241 8.74C86.4241 7.91333 86.2507 7.19333 85.9041 6.58C85.5707 5.96667 85.1107 5.49333 84.5241 5.16C83.9374 4.81333 83.2707 4.64 82.5241 4.64C81.7774 4.64 81.1107 4.81333 80.5241 5.16C79.9374 5.49333 79.4707 5.96667 79.1241 6.58C78.7774 7.19333 78.6041 7.91333 78.6041 8.74C78.6041 9.55333 78.7774 10.2733 79.1241 10.9C79.4707 11.5133 79.9374 11.9933 80.5241 12.34C81.1107 12.6733 81.7707 12.84 82.5041 12.84ZM95.3989 14.1C94.3056 14.1 93.3456 13.8733 92.5189 13.42C91.6922 12.9533 91.0456 12.32 90.5789 11.52C90.1122 10.7067 89.8789 9.78 89.8789 8.74C89.8789 7.7 90.0989 6.78 90.5389 5.98C90.9922 5.18 91.6056 4.55333 92.3789 4.1C93.1656 3.63333 94.0456 3.4 95.0189 3.4C96.0056 3.4 96.8789 3.62667 97.6389 4.08C98.4122 4.52 99.0189 5.14667 99.4589 5.96C99.8989 6.76 100.119 7.68667 100.119 8.74C100.119 8.80667 100.112 8.88 100.099 8.96C100.099 9.02667 100.099 9.1 100.099 9.18H90.9589V8.12H99.3389L98.7789 8.54C98.7789 7.78 98.6122 7.10667 98.2789 6.52C97.9589 5.92 97.5189 5.45333 96.9589 5.12C96.3989 4.78667 95.7522 4.62 95.0189 4.62C94.2989 4.62 93.6522 4.78667 93.0789 5.12C92.5056 5.45333 92.0589 5.92 91.7389 6.52C91.4189 7.12 91.2589 7.80667 91.2589 8.58V8.8C91.2589 9.6 91.4322 10.3067 91.7789 10.92C92.1389 11.52 92.6322 11.9933 93.2589 12.34C93.8989 12.6733 94.6256 12.84 95.4389 12.84C96.0789 12.84 96.6722 12.7267 97.2189 12.5C97.7789 12.2733 98.2589 11.9267 98.6589 11.46L99.4589 12.38C98.9922 12.94 98.4056 13.3667 97.6989 13.66C97.0056 13.9533 96.2389 14.1 95.3989 14.1ZM110.962 14L106.642 8.8L107.822 8.1L112.642 14H110.962ZM103.262 14V3.5H104.682V14H103.262ZM104.242 9.32V8.1H107.622V9.32H104.242ZM107.942 8.9L106.622 8.7L110.802 3.5H112.342L107.942 8.9ZM116.668 14V4.36L117.028 4.74H112.688V3.5H122.068V4.74H117.728L118.088 4.36V14H116.668ZM134.362 14V3.5H135.782V14H134.362ZM128.542 7.2C129.862 7.21333 130.868 7.50667 131.562 8.08C132.255 8.65333 132.602 9.48 132.602 10.56C132.602 11.68 132.228 12.54 131.482 13.14C130.735 13.74 129.668 14.0333 128.282 14.02L124.122 14V3.5H125.542V7.16L128.542 7.2ZM128.182 12.94C129.168 12.9533 129.908 12.76 130.402 12.36C130.908 11.9467 131.162 11.3467 131.162 10.56C131.162 9.77333 130.915 9.2 130.422 8.84C129.928 8.46667 129.182 8.27333 128.182 8.26L125.542 8.22V12.9L128.182 12.94Z" fill="white"/>
</svg>
