<svg width="43" height="14" viewBox="0 0 43 14" fill="none" xmlns="http://www.w3.org/2000/svg">
<path d="M0.74 14V-9.53674e-07H3.96V9.12L10.64 -9.53674e-07H13.68V14H10.48V4.9L3.8 14H0.74ZM16.9258 14V3.24H20.1858L24.2458 10.6H22.9458L27.2858 3.24H30.2058L30.2458 14H27.4258V6.44L27.9058 6.76L24.2058 12.96H22.8858L19.1658 6.54L19.7458 6.4V14H16.9258ZM40.0144 14V10.42L40.4544 10.92H37.4744C35.9277 10.92 34.7144 10.6 33.8344 9.96C32.9544 9.32 32.5144 8.4 32.5144 7.2C32.5144 5.92 32.9744 4.94 33.8944 4.26C34.8277 3.58 36.081 3.24 37.6544 3.24H42.7944V14H40.0144ZM32.3544 14L35.2144 9.9H38.3944L35.6744 14H32.3544ZM40.0144 9.46V4.98L40.4544 5.78H37.7144C37.0744 5.78 36.5744 5.9 36.2144 6.14C35.8677 6.38 35.6944 6.76667 35.6944 7.3C35.6944 8.32667 36.3544 8.84 37.6744 8.84H40.4544L40.0144 9.46Z" fill="white"/>
</svg>
