<svg width="31" height="11" viewBox="0 0 31 11" fill="none" xmlns="http://www.w3.org/2000/svg">
<path d="M0.77 11V0.499999H1.865V9.2L8.585 0.499999H9.59V11H8.495V2.315L1.775 11H0.77ZM12.8783 11V3.125H13.9583L17.5283 9.17H17.0783L20.7083 3.125H21.6983V11H20.7233V4.34L20.9183 4.43L17.5283 10.04H17.0483L13.6283 4.37L13.8533 4.325V11H12.8783ZM29.8139 11V8.165L30.0089 8.39H27.3389C26.3289 8.39 25.5389 8.17 24.9689 7.73C24.3989 7.29 24.1139 6.65 24.1139 5.81C24.1139 4.91 24.4189 4.24 25.0289 3.8C25.6389 3.35 26.4539 3.125 27.4739 3.125H30.7889V11H29.8139ZM24.0539 11L26.2139 7.97H27.3239L25.2089 11H24.0539ZM29.8139 7.85V3.74L30.0089 4.055H27.5039C26.7739 4.055 26.2039 4.195 25.7939 4.475C25.3939 4.755 25.1939 5.21 25.1939 5.84C25.1939 7.01 25.9389 7.595 27.4289 7.595H30.0089L29.8139 7.85Z" fill="white"/>
</svg>
