<svg width="130" height="40" viewBox="0 0 130 40" fill="none" xmlns="http://www.w3.org/2000/svg">
<g clip-path="url(#clip0_32_389)">
<path d="M0 0H110C121.046 0 130 8.95431 130 20V40H20C8.9543 40 0 31.0457 0 20V0Z" fill="url(#paint0_linear_32_389)"/>
<path d="M48.445 25.1V17.15H44.335L44.26 19.01C44.23 19.71 44.185 20.375 44.125 21.005C44.075 21.625 43.99 22.19 43.87 22.7C43.76 23.21 43.605 23.635 43.405 23.975C43.205 24.315 42.96 24.54 42.67 24.65L40.57 24.35C40.95 24.37 41.26 24.24 41.5 23.96C41.75 23.68 41.945 23.29 42.085 22.79C42.225 22.29 42.33 21.705 42.4 21.035C42.47 20.355 42.52 19.62 42.55 18.83L42.67 15.5H50.365V25.1H48.445ZM40.21 28.235L40.225 24.35H51.88V28.235H50.08V26H42.025V28.235H40.21ZM58.3661 26V24.38L58.2611 24.035V21.2C58.2611 20.65 58.0961 20.225 57.7661 19.925C57.4361 19.615 56.9361 19.46 56.2661 19.46C55.8161 19.46 55.3711 19.53 54.9311 19.67C54.5011 19.81 54.1361 20.005 53.8361 20.255L53.1011 18.89C53.5311 18.56 54.0411 18.315 54.6311 18.155C55.2311 17.985 55.8511 17.9 56.4911 17.9C57.6511 17.9 58.5461 18.18 59.1761 18.74C59.8161 19.29 60.1361 20.145 60.1361 21.305V26H58.3661ZM55.8461 26.105C55.2461 26.105 54.7211 26.005 54.2711 25.805C53.8211 25.595 53.4711 25.31 53.2211 24.95C52.9811 24.58 52.8611 24.165 52.8611 23.705C52.8611 23.255 52.9661 22.85 53.1761 22.49C53.3961 22.13 53.7511 21.845 54.2411 21.635C54.7311 21.425 55.3811 21.32 56.1911 21.32H58.5161V22.565H56.3261C55.6861 22.565 55.2561 22.67 55.0361 22.88C54.8161 23.08 54.7061 23.33 54.7061 23.63C54.7061 23.97 54.8411 24.24 55.1111 24.44C55.3811 24.64 55.7561 24.74 56.2361 24.74C56.6961 24.74 57.1061 24.635 57.4661 24.425C57.8361 24.215 58.1011 23.905 58.2611 23.495L58.5761 24.62C58.3961 25.09 58.0711 25.455 57.6011 25.715C57.1411 25.975 56.5561 26.105 55.8461 26.105ZM61.2863 25.985L61.3763 24.41C61.4463 24.42 61.5113 24.43 61.5713 24.44C61.6313 24.45 61.6863 24.455 61.7363 24.455C62.0463 24.455 62.2863 24.36 62.4563 24.17C62.6263 23.98 62.7513 23.725 62.8313 23.405C62.9213 23.075 62.9813 22.71 63.0113 22.31C63.0513 21.9 63.0813 21.49 63.1013 21.08L63.2363 17.99H69.7163V26H67.8413V19.07L68.2763 19.58H64.4663L64.8713 19.055L64.7663 21.17C64.7363 21.88 64.6763 22.54 64.5863 23.15C64.5063 23.75 64.3763 24.275 64.1963 24.725C64.0263 25.175 63.7863 25.525 63.4763 25.775C63.1763 26.025 62.7913 26.15 62.3213 26.15C62.1713 26.15 62.0063 26.135 61.8263 26.105C61.6563 26.075 61.4763 26.035 61.2863 25.985ZM75.9764 26.105C75.0864 26.105 74.3064 25.93 73.6364 25.58C72.9764 25.22 72.4614 24.73 72.0914 24.11C71.7314 23.49 71.5514 22.785 71.5514 21.995C71.5514 21.195 71.7264 20.49 72.0764 19.88C72.4364 19.26 72.9264 18.775 73.5464 18.425C74.1764 18.075 74.8914 17.9 75.6914 17.9C76.4714 17.9 77.1664 18.07 77.7764 18.41C78.3864 18.75 78.8664 19.23 79.2164 19.85C79.5664 20.47 79.7414 21.2 79.7414 22.04C79.7414 22.12 79.7364 22.21 79.7264 22.31C79.7264 22.41 79.7214 22.505 79.7114 22.595H73.0364V21.35H78.7214L77.9864 21.74C77.9964 21.28 77.9014 20.875 77.7014 20.525C77.5014 20.175 77.2264 19.9 76.8764 19.7C76.5364 19.5 76.1414 19.4 75.6914 19.4C75.2314 19.4 74.8264 19.5 74.4764 19.7C74.1364 19.9 73.8664 20.18 73.6664 20.54C73.4764 20.89 73.3814 21.305 73.3814 21.785V22.085C73.3814 22.565 73.4914 22.99 73.7114 23.36C73.9314 23.73 74.2414 24.015 74.6414 24.215C75.0414 24.415 75.5014 24.515 76.0214 24.515C76.4714 24.515 76.8764 24.445 77.2364 24.305C77.5964 24.165 77.9164 23.945 78.1964 23.645L79.2014 24.8C78.8414 25.22 78.3864 25.545 77.8364 25.775C77.2964 25.995 76.6764 26.105 75.9764 26.105ZM85.5272 26.105C84.6372 26.105 83.8572 25.93 83.1872 25.58C82.5272 25.22 82.0122 24.73 81.6422 24.11C81.2822 23.49 81.1022 22.785 81.1022 21.995C81.1022 21.195 81.2772 20.49 81.6272 19.88C81.9872 19.26 82.4772 18.775 83.0972 18.425C83.7272 18.075 84.4422 17.9 85.2422 17.9C86.0222 17.9 86.7172 18.07 87.3272 18.41C87.9372 18.75 88.4172 19.23 88.7672 19.85C89.1172 20.47 89.2922 21.2 89.2922 22.04C89.2922 22.12 89.2872 22.21 89.2772 22.31C89.2772 22.41 89.2722 22.505 89.2622 22.595H82.5872V21.35H88.2722L87.5372 21.74C87.5472 21.28 87.4522 20.875 87.2522 20.525C87.0522 20.175 86.7772 19.9 86.4272 19.7C86.0872 19.5 85.6922 19.4 85.2422 19.4C84.7822 19.4 84.3772 19.5 84.0272 19.7C83.6872 19.9 83.4172 20.18 83.2172 20.54C83.0272 20.89 82.9322 21.305 82.9322 21.785V22.085C82.9322 22.565 83.0422 22.99 83.2622 23.36C83.4822 23.73 83.7922 24.015 84.1922 24.215C84.5922 24.415 85.0522 24.515 85.5722 24.515C86.0222 24.515 86.4272 24.445 86.7872 24.305C87.1472 24.165 87.4672 23.945 87.7472 23.645L88.7522 24.8C88.3922 25.22 87.9372 25.545 87.3872 25.775C86.8472 25.995 86.2272 26.105 85.5272 26.105Z" fill="white"/>
</g>
<defs>
<linearGradient id="paint0_linear_32_389" x1="0" y1="20" x2="130" y2="20" gradientUnits="userSpaceOnUse">
<stop stop-color="#9BEC8B"/>
<stop offset="1" stop-color="#24B8B1"/>
</linearGradient>
<clipPath id="clip0_32_389">
<path d="M0 0H110C121.046 0 130 8.95431 130 20V40H20C8.9543 40 0 31.0457 0 20V0Z" fill="white"/>
</clipPath>
</defs>
</svg>
