<svg width="58" height="14" viewBox="0 0 58 14" fill="none" xmlns="http://www.w3.org/2000/svg">
<path d="M0.77 11V0.499999H9.605V11H8.51V1.16L8.795 1.46H1.58L1.865 1.16V11H0.77ZM17.7829 11V9.26L17.7379 8.975V6.065C17.7379 5.395 17.5479 4.88 17.1679 4.52C16.7979 4.16 16.2429 3.98 15.5029 3.98C14.9929 3.98 14.5079 4.065 14.0479 4.235C13.5879 4.405 13.1979 4.63 12.8779 4.91L12.3979 4.115C12.7979 3.775 13.2779 3.515 13.8379 3.335C14.3979 3.145 14.9879 3.05 15.6079 3.05C16.6279 3.05 17.4129 3.305 17.9629 3.815C18.5229 4.315 18.8029 5.08 18.8029 6.11V11H17.7829ZM15.0679 11.075C14.4779 11.075 13.9629 10.98 13.5229 10.79C13.0929 10.59 12.7629 10.32 12.5329 9.98C12.3029 9.63 12.1879 9.23 12.1879 8.78C12.1879 8.37 12.2829 8 12.4729 7.67C12.6729 7.33 12.9929 7.06 13.4329 6.86C13.8829 6.65 14.4829 6.545 15.2329 6.545H17.9479V7.34H15.2629C14.5029 7.34 13.9729 7.475 13.6729 7.745C13.3829 8.015 13.2379 8.35 13.2379 8.75C13.2379 9.2 13.4129 9.56 13.7629 9.83C14.1129 10.1 14.6029 10.235 15.2329 10.235C15.8329 10.235 16.3479 10.1 16.7779 9.83C17.2179 9.55 17.5379 9.15 17.7379 8.63L17.9779 9.365C17.7779 9.885 17.4279 10.3 16.9279 10.61C16.4379 10.92 15.8179 11.075 15.0679 11.075ZM25.703 11.075C25.023 11.075 24.408 10.92 23.858 10.61C23.308 10.29 22.868 9.835 22.538 9.245C22.218 8.645 22.058 7.915 22.058 7.055C22.058 6.195 22.218 5.47 22.538 4.88C22.858 4.28 23.293 3.825 23.843 3.515C24.393 3.205 25.013 3.05 25.703 3.05C26.453 3.05 27.123 3.22 27.713 3.56C28.313 3.89 28.783 4.36 29.123 4.97C29.463 5.57 29.633 6.265 29.633 7.055C29.633 7.855 29.463 8.555 29.123 9.155C28.783 9.755 28.313 10.225 27.713 10.565C27.123 10.905 26.453 11.075 25.703 11.075ZM21.638 13.91V3.125H22.658V5.495L22.553 7.07L22.703 8.66V13.91H21.638ZM25.628 10.13C26.188 10.13 26.688 10.005 27.128 9.755C27.568 9.495 27.918 9.135 28.178 8.675C28.438 8.205 28.568 7.665 28.568 7.055C28.568 6.445 28.438 5.91 28.178 5.45C27.918 4.99 27.568 4.63 27.128 4.37C26.688 4.11 26.188 3.98 25.628 3.98C25.068 3.98 24.563 4.11 24.113 4.37C23.673 4.63 23.323 4.99 23.063 5.45C22.813 5.91 22.688 6.445 22.688 7.055C22.688 7.665 22.813 8.205 23.063 8.675C23.323 9.135 23.673 9.495 24.113 9.755C24.563 10.005 25.068 10.13 25.628 10.13ZM35.1613 11.075C34.4013 11.075 33.7163 10.905 33.1063 10.565C32.5063 10.215 32.0313 9.74 31.6813 9.14C31.3313 8.53 31.1563 7.835 31.1563 7.055C31.1563 6.265 31.3313 5.57 31.6813 4.97C32.0313 4.37 32.5063 3.9 33.1063 3.56C33.7063 3.22 34.3913 3.05 35.1613 3.05C35.9413 3.05 36.6313 3.22 37.2313 3.56C37.8413 3.9 38.3163 4.37 38.6563 4.97C39.0063 5.57 39.1813 6.265 39.1813 7.055C39.1813 7.835 39.0063 8.53 38.6563 9.14C38.3163 9.74 37.8413 10.215 37.2313 10.565C36.6213 10.905 35.9313 11.075 35.1613 11.075ZM35.1613 10.13C35.7313 10.13 36.2363 10.005 36.6763 9.755C37.1163 9.495 37.4613 9.135 37.7113 8.675C37.9713 8.205 38.1013 7.665 38.1013 7.055C38.1013 6.435 37.9713 5.895 37.7113 5.435C37.4613 4.975 37.1163 4.62 36.6763 4.37C36.2363 4.11 35.7363 3.98 35.1763 3.98C34.6163 3.98 34.1163 4.11 33.6763 4.37C33.2363 4.62 32.8863 4.975 32.6263 5.435C32.3663 5.895 32.2363 6.435 32.2363 7.055C32.2363 7.665 32.3663 8.205 32.6263 8.675C32.8863 9.135 33.2363 9.495 33.6763 9.755C34.1163 10.005 34.6113 10.13 35.1613 10.13ZM39.9734 10.985L40.0484 10.07C40.1184 10.08 40.1834 10.095 40.2434 10.115C40.3134 10.125 40.3734 10.13 40.4234 10.13C40.7434 10.13 40.9984 10.01 41.1884 9.77C41.3884 9.53 41.5384 9.21 41.6384 8.81C41.7384 8.41 41.8084 7.96 41.8484 7.46C41.8884 6.95 41.9234 6.44 41.9534 5.93L42.0884 3.125H47.8634V11H46.7984V3.74L47.0684 4.055H42.7784L43.0334 3.725L42.9134 6.005C42.8834 6.685 42.8284 7.335 42.7484 7.955C42.6784 8.575 42.5634 9.12 42.4034 9.59C42.2534 10.06 42.0434 10.43 41.7734 10.7C41.5034 10.96 41.1584 11.09 40.7384 11.09C40.6184 11.09 40.4934 11.08 40.3634 11.06C40.2434 11.04 40.1134 11.015 39.9734 10.985ZM54.281 5.9C55.271 5.91 56.021 6.13 56.531 6.56C57.051 6.99 57.311 7.61 57.311 8.42C57.311 9.26 57.031 9.905 56.471 10.355C55.921 10.805 55.121 11.025 54.071 11.015L50.891 11V3.125H51.956V5.87L54.281 5.9ZM54.011 10.205C54.741 10.215 55.291 10.07 55.661 9.77C56.041 9.46 56.231 9.01 56.231 8.42C56.231 7.83 56.046 7.4 55.676 7.13C55.306 6.85 54.751 6.705 54.011 6.695L51.956 6.665V10.175L54.011 10.205Z" fill="white"/>
</svg>
