<svg width="222" height="30" viewBox="0 0 222 30" fill="none" xmlns="http://www.w3.org/2000/svg">
<path d="M1.34 24.12C1.15333 24.12 0.973333 24.1067 0.8 24.08C0.626667 24.0667 0.433333 24.0333 0.22 23.98L0.34 22.66C0.566667 22.7133 0.786667 22.74 1 22.74C1.6 22.74 2.08 22.5067 2.44 22.04C2.81333 21.56 3.09333 20.8267 3.28 19.84C3.46667 18.84 3.58667 17.56 3.64 16L3.84 10H13.34V24H11.88V10.88L12.26 11.28H4.78L5.14 10.86L4.96 15.96C4.90667 17.36 4.80667 18.5733 4.66 19.6C4.51333 20.6133 4.3 21.46 4.02 22.14C3.74 22.8067 3.38 23.3067 2.94 23.64C2.5 23.96 1.96667 24.12 1.34 24.12ZM17.7231 24V13.5H19.1431V21.84L26.1631 13.5H27.4231V24H26.0031V15.64L19.0031 24H17.7231ZM38.1327 19.56C37.5193 19.8267 36.8993 20.04 36.2727 20.2C35.6593 20.3467 35.046 20.42 34.4327 20.42C33.1927 20.42 32.2127 20.14 31.4927 19.58C30.7727 19.0067 30.4127 18.1267 30.4127 16.94V13.5H31.8127V16.86C31.8127 17.66 32.0727 18.26 32.5927 18.66C33.1127 19.06 33.8127 19.26 34.6927 19.26C35.226 19.26 35.786 19.1933 36.3727 19.06C36.9593 18.9133 37.5527 18.7067 38.1527 18.44L38.1327 19.56ZM38.0127 24V13.5H39.4327V24H38.0127ZM43.4653 24V13.5H44.8853V18.14H51.5053V13.5H52.9253V24H51.5053V19.36H44.8853V24H43.4653ZM67.2014 24V13.5H68.6214V24H67.2014ZM61.3814 17.2C62.7014 17.2133 63.7081 17.5067 64.4014 18.08C65.0947 18.6533 65.4414 19.48 65.4414 20.56C65.4414 21.68 65.0681 22.54 64.3214 23.14C63.5747 23.74 62.5081 24.0333 61.1214 24.02L56.9614 24V13.5H58.3814V17.16L61.3814 17.2ZM61.0214 22.94C62.0081 22.9533 62.7481 22.76 63.2414 22.36C63.7481 21.9467 64.0014 21.3467 64.0014 20.56C64.0014 19.7733 63.7547 19.2 63.2614 18.84C62.7681 18.4667 62.0214 18.2733 61.0214 18.26L58.3814 18.22V22.9L61.0214 22.94ZM77.1645 24.1C76.0712 24.1 75.1112 23.8733 74.2845 23.42C73.4579 22.9533 72.8112 22.32 72.3445 21.52C71.8779 20.7067 71.6445 19.78 71.6445 18.74C71.6445 17.7 71.8645 16.78 72.3045 15.98C72.7579 15.18 73.3712 14.5533 74.1445 14.1C74.9312 13.6333 75.8112 13.4 76.7845 13.4C77.7712 13.4 78.6445 13.6267 79.4045 14.08C80.1779 14.52 80.7845 15.1467 81.2245 15.96C81.6645 16.76 81.8845 17.6867 81.8845 18.74C81.8845 18.8067 81.8779 18.88 81.8645 18.96C81.8645 19.0267 81.8645 19.1 81.8645 19.18H72.7245V18.12H81.1045L80.5445 18.54C80.5445 17.78 80.3779 17.1067 80.0445 16.52C79.7245 15.92 79.2845 15.4533 78.7245 15.12C78.1645 14.7867 77.5179 14.62 76.7845 14.62C76.0645 14.62 75.4179 14.7867 74.8445 15.12C74.2712 15.4533 73.8245 15.92 73.5045 16.52C73.1845 17.12 73.0245 17.8067 73.0245 18.58V18.8C73.0245 19.6 73.1979 20.3067 73.5445 20.92C73.9045 21.52 74.3979 21.9933 75.0245 22.34C75.6645 22.6733 76.3912 22.84 77.2045 22.84C77.8445 22.84 78.4379 22.7267 78.9845 22.5C79.5445 22.2733 80.0245 21.9267 80.4245 21.46L81.2245 22.38C80.7579 22.94 80.1712 23.3667 79.4645 23.66C78.7712 23.9533 78.0045 24.1 77.1645 24.1ZM97.4622 23.32V14.74H92.4022L92.2822 17.08C92.2555 17.7867 92.2089 18.48 92.1422 19.16C92.0889 19.84 91.9889 20.4667 91.8422 21.04C91.7089 21.6 91.5155 22.06 91.2622 22.42C91.0089 22.7667 90.6822 22.9667 90.2822 23.02L88.8622 22.76C89.2755 22.7733 89.6155 22.6267 89.8822 22.32C90.1489 22 90.3555 21.5667 90.5022 21.02C90.6489 20.4733 90.7555 19.8533 90.8222 19.16C90.8889 18.4533 90.9422 17.7333 90.9822 17L91.1222 13.5H98.8822V23.32H97.4622ZM88.4222 26.54V22.76H100.522V26.54H99.1822V24H89.7622V26.54H88.4222ZM109.81 24V21.68L109.75 21.3V17.42C109.75 16.5267 109.496 15.84 108.99 15.36C108.496 14.88 107.756 14.64 106.77 14.64C106.09 14.64 105.443 14.7533 104.83 14.98C104.216 15.2067 103.696 15.5067 103.27 15.88L102.63 14.82C103.163 14.3667 103.803 14.02 104.55 13.78C105.296 13.5267 106.083 13.4 106.91 13.4C108.27 13.4 109.316 13.74 110.05 14.42C110.796 15.0867 111.17 16.1067 111.17 17.48V24H109.81ZM106.19 24.1C105.403 24.1 104.716 23.9733 104.13 23.72C103.556 23.4533 103.116 23.0933 102.81 22.64C102.503 22.1733 102.35 21.64 102.35 21.04C102.35 20.4933 102.476 20 102.73 19.56C102.996 19.1067 103.423 18.7467 104.01 18.48C104.61 18.2 105.41 18.06 106.41 18.06H110.03V19.12H106.45C105.436 19.12 104.73 19.3 104.33 19.66C103.943 20.02 103.75 20.4667 103.75 21C103.75 21.6 103.983 22.08 104.45 22.44C104.916 22.8 105.57 22.98 106.41 22.98C107.21 22.98 107.896 22.8 108.47 22.44C109.056 22.0667 109.483 21.5333 109.75 20.84L110.07 21.82C109.803 22.5133 109.336 23.0667 108.67 23.48C108.016 23.8933 107.19 24.1 106.19 24.1ZM114.95 24V13.5H116.37V18.14H122.99V13.5H124.41V24H122.99V19.36H116.37V24H114.95ZM128.446 24V13.5H129.866V18.14H136.486V13.5H137.906V24H136.486V19.36H129.866V24H128.446ZM152.182 24V13.5H153.602V24H152.182ZM146.362 17.2C147.682 17.2133 148.689 17.5067 149.382 18.08C150.075 18.6533 150.422 19.48 150.422 20.56C150.422 21.68 150.049 22.54 149.302 23.14C148.555 23.74 147.489 24.0333 146.102 24.02L141.942 24V13.5H143.362V17.16L146.362 17.2ZM146.002 22.94C146.989 22.9533 147.729 22.76 148.222 22.36C148.729 21.9467 148.982 21.3467 148.982 20.56C148.982 19.7733 148.735 19.2 148.242 18.84C147.749 18.4667 147.002 18.2733 146.002 18.26L143.362 18.22V22.9L146.002 22.94ZM162.145 24.1C161.052 24.1 160.092 23.8733 159.265 23.42C158.438 22.9533 157.792 22.32 157.325 21.52C156.858 20.7067 156.625 19.78 156.625 18.74C156.625 17.7 156.845 16.78 157.285 15.98C157.738 15.18 158.352 14.5533 159.125 14.1C159.912 13.6333 160.792 13.4 161.765 13.4C162.752 13.4 163.625 13.6267 164.385 14.08C165.158 14.52 165.765 15.1467 166.205 15.96C166.645 16.76 166.865 17.6867 166.865 18.74C166.865 18.8067 166.858 18.88 166.845 18.96C166.845 19.0267 166.845 19.1 166.845 19.18H157.705V18.12H166.085L165.525 18.54C165.525 17.78 165.358 17.1067 165.025 16.52C164.705 15.92 164.265 15.4533 163.705 15.12C163.145 14.7867 162.498 14.62 161.765 14.62C161.045 14.62 160.398 14.7867 159.825 15.12C159.252 15.4533 158.805 15.92 158.485 16.52C158.165 17.12 158.005 17.8067 158.005 18.58V18.8C158.005 19.6 158.178 20.3067 158.525 20.92C158.885 21.52 159.378 21.9933 160.005 22.34C160.645 22.6733 161.372 22.84 162.185 22.84C162.825 22.84 163.418 22.7267 163.965 22.5C164.525 22.2733 165.005 21.9267 165.405 21.46L166.205 22.38C165.738 22.94 165.152 23.3667 164.445 23.66C163.752 23.9533 162.985 24.1 162.145 24.1Z" fill="white"/>
<path d="M192.886 12.5516H195.11C195.637 12.5516 196.063 12.9394 196.063 13.418V23.2368C196.063 23.7153 195.637 24.1032 195.11 24.1032H177.953C177.427 24.1032 177 23.7153 177 23.2368V13.418C177 12.9394 177.427 12.5516 177.953 12.5516H180.177M192.886 12.5516V6.77579C192.886 4.85053 191.615 1 186.532 1C181.448 1 180.177 4.85053 180.177 6.77579V12.5516M192.886 12.5516H180.177" stroke="white" stroke-linecap="round" stroke-linejoin="round"/>
</svg>
