<svg width="49" height="10" viewBox="0 0 49 10" fill="none" xmlns="http://www.w3.org/2000/svg">
<path d="M0.861094 8V1H7.05109V8H5.77109V1.78L6.07109 2.1H1.84109L2.14109 1.78V8H0.861094ZM11.8449 8.07C11.4116 8.07 11.0149 7.97 10.6549 7.77C10.3016 7.57 10.0183 7.27 9.80492 6.87C9.59826 6.46333 9.49492 5.95 9.49492 5.33C9.49492 4.70333 9.59492 4.19 9.79492 3.79C10.0016 3.39 10.2816 3.09333 10.6349 2.9C10.9883 2.7 11.3916 2.6 11.8449 2.6C12.3716 2.6 12.8349 2.71333 13.2349 2.94C13.6416 3.16667 13.9616 3.48333 14.1949 3.89C14.4349 4.29667 14.5549 4.77667 14.5549 5.33C14.5549 5.88333 14.4349 6.36667 14.1949 6.78C13.9616 7.18667 13.6416 7.50333 13.2349 7.73C12.8349 7.95667 12.3716 8.07 11.8449 8.07ZM8.88492 9.94V2.66H10.0749V3.92L10.0349 5.34L10.1349 6.76V9.94H8.88492ZM11.7049 7C12.0049 7 12.2716 6.93333 12.5049 6.8C12.7449 6.66667 12.9349 6.47333 13.0749 6.22C13.2149 5.96667 13.2849 5.67 13.2849 5.33C13.2849 4.98333 13.2149 4.68667 13.0749 4.44C12.9349 4.18667 12.7449 3.99333 12.5049 3.86C12.2716 3.72667 12.0049 3.66 11.7049 3.66C11.4049 3.66 11.1349 3.72667 10.8949 3.86C10.6549 3.99333 10.4649 4.18667 10.3249 4.44C10.1849 4.68667 10.1149 4.98333 10.1149 5.33C10.1149 5.67 10.1849 5.96667 10.3249 6.22C10.4649 6.47333 10.6549 6.66667 10.8949 6.8C11.1349 6.93333 11.4049 7 11.7049 7ZM18.179 8.07C17.6323 8.07 17.1457 7.95333 16.719 7.72C16.2923 7.48 15.9557 7.15333 15.709 6.74C15.4623 6.32667 15.339 5.85667 15.339 5.33C15.339 4.79667 15.4623 4.32667 15.709 3.92C15.9557 3.50667 16.2923 3.18333 16.719 2.95C17.1457 2.71667 17.6323 2.6 18.179 2.6C18.7323 2.6 19.2223 2.71667 19.649 2.95C20.0823 3.18333 20.419 3.50333 20.659 3.91C20.9057 4.31667 21.029 4.79 21.029 5.33C21.029 5.85667 20.9057 6.32667 20.659 6.74C20.419 7.15333 20.0823 7.48 19.649 7.72C19.2223 7.95333 18.7323 8.07 18.179 8.07ZM18.179 7C18.4857 7 18.759 6.93333 18.999 6.8C19.239 6.66667 19.4257 6.47333 19.559 6.22C19.699 5.96667 19.769 5.67 19.769 5.33C19.769 4.98333 19.699 4.68667 19.559 4.44C19.4257 4.18667 19.239 3.99333 18.999 3.86C18.759 3.72667 18.489 3.66 18.189 3.66C17.8823 3.66 17.609 3.72667 17.369 3.86C17.1357 3.99333 16.949 4.18667 16.809 4.44C16.669 4.68667 16.599 4.98333 16.599 5.33C16.599 5.67 16.669 5.96667 16.809 6.22C16.949 6.47333 17.1357 6.66667 17.369 6.8C17.609 6.93333 17.879 7 18.179 7ZM25.6538 8.1C25.6472 8.1 25.6172 8.1 25.5638 8.1C25.5172 8.1 25.4705 8.1 25.4238 8.1C25.3838 8.1 25.3572 8.1 25.3438 8.1C24.2172 8.08667 23.3438 7.84333 22.7238 7.37C22.1038 6.89 21.7938 6.20667 21.7938 5.32C21.7938 4.44 22.1038 3.76667 22.7238 3.3C23.3438 2.83333 24.2272 2.59333 25.3738 2.58C25.3872 2.58 25.4138 2.58 25.4538 2.58C25.5005 2.58 25.5438 2.58 25.5838 2.58C25.6305 2.58 25.6572 2.58 25.6638 2.58C26.8172 2.58 27.7138 2.81667 28.3538 3.29C29.0005 3.75667 29.3238 4.43333 29.3238 5.32C29.3238 6.21333 29.0005 6.9 28.3538 7.38C27.7138 7.86 26.8138 8.1 25.6538 8.1ZM25.6138 7.06C26.1805 7.06 26.6472 6.99667 27.0138 6.87C27.3805 6.73667 27.6538 6.54333 27.8338 6.29C28.0138 6.03 28.1038 5.70667 28.1038 5.32C28.1038 4.94 28.0138 4.62667 27.8338 4.38C27.6538 4.12667 27.3805 3.94 27.0138 3.82C26.6472 3.69333 26.1805 3.63 25.6138 3.63C25.6005 3.63 25.5672 3.63 25.5138 3.63C25.4672 3.63 25.4372 3.63 25.4238 3.63C24.8705 3.63 24.4172 3.69667 24.0638 3.83C23.7105 3.95667 23.4472 4.14333 23.2738 4.39C23.1072 4.63667 23.0238 4.94667 23.0238 5.32C23.0238 5.7 23.1072 6.01667 23.2738 6.27C23.4472 6.52333 23.7105 6.71667 24.0638 6.85C24.4238 6.98333 24.8772 7.05333 25.4238 7.06C25.4372 7.06 25.4672 7.06 25.5138 7.06C25.5672 7.06 25.6005 7.06 25.6138 7.06ZM24.9638 9.94V0.58H26.1438V9.94H24.9638ZM30.5353 8V2.66H31.7853V6.18L34.7353 2.66H35.8753V8H34.6253V4.48L31.6853 8H30.5353ZM36.7768 7.99L36.8368 6.94C36.8835 6.94667 36.9268 6.95333 36.9668 6.96C37.0068 6.96667 37.0435 6.97 37.0768 6.97C37.2835 6.97 37.4435 6.90667 37.5568 6.78C37.6701 6.65333 37.7535 6.48333 37.8068 6.27C37.8668 6.05 37.9068 5.80667 37.9268 5.54C37.9535 5.26667 37.9735 4.99333 37.9868 4.72L38.0768 2.66H42.3968V8H41.1468V3.38L41.4368 3.72H38.8968L39.1668 3.37L39.0968 4.78C39.0768 5.25333 39.0368 5.69333 38.9768 6.1C38.9235 6.5 38.8368 6.85 38.7168 7.15C38.6035 7.45 38.4435 7.68333 38.2368 7.85C38.0368 8.01667 37.7801 8.1 37.4668 8.1C37.3668 8.1 37.2568 8.09 37.1368 8.07C37.0235 8.05 36.9035 8.02333 36.7768 7.99ZM46.7602 4.42C47.4469 4.42 47.9702 4.57333 48.3302 4.88C48.6902 5.18667 48.8702 5.62 48.8702 6.18C48.8702 6.76 48.6702 7.21333 48.2702 7.54C47.8702 7.86 47.3069 8.01667 46.5802 8.01L44.0802 8V2.66H45.3302V4.41L46.7602 4.42ZM46.4702 7.09C46.8369 7.09667 47.1169 7.02 47.3102 6.86C47.5036 6.7 47.6002 6.46667 47.6002 6.16C47.6002 5.85333 47.5036 5.63333 47.3102 5.5C47.1236 5.36 46.8436 5.28667 46.4702 5.28L45.3302 5.27V7.08L46.4702 7.09Z" fill="white"/>
</svg>
