<svg width="50" height="50" viewBox="0 0 50 50" fill="none" xmlns="http://www.w3.org/2000/svg">
<rect x="7" y="7" width="36" height="36" rx="18" stroke="#FEFEFE" stroke-width="2"/>
<path d="M25.4481 24.1911C25.3507 24.1814 25.2338 24.1814 25.1266 24.1911C22.8076 24.1132 20.9661 22.2132 20.9661 19.8747C20.9661 17.4876 22.8953 15.5486 25.2922 15.5486C27.6794 15.5486 29.6184 17.4876 29.6184 19.8747C29.6086 22.2132 27.7671 24.1132 25.4481 24.1911Z" stroke="white" stroke-width="1.5" stroke-linecap="round" stroke-linejoin="round"/>
<path d="M20.5763 27.7865C18.2184 29.365 18.2184 31.9373 20.5763 33.506C23.2558 35.2988 27.6502 35.2988 30.3297 33.506C32.6876 31.9276 32.6876 29.3552 30.3297 27.7865C27.6599 26.0034 23.2656 26.0034 20.5763 27.7865Z" stroke="white" stroke-width="1.5" stroke-linecap="round" stroke-linejoin="round"/>
</svg>
