<svg width="475" height="378" viewBox="0 0 475 378" fill="none" xmlns="http://www.w3.org/2000/svg">
<rect width="475" height="378" fill="#1B2D3B"/>
<path fill-rule="evenodd" clip-rule="evenodd" d="M34 52.2037V254.925C113.439 253.74 177.153 281.757 239.707 309.686C299.521 336.391 358.741 363.027 432.879 364.083V162.87C361.228 161.076 304.247 134.719 246.554 108.038C182.809 78.5573 117.748 48.6582 34 52.2037Z" fill="url(#paint0_linear_614_441)"/>
<g filter="url(#filter0_b_614_441)">
<g filter="url(#filter1_b_614_441)">
<path d="M328.537 353.458H381.138C384.043 353.458 386.398 351.074 386.398 348.133C386.398 345.193 384.043 342.809 381.138 342.809H328.537C325.632 342.809 323.277 345.193 323.277 348.133C323.277 351.074 325.632 353.458 328.537 353.458Z" fill="url(#paint1_radial_614_441)"/>
<path fill-rule="evenodd" clip-rule="evenodd" d="M322.179 312.828C322.179 312.828 321.101 310.6 319.178 309.062C319.178 309.062 308.715 300.821 302.869 288.774C302.869 288.774 297.019 276.719 296.976 263.295C296.976 263.295 296.923 251.583 301.329 240.775C301.329 240.775 305.583 230.342 313.384 222.193C313.384 222.193 321.193 214.037 331.355 209.423C331.355 209.423 341.895 204.638 353.464 204.368C353.464 204.368 372.15 203.92 387.564 214.622C387.564 214.622 402.978 225.325 409.294 243.133C409.294 243.133 415.609 260.941 410.439 279.124C410.439 279.124 405.269 297.307 390.536 309.016C390.536 309.016 388.583 310.544 387.493 312.786C387.493 312.786 386.403 315.028 386.398 317.516V321.51C386.398 321.51 386.398 325.921 383.317 329.04C383.317 329.04 380.236 332.159 375.878 332.159H333.797C333.797 332.159 329.439 332.159 326.358 329.04C326.358 329.04 323.277 325.921 323.277 321.51L323.277 317.553C323.277 317.553 323.26 315.064 322.179 312.828ZM325.678 300.688C325.678 300.688 329.494 303.732 331.628 308.147C331.628 308.147 333.764 312.563 333.797 317.48L333.797 321.51H375.878V317.516C375.878 317.516 375.888 312.54 378.054 308.084C378.054 308.084 380.22 303.628 384.102 300.591C384.102 300.591 396.099 291.055 400.329 276.178C400.329 276.178 404.559 261.302 399.392 246.731C399.392 246.731 394.225 232.161 381.613 223.404C381.613 223.404 369.002 214.647 353.713 215.014C353.713 215.014 344.262 215.235 335.66 219.14C335.66 219.14 327.341 222.916 320.939 229.604C320.939 229.604 314.539 236.289 311.054 244.837C311.054 244.837 307.452 253.671 307.496 263.246C307.496 263.246 307.532 274.228 312.312 284.079C312.312 284.079 317.092 293.93 325.651 300.667L325.678 300.688Z" fill="url(#paint2_radial_614_441)"/>
<path d="M373.427 244.154C379.338 250.122 380.754 258.451 380.754 258.451C381.188 261.005 383.377 262.872 385.938 262.872L385.996 262.872C386.276 262.869 386.555 262.843 386.83 262.795C389.354 262.355 391.198 260.14 391.198 257.547L391.198 257.489C391.195 257.206 391.169 256.923 391.122 256.644C389.137 244.978 380.856 236.614 380.856 236.614C372.575 228.252 361.042 226.273 361.042 226.273C360.752 226.223 360.458 226.198 360.163 226.198L360.084 226.199C357.548 226.238 355.401 228.102 354.977 230.633C354.928 230.927 354.903 231.225 354.903 231.523L354.905 231.664C354.933 232.72 355.27 233.744 355.874 234.606C356.682 235.757 357.909 236.537 359.284 236.773C367.515 238.185 373.427 244.154 373.427 244.154Z" fill="url(#paint3_radial_614_441)"/>
<path d="M328.537 353.458H381.138C384.043 353.458 386.398 351.074 386.398 348.133C386.398 345.193 384.043 342.809 381.138 342.809H328.537C325.632 342.809 323.277 345.193 323.277 348.133C323.277 351.074 325.632 353.458 328.537 353.458Z" stroke="url(#paint4_radial_614_441)" stroke-width="3"/>
<path d="M328.537 353.458H381.138C384.043 353.458 386.398 351.074 386.398 348.133C386.398 345.193 384.043 342.809 381.138 342.809H328.537C325.632 342.809 323.277 345.193 323.277 348.133C323.277 351.074 325.632 353.458 328.537 353.458Z" stroke="url(#paint5_radial_614_441)" stroke-width="3"/>
<path fill-rule="evenodd" clip-rule="evenodd" d="M322.179 312.828C322.179 312.828 321.101 310.6 319.178 309.062C319.178 309.062 308.715 300.821 302.869 288.774C302.869 288.774 297.019 276.719 296.976 263.295C296.976 263.295 296.923 251.583 301.329 240.775C301.329 240.775 305.583 230.342 313.384 222.193C313.384 222.193 321.193 214.037 331.355 209.423C331.355 209.423 341.895 204.638 353.464 204.368C353.464 204.368 372.15 203.92 387.564 214.622C387.564 214.622 402.978 225.325 409.294 243.133C409.294 243.133 415.609 260.941 410.439 279.124C410.439 279.124 405.269 297.307 390.536 309.016C390.536 309.016 388.583 310.544 387.493 312.786C387.493 312.786 386.403 315.028 386.398 317.516V321.51C386.398 321.51 386.398 325.921 383.317 329.04C383.317 329.04 380.236 332.159 375.878 332.159H333.797C333.797 332.159 329.439 332.159 326.358 329.04C326.358 329.04 323.277 325.921 323.277 321.51L323.277 317.553C323.277 317.553 323.26 315.064 322.179 312.828ZM325.678 300.688C325.678 300.688 329.494 303.732 331.628 308.147C331.628 308.147 333.764 312.563 333.797 317.48L333.797 321.51H375.878V317.516C375.878 317.516 375.888 312.54 378.054 308.084C378.054 308.084 380.22 303.628 384.102 300.591C384.102 300.591 396.099 291.055 400.329 276.178C400.329 276.178 404.559 261.302 399.392 246.731C399.392 246.731 394.225 232.161 381.613 223.404C381.613 223.404 369.002 214.647 353.713 215.014C353.713 215.014 344.262 215.235 335.66 219.14C335.66 219.14 327.341 222.916 320.939 229.604C320.939 229.604 314.539 236.289 311.054 244.837C311.054 244.837 307.452 253.671 307.496 263.246C307.496 263.246 307.532 274.228 312.312 284.079C312.312 284.079 317.092 293.93 325.651 300.667L325.678 300.688Z" stroke="url(#paint6_radial_614_441)" stroke-width="3"/>
<path fill-rule="evenodd" clip-rule="evenodd" d="M322.179 312.828C322.179 312.828 321.101 310.6 319.178 309.062C319.178 309.062 308.715 300.821 302.869 288.774C302.869 288.774 297.019 276.719 296.976 263.295C296.976 263.295 296.923 251.583 301.329 240.775C301.329 240.775 305.583 230.342 313.384 222.193C313.384 222.193 321.193 214.037 331.355 209.423C331.355 209.423 341.895 204.638 353.464 204.368C353.464 204.368 372.15 203.92 387.564 214.622C387.564 214.622 402.978 225.325 409.294 243.133C409.294 243.133 415.609 260.941 410.439 279.124C410.439 279.124 405.269 297.307 390.536 309.016C390.536 309.016 388.583 310.544 387.493 312.786C387.493 312.786 386.403 315.028 386.398 317.516V321.51C386.398 321.51 386.398 325.921 383.317 329.04C383.317 329.04 380.236 332.159 375.878 332.159H333.797C333.797 332.159 329.439 332.159 326.358 329.04C326.358 329.04 323.277 325.921 323.277 321.51L323.277 317.553C323.277 317.553 323.26 315.064 322.179 312.828ZM325.678 300.688C325.678 300.688 329.494 303.732 331.628 308.147C331.628 308.147 333.764 312.563 333.797 317.48L333.797 321.51H375.878V317.516C375.878 317.516 375.888 312.54 378.054 308.084C378.054 308.084 380.22 303.628 384.102 300.591C384.102 300.591 396.099 291.055 400.329 276.178C400.329 276.178 404.559 261.302 399.392 246.731C399.392 246.731 394.225 232.161 381.613 223.404C381.613 223.404 369.002 214.647 353.713 215.014C353.713 215.014 344.262 215.235 335.66 219.14C335.66 219.14 327.341 222.916 320.939 229.604C320.939 229.604 314.539 236.289 311.054 244.837C311.054 244.837 307.452 253.671 307.496 263.246C307.496 263.246 307.532 274.228 312.312 284.079C312.312 284.079 317.092 293.93 325.651 300.667L325.678 300.688Z" stroke="url(#paint7_radial_614_441)" stroke-width="3"/>
<path d="M373.427 244.154C379.338 250.122 380.754 258.451 380.754 258.451C381.188 261.005 383.377 262.872 385.938 262.872L385.996 262.872C386.276 262.869 386.555 262.843 386.83 262.795C389.354 262.355 391.198 260.14 391.198 257.547L391.198 257.489C391.195 257.206 391.169 256.923 391.122 256.644C389.137 244.978 380.856 236.614 380.856 236.614C372.575 228.252 361.042 226.273 361.042 226.273C360.752 226.223 360.458 226.198 360.163 226.198L360.084 226.199C357.548 226.238 355.401 228.102 354.977 230.633C354.928 230.927 354.903 231.225 354.903 231.523L354.905 231.664C354.933 232.72 355.27 233.744 355.874 234.606C356.682 235.757 357.909 236.537 359.284 236.773C367.515 238.185 373.427 244.154 373.427 244.154Z" stroke="url(#paint8_radial_614_441)" stroke-width="3"/>
<path d="M373.427 244.154C379.338 250.122 380.754 258.451 380.754 258.451C381.188 261.005 383.377 262.872 385.938 262.872L385.996 262.872C386.276 262.869 386.555 262.843 386.83 262.795C389.354 262.355 391.198 260.14 391.198 257.547L391.198 257.489C391.195 257.206 391.169 256.923 391.122 256.644C389.137 244.978 380.856 236.614 380.856 236.614C372.575 228.252 361.042 226.273 361.042 226.273C360.752 226.223 360.458 226.198 360.163 226.198L360.084 226.199C357.548 226.238 355.401 228.102 354.977 230.633C354.928 230.927 354.903 231.225 354.903 231.523L354.905 231.664C354.933 232.72 355.27 233.744 355.874 234.606C356.682 235.757 357.909 236.537 359.284 236.773C367.515 238.185 373.427 244.154 373.427 244.154Z" stroke="url(#paint9_radial_614_441)" stroke-width="3"/>
</g>
</g>
<g filter="url(#filter2_b_614_441)">
<path d="M314.966 220.033C307.355 216.036 299.272 212.999 291.267 209.847C286.625 208.024 282.18 205.894 278.249 202.918C270.507 197.044 271.924 187.458 280.923 183.631C283.472 182.549 286.144 182.195 288.858 182.032C299.315 181.458 309.268 183.262 318.757 187.597C323.481 189.765 325.034 189.069 326.602 184.35C328.247 179.361 329.613 174.298 331.139 169.272C332.156 165.895 330.865 163.677 327.542 162.271C321.458 159.725 315.218 157.908 308.665 156.935C300.113 155.7 300.113 155.662 300.022 147.423C299.909 135.811 299.909 135.811 287.773 135.854C286.016 135.86 284.259 135.828 282.503 135.873C276.834 136.046 275.882 137.008 275.757 142.489C275.692 144.942 275.787 147.394 275.763 149.885C275.768 157.167 275.727 157.052 268.477 159.608C250.949 165.802 240.161 177.338 239.118 195.738C238.181 212.03 247.112 222.997 261.096 230.957C269.71 235.87 279.23 238.749 288.357 242.587C291.919 244.069 295.323 245.781 298.293 248.147C307.079 255.052 305.554 266.593 295.201 271C289.666 273.357 283.801 273.953 277.768 273.246C268.459 272.168 259.541 269.862 251.131 265.715C246.205 263.28 244.772 263.936 243.127 269.039C241.717 273.452 240.467 277.902 239.217 282.352C237.538 288.337 238.185 289.753 244.151 292.529C251.759 296.028 259.875 297.8 268.147 299.035C274.621 300.008 274.822 300.276 274.942 306.714C275 309.627 275.018 312.578 275.076 315.49C275.139 319.169 276.989 321.309 280.942 321.371C285.414 321.432 289.925 321.416 294.396 321.285C298.068 321.195 299.933 319.272 299.911 315.708C299.886 311.722 300.06 307.697 299.876 303.712C299.651 299.651 301.475 297.575 305.54 296.487C314.907 294.001 322.862 289.143 328.965 281.916C345.929 261.927 339.24 232.785 314.966 220.033Z" fill="url(#paint10_radial_614_441)"/>
<path d="M277.345 204.113L277.344 204.112C273.11 200.9 271.223 196.525 271.823 192.292C272.421 188.074 275.442 184.33 280.333 182.251L280.334 182.25C283.117 181.068 285.992 180.701 288.764 180.534L288.772 180.534C299.463 179.947 309.659 181.793 319.377 186.233L319.379 186.234C320.521 186.758 321.38 187.064 322.044 187.196C322.694 187.326 323.054 187.267 323.28 187.172C323.5 187.08 323.778 186.875 324.111 186.348C324.454 185.806 324.799 185.014 325.177 183.876C326.221 180.712 327.143 177.545 328.074 174.348C328.606 172.521 329.141 170.685 329.704 168.833L277.345 204.113ZM277.345 204.113C281.432 207.207 286.019 209.396 290.721 211.242C291.63 211.6 292.538 211.956 293.445 212.312C300.562 215.1 307.601 217.858 314.271 221.361C337.78 233.711 344.101 261.759 327.82 280.944L327.818 280.947C321.926 287.924 314.243 292.624 305.152 295.037L305.149 295.038C302.965 295.622 301.146 296.531 299.93 298.042C298.692 299.579 298.253 301.519 298.378 303.785C298.494 306.309 298.465 308.803 298.435 311.341C298.419 312.78 298.401 314.233 298.411 315.713C298.42 317.242 298.027 318.178 297.468 318.746C296.906 319.317 295.95 319.746 294.355 319.785L294.348 319.785C289.903 319.916 285.415 319.932 280.96 319.871C279.245 319.844 278.232 319.374 277.63 318.748C277.017 318.112 276.603 317.079 276.576 315.468L276.576 315.464M277.345 204.113L276.576 315.464M298.522 147.435L298.522 147.433C298.493 144.492 298.471 142.419 298.279 140.893C298.086 139.364 297.755 138.713 297.378 138.357C296.987 137.987 296.268 137.669 294.642 137.502C293.031 137.337 290.851 137.343 287.782 137.354C287.173 137.356 286.575 137.354 285.984 137.352C284.829 137.347 283.697 137.343 282.549 137.372C281.154 137.415 280.151 137.505 279.408 137.672C278.68 137.836 278.319 138.05 278.105 138.261C277.894 138.468 277.686 138.81 277.53 139.502C277.369 140.213 277.287 141.177 277.256 142.527L277.256 142.532C277.219 143.935 277.234 145.263 277.25 146.627C277.262 147.678 277.274 148.75 277.263 149.896C277.264 151.681 277.265 153.133 277.137 154.286C277.007 155.465 276.727 156.523 276.034 157.43C275.354 158.323 274.402 158.902 273.296 159.402C272.282 159.86 270.975 160.32 269.379 160.882C269.248 160.928 269.115 160.975 268.98 161.022C260.395 164.056 253.567 168.361 248.764 174.064C243.973 179.752 241.12 186.919 240.615 195.827L240.615 195.828C240.165 203.657 242.081 210.146 245.758 215.64C249.451 221.159 254.972 225.747 261.835 229.654L261.836 229.654C267.611 232.948 273.725 235.282 279.971 237.666C282.935 238.798 285.93 239.941 288.933 241.203C292.55 242.708 296.097 244.483 299.221 246.971C303.98 250.713 306.067 255.828 305.411 260.714C304.755 265.6 301.392 269.996 295.792 272.38C289.978 274.856 283.844 275.468 277.597 274.736C268.153 273.642 259.064 271.297 250.471 267.06L250.469 267.059C249.268 266.465 248.377 266.111 247.693 265.949C247.022 265.791 246.681 265.85 246.485 265.933C246.289 266.015 246.014 266.216 245.667 266.796C245.313 267.389 244.957 268.257 244.556 269.501C243.155 273.883 241.913 278.307 240.662 282.761C239.802 285.824 239.75 287.127 240.168 287.996C240.37 288.414 240.744 288.858 241.49 289.385C242.248 289.92 243.305 290.482 244.777 291.167C252.196 294.579 260.149 296.325 268.364 297.552L268.366 297.552C269.963 297.792 271.287 298.004 272.326 298.297C273.376 298.593 274.336 299.023 275.052 299.836C275.768 300.65 276.069 301.654 276.224 302.724C276.377 303.781 276.412 305.104 276.441 306.69L298.522 147.435ZM298.522 147.435L298.523 147.528C298.545 149.509 298.562 151.126 298.719 152.392C298.88 153.689 299.212 154.874 300.059 155.811C300.899 156.738 302.053 157.21 303.353 157.54C304.652 157.87 306.346 158.115 308.451 158.419C314.868 159.372 320.985 161.152 326.963 163.653M298.522 147.435L326.963 163.653M276.576 315.464C276.547 314.014 276.528 312.553 276.509 311.087M276.576 315.464L276.509 311.087M326.963 163.653C328.447 164.282 329.255 165 329.643 165.732C330.016 166.436 330.134 167.402 329.704 168.832L326.963 163.653ZM276.509 311.087L276.509 311.085M276.509 311.087L276.509 311.085M276.509 311.085C276.49 309.621 276.471 308.151 276.441 306.69L276.509 311.085Z" stroke="url(#paint11_radial_614_441)" stroke-width="3"/>
<path d="M277.345 204.113L277.344 204.112C273.11 200.9 271.223 196.525 271.823 192.292C272.421 188.074 275.442 184.33 280.333 182.251L280.334 182.25C283.117 181.068 285.992 180.701 288.764 180.534L288.772 180.534C299.463 179.947 309.659 181.793 319.377 186.233L319.379 186.234C320.521 186.758 321.38 187.064 322.044 187.196C322.694 187.326 323.054 187.267 323.28 187.172C323.5 187.08 323.778 186.875 324.111 186.348C324.454 185.806 324.799 185.014 325.177 183.876C326.221 180.712 327.143 177.545 328.074 174.348C328.606 172.521 329.141 170.685 329.704 168.833L277.345 204.113ZM277.345 204.113C281.432 207.207 286.019 209.396 290.721 211.242C291.63 211.6 292.538 211.956 293.445 212.312C300.562 215.1 307.601 217.858 314.271 221.361C337.78 233.711 344.101 261.759 327.82 280.944L327.818 280.947C321.926 287.924 314.243 292.624 305.152 295.037L305.149 295.038C302.965 295.622 301.146 296.531 299.93 298.042C298.692 299.579 298.253 301.519 298.378 303.785C298.494 306.309 298.465 308.803 298.435 311.341C298.419 312.78 298.401 314.233 298.411 315.713C298.42 317.242 298.027 318.178 297.468 318.746C296.906 319.317 295.95 319.746 294.355 319.785L294.348 319.785C289.903 319.916 285.415 319.932 280.96 319.871C279.245 319.844 278.232 319.374 277.63 318.748C277.017 318.112 276.603 317.079 276.576 315.468L276.576 315.464M277.345 204.113L276.576 315.464M298.522 147.435L298.522 147.433C298.493 144.492 298.471 142.419 298.279 140.893C298.086 139.364 297.755 138.713 297.378 138.357C296.987 137.987 296.268 137.669 294.642 137.502C293.031 137.337 290.851 137.343 287.782 137.354C287.173 137.356 286.575 137.354 285.984 137.352C284.829 137.347 283.697 137.343 282.549 137.372C281.154 137.415 280.151 137.505 279.408 137.672C278.68 137.836 278.319 138.05 278.105 138.261C277.894 138.468 277.686 138.81 277.53 139.502C277.369 140.213 277.287 141.177 277.256 142.527L277.256 142.532C277.219 143.935 277.234 145.263 277.25 146.627C277.262 147.678 277.274 148.75 277.263 149.896C277.264 151.681 277.265 153.133 277.137 154.286C277.007 155.465 276.727 156.523 276.034 157.43C275.354 158.323 274.402 158.902 273.296 159.402C272.282 159.86 270.975 160.32 269.379 160.882C269.248 160.928 269.115 160.975 268.98 161.022C260.395 164.056 253.567 168.361 248.764 174.064C243.973 179.752 241.12 186.919 240.615 195.827L240.615 195.828C240.165 203.657 242.081 210.146 245.758 215.64C249.451 221.159 254.972 225.747 261.835 229.654L261.836 229.654C267.611 232.948 273.725 235.282 279.971 237.666C282.935 238.798 285.93 239.941 288.933 241.203C292.55 242.708 296.097 244.483 299.221 246.971C303.98 250.713 306.067 255.828 305.411 260.714C304.755 265.6 301.392 269.996 295.792 272.38C289.978 274.856 283.844 275.468 277.597 274.736C268.153 273.642 259.064 271.297 250.471 267.06L250.469 267.059C249.268 266.465 248.377 266.111 247.693 265.949C247.022 265.791 246.681 265.85 246.485 265.933C246.289 266.015 246.014 266.216 245.667 266.796C245.313 267.389 244.957 268.257 244.556 269.501C243.155 273.883 241.913 278.307 240.662 282.761C239.802 285.824 239.75 287.127 240.168 287.996C240.37 288.414 240.744 288.858 241.49 289.385C242.248 289.92 243.305 290.482 244.777 291.167C252.196 294.579 260.149 296.325 268.364 297.552L268.366 297.552C269.963 297.792 271.287 298.004 272.326 298.297C273.376 298.593 274.336 299.023 275.052 299.836C275.768 300.65 276.069 301.654 276.224 302.724C276.377 303.781 276.412 305.104 276.441 306.69L298.522 147.435ZM298.522 147.435L298.523 147.528C298.545 149.509 298.562 151.126 298.719 152.392C298.88 153.689 299.212 154.874 300.059 155.811C300.899 156.738 302.053 157.21 303.353 157.54C304.652 157.87 306.346 158.115 308.451 158.419C314.868 159.372 320.985 161.152 326.963 163.653M298.522 147.435L326.963 163.653M276.576 315.464C276.547 314.014 276.528 312.553 276.509 311.087M276.576 315.464L276.509 311.087M326.963 163.653C328.447 164.282 329.255 165 329.643 165.732C330.016 166.436 330.134 167.402 329.704 168.832L326.963 163.653ZM276.509 311.087L276.509 311.085M276.509 311.087L276.509 311.085M276.509 311.085C276.49 309.621 276.471 308.151 276.441 306.69L276.509 311.085Z" stroke="url(#paint12_radial_614_441)" stroke-width="3"/>
<path d="M277.345 204.113L277.344 204.112C273.11 200.9 271.223 196.525 271.823 192.292C272.421 188.074 275.442 184.33 280.333 182.251L280.334 182.25C283.117 181.068 285.992 180.701 288.764 180.534L288.772 180.534C299.463 179.947 309.659 181.793 319.377 186.233L319.379 186.234C320.521 186.758 321.38 187.064 322.044 187.196C322.694 187.326 323.054 187.267 323.28 187.172C323.5 187.08 323.778 186.875 324.111 186.348C324.454 185.806 324.799 185.014 325.177 183.876C326.221 180.712 327.143 177.545 328.074 174.348C328.606 172.521 329.141 170.685 329.704 168.833L277.345 204.113ZM277.345 204.113C281.432 207.207 286.019 209.396 290.721 211.242C291.63 211.6 292.538 211.956 293.445 212.312C300.562 215.1 307.601 217.858 314.271 221.361C337.78 233.711 344.101 261.759 327.82 280.944L327.818 280.947C321.926 287.924 314.243 292.624 305.152 295.037L305.149 295.038C302.965 295.622 301.146 296.531 299.93 298.042C298.692 299.579 298.253 301.519 298.378 303.785C298.494 306.309 298.465 308.803 298.435 311.341C298.419 312.78 298.401 314.233 298.411 315.713C298.42 317.242 298.027 318.178 297.468 318.746C296.906 319.317 295.95 319.746 294.355 319.785L294.348 319.785C289.903 319.916 285.415 319.932 280.96 319.871C279.245 319.844 278.232 319.374 277.63 318.748C277.017 318.112 276.603 317.079 276.576 315.468L276.576 315.464M277.345 204.113L276.576 315.464M298.522 147.435L298.522 147.433C298.493 144.492 298.471 142.419 298.279 140.893C298.086 139.364 297.755 138.713 297.378 138.357C296.987 137.987 296.268 137.669 294.642 137.502C293.031 137.337 290.851 137.343 287.782 137.354C287.173 137.356 286.575 137.354 285.984 137.352C284.829 137.347 283.697 137.343 282.549 137.372C281.154 137.415 280.151 137.505 279.408 137.672C278.68 137.836 278.319 138.05 278.105 138.261C277.894 138.468 277.686 138.81 277.53 139.502C277.369 140.213 277.287 141.177 277.256 142.527L277.256 142.532C277.219 143.935 277.234 145.263 277.25 146.627C277.262 147.678 277.274 148.75 277.263 149.896C277.264 151.681 277.265 153.133 277.137 154.286C277.007 155.465 276.727 156.523 276.034 157.43C275.354 158.323 274.402 158.902 273.296 159.402C272.282 159.86 270.975 160.32 269.379 160.882C269.248 160.928 269.115 160.975 268.98 161.022C260.395 164.056 253.567 168.361 248.764 174.064C243.973 179.752 241.12 186.919 240.615 195.827L240.615 195.828C240.165 203.657 242.081 210.146 245.758 215.64C249.451 221.159 254.972 225.747 261.835 229.654L261.836 229.654C267.611 232.948 273.725 235.282 279.971 237.666C282.935 238.798 285.93 239.941 288.933 241.203C292.55 242.708 296.097 244.483 299.221 246.971C303.98 250.713 306.067 255.828 305.411 260.714C304.755 265.6 301.392 269.996 295.792 272.38C289.978 274.856 283.844 275.468 277.597 274.736C268.153 273.642 259.064 271.297 250.471 267.06L250.469 267.059C249.268 266.465 248.377 266.111 247.693 265.949C247.022 265.791 246.681 265.85 246.485 265.933C246.289 266.015 246.014 266.216 245.667 266.796C245.313 267.389 244.957 268.257 244.556 269.501C243.155 273.883 241.913 278.307 240.662 282.761C239.802 285.824 239.75 287.127 240.168 287.996C240.37 288.414 240.744 288.858 241.49 289.385C242.248 289.92 243.305 290.482 244.777 291.167C252.196 294.579 260.149 296.325 268.364 297.552L268.366 297.552C269.963 297.792 271.287 298.004 272.326 298.297C273.376 298.593 274.336 299.023 275.052 299.836C275.768 300.65 276.069 301.654 276.224 302.724C276.377 303.781 276.412 305.104 276.441 306.69L298.522 147.435ZM298.522 147.435L298.523 147.528C298.545 149.509 298.562 151.126 298.719 152.392C298.88 153.689 299.212 154.874 300.059 155.811C300.899 156.738 302.053 157.21 303.353 157.54C304.652 157.87 306.346 158.115 308.451 158.419C314.868 159.372 320.985 161.152 326.963 163.653M298.522 147.435L326.963 163.653M276.576 315.464C276.547 314.014 276.528 312.553 276.509 311.087M276.576 315.464L276.509 311.087M326.963 163.653C328.447 164.282 329.255 165 329.643 165.732C330.016 166.436 330.134 167.402 329.704 168.832L326.963 163.653ZM276.509 311.087L276.509 311.085M276.509 311.087L276.509 311.085M276.509 311.085C276.49 309.621 276.471 308.151 276.441 306.69L276.509 311.085Z" stroke="url(#paint13_linear_614_441)" stroke-width="3"/>
</g>
<defs>
<filter id="filter0_b_614_441" x="266.675" y="189.717" width="176.325" height="178.39" filterUnits="userSpaceOnUse" color-interpolation-filters="sRGB">
<feFlood flood-opacity="0" result="BackgroundImageFix"/>
<feGaussianBlur in="BackgroundImageFix" stdDeviation="2"/>
<feComposite in2="SourceAlpha" operator="in" result="effect1_backgroundBlur_614_441"/>
<feBlend mode="normal" in="SourceGraphic" in2="effect1_backgroundBlur_614_441" result="shape"/>
</filter>
<filter id="filter1_b_614_441" x="253.476" y="160.865" width="202.498" height="236.093" filterUnits="userSpaceOnUse" color-interpolation-filters="sRGB">
<feFlood flood-opacity="0" result="BackgroundImageFix"/>
<feGaussianBlur in="BackgroundImageFix" stdDeviation="21"/>
<feComposite in2="SourceAlpha" operator="in" result="effect1_backgroundBlur_614_441"/>
<feBlend mode="normal" in="SourceGraphic" in2="effect1_backgroundBlur_614_441" result="shape"/>
</filter>
<filter id="filter2_b_614_441" x="196.415" y="93.8486" width="183.976" height="269.556" filterUnits="userSpaceOnUse" color-interpolation-filters="sRGB">
<feFlood flood-opacity="0" result="BackgroundImageFix"/>
<feGaussianBlur in="BackgroundImageFix" stdDeviation="21"/>
<feComposite in2="SourceAlpha" operator="in" result="effect1_backgroundBlur_614_441"/>
<feBlend mode="normal" in="SourceGraphic" in2="effect1_backgroundBlur_614_441" result="shape"/>
</filter>
<linearGradient id="paint0_linear_614_441" x1="34" y1="131.683" x2="652.777" y2="274.991" gradientUnits="userSpaceOnUse">
<stop stop-color="#9BEC8B"/>
<stop offset="1" stop-color="#24B8B1"/>
</linearGradient>
<radialGradient id="paint1_radial_614_441" cx="0" cy="0" r="1" gradientUnits="userSpaceOnUse" gradientTransform="translate(298.015 208.801) rotate(51.3361) scale(180.37 281.596)">
<stop stop-color="#90E78E" stop-opacity="0.65"/>
<stop offset="1" stop-color="white" stop-opacity="0"/>
</radialGradient>
<radialGradient id="paint2_radial_614_441" cx="0" cy="0" r="1" gradientUnits="userSpaceOnUse" gradientTransform="translate(298.015 208.801) rotate(51.3361) scale(180.37 281.596)">
<stop stop-color="#90E78E" stop-opacity="0.65"/>
<stop offset="1" stop-color="white" stop-opacity="0"/>
</radialGradient>
<radialGradient id="paint3_radial_614_441" cx="0" cy="0" r="1" gradientUnits="userSpaceOnUse" gradientTransform="translate(298.015 208.801) rotate(51.3361) scale(180.37 281.596)">
<stop stop-color="#90E78E" stop-opacity="0.65"/>
<stop offset="1" stop-color="white" stop-opacity="0"/>
</radialGradient>
<radialGradient id="paint4_radial_614_441" cx="0" cy="0" r="1" gradientUnits="userSpaceOnUse" gradientTransform="translate(298.015 208.801) rotate(51.3361) scale(180.37 281.596)">
<stop stop-color="#4E6847" stop-opacity="0.24"/>
<stop offset="1" stop-color="#DAFFD1"/>
</radialGradient>
<radialGradient id="paint5_radial_614_441" cx="0" cy="0" r="1" gradientUnits="userSpaceOnUse" gradientTransform="translate(298.565 348.899) rotate(-51.3257) scale(179.449 279.89)">
<stop stop-color="#4DDB2C" stop-opacity="0.04"/>
<stop offset="1" stop-color="#DAFFD1"/>
</radialGradient>
<radialGradient id="paint6_radial_614_441" cx="0" cy="0" r="1" gradientUnits="userSpaceOnUse" gradientTransform="translate(298.015 208.801) rotate(51.3361) scale(180.37 281.596)">
<stop stop-color="#4E6847" stop-opacity="0.24"/>
<stop offset="1" stop-color="#DAFFD1"/>
</radialGradient>
<radialGradient id="paint7_radial_614_441" cx="0" cy="0" r="1" gradientUnits="userSpaceOnUse" gradientTransform="translate(298.565 348.899) rotate(-51.3257) scale(179.449 279.89)">
<stop stop-color="#4DDB2C" stop-opacity="0.04"/>
<stop offset="1" stop-color="#DAFFD1"/>
</radialGradient>
<radialGradient id="paint8_radial_614_441" cx="0" cy="0" r="1" gradientUnits="userSpaceOnUse" gradientTransform="translate(298.015 208.801) rotate(51.3361) scale(180.37 281.596)">
<stop stop-color="#4E6847" stop-opacity="0.24"/>
<stop offset="1" stop-color="#DAFFD1"/>
</radialGradient>
<radialGradient id="paint9_radial_614_441" cx="0" cy="0" r="1" gradientUnits="userSpaceOnUse" gradientTransform="translate(298.565 348.899) rotate(-51.3257) scale(179.449 279.89)">
<stop stop-color="#4DDB2C" stop-opacity="0.04"/>
<stop offset="1" stop-color="#DAFFD1"/>
</radialGradient>
<radialGradient id="paint10_radial_614_441" cx="0" cy="0" r="1" gradientUnits="userSpaceOnUse" gradientTransform="translate(238.413 141.534) rotate(60.5397) scale(200.914 272.861)">
<stop stop-color="#93E98E" stop-opacity="0.4"/>
<stop offset="1" stop-color="white" stop-opacity="0"/>
</radialGradient>
<radialGradient id="paint11_radial_614_441" cx="0" cy="0" r="1" gradientUnits="userSpaceOnUse" gradientTransform="translate(238.413 141.534) rotate(60.5397) scale(200.914 272.861)">
<stop stop-color="#D8D8D8" stop-opacity="0"/>
<stop offset="1" stop-color="#D8D8D8"/>
</radialGradient>
<radialGradient id="paint12_radial_614_441" cx="0" cy="0" r="1" gradientUnits="userSpaceOnUse" gradientTransform="translate(239.974 315.897) rotate(-61.1716) scale(199.427 271.835)">
<stop stop-color="#D8D8D8" stop-opacity="0"/>
<stop offset="1" stop-color="#D8D8D8"/>
</radialGradient>
<linearGradient id="paint13_linear_614_441" x1="239.364" y1="141.071" x2="371.711" y2="172.858" gradientUnits="userSpaceOnUse">
<stop stop-color="#93E98E" stop-opacity="0.9"/>
<stop offset="1" stop-color="#93E98E" stop-opacity="0"/>
</linearGradient>
</defs>
</svg>
