<svg width="139" height="18" viewBox="0 0 139 18" fill="none" xmlns="http://www.w3.org/2000/svg">
<path d="M0.74 14V-9.53674e-07H6.8C8.05333 -9.53674e-07 9.13333 0.206666 10.04 0.619999C10.9467 1.02 11.6467 1.6 12.14 2.36C12.6333 3.12 12.88 4.02667 12.88 5.08C12.88 6.12 12.6333 7.02 12.14 7.78C11.6467 8.54 10.9467 9.12667 10.04 9.54C9.13333 9.94 8.05333 10.14 6.8 10.14H2.54L3.98 8.68V14H0.74ZM3.98 9.04L2.54 7.5H6.62C7.62 7.5 8.36667 7.28667 8.86 6.86C9.35333 6.43333 9.6 5.84 9.6 5.08C9.6 4.30667 9.35333 3.70667 8.86 3.28C8.36667 2.85333 7.62 2.64 6.62 2.64H2.54L3.98 1.1V9.04ZM20.0178 14.16C18.7911 14.16 17.7111 13.92 16.7778 13.44C15.8578 12.96 15.1445 12.3067 14.6378 11.48C14.1311 10.64 13.8778 9.68667 13.8778 8.62C13.8778 7.54 14.1245 6.58667 14.6178 5.76C15.1245 4.92 15.8111 4.26667 16.6778 3.8C17.5445 3.32 18.5245 3.08 19.6178 3.08C20.6711 3.08 21.6178 3.30667 22.4578 3.76C23.3111 4.2 23.9845 4.84 24.4778 5.68C24.9711 6.50667 25.2178 7.5 25.2178 8.66C25.2178 8.78 25.2111 8.92 25.1978 9.08C25.1845 9.22667 25.1711 9.36667 25.1578 9.5H16.4178V7.68H23.5178L22.3178 8.22C22.3178 7.66 22.2045 7.17333 21.9778 6.76C21.7511 6.34667 21.4378 6.02667 21.0378 5.8C20.6378 5.56 20.1711 5.44 19.6378 5.44C19.1045 5.44 18.6311 5.56 18.2178 5.8C17.8178 6.02667 17.5045 6.35333 17.2778 6.78C17.0511 7.19333 16.9378 7.68667 16.9378 8.26V8.74C16.9378 9.32667 17.0645 9.84667 17.3178 10.3C17.5845 10.74 17.9511 11.08 18.4178 11.32C18.8978 11.5467 19.4578 11.66 20.0978 11.66C20.6711 11.66 21.1711 11.5733 21.5978 11.4C22.0378 11.2267 22.4378 10.9667 22.7978 10.62L24.4578 12.42C23.9645 12.98 23.3445 13.4133 22.5978 13.72C21.8511 14.0133 20.9911 14.16 20.0178 14.16ZM27.6094 14V3.24H36.2294V5.8H30.0094L30.7094 5.12V14H27.6094ZM37.8828 14V3.24H40.9828V9.64L46.2228 3.24H49.0828V14H45.9828V7.6L40.7628 14H37.8828ZM57.202 14.16C56.042 14.16 55.0087 13.9267 54.102 13.46C53.1954 12.98 52.482 12.32 51.962 11.48C51.4554 10.64 51.202 9.68667 51.202 8.62C51.202 7.54 51.4554 6.58667 51.962 5.76C52.482 4.92 53.1954 4.26667 54.102 3.8C55.0087 3.32 56.042 3.08 57.202 3.08C58.3354 3.08 59.322 3.32 60.162 3.8C61.002 4.26667 61.622 4.94 62.022 5.82L59.602 7.12C59.322 6.61333 58.9687 6.24 58.542 6C58.1287 5.76 57.6754 5.64 57.182 5.64C56.6487 5.64 56.1687 5.76 55.742 6C55.3154 6.24 54.9754 6.58 54.722 7.02C54.482 7.46 54.362 7.99333 54.362 8.62C54.362 9.24667 54.482 9.78 54.722 10.22C54.9754 10.66 55.3154 11 55.742 11.24C56.1687 11.48 56.6487 11.6 57.182 11.6C57.6754 11.6 58.1287 11.4867 58.542 11.26C58.9687 11.02 59.322 10.64 59.602 10.12L62.022 11.44C61.622 12.3067 61.002 12.98 60.162 13.46C59.322 13.9267 58.3354 14.16 57.202 14.16ZM66.1984 14V5.08L66.8984 5.8H62.5584V3.24H72.9384V5.8H68.5984L69.2984 5.08V14H66.1984ZM80.9416 14.16C80.0349 14.16 79.2416 13.96 78.5616 13.56C77.8816 13.16 77.3482 12.5533 76.9616 11.74C76.5882 10.9133 76.4016 9.87333 76.4016 8.62C76.4016 7.35333 76.5816 6.31333 76.9416 5.5C77.3016 4.68667 77.8216 4.08 78.5016 3.68C79.1816 3.28 79.9949 3.08 80.9416 3.08C81.9549 3.08 82.8616 3.31333 83.6616 3.78C84.4749 4.23333 85.1149 4.87333 85.5816 5.7C86.0616 6.52667 86.3016 7.5 86.3016 8.62C86.3016 9.75333 86.0616 10.7333 85.5816 11.56C85.1149 12.3867 84.4749 13.0267 83.6616 13.48C82.8616 13.9333 81.9549 14.16 80.9416 14.16ZM74.5816 17.88V3.24H77.5616V5.44L77.5016 8.64L77.7016 11.82V17.88H74.5816ZM80.4016 11.6C80.9216 11.6 81.3816 11.48 81.7816 11.24C82.1949 11 82.5216 10.66 82.7616 10.22C83.0149 9.76667 83.1416 9.23333 83.1416 8.62C83.1416 7.99333 83.0149 7.46 82.7616 7.02C82.5216 6.58 82.1949 6.24 81.7816 6C81.3816 5.76 80.9216 5.64 80.4016 5.64C79.8816 5.64 79.4149 5.76 79.0016 6C78.5882 6.24 78.2616 6.58 78.0216 7.02C77.7816 7.46 77.6616 7.99333 77.6616 8.62C77.6616 9.23333 77.7816 9.76667 78.0216 10.22C78.2616 10.66 78.5882 11 79.0016 11.24C79.4149 11.48 79.8816 11.6 80.4016 11.6ZM94.7525 14V11.9L94.5525 11.44V7.68C94.5525 7.01333 94.3458 6.49333 93.9325 6.12C93.5325 5.74667 92.9125 5.56 92.0725 5.56C91.4992 5.56 90.9325 5.65333 90.3725 5.84C89.8258 6.01333 89.3592 6.25333 88.9725 6.56L87.8525 4.38C88.4392 3.96667 89.1458 3.64667 89.9725 3.42C90.7992 3.19333 91.6392 3.08 92.4925 3.08C94.1325 3.08 95.4058 3.46667 96.3125 4.24C97.2192 5.01333 97.6725 6.22 97.6725 7.86V14H94.7525ZM91.4725 14.16C90.6325 14.16 89.9125 14.02 89.3125 13.74C88.7125 13.4467 88.2525 13.0533 87.9325 12.56C87.6125 12.0667 87.4525 11.5133 87.4525 10.9C87.4525 10.26 87.6058 9.7 87.9125 9.22C88.2325 8.74 88.7325 8.36667 89.4125 8.1C90.0925 7.82 90.9792 7.68 92.0725 7.68H94.9325V9.5H92.4125C91.6792 9.5 91.1725 9.62 90.8925 9.86C90.6258 10.1 90.4925 10.4 90.4925 10.76C90.4925 11.16 90.6458 11.48 90.9525 11.72C91.2725 11.9467 91.7058 12.06 92.2525 12.06C92.7725 12.06 93.2392 11.94 93.6525 11.7C94.0658 11.4467 94.3658 11.08 94.5525 10.6L95.0325 12.04C94.8058 12.7333 94.3925 13.26 93.7925 13.62C93.1925 13.98 92.4192 14.16 91.4725 14.16ZM100.383 14V3.24H103.483V11.44H107.823V3.24H110.943V14H100.383ZM109.603 16.32V13.96L110.323 14H107.823V11.44H112.503V16.32H109.603ZM114.465 14V3.24H117.565V9.64L122.805 3.24H125.665V14H122.565V7.6L117.345 14H114.465ZM135.444 14V10.42L135.884 10.92H132.904C131.357 10.92 130.144 10.6 129.264 9.96C128.384 9.32 127.944 8.4 127.944 7.2C127.944 5.92 128.404 4.94 129.324 4.26C130.257 3.58 131.511 3.24 133.084 3.24H138.224V14H135.444ZM127.784 14L130.644 9.9H133.824L131.104 14H127.784ZM135.444 9.46V4.98L135.884 5.78H133.144C132.504 5.78 132.004 5.9 131.644 6.14C131.297 6.38 131.124 6.76667 131.124 7.3C131.124 8.32667 131.784 8.84 133.104 8.84H135.884L135.444 9.46Z" fill="white"/>
</svg>
