<svg width="222" height="33" viewBox="0 0 222 33" fill="none" xmlns="http://www.w3.org/2000/svg">
<path d="M1.79272 5.195H7.34272V6.14H1.79272V5.195ZM1.91271 10.04H8.22772V11H0.802715V0.499999H8.00272V1.46H1.91271V10.04ZM13.6182 11.075C12.8382 11.075 12.1382 10.905 11.5182 10.565C10.9082 10.215 10.4282 9.74 10.0782 9.14C9.72822 8.53 9.55322 7.835 9.55322 7.055C9.55322 6.265 9.72822 5.57 10.0782 4.97C10.4282 4.37 10.9082 3.9 11.5182 3.56C12.1382 3.22 12.8382 3.05 13.6182 3.05C14.2882 3.05 14.8932 3.18 15.4332 3.44C15.9732 3.7 16.3982 4.09 16.7082 4.61L15.9132 5.15C15.6432 4.75 15.3082 4.455 14.9082 4.265C14.5082 4.075 14.0732 3.98 13.6032 3.98C13.0432 3.98 12.5382 4.11 12.0882 4.37C11.6382 4.62 11.2832 4.975 11.0232 5.435C10.7632 5.895 10.6332 6.435 10.6332 7.055C10.6332 7.675 10.7632 8.215 11.0232 8.675C11.2832 9.135 11.6382 9.495 12.0882 9.755C12.5382 10.005 13.0432 10.13 13.6032 10.13C14.0732 10.13 14.5082 10.035 14.9082 9.845C15.3082 9.655 15.6432 9.365 15.9132 8.975L16.7082 9.515C16.3982 10.025 15.9732 10.415 15.4332 10.685C14.8932 10.945 14.2882 11.075 13.6182 11.075ZM17.0521 10.985L17.1271 10.07C17.1971 10.08 17.2621 10.095 17.3221 10.115C17.3921 10.125 17.4521 10.13 17.5021 10.13C17.8221 10.13 18.0771 10.01 18.2671 9.77C18.4671 9.53 18.6171 9.21 18.7171 8.81C18.8171 8.41 18.8871 7.96 18.9271 7.46C18.9671 6.95 19.0021 6.44 19.0321 5.93L19.1671 3.125H24.9421V11H23.8771V3.74L24.1471 4.055H19.8571L20.1121 3.725L19.9921 6.005C19.9621 6.685 19.9071 7.335 19.8271 7.955C19.7571 8.575 19.6421 9.12 19.4821 9.59C19.3321 10.06 19.1221 10.43 18.8521 10.7C18.5821 10.96 18.2371 11.09 17.8171 11.09C17.6971 11.09 17.5721 11.08 17.4421 11.06C17.3221 11.04 17.1921 11.015 17.0521 10.985ZM27.9696 11V3.125H29.0346V9.38L34.2996 3.125H35.2446V11H34.1796V4.73L28.9296 11H27.9696ZM42.3575 13.985C41.9875 13.985 41.6325 13.925 41.2925 13.805C40.9625 13.685 40.6775 13.505 40.4375 13.265L40.9325 12.47C41.1325 12.66 41.3475 12.805 41.5775 12.905C41.8175 13.015 42.0825 13.07 42.3725 13.07C42.7225 13.07 43.0225 12.97 43.2725 12.77C43.5325 12.58 43.7775 12.24 44.0075 11.75L44.5175 10.595L44.6375 10.43L47.8775 3.125H48.9275L44.9825 11.945C44.7625 12.455 44.5175 12.86 44.2475 13.16C43.9875 13.46 43.7025 13.67 43.3925 13.79C43.0825 13.92 42.7375 13.985 42.3575 13.985ZM44.4575 11.225L40.8275 3.125H41.9375L45.1475 10.355L44.4575 11.225ZM54.5126 11V3.125H57.9926C58.8826 3.125 59.5826 3.295 60.0926 3.635C60.6126 3.975 60.8726 4.475 60.8726 5.135C60.8726 5.775 60.6276 6.27 60.1376 6.62C59.6476 6.96 59.0026 7.13 58.2026 7.13L58.4126 6.815C59.3526 6.815 60.0426 6.99 60.4826 7.34C60.9226 7.69 61.1426 8.195 61.1426 8.855C61.1426 9.535 60.8926 10.065 60.3926 10.445C59.9026 10.815 59.1376 11 58.0976 11H54.5126ZM55.5476 10.16H58.0526C58.7226 10.16 59.2276 10.055 59.5676 9.845C59.9176 9.625 60.0926 9.275 60.0926 8.795C60.0926 8.315 59.9376 7.965 59.6276 7.745C59.3176 7.525 58.8276 7.415 58.1576 7.415H55.5476V10.16ZM55.5476 6.62H57.9176C58.5276 6.62 58.9926 6.505 59.3126 6.275C59.6426 6.045 59.8076 5.71 59.8076 5.27C59.8076 4.83 59.6426 4.5 59.3126 4.28C58.9926 4.06 58.5276 3.95 57.9176 3.95H55.5476V6.62ZM68.5285 11V9.26L68.4835 8.975V6.065C68.4835 5.395 68.2935 4.88 67.9135 4.52C67.5435 4.16 66.9885 3.98 66.2485 3.98C65.7385 3.98 65.2535 4.065 64.7935 4.235C64.3335 4.405 63.9435 4.63 63.6235 4.91L63.1435 4.115C63.5435 3.775 64.0235 3.515 64.5835 3.335C65.1435 3.145 65.7335 3.05 66.3535 3.05C67.3735 3.05 68.1585 3.305 68.7085 3.815C69.2685 4.315 69.5485 5.08 69.5485 6.11V11H68.5285ZM65.8135 11.075C65.2235 11.075 64.7085 10.98 64.2685 10.79C63.8385 10.59 63.5085 10.32 63.2785 9.98C63.0485 9.63 62.9335 9.23 62.9335 8.78C62.9335 8.37 63.0285 8 63.2185 7.67C63.4185 7.33 63.7385 7.06 64.1785 6.86C64.6285 6.65 65.2285 6.545 65.9785 6.545H68.6935V7.34H66.0085C65.2485 7.34 64.7185 7.475 64.4185 7.745C64.1285 8.015 63.9835 8.35 63.9835 8.75C63.9835 9.2 64.1585 9.56 64.5085 9.83C64.8585 10.1 65.3485 10.235 65.9785 10.235C66.5785 10.235 67.0935 10.1 67.5235 9.83C67.9635 9.55 68.2835 9.15 68.4835 8.63L68.7235 9.365C68.5235 9.885 68.1735 10.3 67.6735 10.61C67.1835 10.92 66.5635 11.075 65.8135 11.075ZM75.6837 11.075C74.9037 11.075 74.2037 10.905 73.5837 10.565C72.9737 10.215 72.4937 9.74 72.1437 9.14C71.7937 8.53 71.6187 7.835 71.6187 7.055C71.6187 6.265 71.7937 5.57 72.1437 4.97C72.4937 4.37 72.9737 3.9 73.5837 3.56C74.2037 3.22 74.9037 3.05 75.6837 3.05C76.3537 3.05 76.9587 3.18 77.4987 3.44C78.0387 3.7 78.4637 4.09 78.7737 4.61L77.9787 5.15C77.7087 4.75 77.3737 4.455 76.9737 4.265C76.5737 4.075 76.1387 3.98 75.6687 3.98C75.1087 3.98 74.6037 4.11 74.1537 4.37C73.7037 4.62 73.3487 4.975 73.0887 5.435C72.8287 5.895 72.6987 6.435 72.6987 7.055C72.6987 7.675 72.8287 8.215 73.0887 8.675C73.3487 9.135 73.7037 9.495 74.1537 9.755C74.6037 10.005 75.1087 10.13 75.6687 10.13C76.1387 10.13 76.5737 10.035 76.9737 9.845C77.3737 9.655 77.7087 9.365 77.9787 8.975L78.7737 9.515C78.4637 10.025 78.0387 10.415 77.4987 10.685C76.9587 10.945 76.3537 11.075 75.6837 11.075ZM88.1366 11.075C87.3166 11.075 86.5966 10.905 85.9766 10.565C85.3566 10.215 84.8716 9.74 84.5216 9.14C84.1716 8.53 83.9966 7.835 83.9966 7.055C83.9966 6.275 84.1616 5.585 84.4916 4.985C84.8316 4.385 85.2916 3.915 85.8716 3.575C86.4616 3.225 87.1216 3.05 87.8516 3.05C88.5916 3.05 89.2466 3.22 89.8166 3.56C90.3966 3.89 90.8516 4.36 91.1816 4.97C91.5116 5.57 91.6766 6.265 91.6766 7.055C91.6766 7.105 91.6716 7.16 91.6616 7.22C91.6616 7.27 91.6616 7.325 91.6616 7.385H84.8066V6.59H91.0916L90.6716 6.905C90.6716 6.335 90.5466 5.83 90.2966 5.39C90.0566 4.94 89.7266 4.59 89.3066 4.34C88.8866 4.09 88.4016 3.965 87.8516 3.965C87.3116 3.965 86.8266 4.09 86.3966 4.34C85.9666 4.59 85.6316 4.94 85.3916 5.39C85.1516 5.84 85.0316 6.355 85.0316 6.935V7.1C85.0316 7.7 85.1616 8.23 85.4216 8.69C85.6916 9.14 86.0616 9.495 86.5316 9.755C87.0116 10.005 87.5566 10.13 88.1666 10.13C88.6466 10.13 89.0916 10.045 89.5016 9.875C89.9216 9.705 90.2816 9.445 90.5816 9.095L91.1816 9.785C90.8316 10.205 90.3916 10.525 89.8616 10.745C89.3416 10.965 88.7666 11.075 88.1366 11.075ZM99.209 10.07L98.969 10.355V3.125H100.034V10.355L99.749 10.07H104.144L103.859 10.355V3.125H104.924V11H94.034V3.125H95.099V10.355L94.829 10.07H99.209ZM105.134 12.725V10.715L105.404 11H103.799V10.07H106.139V12.725H105.134ZM111.325 11.075C110.505 11.075 109.785 10.905 109.165 10.565C108.545 10.215 108.06 9.74 107.71 9.14C107.36 8.53 107.185 7.835 107.185 7.055C107.185 6.275 107.35 5.585 107.68 4.985C108.02 4.385 108.48 3.915 109.06 3.575C109.65 3.225 110.31 3.05 111.04 3.05C111.78 3.05 112.435 3.22 113.005 3.56C113.585 3.89 114.04 4.36 114.37 4.97C114.7 5.57 114.865 6.265 114.865 7.055C114.865 7.105 114.86 7.16 114.85 7.22C114.85 7.27 114.85 7.325 114.85 7.385H107.995V6.59H114.28L113.86 6.905C113.86 6.335 113.735 5.83 113.485 5.39C113.245 4.94 112.915 4.59 112.495 4.34C112.075 4.09 111.59 3.965 111.04 3.965C110.5 3.965 110.015 4.09 109.585 4.34C109.155 4.59 108.82 4.94 108.58 5.39C108.34 5.84 108.22 6.355 108.22 6.935V7.1C108.22 7.7 108.35 8.23 108.61 8.69C108.88 9.14 109.25 9.495 109.72 9.755C110.2 10.005 110.745 10.13 111.355 10.13C111.835 10.13 112.28 10.045 112.69 9.875C113.11 9.705 113.47 9.445 113.77 9.095L114.37 9.785C114.02 10.205 113.58 10.525 113.05 10.745C112.53 10.965 111.955 11.075 111.325 11.075ZM112.375 1.55C112.205 1.55 112.055 1.49 111.925 1.37C111.795 1.25 111.73 1.095 111.73 0.904999C111.73 0.714999 111.795 0.559999 111.925 0.439999C112.055 0.32 112.205 0.26 112.375 0.26C112.555 0.26 112.705 0.32 112.825 0.439999C112.955 0.559999 113.02 0.714999 113.02 0.904999C113.02 1.095 112.955 1.25 112.825 1.37C112.705 1.49 112.555 1.55 112.375 1.55ZM109.705 1.55C109.525 1.55 109.37 1.49 109.24 1.37C109.12 1.25 109.06 1.095 109.06 0.904999C109.06 0.714999 109.12 0.559999 109.24 0.439999C109.37 0.32 109.525 0.26 109.705 0.26C109.875 0.26 110.025 0.32 110.155 0.439999C110.285 0.559999 110.35 0.714999 110.35 0.904999C110.35 1.095 110.285 1.25 110.155 1.37C110.025 1.49 109.875 1.55 109.705 1.55ZM121.148 11V3.125H122.213V6.605H127.178V3.125H128.243V11H127.178V7.52H122.213V11H121.148ZM134.645 11.075C133.825 11.075 133.105 10.905 132.485 10.565C131.865 10.215 131.38 9.74 131.03 9.14C130.68 8.53 130.505 7.835 130.505 7.055C130.505 6.275 130.67 5.585 131 4.985C131.34 4.385 131.8 3.915 132.38 3.575C132.97 3.225 133.63 3.05 134.36 3.05C135.1 3.05 135.755 3.22 136.325 3.56C136.905 3.89 137.36 4.36 137.69 4.97C138.02 5.57 138.185 6.265 138.185 7.055C138.185 7.105 138.18 7.16 138.17 7.22C138.17 7.27 138.17 7.325 138.17 7.385H131.315V6.59H137.6L137.18 6.905C137.18 6.335 137.055 5.83 136.805 5.39C136.565 4.94 136.235 4.59 135.815 4.34C135.395 4.09 134.91 3.965 134.36 3.965C133.82 3.965 133.335 4.09 132.905 4.34C132.475 4.59 132.14 4.94 131.9 5.39C131.66 5.84 131.54 6.355 131.54 6.935V7.1C131.54 7.7 131.67 8.23 131.93 8.69C132.2 9.14 132.57 9.495 133.04 9.755C133.52 10.005 134.065 10.13 134.675 10.13C135.155 10.13 135.6 10.045 136.01 9.875C136.43 9.705 136.79 9.445 137.09 9.095L137.69 9.785C137.34 10.205 136.9 10.525 136.37 10.745C135.85 10.965 135.275 11.075 134.645 11.075ZM141.691 11V3.77L141.961 4.055H138.706V3.125H145.741V4.055H142.486L142.756 3.77V11H141.691ZM156.097 11V9.26L156.052 8.975V6.065C156.052 5.395 155.862 4.88 155.482 4.52C155.112 4.16 154.557 3.98 153.817 3.98C153.307 3.98 152.822 4.065 152.362 4.235C151.902 4.405 151.512 4.63 151.192 4.91L150.712 4.115C151.112 3.775 151.592 3.515 152.152 3.335C152.712 3.145 153.302 3.05 153.922 3.05C154.942 3.05 155.727 3.305 156.277 3.815C156.837 4.315 157.117 5.08 157.117 6.11V11H156.097ZM153.382 11.075C152.792 11.075 152.277 10.98 151.837 10.79C151.407 10.59 151.077 10.32 150.847 9.98C150.617 9.63 150.502 9.23 150.502 8.78C150.502 8.37 150.597 8 150.787 7.67C150.987 7.33 151.307 7.06 151.747 6.86C152.197 6.65 152.797 6.545 153.547 6.545H156.262V7.34H153.577C152.817 7.34 152.287 7.475 151.987 7.745C151.697 8.015 151.552 8.35 151.552 8.75C151.552 9.2 151.727 9.56 152.077 9.83C152.427 10.1 152.917 10.235 153.547 10.235C154.147 10.235 154.662 10.1 155.092 9.83C155.532 9.55 155.852 9.15 156.052 8.63L156.292 9.365C156.092 9.885 155.742 10.3 155.242 10.61C154.752 10.92 154.132 11.075 153.382 11.075ZM165.727 11L162.487 7.1L163.372 6.575L166.987 11H165.727ZM159.952 11V3.125H161.017V11H159.952ZM160.687 7.49V6.575H163.222V7.49H160.687ZM163.462 7.175L162.472 7.025L165.607 3.125H166.762L163.462 7.175ZM174.443 11L171.203 7.1L172.088 6.575L175.703 11H174.443ZM168.668 11V3.125H169.733V11H168.668ZM169.403 7.49V6.575H171.938V7.49H169.403ZM172.178 7.175L171.188 7.025L174.323 3.125H175.478L172.178 7.175ZM182.127 11V9.26L182.082 8.975V6.065C182.082 5.395 181.892 4.88 181.512 4.52C181.142 4.16 180.587 3.98 179.847 3.98C179.337 3.98 178.852 4.065 178.392 4.235C177.932 4.405 177.542 4.63 177.222 4.91L176.742 4.115C177.142 3.775 177.622 3.515 178.182 3.335C178.742 3.145 179.332 3.05 179.952 3.05C180.972 3.05 181.757 3.305 182.307 3.815C182.867 4.315 183.147 5.08 183.147 6.11V11H182.127ZM179.412 11.075C178.822 11.075 178.307 10.98 177.867 10.79C177.437 10.59 177.107 10.32 176.877 9.98C176.647 9.63 176.532 9.23 176.532 8.78C176.532 8.37 176.627 8 176.817 7.67C177.017 7.33 177.337 7.06 177.777 6.86C178.227 6.65 178.827 6.545 179.577 6.545H182.292V7.34H179.607C178.847 7.34 178.317 7.475 178.017 7.745C177.727 8.015 177.582 8.35 177.582 8.75C177.582 9.2 177.757 9.56 178.107 9.83C178.457 10.1 178.947 10.235 179.577 10.235C180.177 10.235 180.692 10.1 181.122 9.83C181.562 9.55 181.882 9.15 182.082 8.63L182.322 9.365C182.122 9.885 181.772 10.3 181.272 10.61C180.782 10.92 180.162 11.075 179.412 11.075ZM186.117 13.985C185.747 13.985 185.392 13.925 185.052 13.805C184.722 13.685 184.437 13.505 184.197 13.265L184.692 12.47C184.892 12.66 185.107 12.805 185.337 12.905C185.577 13.015 185.842 13.07 186.132 13.07C186.482 13.07 186.782 12.97 187.032 12.77C187.292 12.58 187.537 12.24 187.767 11.75L188.277 10.595L188.397 10.43L191.637 3.125H192.687L188.742 11.945C188.522 12.455 188.277 12.86 188.007 13.16C187.747 13.46 187.462 13.67 187.152 13.79C186.842 13.92 186.497 13.985 186.117 13.985ZM188.217 11.225L184.587 3.125H185.697L188.907 10.355L188.217 11.225ZM194.347 11V3.125H195.412V6.605H200.377V3.125H201.442V11H200.377V7.52H195.412V11H194.347ZM205.969 11V3.77L206.239 4.055H202.984V3.125H210.019V4.055H206.764L207.034 3.77V11H205.969ZM216.448 11V9.26L216.403 8.975V6.065C216.403 5.395 216.213 4.88 215.833 4.52C215.463 4.16 214.908 3.98 214.168 3.98C213.658 3.98 213.173 4.065 212.713 4.235C212.253 4.405 211.863 4.63 211.543 4.91L211.063 4.115C211.463 3.775 211.943 3.515 212.503 3.335C213.063 3.145 213.653 3.05 214.273 3.05C215.293 3.05 216.078 3.305 216.628 3.815C217.188 4.315 217.468 5.08 217.468 6.11V11H216.448ZM213.733 11.075C213.143 11.075 212.628 10.98 212.188 10.79C211.758 10.59 211.428 10.32 211.198 9.98C210.968 9.63 210.853 9.23 210.853 8.78C210.853 8.37 210.948 8 211.138 7.67C211.338 7.33 211.658 7.06 212.098 6.86C212.548 6.65 213.148 6.545 213.898 6.545H216.613V7.34H213.928C213.168 7.34 212.638 7.475 212.338 7.745C212.048 8.015 211.903 8.35 211.903 8.75C211.903 9.2 212.078 9.56 212.428 9.83C212.778 10.1 213.268 10.235 213.898 10.235C214.498 10.235 215.013 10.1 215.443 9.83C215.883 9.55 216.203 9.15 216.403 8.63L216.643 9.365C216.443 9.885 216.093 10.3 215.593 10.61C215.103 10.92 214.483 11.075 213.733 11.075ZM219.629 13.19L220.289 10.415L220.409 11.06C220.179 11.06 219.984 10.985 219.824 10.835C219.674 10.685 219.599 10.49 219.599 10.25C219.599 10.01 219.674 9.815 219.824 9.665C219.984 9.515 220.174 9.44 220.394 9.44C220.624 9.44 220.809 9.52 220.949 9.68C221.099 9.84 221.174 10.03 221.174 10.25C221.174 10.33 221.169 10.41 221.159 10.49C221.149 10.57 221.129 10.66 221.099 10.76C221.069 10.86 221.029 10.98 220.979 11.12L220.349 13.19H219.629ZM38.1304 29.135C37.5204 29.135 36.9154 29.065 36.3154 28.925C35.7254 28.775 35.1904 28.565 34.7104 28.295L35.2354 26.9C35.6254 27.12 36.0654 27.29 36.5554 27.41C37.0454 27.53 37.5354 27.59 38.0254 27.59C38.4454 27.59 38.8054 27.55 39.1054 27.47C39.4054 27.38 39.6354 27.25 39.7954 27.08C39.9654 26.91 40.0504 26.715 40.0504 26.495C40.0504 26.175 39.9104 25.935 39.6304 25.775C39.3604 25.605 38.9704 25.52 38.4604 25.52H36.9154V24.26H38.3104C38.6304 24.26 38.9004 24.225 39.1204 24.155C39.3504 24.085 39.5254 23.98 39.6454 23.84C39.7654 23.7 39.8254 23.535 39.8254 23.345C39.8254 23.155 39.7504 22.99 39.6004 22.85C39.4604 22.7 39.2554 22.59 38.9854 22.52C38.7154 22.44 38.3904 22.4 38.0104 22.4C37.6104 22.4 37.1954 22.45 36.7654 22.55C36.3454 22.65 35.9154 22.795 35.4754 22.985L34.9954 21.605C35.5054 21.375 36.0004 21.2 36.4804 21.08C36.9704 20.95 37.4554 20.88 37.9354 20.87C38.6654 20.84 39.3154 20.915 39.8854 21.095C40.4554 21.275 40.9054 21.535 41.2354 21.875C41.5654 22.215 41.7304 22.615 41.7304 23.075C41.7304 23.455 41.6104 23.8 41.3704 24.11C41.1404 24.41 40.8204 24.645 40.4104 24.815C40.0104 24.985 39.5504 25.07 39.0304 25.07L39.0904 24.665C39.9804 24.665 40.6804 24.845 41.1904 25.205C41.7004 25.555 41.9554 26.035 41.9554 26.645C41.9554 27.135 41.7904 27.57 41.4604 27.95C41.1304 28.32 40.6754 28.61 40.0954 28.82C39.5254 29.03 38.8704 29.135 38.1304 29.135ZM48.7465 29V27.38L48.6415 27.035V24.2C48.6415 23.65 48.4765 23.225 48.1465 22.925C47.8165 22.615 47.3165 22.46 46.6465 22.46C46.1965 22.46 45.7515 22.53 45.3115 22.67C44.8815 22.81 44.5165 23.005 44.2165 23.255L43.4815 21.89C43.9115 21.56 44.4215 21.315 45.0115 21.155C45.6115 20.985 46.2315 20.9 46.8715 20.9C48.0315 20.9 48.9265 21.18 49.5565 21.74C50.1965 22.29 50.5165 23.145 50.5165 24.305V29H48.7465ZM46.2265 29.105C45.6265 29.105 45.1015 29.005 44.6515 28.805C44.2015 28.595 43.8515 28.31 43.6015 27.95C43.3615 27.58 43.2415 27.165 43.2415 26.705C43.2415 26.255 43.3465 25.85 43.5565 25.49C43.7765 25.13 44.1315 24.845 44.6215 24.635C45.1115 24.425 45.7615 24.32 46.5715 24.32H48.8965V25.565H46.7065C46.0665 25.565 45.6365 25.67 45.4165 25.88C45.1965 26.08 45.0865 26.33 45.0865 26.63C45.0865 26.97 45.2215 27.24 45.4915 27.44C45.7615 27.64 46.1365 27.74 46.6165 27.74C47.0765 27.74 47.4865 27.635 47.8465 27.425C48.2165 27.215 48.4815 26.905 48.6415 26.495L48.9565 27.62C48.7765 28.09 48.4515 28.455 47.9815 28.715C47.5215 28.975 46.9365 29.105 46.2265 29.105ZM57.2767 29.105C56.6267 29.105 56.0317 28.955 55.4917 28.655C54.9617 28.355 54.5367 27.905 54.2167 27.305C53.9067 26.695 53.7517 25.925 53.7517 24.995C53.7517 24.055 53.9017 23.285 54.2017 22.685C54.5117 22.085 54.9317 21.64 55.4617 21.35C55.9917 21.05 56.5967 20.9 57.2767 20.9C58.0667 20.9 58.7617 21.07 59.3617 21.41C59.9717 21.75 60.4517 22.225 60.8017 22.835C61.1617 23.445 61.3417 24.165 61.3417 24.995C61.3417 25.825 61.1617 26.55 60.8017 27.17C60.4517 27.78 59.9717 28.255 59.3617 28.595C58.7617 28.935 58.0667 29.105 57.2767 29.105ZM52.8367 31.91V20.99H54.6217V22.88L54.5617 25.01L54.7117 27.14V31.91H52.8367ZM57.0667 27.5C57.5167 27.5 57.9167 27.4 58.2667 27.2C58.6267 27 58.9117 26.71 59.1217 26.33C59.3317 25.95 59.4367 25.505 59.4367 24.995C59.4367 24.475 59.3317 24.03 59.1217 23.66C58.9117 23.28 58.6267 22.99 58.2667 22.79C57.9167 22.59 57.5167 22.49 57.0667 22.49C56.6167 22.49 56.2117 22.59 55.8517 22.79C55.4917 22.99 55.2067 23.28 54.9967 23.66C54.7867 24.03 54.6817 24.475 54.6817 24.995C54.6817 25.505 54.7867 25.95 54.9967 26.33C55.2067 26.71 55.4917 27 55.8517 27.2C56.2117 27.4 56.6167 27.5 57.0667 27.5ZM66.9428 29.105C66.0528 29.105 65.2728 28.93 64.6028 28.58C63.9428 28.22 63.4278 27.73 63.0578 27.11C62.6978 26.49 62.5178 25.785 62.5178 24.995C62.5178 24.195 62.6928 23.49 63.0428 22.88C63.4028 22.26 63.8928 21.775 64.5128 21.425C65.1428 21.075 65.8578 20.9 66.6578 20.9C67.4378 20.9 68.1328 21.07 68.7428 21.41C69.3528 21.75 69.8328 22.23 70.1828 22.85C70.5328 23.47 70.7078 24.2 70.7078 25.04C70.7078 25.12 70.7028 25.21 70.6928 25.31C70.6928 25.41 70.6878 25.505 70.6778 25.595H64.0028V24.35H69.6878L68.9528 24.74C68.9628 24.28 68.8678 23.875 68.6678 23.525C68.4678 23.175 68.1928 22.9 67.8428 22.7C67.5028 22.5 67.1078 22.4 66.6578 22.4C66.1978 22.4 65.7928 22.5 65.4428 22.7C65.1028 22.9 64.8328 23.18 64.6328 23.54C64.4428 23.89 64.3478 24.305 64.3478 24.785V25.085C64.3478 25.565 64.4578 25.99 64.6778 26.36C64.8978 26.73 65.2078 27.015 65.6078 27.215C66.0078 27.415 66.4678 27.515 66.9878 27.515C67.4378 27.515 67.8428 27.445 68.2028 27.305C68.5628 27.165 68.8828 26.945 69.1628 26.645L70.1678 27.8C69.8078 28.22 69.3528 28.545 68.8028 28.775C68.2628 28.995 67.6428 29.105 66.9428 29.105ZM72.7585 29V20.99H78.9085V22.58H74.1985L74.6335 22.16V29H72.7585ZM80.2732 29V20.99H82.1482V26.27L86.5732 20.99H88.2832V29H86.4082V23.72L81.9982 29H80.2732ZM94.4504 29.105C93.6104 29.105 92.8604 28.93 92.2004 28.58C91.5504 28.22 91.0404 27.73 90.6704 27.11C90.3004 26.49 90.1154 25.785 90.1154 24.995C90.1154 24.195 90.3004 23.49 90.6704 22.88C91.0404 22.26 91.5504 21.775 92.2004 21.425C92.8604 21.075 93.6104 20.9 94.4504 20.9C95.2304 20.9 95.9154 21.06 96.5054 21.38C97.1054 21.69 97.5604 22.15 97.8704 22.76L96.4304 23.6C96.1904 23.22 95.8954 22.94 95.5454 22.76C95.2054 22.58 94.8354 22.49 94.4354 22.49C93.9754 22.49 93.5604 22.59 93.1904 22.79C92.8204 22.99 92.5304 23.28 92.3204 23.66C92.1104 24.03 92.0054 24.475 92.0054 24.995C92.0054 25.515 92.1104 25.965 92.3204 26.345C92.5304 26.715 92.8204 27 93.1904 27.2C93.5604 27.4 93.9754 27.5 94.4354 27.5C94.8354 27.5 95.2054 27.41 95.5454 27.23C95.8954 27.05 96.1904 26.77 96.4304 26.39L97.8704 27.23C97.5604 27.83 97.1054 28.295 96.5054 28.625C95.9154 28.945 95.2304 29.105 94.4504 29.105ZM101.128 29V22.13L101.563 22.58H98.3076V20.99H105.808V22.58H102.568L103.003 22.13V29H101.128ZM111.608 29.105C110.958 29.105 110.363 28.955 109.823 28.655C109.293 28.355 108.868 27.905 108.548 27.305C108.238 26.695 108.083 25.925 108.083 24.995C108.083 24.055 108.233 23.285 108.533 22.685C108.843 22.085 109.263 21.64 109.793 21.35C110.323 21.05 110.928 20.9 111.608 20.9C112.398 20.9 113.093 21.07 113.693 21.41C114.303 21.75 114.783 22.225 115.133 22.835C115.493 23.445 115.673 24.165 115.673 24.995C115.673 25.825 115.493 26.55 115.133 27.17C114.783 27.78 114.303 28.255 113.693 28.595C113.093 28.935 112.398 29.105 111.608 29.105ZM107.168 31.91V20.99H108.953V22.88L108.893 25.01L109.043 27.14V31.91H107.168ZM111.398 27.5C111.848 27.5 112.248 27.4 112.598 27.2C112.958 27 113.243 26.71 113.453 26.33C113.663 25.95 113.768 25.505 113.768 24.995C113.768 24.475 113.663 24.03 113.453 23.66C113.243 23.28 112.958 22.99 112.598 22.79C112.248 22.59 111.848 22.49 111.398 22.49C110.948 22.49 110.543 22.59 110.183 22.79C109.823 22.99 109.538 23.28 109.328 23.66C109.118 24.03 109.013 24.475 109.013 24.995C109.013 25.505 109.118 25.95 109.328 26.33C109.538 26.71 109.823 27 110.183 27.2C110.543 27.4 110.948 27.5 111.398 27.5ZM117.539 29V20.99H119.414V26.27L123.839 20.99H125.549V29H123.674V23.72L119.264 29H117.539ZM132.511 29.105C131.861 29.105 131.266 28.955 130.726 28.655C130.196 28.355 129.771 27.905 129.451 27.305C129.141 26.695 128.986 25.925 128.986 24.995C128.986 24.055 129.136 23.285 129.436 22.685C129.746 22.085 130.166 21.64 130.696 21.35C131.226 21.05 131.831 20.9 132.511 20.9C133.301 20.9 133.996 21.07 134.596 21.41C135.206 21.75 135.686 22.225 136.036 22.835C136.396 23.445 136.576 24.165 136.576 24.995C136.576 25.825 136.396 26.55 136.036 27.17C135.686 27.78 135.206 28.255 134.596 28.595C133.996 28.935 133.301 29.105 132.511 29.105ZM128.071 31.91V20.99H129.856V22.88L129.796 25.01L129.946 27.14V31.91H128.071ZM132.301 27.5C132.751 27.5 133.151 27.4 133.501 27.2C133.861 27 134.146 26.71 134.356 26.33C134.566 25.95 134.671 25.505 134.671 24.995C134.671 24.475 134.566 24.03 134.356 23.66C134.146 23.28 133.861 22.99 133.501 22.79C133.151 22.59 132.751 22.49 132.301 22.49C131.851 22.49 131.446 22.59 131.086 22.79C130.726 22.99 130.441 23.28 130.231 23.66C130.021 24.03 129.916 24.475 129.916 24.995C129.916 25.505 130.021 25.95 130.231 26.33C130.441 26.71 130.726 27 131.086 27.2C131.446 27.4 131.851 27.5 132.301 27.5ZM138.942 32.015C138.552 32.015 138.162 31.95 137.772 31.82C137.382 31.69 137.057 31.51 136.797 31.28L137.547 29.9C137.737 30.07 137.952 30.205 138.192 30.305C138.432 30.405 138.677 30.455 138.927 30.455C139.267 30.455 139.542 30.37 139.752 30.2C139.962 30.03 140.157 29.745 140.337 29.345L140.802 28.295L140.952 28.07L143.982 20.99H145.782L142.032 29.645C141.782 30.245 141.502 30.72 141.192 31.07C140.892 31.42 140.552 31.665 140.172 31.805C139.802 31.945 139.392 32.015 138.942 32.015ZM140.592 29.285L136.977 20.99H138.927L141.867 27.905L140.592 29.285ZM147.085 29V20.99H148.96V26.27L153.385 20.99H155.095V29H153.22V23.72L148.81 29H147.085ZM150.97 20.045C150.17 20.045 149.555 19.86 149.125 19.49C148.695 19.11 148.475 18.56 148.465 17.84H149.71C149.72 18.2 149.83 18.485 150.04 18.695C150.26 18.905 150.565 19.01 150.955 19.01C151.335 19.01 151.635 18.905 151.855 18.695C152.085 18.485 152.205 18.2 152.215 17.84H153.49C153.48 18.56 153.255 19.11 152.815 19.49C152.385 19.86 151.77 20.045 150.97 20.045ZM159.282 29V22.13L159.717 22.58H156.462V20.99H163.962V22.58H160.722L161.157 22.13V29H159.282ZM168.705 29.105C167.815 29.105 167.035 28.93 166.365 28.58C165.705 28.22 165.19 27.73 164.82 27.11C164.46 26.49 164.28 25.785 164.28 24.995C164.28 24.195 164.455 23.49 164.805 22.88C165.165 22.26 165.655 21.775 166.275 21.425C166.905 21.075 167.62 20.9 168.42 20.9C169.2 20.9 169.895 21.07 170.505 21.41C171.115 21.75 171.595 22.23 171.945 22.85C172.295 23.47 172.47 24.2 172.47 25.04C172.47 25.12 172.465 25.21 172.455 25.31C172.455 25.41 172.45 25.505 172.44 25.595H165.765V24.35H171.45L170.715 24.74C170.725 24.28 170.63 23.875 170.43 23.525C170.23 23.175 169.955 22.9 169.605 22.7C169.265 22.5 168.87 22.4 168.42 22.4C167.96 22.4 167.555 22.5 167.205 22.7C166.865 22.9 166.595 23.18 166.395 23.54C166.205 23.89 166.11 24.305 166.11 24.785V25.085C166.11 25.565 166.22 25.99 166.44 26.36C166.66 26.73 166.97 27.015 167.37 27.215C167.77 27.415 168.23 27.515 168.75 27.515C169.2 27.515 169.605 27.445 169.965 27.305C170.325 27.165 170.645 26.945 170.925 26.645L171.93 27.8C171.57 28.22 171.115 28.545 170.565 28.775C170.025 28.995 169.405 29.105 168.705 29.105ZM178.166 29.105C177.326 29.105 176.576 28.93 175.916 28.58C175.266 28.22 174.756 27.73 174.386 27.11C174.016 26.49 173.831 25.785 173.831 24.995C173.831 24.195 174.016 23.49 174.386 22.88C174.756 22.26 175.266 21.775 175.916 21.425C176.576 21.075 177.326 20.9 178.166 20.9C178.946 20.9 179.631 21.06 180.221 21.38C180.821 21.69 181.276 22.15 181.586 22.76L180.146 23.6C179.906 23.22 179.611 22.94 179.261 22.76C178.921 22.58 178.551 22.49 178.151 22.49C177.691 22.49 177.276 22.59 176.906 22.79C176.536 22.99 176.246 23.28 176.036 23.66C175.826 24.03 175.721 24.475 175.721 24.995C175.721 25.515 175.826 25.965 176.036 26.345C176.246 26.715 176.536 27 176.906 27.2C177.276 27.4 177.691 27.5 178.151 27.5C178.551 27.5 178.921 27.41 179.261 27.23C179.611 27.05 179.906 26.77 180.146 26.39L181.586 27.23C181.276 27.83 180.821 28.295 180.221 28.625C179.631 28.945 178.946 29.105 178.166 29.105ZM187.257 23.63C188.287 23.63 189.072 23.86 189.612 24.32C190.152 24.78 190.422 25.43 190.422 26.27C190.422 27.14 190.122 27.82 189.522 28.31C188.922 28.79 188.077 29.025 186.987 29.015L183.237 29V20.99H185.112V23.615L187.257 23.63ZM186.822 27.635C187.372 27.645 187.792 27.53 188.082 27.29C188.372 27.05 188.517 26.7 188.517 26.24C188.517 25.78 188.372 25.45 188.082 25.25C187.802 25.04 187.382 24.93 186.822 24.92L185.112 24.905V27.62L186.822 27.635Z" fill="white"/>
</svg>
