<svg width="130" height="40" viewBox="0 0 130 40" fill="none" xmlns="http://www.w3.org/2000/svg">
<path d="M0 0H110C121.046 0 130 8.95431 130 20V40H20C8.9543 40 0 31.0457 0 20V0Z" fill="url(#paint0_linear_57_1766)"/>
<path d="M28.3 26.15C27.5 26.15 26.755 26.02 26.065 25.76C25.385 25.49 24.79 25.115 24.28 24.635C23.78 24.145 23.39 23.57 23.11 22.91C22.83 22.25 22.69 21.53 22.69 20.75C22.69 19.97 22.83 19.25 23.11 18.59C23.39 17.93 23.785 17.36 24.295 16.88C24.805 16.39 25.4 16.015 26.08 15.755C26.76 15.485 27.505 15.35 28.315 15.35C29.175 15.35 29.96 15.5 30.67 15.8C31.38 16.09 31.98 16.525 32.47 17.105L31.21 18.29C30.83 17.88 30.405 17.575 29.935 17.375C29.465 17.165 28.955 17.06 28.405 17.06C27.855 17.06 27.35 17.15 26.89 17.33C26.44 17.51 26.045 17.765 25.705 18.095C25.375 18.425 25.115 18.815 24.925 19.265C24.745 19.715 24.655 20.21 24.655 20.75C24.655 21.29 24.745 21.785 24.925 22.235C25.115 22.685 25.375 23.075 25.705 23.405C26.045 23.735 26.44 23.99 26.89 24.17C27.35 24.35 27.855 24.44 28.405 24.44C28.955 24.44 29.465 24.34 29.935 24.14C30.405 23.93 30.83 23.615 31.21 23.195L32.47 24.395C31.98 24.965 31.38 25.4 30.67 25.7C29.96 26 29.17 26.15 28.3 26.15ZM37.3329 26.105C36.5129 26.105 35.7829 25.93 35.1429 25.58C34.5029 25.22 33.9979 24.73 33.6279 24.11C33.2579 23.49 33.0729 22.785 33.0729 21.995C33.0729 21.195 33.2579 20.49 33.6279 19.88C33.9979 19.26 34.5029 18.775 35.1429 18.425C35.7829 18.075 36.5129 17.9 37.3329 17.9C38.1629 17.9 38.8979 18.075 39.5379 18.425C40.1879 18.775 40.6929 19.255 41.0529 19.865C41.4229 20.475 41.6079 21.185 41.6079 21.995C41.6079 22.785 41.4229 23.49 41.0529 24.11C40.6929 24.73 40.1879 25.22 39.5379 25.58C38.8979 25.93 38.1629 26.105 37.3329 26.105ZM37.3329 24.5C37.7929 24.5 38.2029 24.4 38.5629 24.2C38.9229 24 39.2029 23.71 39.4029 23.33C39.6129 22.95 39.7179 22.505 39.7179 21.995C39.7179 21.475 39.6129 21.03 39.4029 20.66C39.2029 20.28 38.9229 19.99 38.5629 19.79C38.2029 19.59 37.7979 19.49 37.3479 19.49C36.8879 19.49 36.4779 19.59 36.1179 19.79C35.7679 19.99 35.4879 20.28 35.2779 20.66C35.0679 21.03 34.9629 21.475 34.9629 21.995C34.9629 22.505 35.0679 22.95 35.2779 23.33C35.4879 23.71 35.7679 24 36.1179 24.2C36.4779 24.4 36.8829 24.5 37.3329 24.5ZM42.0115 26L45.5365 21.41L45.5065 22.415L42.1465 17.99H44.2315L46.5865 21.14H45.7915L48.1615 17.99H50.1865L46.7965 22.415L46.8115 21.41L50.3215 26H48.2065L45.7315 22.655L46.5115 22.76L44.0815 26H42.0115ZM56.1033 26.105C55.4533 26.105 54.8583 25.955 54.3183 25.655C53.7883 25.355 53.3633 24.905 53.0433 24.305C52.7333 23.695 52.5783 22.925 52.5783 21.995C52.5783 21.055 52.7283 20.285 53.0283 19.685C53.3383 19.085 53.7583 18.64 54.2883 18.35C54.8183 18.05 55.4233 17.9 56.1033 17.9C56.8933 17.9 57.5883 18.07 58.1883 18.41C58.7983 18.75 59.2783 19.225 59.6283 19.835C59.9883 20.445 60.1683 21.165 60.1683 21.995C60.1683 22.825 59.9883 23.55 59.6283 24.17C59.2783 24.78 58.7983 25.255 58.1883 25.595C57.5883 25.935 56.8933 26.105 56.1033 26.105ZM51.6633 28.91V17.99H53.4483V19.88L53.3883 22.01L53.5383 24.14V28.91H51.6633ZM55.8933 24.5C56.3433 24.5 56.7433 24.4 57.0933 24.2C57.4533 24 57.7383 23.71 57.9483 23.33C58.1583 22.95 58.2633 22.505 58.2633 21.995C58.2633 21.475 58.1583 21.03 57.9483 20.66C57.7383 20.28 57.4533 19.99 57.0933 19.79C56.7433 19.59 56.3433 19.49 55.8933 19.49C55.4433 19.49 55.0383 19.59 54.6783 19.79C54.3183 19.99 54.0333 20.28 53.8233 20.66C53.6133 21.03 53.5083 21.475 53.5083 21.995C53.5083 22.505 53.6133 22.95 53.8233 23.33C54.0333 23.71 54.3183 24 54.6783 24.2C55.0383 24.4 55.4433 24.5 55.8933 24.5ZM66.7919 26V24.38L66.6869 24.035V21.2C66.6869 20.65 66.5219 20.225 66.1919 19.925C65.8619 19.615 65.3619 19.46 64.6919 19.46C64.2419 19.46 63.7969 19.53 63.3569 19.67C62.9269 19.81 62.5619 20.005 62.2619 20.255L61.5269 18.89C61.9569 18.56 62.4669 18.315 63.0569 18.155C63.6569 17.985 64.2769 17.9 64.9169 17.9C66.0769 17.9 66.9719 18.18 67.6019 18.74C68.2419 19.29 68.5619 20.145 68.5619 21.305V26H66.7919ZM64.2719 26.105C63.6719 26.105 63.1469 26.005 62.6969 25.805C62.2469 25.595 61.8969 25.31 61.6469 24.95C61.4069 24.58 61.2869 24.165 61.2869 23.705C61.2869 23.255 61.3919 22.85 61.6019 22.49C61.8219 22.13 62.1769 21.845 62.6669 21.635C63.1569 21.425 63.8069 21.32 64.6169 21.32H66.9419V22.565H64.7519C64.1119 22.565 63.6819 22.67 63.4619 22.88C63.2419 23.08 63.1319 23.33 63.1319 23.63C63.1319 23.97 63.2669 24.24 63.5369 24.44C63.8069 24.64 64.1819 24.74 64.6619 24.74C65.1219 24.74 65.5319 24.635 65.8919 24.425C66.2619 24.215 66.5269 23.905 66.6869 23.495L67.0019 24.62C66.8219 25.09 66.4969 25.455 66.0269 25.715C65.5669 25.975 64.9819 26.105 64.2719 26.105ZM70.8821 26V17.99H72.7571V21.245H76.7921V17.99H78.6671V26H76.7921V22.835H72.7571V26H70.8821ZM81.1799 26V17.99H83.0549V23.27L87.4799 17.99H89.1899V26H87.3149V20.72L82.9049 26H81.1799ZM93.3771 26V19.13L93.8121 19.58H90.5571V17.99H98.0571V19.58H94.8171L95.2521 19.13V26H93.3771ZM103.437 20.63C104.467 20.63 105.252 20.86 105.792 21.32C106.332 21.78 106.602 22.43 106.602 23.27C106.602 24.14 106.302 24.82 105.702 25.31C105.102 25.79 104.257 26.025 103.167 26.015L99.4172 26V17.99H101.292V20.615L103.437 20.63ZM103.002 24.635C103.552 24.645 103.972 24.53 104.262 24.29C104.552 24.05 104.697 23.7 104.697 23.24C104.697 22.78 104.552 22.45 104.262 22.25C103.982 22.04 103.562 21.93 103.002 21.92L101.292 21.905V24.62L103.002 24.635Z" fill="white"/>
<defs>
<linearGradient id="paint0_linear_57_1766" x1="0" y1="20" x2="130" y2="20" gradientUnits="userSpaceOnUse">
<stop stop-color="#9BEC8B"/>
<stop offset="1" stop-color="#24B8B1"/>
</linearGradient>
</defs>
</svg>
