<svg width="392" height="46" viewBox="0 0 392 46" fill="none" xmlns="http://www.w3.org/2000/svg">
<rect width="392" height="46" rx="8" fill="url(#paint0_linear_127_1249)"/>
<path d="M17.526 28V17.5H26.811V28H24.891V18.67L25.341 19.15H18.996L19.446 18.67V28H17.526ZM34.4218 28V26.38L34.3168 26.035V23.2C34.3168 22.65 34.1518 22.225 33.8218 21.925C33.4918 21.615 32.9918 21.46 32.3218 21.46C31.8718 21.46 31.4268 21.53 30.9868 21.67C30.5568 21.81 30.1918 22.005 29.8918 22.255L29.1568 20.89C29.5868 20.56 30.0968 20.315 30.6868 20.155C31.2868 19.985 31.9068 19.9 32.5468 19.9C33.7068 19.9 34.6018 20.18 35.2318 20.74C35.8718 21.29 36.1918 22.145 36.1918 23.305V28H34.4218ZM31.9018 28.105C31.3018 28.105 30.7768 28.005 30.3268 27.805C29.8768 27.595 29.5268 27.31 29.2768 26.95C29.0368 26.58 28.9168 26.165 28.9168 25.705C28.9168 25.255 29.0218 24.85 29.2318 24.49C29.4518 24.13 29.8068 23.845 30.2968 23.635C30.7868 23.425 31.4368 23.32 32.2468 23.32H34.5718V24.565H32.3818C31.7418 24.565 31.3118 24.67 31.0918 24.88C30.8718 25.08 30.7618 25.33 30.7618 25.63C30.7618 25.97 30.8968 26.24 31.1668 26.44C31.4368 26.64 31.8118 26.74 32.2918 26.74C32.7518 26.74 33.1618 26.635 33.5218 26.425C33.8918 26.215 34.1568 25.905 34.3168 25.495L34.6318 26.62C34.4518 27.09 34.1268 27.455 33.6568 27.715C33.1968 27.975 32.6118 28.105 31.9018 28.105ZM42.952 28.105C42.302 28.105 41.707 27.955 41.167 27.655C40.637 27.355 40.212 26.905 39.892 26.305C39.582 25.695 39.427 24.925 39.427 23.995C39.427 23.055 39.577 22.285 39.877 21.685C40.187 21.085 40.607 20.64 41.137 20.35C41.667 20.05 42.272 19.9 42.952 19.9C43.742 19.9 44.437 20.07 45.037 20.41C45.647 20.75 46.127 21.225 46.477 21.835C46.837 22.445 47.017 23.165 47.017 23.995C47.017 24.825 46.837 25.55 46.477 26.17C46.127 26.78 45.647 27.255 45.037 27.595C44.437 27.935 43.742 28.105 42.952 28.105ZM38.512 30.91V19.99H40.297V21.88L40.237 24.01L40.387 26.14V30.91H38.512ZM42.742 26.5C43.192 26.5 43.592 26.4 43.942 26.2C44.302 26 44.587 25.71 44.797 25.33C45.007 24.95 45.112 24.505 45.112 23.995C45.112 23.475 45.007 23.03 44.797 22.66C44.587 22.28 44.302 21.99 43.942 21.79C43.592 21.59 43.192 21.49 42.742 21.49C42.292 21.49 41.887 21.59 41.527 21.79C41.167 21.99 40.882 22.28 40.672 22.66C40.462 23.03 40.357 23.475 40.357 23.995C40.357 24.505 40.462 24.95 40.672 25.33C40.882 25.71 41.167 26 41.527 26.2C41.887 26.4 42.292 26.5 42.742 26.5ZM52.453 28.105C51.633 28.105 50.903 27.93 50.263 27.58C49.623 27.22 49.118 26.73 48.748 26.11C48.378 25.49 48.193 24.785 48.193 23.995C48.193 23.195 48.378 22.49 48.748 21.88C49.118 21.26 49.623 20.775 50.263 20.425C50.903 20.075 51.633 19.9 52.453 19.9C53.283 19.9 54.018 20.075 54.658 20.425C55.308 20.775 55.813 21.255 56.173 21.865C56.543 22.475 56.728 23.185 56.728 23.995C56.728 24.785 56.543 25.49 56.173 26.11C55.813 26.73 55.308 27.22 54.658 27.58C54.018 27.93 53.283 28.105 52.453 28.105ZM52.453 26.5C52.913 26.5 53.323 26.4 53.683 26.2C54.043 26 54.323 25.71 54.523 25.33C54.733 24.95 54.838 24.505 54.838 23.995C54.838 23.475 54.733 23.03 54.523 22.66C54.323 22.28 54.043 21.99 53.683 21.79C53.323 21.59 52.918 21.49 52.468 21.49C52.008 21.49 51.598 21.59 51.238 21.79C50.888 21.99 50.608 22.28 50.398 22.66C50.188 23.03 50.083 23.475 50.083 23.995C50.083 24.505 50.188 24.95 50.398 25.33C50.608 25.71 50.888 26 51.238 26.2C51.598 26.4 52.003 26.5 52.453 26.5ZM57.3224 27.985L57.4124 26.41C57.4824 26.42 57.5474 26.43 57.6074 26.44C57.6674 26.45 57.7224 26.455 57.7724 26.455C58.0824 26.455 58.3224 26.36 58.4924 26.17C58.6624 25.98 58.7874 25.725 58.8674 25.405C58.9574 25.075 59.0174 24.71 59.0474 24.31C59.0874 23.9 59.1174 23.49 59.1374 23.08L59.2724 19.99H65.7524V28H63.8774V21.07L64.3124 21.58H60.5024L60.9074 21.055L60.8024 23.17C60.7724 23.88 60.7124 24.54 60.6224 25.15C60.5424 25.75 60.4124 26.275 60.2324 26.725C60.0624 27.175 59.8224 27.525 59.5124 27.775C59.2124 28.025 58.8274 28.15 58.3574 28.15C58.2074 28.15 58.0424 28.135 57.8624 28.105C57.6924 28.075 57.5124 28.035 57.3224 27.985ZM72.2976 22.63C73.3276 22.63 74.1126 22.86 74.6526 23.32C75.1926 23.78 75.4626 24.43 75.4626 25.27C75.4626 26.14 75.1626 26.82 74.5626 27.31C73.9626 27.79 73.1176 28.025 72.0276 28.015L68.2776 28V19.99H70.1526V22.615L72.2976 22.63ZM71.8626 26.635C72.4126 26.645 72.8326 26.53 73.1226 26.29C73.4126 26.05 73.5576 25.7 73.5576 25.24C73.5576 24.78 73.4126 24.45 73.1226 24.25C72.8426 24.04 72.4226 23.93 71.8626 23.92L70.1526 23.905V26.62L71.8626 26.635Z" fill="white"/>
<path d="M299.245 28V17.5H301.165V24.955L306.805 17.5H308.62V28H306.7V20.56L301.06 28H299.245ZM313.889 28.135C313.279 28.135 312.674 28.065 312.074 27.925C311.484 27.775 310.949 27.565 310.469 27.295L310.994 25.9C311.384 26.12 311.824 26.29 312.314 26.41C312.804 26.53 313.294 26.59 313.784 26.59C314.204 26.59 314.564 26.55 314.864 26.47C315.164 26.38 315.394 26.25 315.554 26.08C315.724 25.91 315.809 25.715 315.809 25.495C315.809 25.175 315.669 24.935 315.389 24.775C315.119 24.605 314.729 24.52 314.219 24.52H312.674V23.26H314.069C314.389 23.26 314.659 23.225 314.879 23.155C315.109 23.085 315.284 22.98 315.404 22.84C315.524 22.7 315.584 22.535 315.584 22.345C315.584 22.155 315.509 21.99 315.359 21.85C315.219 21.7 315.014 21.59 314.744 21.52C314.474 21.44 314.149 21.4 313.769 21.4C313.369 21.4 312.954 21.45 312.524 21.55C312.104 21.65 311.674 21.795 311.234 21.985L310.754 20.605C311.264 20.375 311.759 20.2 312.239 20.08C312.729 19.95 313.214 19.88 313.694 19.87C314.424 19.84 315.074 19.915 315.644 20.095C316.214 20.275 316.664 20.535 316.994 20.875C317.324 21.215 317.489 21.615 317.489 22.075C317.489 22.455 317.369 22.8 317.129 23.11C316.899 23.41 316.579 23.645 316.169 23.815C315.769 23.985 315.309 24.07 314.789 24.07L314.849 23.665C315.739 23.665 316.439 23.845 316.949 24.205C317.459 24.555 317.714 25.035 317.714 25.645C317.714 26.135 317.549 26.57 317.219 26.95C316.889 27.32 316.434 27.61 315.854 27.82C315.284 28.03 314.629 28.135 313.889 28.135ZM319.645 28V19.99H321.61L324.835 25.675H324.055L327.445 19.99H329.2L329.215 28H327.52V22L327.82 22.195L324.82 27.16H324.01L320.995 22.06L321.355 21.97V28H319.645ZM335.465 28.105C334.575 28.105 333.795 27.93 333.125 27.58C332.465 27.22 331.95 26.73 331.58 26.11C331.22 25.49 331.04 24.785 331.04 23.995C331.04 23.195 331.215 22.49 331.565 21.88C331.925 21.26 332.415 20.775 333.035 20.425C333.665 20.075 334.38 19.9 335.18 19.9C335.96 19.9 336.655 20.07 337.265 20.41C337.875 20.75 338.355 21.23 338.705 21.85C339.055 22.47 339.23 23.2 339.23 24.04C339.23 24.12 339.225 24.21 339.215 24.31C339.215 24.41 339.21 24.505 339.2 24.595H332.525V23.35H338.21L337.475 23.74C337.485 23.28 337.39 22.875 337.19 22.525C336.99 22.175 336.715 21.9 336.365 21.7C336.025 21.5 335.63 21.4 335.18 21.4C334.72 21.4 334.315 21.5 333.965 21.7C333.625 21.9 333.355 22.18 333.155 22.54C332.965 22.89 332.87 23.305 332.87 23.785V24.085C332.87 24.565 332.98 24.99 333.2 25.36C333.42 25.73 333.73 26.015 334.13 26.215C334.53 26.415 334.99 26.515 335.51 26.515C335.96 26.515 336.365 26.445 336.725 26.305C337.085 26.165 337.405 25.945 337.685 25.645L338.69 26.8C338.33 27.22 337.875 27.545 337.325 27.775C336.785 27.995 336.165 28.105 335.465 28.105ZM341.281 28V19.99H343.156V23.245H347.191V19.99H349.066V28H347.191V24.835H343.156V28H341.281ZM351.578 28V19.99H353.453V25.27L357.878 19.99H359.588V28H357.713V22.72L353.303 28H351.578ZM363.776 28V21.13L364.211 21.58H360.956V19.99H368.456V21.58H365.216L365.651 21.13V28H363.776ZM373.836 22.63C374.866 22.63 375.651 22.86 376.191 23.32C376.731 23.78 377.001 24.43 377.001 25.27C377.001 26.14 376.701 26.82 376.101 27.31C375.501 27.79 374.656 28.025 373.566 28.015L369.816 28V19.99H371.691V22.615L373.836 22.63ZM373.401 26.635C373.951 26.645 374.371 26.53 374.661 26.29C374.951 26.05 375.096 25.7 375.096 25.24C375.096 24.78 374.951 24.45 374.661 24.25C374.381 24.04 373.961 23.93 373.401 23.92L371.691 23.905V26.62L373.401 26.635Z" fill="#63B3A5"/>
<defs>
<linearGradient id="paint0_linear_127_1249" x1="4.58352e-07" y1="22.3429" x2="422.782" y2="22.3428" gradientUnits="userSpaceOnUse">
<stop stop-color="#65B7A8"/>
<stop offset="0.614236" stop-color="#254046"/>
<stop offset="1" stop-color="#14222D"/>
</linearGradient>
</defs>
</svg>
