<svg width="242" height="28" viewBox="0 0 242 28" fill="none" xmlns="http://www.w3.org/2000/svg">
<path d="M221 23.5224V22.1147C221 16.6728 225.477 12.2612 231 12.2612C236.523 12.2612 241 16.6728 241 22.1147V23.5224" stroke="white" stroke-linecap="round" stroke-linejoin="round"/>
<path d="M230.999 12.2612C234.155 12.2612 236.714 9.7402 236.714 6.63058C236.714 3.52089 234.155 1 230.999 1C227.844 1 225.285 3.52089 225.285 6.63058C225.285 9.7402 227.844 12.2612 230.999 12.2612Z" stroke="white" stroke-linecap="round" stroke-linejoin="round"/>
<path d="M12.6 10H14.06V24H12.6V10ZM3.84 24H2.36V10H3.84V24ZM12.74 17.54H3.68V16.24H12.74V17.54ZM24.9658 24V21.68L24.9058 21.3V17.42C24.9058 16.5267 24.6524 15.84 24.1458 15.36C23.6524 14.88 22.9124 14.64 21.9258 14.64C21.2458 14.64 20.5991 14.7533 19.9858 14.98C19.3724 15.2067 18.8524 15.5067 18.4258 15.88L17.7858 14.82C18.3191 14.3667 18.9591 14.02 19.7058 13.78C20.4524 13.5267 21.2391 13.4 22.0658 13.4C23.4258 13.4 24.4724 13.74 25.2058 14.42C25.9524 15.0867 26.3258 16.1067 26.3258 17.48V24H24.9658ZM21.3458 24.1C20.5591 24.1 19.8724 23.9733 19.2858 23.72C18.7124 23.4533 18.2724 23.0933 17.9658 22.64C17.6591 22.1733 17.5058 21.64 17.5058 21.04C17.5058 20.4933 17.6324 20 17.8858 19.56C18.1524 19.1067 18.5791 18.7467 19.1658 18.48C19.7658 18.2 20.5658 18.06 21.5658 18.06H25.1858V19.12H21.6058C20.5924 19.12 19.8858 19.3 19.4858 19.66C19.0991 20.02 18.9058 20.4667 18.9058 21C18.9058 21.6 19.1391 22.08 19.6058 22.44C20.0724 22.8 20.7258 22.98 21.5658 22.98C22.3658 22.98 23.0524 22.8 23.6258 22.44C24.2124 22.0667 24.6391 21.5333 24.9058 20.84L25.2258 21.82C24.9591 22.5133 24.4924 23.0667 23.8258 23.48C23.1724 23.8933 22.3458 24.1 21.3458 24.1ZM34.5059 24.1C33.4659 24.1 32.5326 23.8733 31.7059 23.42C30.8926 22.9533 30.2526 22.32 29.7859 21.52C29.3193 20.7067 29.0859 19.78 29.0859 18.74C29.0859 17.6867 29.3193 16.76 29.7859 15.96C30.2526 15.16 30.8926 14.5333 31.7059 14.08C32.5326 13.6267 33.4659 13.4 34.5059 13.4C35.3993 13.4 36.2059 13.5733 36.9259 13.92C37.6459 14.2667 38.2126 14.7867 38.6259 15.48L37.5659 16.2C37.2059 15.6667 36.7593 15.2733 36.2259 15.02C35.6926 14.7667 35.1126 14.64 34.4859 14.64C33.7393 14.64 33.0659 14.8133 32.4659 15.16C31.8659 15.4933 31.3926 15.9667 31.0459 16.58C30.6993 17.1933 30.5259 17.9133 30.5259 18.74C30.5259 19.5667 30.6993 20.2867 31.0459 20.9C31.3926 21.5133 31.8659 21.9933 32.4659 22.34C33.0659 22.6733 33.7393 22.84 34.4859 22.84C35.1126 22.84 35.6926 22.7133 36.2259 22.46C36.7593 22.2067 37.2059 21.82 37.5659 21.3L38.6259 22.02C38.2126 22.7 37.6459 23.22 36.9259 23.58C36.2059 23.9267 35.3993 24.1 34.5059 24.1ZM43.1802 24V14.36L43.5402 14.74H39.2002V13.5H48.5802V14.74H44.2402L44.6002 14.36V24H43.1802ZM56.0533 24.1C55.1466 24.1 54.3266 23.8933 53.5933 23.48C52.8599 23.0533 52.2733 22.4467 51.8333 21.66C51.4066 20.86 51.1933 19.8867 51.1933 18.74C51.1933 17.5933 51.4066 16.6267 51.8333 15.84C52.2599 15.04 52.8399 14.4333 53.5733 14.02C54.3066 13.6067 55.1333 13.4 56.0533 13.4C57.0533 13.4 57.9466 13.6267 58.7333 14.08C59.5333 14.52 60.1599 15.1467 60.6133 15.96C61.0666 16.76 61.2933 17.6867 61.2933 18.74C61.2933 19.8067 61.0666 20.74 60.6133 21.54C60.1599 22.34 59.5333 22.9667 58.7333 23.42C57.9466 23.8733 57.0533 24.1 56.0533 24.1ZM50.6333 27.88V13.5H51.9933V16.66L51.8533 18.76L52.0533 20.88V27.88H50.6333ZM55.9533 22.84C56.6999 22.84 57.3666 22.6733 57.9533 22.34C58.5399 21.9933 59.0066 21.5133 59.3533 20.9C59.6999 20.2733 59.8733 19.5533 59.8733 18.74C59.8733 17.9267 59.6999 17.2133 59.3533 16.6C59.0066 15.9867 58.5399 15.5067 57.9533 15.16C57.3666 14.8133 56.6999 14.64 55.9533 14.64C55.2066 14.64 54.5333 14.8133 53.9333 15.16C53.3466 15.5067 52.8799 15.9867 52.5333 16.6C52.1999 17.2133 52.0333 17.9267 52.0333 18.74C52.0333 19.5533 52.1999 20.2733 52.5333 20.9C52.8799 21.5133 53.3466 21.9933 53.9333 22.34C54.5333 22.6733 55.2066 22.84 55.9533 22.84ZM68.6642 24.1C67.6509 24.1 66.7376 23.8733 65.9242 23.42C65.1242 22.9533 64.4909 22.32 64.0242 21.52C63.5576 20.7067 63.3242 19.78 63.3242 18.74C63.3242 17.6867 63.5576 16.76 64.0242 15.96C64.4909 15.16 65.1242 14.5333 65.9242 14.08C66.7242 13.6267 67.6376 13.4 68.6642 13.4C69.7042 13.4 70.6242 13.6267 71.4242 14.08C72.2376 14.5333 72.8709 15.16 73.3242 15.96C73.7909 16.76 74.0242 17.6867 74.0242 18.74C74.0242 19.78 73.7909 20.7067 73.3242 21.52C72.8709 22.32 72.2376 22.9533 71.4242 23.42C70.6109 23.8733 69.6909 24.1 68.6642 24.1ZM68.6642 22.84C69.4242 22.84 70.0976 22.6733 70.6842 22.34C71.2709 21.9933 71.7309 21.5133 72.0642 20.9C72.4109 20.2733 72.5842 19.5533 72.5842 18.74C72.5842 17.9133 72.4109 17.1933 72.0642 16.58C71.7309 15.9667 71.2709 15.4933 70.6842 15.16C70.0976 14.8133 69.4309 14.64 68.6842 14.64C67.9376 14.64 67.2709 14.8133 66.6842 15.16C66.0976 15.4933 65.6309 15.9667 65.2842 16.58C64.9376 17.1933 64.7642 17.9133 64.7642 18.74C64.7642 19.5533 64.9376 20.2733 65.2842 20.9C65.6309 21.5133 66.0976 21.9933 66.6842 22.34C67.2709 22.6733 67.9309 22.84 68.6642 22.84ZM77.0591 24V13.5H78.4791V21.84L85.4991 13.5H86.7591V24H85.3391V15.64L78.3391 24H77.0591ZM81.8191 11.98C80.9391 11.98 80.2257 11.76 79.6791 11.32C79.1457 10.8667 78.8657 10.22 78.8391 9.38H79.8591C79.8724 9.91333 80.0591 10.3333 80.4191 10.64C80.7791 10.9467 81.2457 11.1 81.8191 11.1C82.3924 11.1 82.8591 10.9467 83.2191 10.64C83.5924 10.3333 83.7857 9.91333 83.7991 9.38H84.8191C84.8057 10.22 84.5257 10.8667 83.9791 11.32C83.4324 11.76 82.7124 11.98 81.8191 11.98ZM98.5286 24L94.2086 18.8L95.3886 18.1L100.209 24H98.5286ZM90.8286 24V13.5H92.2486V24H90.8286ZM91.8086 19.32V18.1H95.1886V19.32H91.8086ZM95.5086 18.9L94.1886 18.7L98.3686 13.5H99.9086L95.5086 18.9ZM108.774 24V21.68L108.714 21.3V17.42C108.714 16.5267 108.461 15.84 107.954 15.36C107.461 14.88 106.721 14.64 105.734 14.64C105.054 14.64 104.408 14.7533 103.794 14.98C103.181 15.2067 102.661 15.5067 102.234 15.88L101.594 14.82C102.128 14.3667 102.768 14.02 103.514 13.78C104.261 13.5267 105.048 13.4 105.874 13.4C107.234 13.4 108.281 13.74 109.014 14.42C109.761 15.0867 110.134 16.1067 110.134 17.48V24H108.774ZM105.154 24.1C104.368 24.1 103.681 23.9733 103.094 23.72C102.521 23.4533 102.081 23.0933 101.774 22.64C101.468 22.1733 101.314 21.64 101.314 21.04C101.314 20.4933 101.441 20 101.694 19.56C101.961 19.1067 102.388 18.7467 102.974 18.48C103.574 18.2 104.374 18.06 105.374 18.06H108.994V19.12H105.414C104.401 19.12 103.694 19.3 103.294 19.66C102.908 20.02 102.714 20.4667 102.714 21C102.714 21.6 102.948 22.08 103.414 22.44C103.881 22.8 104.534 22.98 105.374 22.98C106.174 22.98 106.861 22.8 107.434 22.44C108.021 22.0667 108.448 21.5333 108.714 20.84L109.034 21.82C108.768 22.5133 108.301 23.0667 107.634 23.48C106.981 23.8933 106.154 24.1 105.154 24.1ZM119.149 24V13.5H128.589V24H127.169V14.36L127.529 14.74H120.209L120.569 14.36V24H119.149ZM138.045 24.1C137.139 24.1 136.319 23.8933 135.585 23.48C134.852 23.0533 134.265 22.4467 133.825 21.66C133.399 20.86 133.185 19.8867 133.185 18.74C133.185 17.5933 133.399 16.6267 133.825 15.84C134.252 15.04 134.832 14.4333 135.565 14.02C136.299 13.6067 137.125 13.4 138.045 13.4C139.045 13.4 139.939 13.6267 140.725 14.08C141.525 14.52 142.152 15.1467 142.605 15.96C143.059 16.76 143.285 17.6867 143.285 18.74C143.285 19.8067 143.059 20.74 142.605 21.54C142.152 22.34 141.525 22.9667 140.725 23.42C139.939 23.8733 139.045 24.1 138.045 24.1ZM132.625 27.88V13.5H133.985V16.66L133.845 18.76L134.045 20.88V27.88H132.625ZM137.945 22.84C138.692 22.84 139.359 22.6733 139.945 22.34C140.532 21.9933 140.999 21.5133 141.345 20.9C141.692 20.2733 141.865 19.5533 141.865 18.74C141.865 17.9267 141.692 17.2133 141.345 16.6C140.999 15.9867 140.532 15.5067 139.945 15.16C139.359 14.8133 138.692 14.64 137.945 14.64C137.199 14.64 136.525 14.8133 135.925 15.16C135.339 15.5067 134.872 15.9867 134.525 16.6C134.192 17.2133 134.025 17.9267 134.025 18.74C134.025 19.5533 134.192 20.2733 134.525 20.9C134.872 21.5133 135.339 21.9933 135.925 22.34C136.525 22.6733 137.199 22.84 137.945 22.84ZM150.656 24.1C149.643 24.1 148.73 23.8733 147.916 23.42C147.116 22.9533 146.483 22.32 146.016 21.52C145.55 20.7067 145.316 19.78 145.316 18.74C145.316 17.6867 145.55 16.76 146.016 15.96C146.483 15.16 147.116 14.5333 147.916 14.08C148.716 13.6267 149.63 13.4 150.656 13.4C151.696 13.4 152.616 13.6267 153.416 14.08C154.23 14.5333 154.863 15.16 155.316 15.96C155.783 16.76 156.016 17.6867 156.016 18.74C156.016 19.78 155.783 20.7067 155.316 21.52C154.863 22.32 154.23 22.9533 153.416 23.42C152.603 23.8733 151.683 24.1 150.656 24.1ZM150.656 22.84C151.416 22.84 152.09 22.6733 152.676 22.34C153.263 21.9933 153.723 21.5133 154.056 20.9C154.403 20.2733 154.576 19.5533 154.576 18.74C154.576 17.9133 154.403 17.1933 154.056 16.58C153.723 15.9667 153.263 15.4933 152.676 15.16C152.09 14.8133 151.423 14.64 150.676 14.64C149.93 14.64 149.263 14.8133 148.676 15.16C148.09 15.4933 147.623 15.9667 147.276 16.58C146.93 17.1933 146.756 17.9133 146.756 18.74C146.756 19.5533 146.93 20.2733 147.276 20.9C147.623 21.5133 148.09 21.9933 148.676 22.34C149.263 22.6733 149.923 22.84 150.656 22.84ZM164.951 24.12C164.951 24.12 164.925 24.12 164.871 24.12C164.818 24.12 164.765 24.12 164.711 24.12C164.671 24.12 164.638 24.12 164.611 24.12C162.531 24.1067 160.911 23.6333 159.751 22.7C158.591 21.7667 158.011 20.44 158.011 18.72C158.011 17.0267 158.591 15.72 159.751 14.8C160.925 13.8667 162.571 13.3933 164.691 13.38C164.705 13.38 164.731 13.38 164.771 13.38C164.825 13.38 164.871 13.38 164.911 13.38C164.951 13.38 164.978 13.38 164.991 13.38C167.125 13.3933 168.785 13.8667 169.971 14.8C171.158 15.72 171.751 17.0267 171.751 18.72C171.751 20.4533 171.151 21.7867 169.951 22.72C168.765 23.6533 167.098 24.12 164.951 24.12ZM164.931 22.88C166.118 22.88 167.111 22.72 167.911 22.4C168.711 22.0667 169.318 21.5933 169.731 20.98C170.145 20.3667 170.351 19.6133 170.351 18.72C170.351 17.8533 170.145 17.12 169.731 16.52C169.318 15.9067 168.711 15.44 167.911 15.12C167.111 14.8 166.118 14.64 164.931 14.64C164.918 14.64 164.878 14.64 164.811 14.64C164.758 14.64 164.725 14.64 164.711 14.64C163.551 14.64 162.578 14.8067 161.791 15.14C161.005 15.46 160.411 15.92 160.011 16.52C159.611 17.12 159.411 17.8533 159.411 18.72C159.411 19.6 159.611 20.3467 160.011 20.96C160.425 21.5733 161.025 22.0467 161.811 22.38C162.598 22.7 163.565 22.8667 164.711 22.88C164.738 22.88 164.778 22.88 164.831 22.88C164.885 22.88 164.918 22.88 164.931 22.88ZM164.171 27.88V9.16H165.551V27.88H164.171ZM174.754 24V13.5H176.174V21.84L183.194 13.5H184.454V24H183.034V15.64L176.034 24H174.754ZM186.604 23.98L186.704 22.76C186.797 22.7733 186.884 22.7933 186.964 22.82C187.057 22.8333 187.137 22.84 187.204 22.84C187.631 22.84 187.971 22.68 188.224 22.36C188.491 22.04 188.691 21.6133 188.824 21.08C188.957 20.5467 189.051 19.9467 189.104 19.28C189.157 18.6 189.204 17.92 189.244 17.24L189.424 13.5H197.124V24H195.704V14.32L196.064 14.74H190.344L190.684 14.3L190.524 17.34C190.484 18.2467 190.411 19.1133 190.304 19.94C190.211 20.7667 190.057 21.4933 189.844 22.12C189.644 22.7467 189.364 23.24 189.004 23.6C188.644 23.9467 188.184 24.12 187.624 24.12C187.464 24.12 187.297 24.1067 187.124 24.08C186.964 24.0533 186.791 24.02 186.604 23.98ZM207.941 24V20.22L208.201 20.52H204.641C203.294 20.52 202.241 20.2267 201.481 19.64C200.721 19.0533 200.341 18.2 200.341 17.08C200.341 15.88 200.747 14.9867 201.561 14.4C202.374 13.8 203.461 13.5 204.821 13.5H209.241V24H207.941ZM200.261 24L203.141 19.96H204.621L201.801 24H200.261ZM207.941 19.8V14.32L208.201 14.74H204.861C203.887 14.74 203.127 14.9267 202.581 15.3C202.047 15.6733 201.781 16.28 201.781 17.12C201.781 18.68 202.774 19.46 204.761 19.46H208.201L207.941 19.8Z" fill="white"/>
</svg>
