<svg width="392" height="46" viewBox="0 0 392 46" fill="none" xmlns="http://www.w3.org/2000/svg">
<rect width="392" height="46" rx="8" fill="url(#paint0_linear_127_1257)"/>
<path d="M22.341 28.15C21.541 28.15 20.796 28.02 20.106 27.76C19.426 27.49 18.831 27.115 18.321 26.635C17.821 26.145 17.431 25.57 17.151 24.91C16.871 24.25 16.731 23.53 16.731 22.75C16.731 21.97 16.871 21.25 17.151 20.59C17.431 19.93 17.826 19.36 18.336 18.88C18.846 18.39 19.441 18.015 20.121 17.755C20.801 17.485 21.546 17.35 22.356 17.35C23.216 17.35 24.001 17.5 24.711 17.8C25.421 18.09 26.021 18.525 26.511 19.105L25.251 20.29C24.871 19.88 24.446 19.575 23.976 19.375C23.506 19.165 22.996 19.06 22.446 19.06C21.896 19.06 21.391 19.15 20.931 19.33C20.481 19.51 20.086 19.765 19.746 20.095C19.416 20.425 19.156 20.815 18.966 21.265C18.786 21.715 18.696 22.21 18.696 22.75C18.696 23.29 18.786 23.785 18.966 24.235C19.156 24.685 19.416 25.075 19.746 25.405C20.086 25.735 20.481 25.99 20.931 26.17C21.391 26.35 21.896 26.44 22.446 26.44C22.996 26.44 23.506 26.34 23.976 26.14C24.446 25.93 24.871 25.615 25.251 25.195L26.511 26.395C26.021 26.965 25.421 27.4 24.711 27.7C24.001 28 23.211 28.15 22.341 28.15ZM31.3739 28.105C30.5539 28.105 29.8239 27.93 29.1839 27.58C28.5439 27.22 28.0389 26.73 27.6689 26.11C27.2989 25.49 27.1139 24.785 27.1139 23.995C27.1139 23.195 27.2989 22.49 27.6689 21.88C28.0389 21.26 28.5439 20.775 29.1839 20.425C29.8239 20.075 30.5539 19.9 31.3739 19.9C32.2039 19.9 32.9389 20.075 33.5789 20.425C34.2289 20.775 34.7339 21.255 35.0939 21.865C35.4639 22.475 35.6489 23.185 35.6489 23.995C35.6489 24.785 35.4639 25.49 35.0939 26.11C34.7339 26.73 34.2289 27.22 33.5789 27.58C32.9389 27.93 32.2039 28.105 31.3739 28.105ZM31.3739 26.5C31.8339 26.5 32.2439 26.4 32.6039 26.2C32.9639 26 33.2439 25.71 33.4439 25.33C33.6539 24.95 33.7589 24.505 33.7589 23.995C33.7589 23.475 33.6539 23.03 33.4439 22.66C33.2439 22.28 32.9639 21.99 32.6039 21.79C32.2439 21.59 31.8389 21.49 31.3889 21.49C30.9289 21.49 30.5189 21.59 30.1589 21.79C29.8089 21.99 29.5289 22.28 29.3189 22.66C29.1089 23.03 29.0039 23.475 29.0039 23.995C29.0039 24.505 29.1089 24.95 29.3189 25.33C29.5289 25.71 29.8089 26 30.1589 26.2C30.5189 26.4 30.9239 26.5 31.3739 26.5ZM37.5012 28V19.99H39.3762V26.41H43.2012V19.99H45.0762V28H37.5012ZM44.5362 29.785V27.955L44.9712 28H43.2012V26.41H46.2912V29.785H44.5362ZM47.9602 28V19.99H49.8352V25.27L54.2602 19.99H55.9702V28H54.0952V22.72L49.6852 28H47.9602ZM63.3524 28V26.38L63.2474 26.035V23.2C63.2474 22.65 63.0824 22.225 62.7524 21.925C62.4224 21.615 61.9224 21.46 61.2524 21.46C60.8024 21.46 60.3574 21.53 59.9174 21.67C59.4874 21.81 59.1224 22.005 58.8224 22.255L58.0874 20.89C58.5174 20.56 59.0274 20.315 59.6174 20.155C60.2174 19.985 60.8374 19.9 61.4774 19.9C62.6374 19.9 63.5324 20.18 64.1624 20.74C64.8024 21.29 65.1224 22.145 65.1224 23.305V28H63.3524ZM60.8324 28.105C60.2324 28.105 59.7074 28.005 59.2574 27.805C58.8074 27.595 58.4574 27.31 58.2074 26.95C57.9674 26.58 57.8474 26.165 57.8474 25.705C57.8474 25.255 57.9524 24.85 58.1624 24.49C58.3824 24.13 58.7374 23.845 59.2274 23.635C59.7174 23.425 60.3674 23.32 61.1774 23.32H63.5024V24.565H61.3124C60.6724 24.565 60.2424 24.67 60.0224 24.88C59.8024 25.08 59.6924 25.33 59.6924 25.63C59.6924 25.97 59.8274 26.24 60.0974 26.44C60.3674 26.64 60.7424 26.74 61.2224 26.74C61.6824 26.74 62.0924 26.635 62.4524 26.425C62.8224 26.215 63.0874 25.905 63.2474 25.495L63.5624 26.62C63.3824 27.09 63.0574 27.455 62.5874 27.715C62.1274 27.975 61.5424 28.105 60.8324 28.105ZM66.2726 27.985L66.3626 26.41C66.4326 26.42 66.4976 26.43 66.5576 26.44C66.6176 26.45 66.6726 26.455 66.7226 26.455C67.0326 26.455 67.2726 26.36 67.4426 26.17C67.6126 25.98 67.7376 25.725 67.8176 25.405C67.9076 25.075 67.9676 24.71 67.9976 24.31C68.0376 23.9 68.0676 23.49 68.0876 23.08L68.2226 19.99H74.7026V28H72.8276V21.07L73.2626 21.58H69.4526L69.8576 21.055L69.7526 23.17C69.7226 23.88 69.6626 24.54 69.5726 25.15C69.4926 25.75 69.3626 26.275 69.1826 26.725C69.0126 27.175 68.7726 27.525 68.4626 27.775C68.1626 28.025 67.7776 28.15 67.3076 28.15C67.1576 28.15 66.9926 28.135 66.8126 28.105C66.6426 28.075 66.4626 28.035 66.2726 27.985ZM81.2478 22.63C82.2778 22.63 83.0628 22.86 83.6028 23.32C84.1428 23.78 84.4128 24.43 84.4128 25.27C84.4128 26.14 84.1128 26.82 83.5128 27.31C82.9128 27.79 82.0678 28.025 80.9778 28.015L77.2278 28V19.99H79.1028V22.615L81.2478 22.63ZM80.8128 26.635C81.3628 26.645 81.7828 26.53 82.0728 26.29C82.3628 26.05 82.5078 25.7 82.5078 25.24C82.5078 24.78 82.3628 24.45 82.0728 24.25C81.7928 24.04 81.3728 23.93 80.8128 23.92L79.1028 23.905V26.62L80.8128 26.635ZM86.0608 28V19.99H87.9358V23.245H91.9708V19.99H93.8458V28H91.9708V24.835H87.9358V28H86.0608ZM104.444 28V19.99H106.319V28H104.444ZM100.259 22.63C101.289 22.63 102.069 22.86 102.599 23.32C103.139 23.78 103.409 24.43 103.409 25.27C103.409 26.14 103.109 26.82 102.509 27.31C101.919 27.79 101.079 28.025 99.9886 28.015L96.3586 28V19.99H98.2336V22.615L100.259 22.63ZM99.8236 26.635C100.374 26.645 100.794 26.53 101.084 26.29C101.374 26.05 101.519 25.7 101.519 25.24C101.519 24.78 101.374 24.45 101.084 24.25C100.804 24.04 100.384 23.93 99.8236 23.92L98.2336 23.905V26.62L99.8236 26.635ZM112.574 28.105C111.684 28.105 110.904 27.93 110.234 27.58C109.574 27.22 109.059 26.73 108.689 26.11C108.329 25.49 108.149 24.785 108.149 23.995C108.149 23.195 108.324 22.49 108.674 21.88C109.034 21.26 109.524 20.775 110.144 20.425C110.774 20.075 111.489 19.9 112.289 19.9C113.069 19.9 113.764 20.07 114.374 20.41C114.984 20.75 115.464 21.23 115.814 21.85C116.164 22.47 116.339 23.2 116.339 24.04C116.339 24.12 116.334 24.21 116.324 24.31C116.324 24.41 116.319 24.505 116.309 24.595H109.634V23.35H115.319L114.584 23.74C114.594 23.28 114.499 22.875 114.299 22.525C114.099 22.175 113.824 21.9 113.474 21.7C113.134 21.5 112.739 21.4 112.289 21.4C111.829 21.4 111.424 21.5 111.074 21.7C110.734 21.9 110.464 22.18 110.264 22.54C110.074 22.89 109.979 23.305 109.979 23.785V24.085C109.979 24.565 110.089 24.99 110.309 25.36C110.529 25.73 110.839 26.015 111.239 26.215C111.639 26.415 112.099 26.515 112.619 26.515C113.069 26.515 113.474 26.445 113.834 26.305C114.194 26.165 114.514 25.945 114.794 25.645L115.799 26.8C115.439 27.22 114.984 27.545 114.434 27.775C113.894 27.995 113.274 28.105 112.574 28.105ZM126.18 28.105C125.34 28.105 124.59 27.93 123.93 27.58C123.28 27.22 122.77 26.73 122.4 26.11C122.03 25.49 121.845 24.785 121.845 23.995C121.845 23.195 122.03 22.49 122.4 21.88C122.77 21.26 123.28 20.775 123.93 20.425C124.59 20.075 125.34 19.9 126.18 19.9C126.96 19.9 127.645 20.06 128.235 20.38C128.835 20.69 129.29 21.15 129.6 21.76L128.16 22.6C127.92 22.22 127.625 21.94 127.275 21.76C126.935 21.58 126.565 21.49 126.165 21.49C125.705 21.49 125.29 21.59 124.92 21.79C124.55 21.99 124.26 22.28 124.05 22.66C123.84 23.03 123.735 23.475 123.735 23.995C123.735 24.515 123.84 24.965 124.05 25.345C124.26 25.715 124.55 26 124.92 26.2C125.29 26.4 125.705 26.5 126.165 26.5C126.565 26.5 126.935 26.41 127.275 26.23C127.625 26.05 127.92 25.77 128.16 25.39L129.6 26.23C129.29 26.83 128.835 27.295 128.235 27.625C127.645 27.945 126.96 28.105 126.18 28.105ZM134.869 28.105C133.979 28.105 133.199 27.93 132.529 27.58C131.869 27.22 131.354 26.73 130.984 26.11C130.624 25.49 130.444 24.785 130.444 23.995C130.444 23.195 130.619 22.49 130.969 21.88C131.329 21.26 131.819 20.775 132.439 20.425C133.069 20.075 133.784 19.9 134.584 19.9C135.364 19.9 136.059 20.07 136.669 20.41C137.279 20.75 137.759 21.23 138.109 21.85C138.459 22.47 138.634 23.2 138.634 24.04C138.634 24.12 138.629 24.21 138.619 24.31C138.619 24.41 138.614 24.505 138.604 24.595H131.929V23.35H137.614L136.879 23.74C136.889 23.28 136.794 22.875 136.594 22.525C136.394 22.175 136.119 21.9 135.769 21.7C135.429 21.5 135.034 21.4 134.584 21.4C134.124 21.4 133.719 21.5 133.369 21.7C133.029 21.9 132.759 22.18 132.559 22.54C132.369 22.89 132.274 23.305 132.274 23.785V24.085C132.274 24.565 132.384 24.99 132.604 25.36C132.824 25.73 133.134 26.015 133.534 26.215C133.934 26.415 134.394 26.515 134.914 26.515C135.364 26.515 135.769 26.445 136.129 26.305C136.489 26.165 136.809 25.945 137.089 25.645L138.094 26.8C137.734 27.22 137.279 27.545 136.729 27.775C136.189 27.995 135.569 28.105 134.869 28.105ZM142.042 28V21.13L142.477 21.58H139.222V19.99H146.722V21.58H143.482L143.917 21.13V28H142.042ZM148.082 28V19.99H149.957V25.27L154.382 19.99H156.092V28H154.217V22.72L149.807 28H148.082Z" fill="white"/>
<path d="M313.661 27.16V19.74H309.825L309.755 21.476C309.727 22.1293 309.685 22.75 309.629 23.338C309.583 23.9167 309.503 24.444 309.391 24.92C309.289 25.396 309.144 25.7927 308.957 26.11C308.771 26.4273 308.542 26.6373 308.271 26.74L306.311 26.46C306.666 26.4787 306.955 26.3573 307.179 26.096C307.413 25.8347 307.595 25.4707 307.725 25.004C307.856 24.5373 307.954 23.9913 308.019 23.366C308.085 22.7313 308.131 22.0453 308.159 21.308L308.271 18.2H315.453V27.16H313.661ZM305.975 30.086L305.989 26.46H316.867V30.086H315.187V28H307.669V30.086H305.975ZM321.594 28.098C320.829 28.098 320.147 27.9347 319.55 27.608C318.953 27.272 318.481 26.8147 318.136 26.236C317.791 25.6573 317.618 24.9993 317.618 24.262C317.618 23.5153 317.791 22.8573 318.136 22.288C318.481 21.7093 318.953 21.2567 319.55 20.93C320.147 20.6033 320.829 20.44 321.594 20.44C322.369 20.44 323.055 20.6033 323.652 20.93C324.259 21.2567 324.73 21.7047 325.066 22.274C325.411 22.8433 325.584 23.506 325.584 24.262C325.584 24.9993 325.411 25.6573 325.066 26.236C324.73 26.8147 324.259 27.272 323.652 27.608C323.055 27.9347 322.369 28.098 321.594 28.098ZM321.594 26.6C322.023 26.6 322.406 26.5067 322.742 26.32C323.078 26.1333 323.339 25.8627 323.526 25.508C323.722 25.1533 323.82 24.738 323.82 24.262C323.82 23.7767 323.722 23.3613 323.526 23.016C323.339 22.6613 323.078 22.3907 322.742 22.204C322.406 22.0173 322.028 21.924 321.608 21.924C321.179 21.924 320.796 22.0173 320.46 22.204C320.133 22.3907 319.872 22.6613 319.676 23.016C319.48 23.3613 319.382 23.7767 319.382 24.262C319.382 24.738 319.48 25.1533 319.676 25.508C319.872 25.8627 320.133 26.1333 320.46 26.32C320.796 26.5067 321.174 26.6 321.594 26.6ZM330.883 28.14C330.267 28.14 329.716 28.0467 329.231 27.86C328.745 27.6733 328.325 27.3887 327.971 27.006C327.625 26.614 327.359 26.1193 327.173 25.522C326.986 24.9247 326.893 24.2153 326.893 23.394C326.893 22.7967 326.944 22.2507 327.047 21.756C327.149 21.2613 327.303 20.818 327.509 20.426C327.714 20.0247 327.971 19.67 328.279 19.362C328.596 19.054 328.965 18.7973 329.385 18.592C329.805 18.3867 330.281 18.228 330.813 18.116L334.285 17.374L334.537 18.942L331.387 19.586C331.209 19.6233 330.995 19.6793 330.743 19.754C330.5 19.8193 330.248 19.922 329.987 20.062C329.735 20.1927 329.497 20.384 329.273 20.636C329.058 20.8787 328.881 21.196 328.741 21.588C328.61 21.9707 328.545 22.4513 328.545 23.03C328.545 23.2073 328.549 23.3427 328.559 23.436C328.577 23.52 328.591 23.6133 328.601 23.716C328.619 23.8093 328.629 23.9493 328.629 24.136L327.971 23.45C328.157 22.974 328.414 22.568 328.741 22.232C329.077 21.8867 329.464 21.6253 329.903 21.448C330.351 21.2613 330.836 21.168 331.359 21.168C332.059 21.168 332.679 21.3127 333.221 21.602C333.762 21.8913 334.187 22.2973 334.495 22.82C334.803 23.3427 334.957 23.9353 334.957 24.598C334.957 25.2887 334.789 25.9 334.453 26.432C334.117 26.964 333.641 27.384 333.025 27.692C332.418 27.9907 331.704 28.14 330.883 28.14ZM331.023 26.726C331.443 26.726 331.811 26.6373 332.129 26.46C332.455 26.2733 332.707 26.0213 332.885 25.704C333.071 25.3867 333.165 25.032 333.165 24.64C333.165 24.248 333.071 23.9073 332.885 23.618C332.707 23.3193 332.455 23.0813 332.129 22.904C331.811 22.7267 331.433 22.638 330.995 22.638C330.575 22.638 330.197 22.722 329.861 22.89C329.534 23.058 329.277 23.2913 329.091 23.59C328.913 23.8793 328.825 24.2153 328.825 24.598C328.825 24.99 328.918 25.3493 329.105 25.676C329.291 26.0027 329.548 26.2593 329.875 26.446C330.211 26.6327 330.593 26.726 331.023 26.726ZM341.091 28V26.488L340.993 26.166V23.52C340.993 23.0067 340.839 22.61 340.531 22.33C340.223 22.0407 339.756 21.896 339.131 21.896C338.711 21.896 338.296 21.9613 337.885 22.092C337.484 22.2227 337.143 22.4047 336.863 22.638L336.177 21.364C336.578 21.056 337.054 20.8273 337.605 20.678C338.165 20.5193 338.744 20.44 339.341 20.44C340.424 20.44 341.259 20.7013 341.847 21.224C342.444 21.7373 342.743 22.5353 342.743 23.618V28H341.091ZM338.739 28.098C338.179 28.098 337.689 28.0047 337.269 27.818C336.849 27.622 336.522 27.356 336.289 27.02C336.065 26.6747 335.953 26.2873 335.953 25.858C335.953 25.438 336.051 25.06 336.247 24.724C336.452 24.388 336.784 24.122 337.241 23.926C337.698 23.73 338.305 23.632 339.061 23.632H341.231V24.794H339.187C338.59 24.794 338.188 24.892 337.983 25.088C337.778 25.2747 337.675 25.508 337.675 25.788C337.675 26.1053 337.801 26.3573 338.053 26.544C338.305 26.7307 338.655 26.824 339.103 26.824C339.532 26.824 339.915 26.726 340.251 26.53C340.596 26.334 340.844 26.0447 340.993 25.662L341.287 26.712C341.119 27.1507 340.816 27.4913 340.377 27.734C339.948 27.9767 339.402 28.098 338.739 28.098ZM344.908 28V20.524H348.562C349.468 20.524 350.177 20.692 350.69 21.028C351.213 21.364 351.474 21.84 351.474 22.456C351.474 23.0627 351.232 23.5387 350.746 23.884C350.261 24.22 349.617 24.388 348.814 24.388L349.024 23.954C349.93 23.954 350.602 24.122 351.04 24.458C351.488 24.7847 351.712 25.2653 351.712 25.9C351.712 26.5627 351.465 27.0807 350.97 27.454C350.476 27.818 349.724 28 348.716 28H344.908ZM346.574 26.726H348.576C349.052 26.726 349.412 26.6513 349.654 26.502C349.897 26.3433 350.018 26.1053 350.018 25.788C350.018 25.452 349.906 25.2047 349.682 25.046C349.458 24.8873 349.108 24.808 348.632 24.808H346.574V26.726ZM346.574 23.646H348.408C348.856 23.646 349.192 23.5667 349.416 23.408C349.65 23.24 349.766 23.0067 349.766 22.708C349.766 22.4 349.65 22.1713 349.416 22.022C349.192 21.8727 348.856 21.798 348.408 21.798H346.574V23.646ZM353.576 28V20.524H355.326V25.452L359.456 20.524H361.052V28H359.302V23.072L355.186 28H353.576ZM364.96 28V21.588L365.366 22.008H362.328V20.524H369.328V22.008H366.304L366.71 21.588V28H364.96ZM374.35 22.988C375.311 22.988 376.044 23.2027 376.548 23.632C377.052 24.0613 377.304 24.668 377.304 25.452C377.304 26.264 377.024 26.8987 376.464 27.356C375.904 27.804 375.115 28.0233 374.098 28.014L370.598 28V20.524H372.348V22.974L374.35 22.988ZM373.944 26.726C374.457 26.7353 374.849 26.628 375.12 26.404C375.391 26.18 375.526 25.8533 375.526 25.424C375.526 24.9947 375.391 24.6867 375.12 24.5C374.859 24.304 374.467 24.2013 373.944 24.192L372.348 24.178V26.712L373.944 26.726Z" fill="#63B3A5"/>
<defs>
<linearGradient id="paint0_linear_127_1257" x1="4.58352e-07" y1="22.3429" x2="422.782" y2="22.3428" gradientUnits="userSpaceOnUse">
<stop stop-color="#65B7A8"/>
<stop offset="0.614236" stop-color="#254046"/>
<stop offset="1" stop-color="#14222D"/>
</linearGradient>
</defs>
</svg>
