<svg width="392" height="46" viewBox="0 0 392 46" fill="none" xmlns="http://www.w3.org/2000/svg">
<rect width="392" height="46" rx="8" fill="url(#paint0_linear_127_1245)"/>
<path d="M19.251 21.865H24.471V23.47H19.251V21.865ZM19.401 26.365H25.326V28H17.451V17.5H25.116V19.135H19.401V26.365ZM37.4298 19.9C38.0698 19.9 38.6348 20.025 39.1248 20.275C39.6248 20.525 40.0148 20.91 40.2948 21.43C40.5748 21.94 40.7148 22.6 40.7148 23.41V28H38.8398V23.65C38.8398 22.94 38.6848 22.41 38.3748 22.06C38.0648 21.71 37.6198 21.535 37.0398 21.535C36.6298 21.535 36.2648 21.625 35.9448 21.805C35.6348 21.985 35.3898 22.25 35.2098 22.6C35.0398 22.95 34.9548 23.395 34.9548 23.935V28H33.0798V23.65C33.0798 22.94 32.9248 22.41 32.6148 22.06C32.3048 21.71 31.8598 21.535 31.2798 21.535C30.8698 21.535 30.5048 21.625 30.1848 21.805C29.8748 21.985 29.6298 22.25 29.4498 22.6C29.2798 22.95 29.1948 23.395 29.1948 23.935V28H27.3198V19.99H29.1048V22.12L28.7898 21.49C29.0598 20.97 29.4498 20.575 29.9598 20.305C30.4798 20.035 31.0698 19.9 31.7298 19.9C32.4798 19.9 33.1298 20.085 33.6798 20.455C34.2398 20.825 34.6098 21.385 34.7898 22.135L34.0548 21.88C34.3148 21.28 34.7448 20.8 35.3448 20.44C35.9448 20.08 36.6398 19.9 37.4298 19.9ZM48.0459 28V26.38L47.9409 26.035V23.2C47.9409 22.65 47.7759 22.225 47.4459 21.925C47.1159 21.615 46.6159 21.46 45.9459 21.46C45.4959 21.46 45.0509 21.53 44.6109 21.67C44.1809 21.81 43.8159 22.005 43.5159 22.255L42.7809 20.89C43.2109 20.56 43.7209 20.315 44.3109 20.155C44.9109 19.985 45.5309 19.9 46.1709 19.9C47.3309 19.9 48.2259 20.18 48.8559 20.74C49.4959 21.29 49.8159 22.145 49.8159 23.305V28H48.0459ZM45.5259 28.105C44.9259 28.105 44.4009 28.005 43.9509 27.805C43.5009 27.595 43.1509 27.31 42.9009 26.95C42.6609 26.58 42.5409 26.165 42.5409 25.705C42.5409 25.255 42.6459 24.85 42.8559 24.49C43.0759 24.13 43.4309 23.845 43.9209 23.635C44.4109 23.425 45.0609 23.32 45.8709 23.32H48.1959V24.565H46.0059C45.3659 24.565 44.9359 24.67 44.7159 24.88C44.4959 25.08 44.3859 25.33 44.3859 25.63C44.3859 25.97 44.5209 26.24 44.7909 26.44C45.0609 26.64 45.4359 26.74 45.9159 26.74C46.3759 26.74 46.7859 26.635 47.1459 26.425C47.5159 26.215 47.7809 25.905 47.9409 25.495L48.2559 26.62C48.0759 27.09 47.7509 27.455 47.2809 27.715C46.8209 27.975 46.2359 28.105 45.5259 28.105ZM52.2222 28V19.99H54.0972V28H52.2222ZM53.1672 18.67C52.8172 18.67 52.5272 18.56 52.2972 18.34C52.0772 18.12 51.9672 17.855 51.9672 17.545C51.9672 17.225 52.0772 16.96 52.2972 16.75C52.5272 16.53 52.8172 16.42 53.1672 16.42C53.5172 16.42 53.8022 16.525 54.0222 16.735C54.2522 16.935 54.3672 17.19 54.3672 17.5C54.3672 17.83 54.2572 18.11 54.0372 18.34C53.8172 18.56 53.5272 18.67 53.1672 18.67ZM56.5581 28V16.87H58.4331V28H56.5581Z" fill="white"/>
<path d="M299.245 28V17.5H301.165V24.955L306.805 17.5H308.62V28H306.7V20.56L301.06 28H299.245ZM313.889 28.135C313.279 28.135 312.674 28.065 312.074 27.925C311.484 27.775 310.949 27.565 310.469 27.295L310.994 25.9C311.384 26.12 311.824 26.29 312.314 26.41C312.804 26.53 313.294 26.59 313.784 26.59C314.204 26.59 314.564 26.55 314.864 26.47C315.164 26.38 315.394 26.25 315.554 26.08C315.724 25.91 315.809 25.715 315.809 25.495C315.809 25.175 315.669 24.935 315.389 24.775C315.119 24.605 314.729 24.52 314.219 24.52H312.674V23.26H314.069C314.389 23.26 314.659 23.225 314.879 23.155C315.109 23.085 315.284 22.98 315.404 22.84C315.524 22.7 315.584 22.535 315.584 22.345C315.584 22.155 315.509 21.99 315.359 21.85C315.219 21.7 315.014 21.59 314.744 21.52C314.474 21.44 314.149 21.4 313.769 21.4C313.369 21.4 312.954 21.45 312.524 21.55C312.104 21.65 311.674 21.795 311.234 21.985L310.754 20.605C311.264 20.375 311.759 20.2 312.239 20.08C312.729 19.95 313.214 19.88 313.694 19.87C314.424 19.84 315.074 19.915 315.644 20.095C316.214 20.275 316.664 20.535 316.994 20.875C317.324 21.215 317.489 21.615 317.489 22.075C317.489 22.455 317.369 22.8 317.129 23.11C316.899 23.41 316.579 23.645 316.169 23.815C315.769 23.985 315.309 24.07 314.789 24.07L314.849 23.665C315.739 23.665 316.439 23.845 316.949 24.205C317.459 24.555 317.714 25.035 317.714 25.645C317.714 26.135 317.549 26.57 317.219 26.95C316.889 27.32 316.434 27.61 315.854 27.82C315.284 28.03 314.629 28.135 313.889 28.135ZM319.645 28V19.99H321.61L324.835 25.675H324.055L327.445 19.99H329.2L329.215 28H327.52V22L327.82 22.195L324.82 27.16H324.01L320.995 22.06L321.355 21.97V28H319.645ZM335.465 28.105C334.575 28.105 333.795 27.93 333.125 27.58C332.465 27.22 331.95 26.73 331.58 26.11C331.22 25.49 331.04 24.785 331.04 23.995C331.04 23.195 331.215 22.49 331.565 21.88C331.925 21.26 332.415 20.775 333.035 20.425C333.665 20.075 334.38 19.9 335.18 19.9C335.96 19.9 336.655 20.07 337.265 20.41C337.875 20.75 338.355 21.23 338.705 21.85C339.055 22.47 339.23 23.2 339.23 24.04C339.23 24.12 339.225 24.21 339.215 24.31C339.215 24.41 339.21 24.505 339.2 24.595H332.525V23.35H338.21L337.475 23.74C337.485 23.28 337.39 22.875 337.19 22.525C336.99 22.175 336.715 21.9 336.365 21.7C336.025 21.5 335.63 21.4 335.18 21.4C334.72 21.4 334.315 21.5 333.965 21.7C333.625 21.9 333.355 22.18 333.155 22.54C332.965 22.89 332.87 23.305 332.87 23.785V24.085C332.87 24.565 332.98 24.99 333.2 25.36C333.42 25.73 333.73 26.015 334.13 26.215C334.53 26.415 334.99 26.515 335.51 26.515C335.96 26.515 336.365 26.445 336.725 26.305C337.085 26.165 337.405 25.945 337.685 25.645L338.69 26.8C338.33 27.22 337.875 27.545 337.325 27.775C336.785 27.995 336.165 28.105 335.465 28.105ZM341.281 28V19.99H343.156V23.245H347.191V19.99H349.066V28H347.191V24.835H343.156V28H341.281ZM351.578 28V19.99H353.453V25.27L357.878 19.99H359.588V28H357.713V22.72L353.303 28H351.578ZM363.776 28V21.13L364.211 21.58H360.956V19.99H368.456V21.58H365.216L365.651 21.13V28H363.776ZM373.836 22.63C374.866 22.63 375.651 22.86 376.191 23.32C376.731 23.78 377.001 24.43 377.001 25.27C377.001 26.14 376.701 26.82 376.101 27.31C375.501 27.79 374.656 28.025 373.566 28.015L369.816 28V19.99H371.691V22.615L373.836 22.63ZM373.401 26.635C373.951 26.645 374.371 26.53 374.661 26.29C374.951 26.05 375.096 25.7 375.096 25.24C375.096 24.78 374.951 24.45 374.661 24.25C374.381 24.04 373.961 23.93 373.401 23.92L371.691 23.905V26.62L373.401 26.635Z" fill="#65B5A7"/>
<defs>
<linearGradient id="paint0_linear_127_1245" x1="4.58352e-07" y1="22.3429" x2="422.782" y2="22.3428" gradientUnits="userSpaceOnUse">
<stop stop-color="#65B7A8"/>
<stop offset="0.614236" stop-color="#254046"/>
<stop offset="1" stop-color="#14222D"/>
</linearGradient>
</defs>
</svg>
