<svg width="392" height="46" viewBox="0 0 392 46" fill="none" xmlns="http://www.w3.org/2000/svg">
<rect width="392" height="46" rx="8" fill="url(#paint0_linear_127_1253)"/>
<path d="M226.961 28V18.2H228.753V25.158L234.017 18.2H235.711V28H233.919V21.056L228.655 28H226.961ZM240.629 28.126C240.06 28.126 239.495 28.0607 238.935 27.93C238.384 27.79 237.885 27.594 237.437 27.342L237.927 26.04C238.291 26.2453 238.702 26.404 239.159 26.516C239.616 26.628 240.074 26.684 240.531 26.684C240.923 26.684 241.259 26.6467 241.539 26.572C241.819 26.488 242.034 26.3667 242.183 26.208C242.342 26.0493 242.421 25.8673 242.421 25.662C242.421 25.3633 242.29 25.1393 242.029 24.99C241.777 24.8313 241.413 24.752 240.937 24.752H239.495V23.576H240.797C241.096 23.576 241.348 23.5433 241.553 23.478C241.768 23.4127 241.931 23.3147 242.043 23.184C242.155 23.0533 242.211 22.8993 242.211 22.722C242.211 22.5447 242.141 22.3907 242.001 22.26C241.87 22.12 241.679 22.0173 241.427 21.952C241.175 21.8773 240.872 21.84 240.517 21.84C240.144 21.84 239.756 21.8867 239.355 21.98C238.963 22.0733 238.562 22.2087 238.151 22.386L237.703 21.098C238.179 20.8833 238.641 20.72 239.089 20.608C239.546 20.4867 239.999 20.4213 240.447 20.412C241.128 20.384 241.735 20.454 242.267 20.622C242.799 20.79 243.219 21.0327 243.527 21.35C243.835 21.6673 243.989 22.0407 243.989 22.47C243.989 22.8247 243.877 23.1467 243.653 23.436C243.438 23.716 243.14 23.9353 242.757 24.094C242.384 24.2527 241.954 24.332 241.469 24.332L241.525 23.954C242.356 23.954 243.009 24.122 243.485 24.458C243.961 24.7847 244.199 25.2327 244.199 25.802C244.199 26.2593 244.045 26.6653 243.737 27.02C243.429 27.3653 243.004 27.636 242.463 27.832C241.931 28.028 241.32 28.126 240.629 28.126ZM246.001 28V20.524H247.835L250.845 25.83H250.117L253.281 20.524H254.919L254.933 28H253.351V22.4L253.631 22.582L250.831 27.216H250.075L247.261 22.456L247.597 22.372V28H246.001ZM260.766 28.098C259.936 28.098 259.208 27.9347 258.582 27.608C257.966 27.272 257.486 26.8147 257.14 26.236C256.804 25.6573 256.636 24.9993 256.636 24.262C256.636 23.5153 256.8 22.8573 257.126 22.288C257.462 21.7093 257.92 21.2567 258.498 20.93C259.086 20.6033 259.754 20.44 260.5 20.44C261.228 20.44 261.877 20.5987 262.446 20.916C263.016 21.2333 263.464 21.6813 263.79 22.26C264.117 22.8387 264.28 23.52 264.28 24.304C264.28 24.3787 264.276 24.4627 264.266 24.556C264.266 24.6493 264.262 24.738 264.252 24.822H258.022V23.66H263.328L262.642 24.024C262.652 23.5947 262.563 23.2167 262.376 22.89C262.19 22.5633 261.933 22.3067 261.606 22.12C261.289 21.9333 260.92 21.84 260.5 21.84C260.071 21.84 259.693 21.9333 259.366 22.12C259.049 22.3067 258.797 22.568 258.61 22.904C258.433 23.2307 258.344 23.618 258.344 24.066V24.346C258.344 24.794 258.447 25.1907 258.652 25.536C258.858 25.8813 259.147 26.1473 259.52 26.334C259.894 26.5207 260.323 26.614 260.808 26.614C261.228 26.614 261.606 26.5487 261.942 26.418C262.278 26.2873 262.577 26.082 262.838 25.802L263.776 26.88C263.44 27.272 263.016 27.5753 262.502 27.79C261.998 27.9953 261.42 28.098 260.766 28.098ZM266.195 28V20.524H267.945V23.562H271.711V20.524H273.461V28H271.711V25.046H267.945V28H266.195ZM275.806 28V20.524H277.556V25.452L281.686 20.524H283.282V28H281.532V23.072L277.416 28H275.806ZM287.19 28V21.588L287.596 22.008H284.558V20.524H291.558V22.008H288.534L288.94 21.588V28H287.19ZM296.579 22.988C297.541 22.988 298.273 23.2027 298.777 23.632C299.281 24.0613 299.533 24.668 299.533 25.452C299.533 26.264 299.253 26.8987 298.693 27.356C298.133 27.804 297.345 28.0233 296.327 28.014L292.827 28V20.524H294.577V22.974L296.579 22.988ZM296.173 26.726C296.687 26.7353 297.079 26.628 297.349 26.404C297.62 26.18 297.755 25.8533 297.755 25.424C297.755 24.9947 297.62 24.6867 297.349 24.5C297.088 24.304 296.696 24.2013 296.173 24.192L294.577 24.178V26.712L296.173 26.726ZM299.476 29.4L304.096 16.212H305.664L301.044 29.4H299.476ZM312.973 27.16V19.74H309.137L309.067 21.476C309.039 22.1293 308.997 22.75 308.941 23.338C308.894 23.9167 308.815 24.444 308.703 24.92C308.6 25.396 308.455 25.7927 308.269 26.11C308.082 26.4273 307.853 26.6373 307.583 26.74L305.623 26.46C305.977 26.4787 306.267 26.3573 306.491 26.096C306.724 25.8347 306.906 25.4707 307.037 25.004C307.167 24.5373 307.265 23.9913 307.331 23.366C307.396 22.7313 307.443 22.0453 307.471 21.308L307.583 18.2H314.765V27.16H312.973ZM305.287 30.086L305.301 26.46H316.179V30.086H314.499V28H306.981V30.086H305.287ZM320.905 28.098C320.14 28.098 319.459 27.9347 318.861 27.608C318.264 27.272 317.793 26.8147 317.447 26.236C317.102 25.6573 316.929 24.9993 316.929 24.262C316.929 23.5153 317.102 22.8573 317.447 22.288C317.793 21.7093 318.264 21.2567 318.861 20.93C319.459 20.6033 320.14 20.44 320.905 20.44C321.68 20.44 322.366 20.6033 322.963 20.93C323.57 21.2567 324.041 21.7047 324.377 22.274C324.723 22.8433 324.895 23.506 324.895 24.262C324.895 24.9993 324.723 25.6573 324.377 26.236C324.041 26.8147 323.57 27.272 322.963 27.608C322.366 27.9347 321.68 28.098 320.905 28.098ZM320.905 26.6C321.335 26.6 321.717 26.5067 322.053 26.32C322.389 26.1333 322.651 25.8627 322.837 25.508C323.033 25.1533 323.131 24.738 323.131 24.262C323.131 23.7767 323.033 23.3613 322.837 23.016C322.651 22.6613 322.389 22.3907 322.053 22.204C321.717 22.0173 321.339 21.924 320.919 21.924C320.49 21.924 320.107 22.0173 319.771 22.204C319.445 22.3907 319.183 22.6613 318.987 23.016C318.791 23.3613 318.693 23.7767 318.693 24.262C318.693 24.738 318.791 25.1533 318.987 25.508C319.183 25.8627 319.445 26.1333 319.771 26.32C320.107 26.5067 320.485 26.6 320.905 26.6ZM330.194 28.14C329.578 28.14 329.028 28.0467 328.542 27.86C328.057 27.6733 327.637 27.3887 327.282 27.006C326.937 26.614 326.671 26.1193 326.484 25.522C326.298 24.9247 326.204 24.2153 326.204 23.394C326.204 22.7967 326.256 22.2507 326.358 21.756C326.461 21.2613 326.615 20.818 326.82 20.426C327.026 20.0247 327.282 19.67 327.59 19.362C327.908 19.054 328.276 18.7973 328.696 18.592C329.116 18.3867 329.592 18.228 330.124 18.116L333.596 17.374L333.848 18.942L330.698 19.586C330.521 19.6233 330.306 19.6793 330.054 19.754C329.812 19.8193 329.56 19.922 329.298 20.062C329.046 20.1927 328.808 20.384 328.584 20.636C328.37 20.8787 328.192 21.196 328.052 21.588C327.922 21.9707 327.856 22.4513 327.856 23.03C327.856 23.2073 327.861 23.3427 327.87 23.436C327.889 23.52 327.903 23.6133 327.912 23.716C327.931 23.8093 327.94 23.9493 327.94 24.136L327.282 23.45C327.469 22.974 327.726 22.568 328.052 22.232C328.388 21.8867 328.776 21.6253 329.214 21.448C329.662 21.2613 330.148 21.168 330.67 21.168C331.37 21.168 331.991 21.3127 332.532 21.602C333.074 21.8913 333.498 22.2973 333.806 22.82C334.114 23.3427 334.268 23.9353 334.268 24.598C334.268 25.2887 334.1 25.9 333.764 26.432C333.428 26.964 332.952 27.384 332.336 27.692C331.73 27.9907 331.016 28.14 330.194 28.14ZM330.334 26.726C330.754 26.726 331.123 26.6373 331.44 26.46C331.767 26.2733 332.019 26.0213 332.196 25.704C332.383 25.3867 332.476 25.032 332.476 24.64C332.476 24.248 332.383 23.9073 332.196 23.618C332.019 23.3193 331.767 23.0813 331.44 22.904C331.123 22.7267 330.745 22.638 330.306 22.638C329.886 22.638 329.508 22.722 329.172 22.89C328.846 23.058 328.589 23.2913 328.402 23.59C328.225 23.8793 328.136 24.2153 328.136 24.598C328.136 24.99 328.23 25.3493 328.416 25.676C328.603 26.0027 328.86 26.2593 329.186 26.446C329.522 26.6327 329.905 26.726 330.334 26.726ZM340.402 28V26.488L340.304 26.166V23.52C340.304 23.0067 340.15 22.61 339.842 22.33C339.534 22.0407 339.068 21.896 338.442 21.896C338.022 21.896 337.607 21.9613 337.196 22.092C336.795 22.2227 336.454 22.4047 336.174 22.638L335.488 21.364C335.89 21.056 336.366 20.8273 336.916 20.678C337.476 20.5193 338.055 20.44 338.652 20.44C339.735 20.44 340.57 20.7013 341.158 21.224C341.756 21.7373 342.054 22.5353 342.054 23.618V28H340.402ZM338.05 28.098C337.49 28.098 337 28.0047 336.58 27.818C336.16 27.622 335.834 27.356 335.6 27.02C335.376 26.6747 335.264 26.2873 335.264 25.858C335.264 25.438 335.362 25.06 335.558 24.724C335.764 24.388 336.095 24.122 336.552 23.926C337.01 23.73 337.616 23.632 338.372 23.632H340.542V24.794H338.498C337.901 24.794 337.5 24.892 337.294 25.088C337.089 25.2747 336.986 25.508 336.986 25.788C336.986 26.1053 337.112 26.3573 337.364 26.544C337.616 26.7307 337.966 26.824 338.414 26.824C338.844 26.824 339.226 26.726 339.562 26.53C339.908 26.334 340.155 26.0447 340.304 25.662L340.598 26.712C340.43 27.1507 340.127 27.4913 339.688 27.734C339.259 27.9767 338.713 28.098 338.05 28.098ZM344.22 28V20.524H347.874C348.779 20.524 349.489 20.692 350.002 21.028C350.525 21.364 350.786 21.84 350.786 22.456C350.786 23.0627 350.543 23.5387 350.058 23.884C349.573 24.22 348.929 24.388 348.126 24.388L348.336 23.954C349.241 23.954 349.913 24.122 350.352 24.458C350.8 24.7847 351.024 25.2653 351.024 25.9C351.024 26.5627 350.777 27.0807 350.282 27.454C349.787 27.818 349.036 28 348.028 28H344.22ZM345.886 26.726H347.888C348.364 26.726 348.723 26.6513 348.966 26.502C349.209 26.3433 349.33 26.1053 349.33 25.788C349.33 25.452 349.218 25.2047 348.994 25.046C348.77 24.8873 348.42 24.808 347.944 24.808H345.886V26.726ZM345.886 23.646H347.72C348.168 23.646 348.504 23.5667 348.728 23.408C348.961 23.24 349.078 23.0067 349.078 22.708C349.078 22.4 348.961 22.1713 348.728 22.022C348.504 21.8727 348.168 21.798 347.72 21.798H345.886V23.646ZM352.888 28V20.524H354.638V25.452L358.768 20.524H360.364V28H358.614V23.072L354.498 28H352.888ZM364.272 28V21.588L364.678 22.008H361.64V20.524H368.64V22.008H365.616L366.022 21.588V28H364.272ZM373.661 22.988C374.623 22.988 375.355 23.2027 375.859 23.632C376.363 24.0613 376.615 24.668 376.615 25.452C376.615 26.264 376.335 26.8987 375.775 27.356C375.215 27.804 374.427 28.0233 373.409 28.014L369.909 28V20.524H371.659V22.974L373.661 22.988ZM373.255 26.726C373.769 26.7353 374.161 26.628 374.431 26.404C374.702 26.18 374.837 25.8533 374.837 25.424C374.837 24.9947 374.702 24.6867 374.431 24.5C374.17 24.304 373.778 24.2013 373.255 24.192L371.659 24.178V26.712L373.255 26.726Z" fill="#63B3A5"/>
<path d="M24.891 17.5H26.841V28H24.891V17.5ZM19.461 28H17.511V17.5H19.461V28ZM25.041 23.5H19.296V21.835H25.041V23.5ZM33.1464 28.105C32.3264 28.105 31.5964 27.93 30.9564 27.58C30.3164 27.22 29.8114 26.73 29.4414 26.11C29.0714 25.49 28.8864 24.785 28.8864 23.995C28.8864 23.195 29.0714 22.49 29.4414 21.88C29.8114 21.26 30.3164 20.775 30.9564 20.425C31.5964 20.075 32.3264 19.9 33.1464 19.9C33.9764 19.9 34.7114 20.075 35.3514 20.425C36.0014 20.775 36.5064 21.255 36.8664 21.865C37.2364 22.475 37.4214 23.185 37.4214 23.995C37.4214 24.785 37.2364 25.49 36.8664 26.11C36.5064 26.73 36.0014 27.22 35.3514 27.58C34.7114 27.93 33.9764 28.105 33.1464 28.105ZM33.1464 26.5C33.6064 26.5 34.0164 26.4 34.3764 26.2C34.7364 26 35.0164 25.71 35.2164 25.33C35.4264 24.95 35.5314 24.505 35.5314 23.995C35.5314 23.475 35.4264 23.03 35.2164 22.66C35.0164 22.28 34.7364 21.99 34.3764 21.79C34.0164 21.59 33.6114 21.49 33.1614 21.49C32.7014 21.49 32.2914 21.59 31.9314 21.79C31.5814 21.99 31.3014 22.28 31.0914 22.66C30.8814 23.03 30.7764 23.475 30.7764 23.995C30.7764 24.505 30.8814 24.95 31.0914 25.33C31.3014 25.71 31.5814 26 31.9314 26.2C32.2914 26.4 32.6964 26.5 33.1464 26.5ZM39.2737 28V19.99H41.2387L44.4637 25.675H43.6837L47.0737 19.99H48.8287L48.8437 28H47.1487V22L47.4487 22.195L44.4487 27.16H43.6387L40.6237 22.06L40.9837 21.97V28H39.2737ZM55.0936 28.105C54.2036 28.105 53.4236 27.93 52.7536 27.58C52.0936 27.22 51.5786 26.73 51.2086 26.11C50.8486 25.49 50.6686 24.785 50.6686 23.995C50.6686 23.195 50.8436 22.49 51.1936 21.88C51.5536 21.26 52.0436 20.775 52.6636 20.425C53.2936 20.075 54.0086 19.9 54.8086 19.9C55.5886 19.9 56.2836 20.07 56.8936 20.41C57.5036 20.75 57.9836 21.23 58.3336 21.85C58.6836 22.47 58.8586 23.2 58.8586 24.04C58.8586 24.12 58.8536 24.21 58.8436 24.31C58.8436 24.41 58.8386 24.505 58.8286 24.595H52.1536V23.35H57.8386L57.1036 23.74C57.1136 23.28 57.0186 22.875 56.8186 22.525C56.6186 22.175 56.3436 21.9 55.9936 21.7C55.6536 21.5 55.2586 21.4 54.8086 21.4C54.3486 21.4 53.9436 21.5 53.5936 21.7C53.2536 21.9 52.9836 22.18 52.7836 22.54C52.5936 22.89 52.4986 23.305 52.4986 23.785V24.085C52.4986 24.565 52.6086 24.99 52.8286 25.36C53.0486 25.73 53.3586 26.015 53.7586 26.215C54.1586 26.415 54.6186 26.515 55.1386 26.515C55.5886 26.515 55.9936 26.445 56.3536 26.305C56.7136 26.165 57.0336 25.945 57.3136 25.645L58.3186 26.8C57.9586 27.22 57.5036 27.545 56.9536 27.775C56.4136 27.995 55.7936 28.105 55.0936 28.105ZM65.3494 28.105C64.6994 28.105 64.1044 27.955 63.5644 27.655C63.0344 27.355 62.6094 26.905 62.2894 26.305C61.9794 25.695 61.8244 24.925 61.8244 23.995C61.8244 23.055 61.9744 22.285 62.2744 21.685C62.5844 21.085 63.0044 20.64 63.5344 20.35C64.0644 20.05 64.6694 19.9 65.3494 19.9C66.1394 19.9 66.8344 20.07 67.4344 20.41C68.0444 20.75 68.5244 21.225 68.8744 21.835C69.2344 22.445 69.4144 23.165 69.4144 23.995C69.4144 24.825 69.2344 25.55 68.8744 26.17C68.5244 26.78 68.0444 27.255 67.4344 27.595C66.8344 27.935 66.1394 28.105 65.3494 28.105ZM60.9094 30.91V19.99H62.6944V21.88L62.6344 24.01L62.7844 26.14V30.91H60.9094ZM65.1394 26.5C65.5894 26.5 65.9894 26.4 66.3394 26.2C66.6994 26 66.9844 25.71 67.1944 25.33C67.4044 24.95 67.5094 24.505 67.5094 23.995C67.5094 23.475 67.4044 23.03 67.1944 22.66C66.9844 22.28 66.6994 21.99 66.3394 21.79C65.9894 21.59 65.5894 21.49 65.1394 21.49C64.6894 21.49 64.2844 21.59 63.9244 21.79C63.5644 21.99 63.2794 22.28 63.0694 22.66C62.8594 23.03 62.7544 23.475 62.7544 23.995C62.7544 24.505 62.8594 24.95 63.0694 25.33C63.2794 25.71 63.5644 26 63.9244 26.2C64.2844 26.4 64.6894 26.5 65.1394 26.5ZM77.091 28V21.13L77.526 21.58H74.271V19.99H81.771V21.58H78.531L78.966 21.13V28H77.091ZM86.5145 28.105C85.6245 28.105 84.8445 27.93 84.1745 27.58C83.5145 27.22 82.9995 26.73 82.6295 26.11C82.2695 25.49 82.0895 24.785 82.0895 23.995C82.0895 23.195 82.2645 22.49 82.6145 21.88C82.9745 21.26 83.4645 20.775 84.0845 20.425C84.7145 20.075 85.4295 19.9 86.2295 19.9C87.0095 19.9 87.7045 20.07 88.3145 20.41C88.9245 20.75 89.4045 21.23 89.7545 21.85C90.1045 22.47 90.2795 23.2 90.2795 24.04C90.2795 24.12 90.2745 24.21 90.2645 24.31C90.2645 24.41 90.2595 24.505 90.2495 24.595H83.5745V23.35H89.2595L88.5245 23.74C88.5345 23.28 88.4395 22.875 88.2395 22.525C88.0395 22.175 87.7645 21.9 87.4145 21.7C87.0745 21.5 86.6795 21.4 86.2295 21.4C85.7695 21.4 85.3645 21.5 85.0145 21.7C84.6745 21.9 84.4045 22.18 84.2045 22.54C84.0145 22.89 83.9195 23.305 83.9195 23.785V24.085C83.9195 24.565 84.0295 24.99 84.2495 25.36C84.4695 25.73 84.7795 26.015 85.1795 26.215C85.5795 26.415 86.0395 26.515 86.5595 26.515C87.0095 26.515 87.4145 26.445 87.7745 26.305C88.1345 26.165 88.4545 25.945 88.7345 25.645L89.7395 26.8C89.3795 27.22 88.9245 27.545 88.3745 27.775C87.8345 27.995 87.2145 28.105 86.5145 28.105ZM91.0578 27.985L91.1478 26.41C91.2178 26.42 91.2828 26.43 91.3428 26.44C91.4028 26.45 91.4578 26.455 91.5078 26.455C91.8178 26.455 92.0578 26.36 92.2278 26.17C92.3978 25.98 92.5228 25.725 92.6028 25.405C92.6928 25.075 92.7528 24.71 92.7828 24.31C92.8228 23.9 92.8528 23.49 92.8728 23.08L93.0078 19.99H99.4878V28H97.6128V21.07L98.0478 21.58H94.2378L94.6428 21.055L94.5378 23.17C94.5078 23.88 94.4478 24.54 94.3578 25.15C94.2778 25.75 94.1478 26.275 93.9678 26.725C93.7978 27.175 93.5578 27.525 93.2478 27.775C92.9478 28.025 92.5628 28.15 92.0928 28.15C91.9428 28.15 91.7778 28.135 91.5978 28.105C91.4278 28.075 91.2478 28.035 91.0578 27.985ZM105.748 28.105C104.858 28.105 104.078 27.93 103.408 27.58C102.748 27.22 102.233 26.73 101.863 26.11C101.503 25.49 101.323 24.785 101.323 23.995C101.323 23.195 101.498 22.49 101.848 21.88C102.208 21.26 102.698 20.775 103.318 20.425C103.948 20.075 104.663 19.9 105.463 19.9C106.243 19.9 106.938 20.07 107.548 20.41C108.158 20.75 108.638 21.23 108.988 21.85C109.338 22.47 109.513 23.2 109.513 24.04C109.513 24.12 109.508 24.21 109.498 24.31C109.498 24.41 109.493 24.505 109.483 24.595H102.808V23.35H108.493L107.758 23.74C107.768 23.28 107.673 22.875 107.473 22.525C107.273 22.175 106.998 21.9 106.648 21.7C106.308 21.5 105.913 21.4 105.463 21.4C105.003 21.4 104.598 21.5 104.248 21.7C103.908 21.9 103.638 22.18 103.438 22.54C103.248 22.89 103.153 23.305 103.153 23.785V24.085C103.153 24.565 103.263 24.99 103.483 25.36C103.703 25.73 104.013 26.015 104.413 26.215C104.813 26.415 105.273 26.515 105.793 26.515C106.243 26.515 106.648 26.445 107.008 26.305C107.368 26.165 107.688 25.945 107.968 25.645L108.973 26.8C108.613 27.22 108.158 27.545 107.608 27.775C107.068 27.995 106.448 28.105 105.748 28.105ZM116.649 28.15C116.639 28.15 116.594 28.15 116.514 28.15C116.444 28.15 116.374 28.15 116.304 28.15C116.244 28.15 116.204 28.15 116.184 28.15C114.494 28.13 113.184 27.765 112.254 27.055C111.324 26.335 110.859 25.31 110.859 23.98C110.859 22.66 111.324 21.65 112.254 20.95C113.184 20.25 114.509 19.89 116.229 19.87C116.249 19.87 116.289 19.87 116.349 19.87C116.419 19.87 116.484 19.87 116.544 19.87C116.614 19.87 116.654 19.87 116.664 19.87C118.394 19.87 119.739 20.225 120.699 20.935C121.669 21.635 122.154 22.65 122.154 23.98C122.154 25.32 121.669 26.35 120.699 27.07C119.739 27.79 118.389 28.15 116.649 28.15ZM116.589 26.59C117.439 26.59 118.139 26.495 118.689 26.305C119.239 26.105 119.649 25.815 119.919 25.435C120.189 25.045 120.324 24.56 120.324 23.98C120.324 23.41 120.189 22.94 119.919 22.57C119.649 22.19 119.239 21.91 118.689 21.73C118.139 21.54 117.439 21.445 116.589 21.445C116.569 21.445 116.519 21.445 116.439 21.445C116.369 21.445 116.324 21.445 116.304 21.445C115.474 21.445 114.794 21.545 114.264 21.745C113.734 21.935 113.339 22.215 113.079 22.585C112.829 22.955 112.704 23.42 112.704 23.98C112.704 24.55 112.829 25.025 113.079 25.405C113.339 25.785 113.734 26.075 114.264 26.275C114.804 26.475 115.484 26.58 116.304 26.59C116.324 26.59 116.369 26.59 116.439 26.59C116.519 26.59 116.569 26.59 116.589 26.59ZM115.614 30.91V16.87H117.384V30.91H115.614ZM127.541 28.105C126.721 28.105 125.991 27.93 125.351 27.58C124.711 27.22 124.206 26.73 123.836 26.11C123.466 25.49 123.281 24.785 123.281 23.995C123.281 23.195 123.466 22.49 123.836 21.88C124.206 21.26 124.711 20.775 125.351 20.425C125.991 20.075 126.721 19.9 127.541 19.9C128.371 19.9 129.106 20.075 129.746 20.425C130.396 20.775 130.901 21.255 131.261 21.865C131.631 22.475 131.816 23.185 131.816 23.995C131.816 24.785 131.631 25.49 131.261 26.11C130.901 26.73 130.396 27.22 129.746 27.58C129.106 27.93 128.371 28.105 127.541 28.105ZM127.541 26.5C128.001 26.5 128.411 26.4 128.771 26.2C129.131 26 129.411 25.71 129.611 25.33C129.821 24.95 129.926 24.505 129.926 23.995C129.926 23.475 129.821 23.03 129.611 22.66C129.411 22.28 129.131 21.99 128.771 21.79C128.411 21.59 128.006 21.49 127.556 21.49C127.096 21.49 126.686 21.59 126.326 21.79C125.976 21.99 125.696 22.28 125.486 22.66C125.276 23.03 125.171 23.475 125.171 23.995C125.171 24.505 125.276 24.95 125.486 25.33C125.696 25.71 125.976 26 126.326 26.2C126.686 26.4 127.091 26.5 127.541 26.5ZM133.668 28V19.99H135.543V23.245H139.578V19.99H141.453V28H139.578V24.835H135.543V28H133.668ZM148.826 28V26.38L148.721 26.035V23.2C148.721 22.65 148.556 22.225 148.226 21.925C147.896 21.615 147.396 21.46 146.726 21.46C146.276 21.46 145.831 21.53 145.391 21.67C144.961 21.81 144.596 22.005 144.296 22.255L143.561 20.89C143.991 20.56 144.501 20.315 145.091 20.155C145.691 19.985 146.311 19.9 146.951 19.9C148.111 19.9 149.006 20.18 149.636 20.74C150.276 21.29 150.596 22.145 150.596 23.305V28H148.826ZM146.306 28.105C145.706 28.105 145.181 28.005 144.731 27.805C144.281 27.595 143.931 27.31 143.681 26.95C143.441 26.58 143.321 26.165 143.321 25.705C143.321 25.255 143.426 24.85 143.636 24.49C143.856 24.13 144.211 23.845 144.701 23.635C145.191 23.425 145.841 23.32 146.651 23.32H148.976V24.565H146.786C146.146 24.565 145.716 24.67 145.496 24.88C145.276 25.08 145.166 25.33 145.166 25.63C145.166 25.97 145.301 26.24 145.571 26.44C145.841 26.64 146.216 26.74 146.696 26.74C147.156 26.74 147.566 26.635 147.926 26.425C148.296 26.215 148.561 25.905 148.721 25.495L149.036 26.62C148.856 27.09 148.531 27.455 148.061 27.715C147.601 27.975 147.016 28.105 146.306 28.105Z" fill="white"/>
<defs>
<linearGradient id="paint0_linear_127_1253" x1="4.58352e-07" y1="22.3429" x2="422.782" y2="22.3428" gradientUnits="userSpaceOnUse">
<stop stop-color="#65B7A8"/>
<stop offset="0.614236" stop-color="#254046"/>
<stop offset="1" stop-color="#14222D"/>
</linearGradient>
</defs>
</svg>
