<svg width="392" height="46" viewBox="0 0 392 46" fill="none" xmlns="http://www.w3.org/2000/svg">
<rect width="392" height="46" rx="8" fill="url(#paint0_linear_127_1241)"/>
<path d="M15.5934 28V17.5H17.5134V24.955L23.1534 17.5H24.9684V28H23.0484V20.56L17.4084 28H15.5934ZM27.7024 28V19.99H29.6674L32.8924 25.675H32.1124L35.5024 19.99H37.2574L37.2724 28H35.5774V22L35.8774 22.195L32.8774 27.16H32.0674L29.0524 22.06L29.4124 21.97V28H27.7024ZM44.8723 28V25.27L45.1423 25.585H42.7423C41.6423 25.585 40.7773 25.355 40.1473 24.895C39.5273 24.425 39.2173 23.75 39.2173 22.87C39.2173 21.93 39.5473 21.215 40.2073 20.725C40.8773 20.235 41.7673 19.99 42.8773 19.99H46.5523V28H44.8723ZM39.1123 28L41.2723 24.94H43.1923L41.1223 28H39.1123ZM44.8723 24.67V21.07L45.1423 21.565H42.9373C42.3573 21.565 41.9073 21.675 41.5873 21.895C41.2773 22.105 41.1223 22.45 41.1223 22.93C41.1223 23.83 41.7073 24.28 42.8773 24.28H45.1423L44.8723 24.67Z" fill="white"/>
<path d="M298.76 29V18.5H300.68V25.955L306.32 18.5H308.135V29H306.215V21.56L300.575 29H298.76ZM313.404 29.135C312.794 29.135 312.189 29.065 311.589 28.925C310.999 28.775 310.464 28.565 309.984 28.295L310.509 26.9C310.899 27.12 311.339 27.29 311.829 27.41C312.319 27.53 312.809 27.59 313.299 27.59C313.719 27.59 314.079 27.55 314.379 27.47C314.679 27.38 314.909 27.25 315.069 27.08C315.239 26.91 315.324 26.715 315.324 26.495C315.324 26.175 315.184 25.935 314.904 25.775C314.634 25.605 314.244 25.52 313.734 25.52H312.189V24.26H313.584C313.904 24.26 314.174 24.225 314.394 24.155C314.624 24.085 314.799 23.98 314.919 23.84C315.039 23.7 315.099 23.535 315.099 23.345C315.099 23.155 315.024 22.99 314.874 22.85C314.734 22.7 314.529 22.59 314.259 22.52C313.989 22.44 313.664 22.4 313.284 22.4C312.884 22.4 312.469 22.45 312.039 22.55C311.619 22.65 311.189 22.795 310.749 22.985L310.269 21.605C310.779 21.375 311.274 21.2 311.754 21.08C312.244 20.95 312.729 20.88 313.209 20.87C313.939 20.84 314.589 20.915 315.159 21.095C315.729 21.275 316.179 21.535 316.509 21.875C316.839 22.215 317.004 22.615 317.004 23.075C317.004 23.455 316.884 23.8 316.644 24.11C316.414 24.41 316.094 24.645 315.684 24.815C315.284 24.985 314.824 25.07 314.304 25.07L314.364 24.665C315.254 24.665 315.954 24.845 316.464 25.205C316.974 25.555 317.229 26.035 317.229 26.645C317.229 27.135 317.064 27.57 316.734 27.95C316.404 28.32 315.949 28.61 315.369 28.82C314.799 29.03 314.144 29.135 313.404 29.135ZM319.16 29V20.99H321.125L324.35 26.675H323.57L326.96 20.99H328.715L328.73 29H327.035V23L327.335 23.195L324.335 28.16H323.525L320.51 23.06L320.87 22.97V29H319.16ZM334.98 29.105C334.09 29.105 333.31 28.93 332.64 28.58C331.98 28.22 331.465 27.73 331.095 27.11C330.735 26.49 330.555 25.785 330.555 24.995C330.555 24.195 330.73 23.49 331.08 22.88C331.44 22.26 331.93 21.775 332.55 21.425C333.18 21.075 333.895 20.9 334.695 20.9C335.475 20.9 336.17 21.07 336.78 21.41C337.39 21.75 337.87 22.23 338.22 22.85C338.57 23.47 338.745 24.2 338.745 25.04C338.745 25.12 338.74 25.21 338.73 25.31C338.73 25.41 338.725 25.505 338.715 25.595H332.04V24.35H337.725L336.99 24.74C337 24.28 336.905 23.875 336.705 23.525C336.505 23.175 336.23 22.9 335.88 22.7C335.54 22.5 335.145 22.4 334.695 22.4C334.235 22.4 333.83 22.5 333.48 22.7C333.14 22.9 332.87 23.18 332.67 23.54C332.48 23.89 332.385 24.305 332.385 24.785V25.085C332.385 25.565 332.495 25.99 332.715 26.36C332.935 26.73 333.245 27.015 333.645 27.215C334.045 27.415 334.505 27.515 335.025 27.515C335.475 27.515 335.88 27.445 336.24 27.305C336.6 27.165 336.92 26.945 337.2 26.645L338.205 27.8C337.845 28.22 337.39 28.545 336.84 28.775C336.3 28.995 335.68 29.105 334.98 29.105ZM340.796 29V20.99H342.671V24.245H346.706V20.99H348.581V29H346.706V25.835H342.671V29H340.796ZM351.094 29V20.99H352.969V26.27L357.394 20.99H359.104V29H357.229V23.72L352.819 29H351.094ZM363.291 29V22.13L363.726 22.58H360.471V20.99H367.971V22.58H364.731L365.166 22.13V29H363.291ZM373.351 23.63C374.381 23.63 375.166 23.86 375.706 24.32C376.246 24.78 376.516 25.43 376.516 26.27C376.516 27.14 376.216 27.82 375.616 28.31C375.016 28.79 374.171 29.025 373.081 29.015L369.331 29V20.99H371.206V23.615L373.351 23.63ZM372.916 27.635C373.466 27.645 373.886 27.53 374.176 27.29C374.466 27.05 374.611 26.7 374.611 26.24C374.611 25.78 374.466 25.45 374.176 25.25C373.896 25.04 373.476 24.93 372.916 24.92L371.206 24.905V27.62L372.916 27.635Z" fill="#63B3A5"/>
<defs>
<linearGradient id="paint0_linear_127_1241" x1="4.58352e-07" y1="22.3429" x2="422.782" y2="22.3428" gradientUnits="userSpaceOnUse">
<stop stop-color="#65B7A8"/>
<stop offset="0.614236" stop-color="#254046"/>
<stop offset="1" stop-color="#14222D"/>
</linearGradient>
</defs>
</svg>
