<svg width="107" height="12" viewBox="0 0 107 12" fill="none" xmlns="http://www.w3.org/2000/svg">
<path d="M0.98 11V0.499999H9.485V11H8.975V0.784999L9.155 0.965H1.31L1.49 0.784999V11H0.98ZM13.4458 11V0.499999H17.0908C17.9608 0.499999 18.7058 0.639999 19.3258 0.919999C19.9558 1.2 20.4358 1.6 20.7658 2.12C21.0958 2.63 21.2608 3.25 21.2608 3.98C21.2608 4.71 21.0958 5.335 20.7658 5.855C20.4358 6.375 19.9558 6.775 19.3258 7.055C18.7058 7.335 17.9608 7.475 17.0908 7.475H13.7308L13.9558 7.235V11H13.4458ZM13.9558 7.235L13.7308 7.01H17.1208C18.3008 7.01 19.2008 6.745 19.8208 6.215C20.4508 5.685 20.7658 4.94 20.7658 3.98C20.7658 3.02 20.4508 2.28 19.8208 1.76C19.2008 1.23 18.3008 0.965 17.1208 0.965H13.7308L13.9558 0.724999V7.235ZM28.4177 11.06C27.6477 11.06 26.9327 10.93 26.2727 10.67C25.6127 10.4 25.0377 10.025 24.5477 9.545C24.0577 9.065 23.6777 8.505 23.4077 7.865C23.1377 7.215 23.0027 6.51 23.0027 5.75C23.0027 4.99 23.1377 4.29 23.4077 3.65C23.6777 3 24.0577 2.435 24.5477 1.955C25.0377 1.475 25.6127 1.105 26.2727 0.844999C26.9327 0.574999 27.6477 0.439999 28.4177 0.439999C29.1977 0.439999 29.9177 0.574999 30.5777 0.844999C31.2377 1.105 31.8077 1.475 32.2877 1.955C32.7777 2.435 33.1577 3 33.4277 3.65C33.7077 4.29 33.8477 4.99 33.8477 5.75C33.8477 6.51 33.7077 7.215 33.4277 7.865C33.1577 8.505 32.7777 9.065 32.2877 9.545C31.8077 10.025 31.2377 10.4 30.5777 10.67C29.9177 10.93 29.1977 11.06 28.4177 11.06ZM28.4177 10.595C29.1177 10.595 29.7677 10.475 30.3677 10.235C30.9677 9.995 31.4877 9.655 31.9277 9.215C32.3777 8.775 32.7227 8.265 32.9627 7.685C33.2127 7.095 33.3377 6.45 33.3377 5.75C33.3377 5.05 33.2127 4.41 32.9627 3.83C32.7227 3.24 32.3777 2.725 31.9277 2.285C31.4877 1.845 30.9677 1.505 30.3677 1.265C29.7677 1.025 29.1177 0.904999 28.4177 0.904999C27.7277 0.904999 27.0827 1.025 26.4827 1.265C25.8827 1.505 25.3577 1.845 24.9077 2.285C24.4677 2.725 24.1227 3.24 23.8727 3.83C23.6327 4.41 23.5127 5.05 23.5127 5.75C23.5127 6.45 23.6327 7.095 23.8727 7.685C24.1227 8.265 24.4677 8.775 24.9077 9.215C25.3577 9.655 25.8827 9.995 26.4827 10.235C27.0827 10.475 27.7277 10.595 28.4177 10.595ZM36.8247 11V0.499999H45.3297V11H44.8197V0.784999L44.9997 0.965H37.1547L37.3347 0.784999V11H36.8247ZM48.8705 10.415C49.3505 10.615 49.8255 10.66 50.2955 10.55C50.7655 10.44 51.2155 10.05 51.6455 9.38L52.1555 8.585L52.2155 8.495L56.4605 0.499999H57.0005L52.1105 9.5C51.8105 10.04 51.4705 10.435 51.0905 10.685C50.7105 10.935 50.3155 11.06 49.9055 11.06C49.4955 11.07 49.0955 10.995 48.7055 10.835L48.8705 10.415ZM52.1855 9.005L47.7155 0.499999H48.2705L52.4555 8.525L52.1855 9.005ZM63.3835 11.06C62.6135 11.06 61.8985 10.93 61.2385 10.67C60.5785 10.4 60.0035 10.025 59.5135 9.545C59.0235 9.065 58.6435 8.505 58.3735 7.865C58.1035 7.215 57.9685 6.51 57.9685 5.75C57.9685 4.99 58.1035 4.29 58.3735 3.65C58.6435 3 59.0235 2.435 59.5135 1.955C60.0035 1.475 60.5785 1.105 61.2385 0.844999C61.8985 0.574999 62.6135 0.439999 63.3835 0.439999C64.0935 0.439999 64.7635 0.554999 65.3935 0.784999C66.0235 1.015 66.5685 1.365 67.0285 1.835L66.7135 2.165C66.2435 1.715 65.7285 1.395 65.1685 1.205C64.6185 1.005 64.0285 0.904999 63.3985 0.904999C62.6985 0.904999 62.0485 1.03 61.4485 1.28C60.8485 1.52 60.3235 1.86 59.8735 2.3C59.4335 2.74 59.0885 3.255 58.8385 3.845C58.5985 4.425 58.4785 5.06 58.4785 5.75C58.4785 6.44 58.5985 7.08 58.8385 7.67C59.0885 8.25 59.4335 8.76 59.8735 9.2C60.3235 9.64 60.8485 9.985 61.4485 10.235C62.0485 10.475 62.6985 10.595 63.3985 10.595C64.0285 10.595 64.6185 10.5 65.1685 10.31C65.7285 10.11 66.2435 9.78 66.7135 9.32L67.0285 9.65C66.5685 10.12 66.0235 10.475 65.3935 10.715C64.7635 10.945 64.0935 11.06 63.3835 11.06ZM71.5004 11V0.784999L71.6804 0.965H67.6604V0.499999H75.8504V0.965H71.8304L72.0104 0.784999V11H71.5004ZM77.9722 11V0.499999H78.4822V10.115L85.9672 0.499999H86.3872V11H85.8922V1.385L78.3922 11H77.9722ZM92.3598 11V0.784999L92.5398 0.965H88.5198V0.499999H96.7098V0.965H92.6898L92.8698 0.784999V11H92.3598ZM102.912 4.415C104.142 4.415 105.077 4.69 105.717 5.24C106.357 5.78 106.677 6.585 106.677 7.655C106.677 8.755 106.342 9.59 105.672 10.16C105.002 10.72 104.022 11 102.732 11H98.8316V0.499999H99.3416V4.415H102.912ZM102.777 10.565C103.897 10.565 104.742 10.325 105.312 9.845C105.882 9.355 106.167 8.63 106.167 7.67C106.167 6.72 105.887 6.015 105.327 5.555C104.767 5.085 103.917 4.85 102.777 4.85H99.3416V10.565H102.777Z" fill="white"/>
</svg>
