<svg width="315" height="16" viewBox="0 0 315 16" fill="none" xmlns="http://www.w3.org/2000/svg">
<path d="M0.56 10.656L0.992 9.808C1.48267 10.2347 2.032 10.5547 2.64 10.768C3.25867 10.9707 3.87733 11.0773 4.496 11.088C5.11467 11.088 5.68 10.9973 6.192 10.816C6.71467 10.6347 7.136 10.368 7.456 10.016C7.776 9.65333 7.936 9.216 7.936 8.704C7.936 8.05333 7.67467 7.552 7.152 7.2C6.64 6.848 5.92533 6.672 5.008 6.672H2.608V5.712H4.944C5.73333 5.712 6.34667 5.54667 6.784 5.216C7.232 4.87467 7.456 4.40533 7.456 3.808C7.456 3.38133 7.328 3.01867 7.072 2.72C6.82667 2.41067 6.48533 2.176 6.048 2.016C5.62133 1.84533 5.14133 1.75467 4.608 1.744C4.07467 1.72267 3.52 1.792 2.944 1.952C2.37867 2.10133 1.82933 2.34133 1.296 2.672L0.912 1.696C1.57333 1.30133 2.26133 1.02933 2.976 0.879999C3.69067 0.719999 4.384 0.666666 5.056 0.719999C5.728 0.773333 6.33067 0.927999 6.864 1.184C7.408 1.44 7.84 1.776 8.16 2.192C8.48 2.608 8.64 3.104 8.64 3.68C8.64 4.21333 8.50133 4.68267 8.224 5.088C7.95733 5.49333 7.57867 5.808 7.088 6.032C6.608 6.24533 6.03733 6.352 5.376 6.352L5.44 6C6.18667 6 6.832 6.11733 7.376 6.352C7.93067 6.58667 8.35733 6.92267 8.656 7.36C8.96533 7.78667 9.12 8.288 9.12 8.864C9.12 9.408 8.98133 9.89333 8.704 10.32C8.43733 10.736 8.064 11.088 7.584 11.376C7.11467 11.6533 6.58667 11.856 6 11.984C5.41333 12.1013 4.8 12.1333 4.16 12.08C3.52 12.0267 2.89067 11.888 2.272 11.664C1.65333 11.4293 1.08267 11.0933 0.56 10.656ZM17.0039 12V10.144L16.9559 9.84V6.736C16.9559 6.02133 16.7532 5.472 16.3479 5.088C15.9532 4.704 15.3612 4.512 14.5719 4.512C14.0279 4.512 13.5105 4.60267 13.0199 4.784C12.5292 4.96533 12.1132 5.20533 11.7719 5.504L11.2599 4.656C11.6865 4.29333 12.1985 4.016 12.7959 3.824C13.3932 3.62133 14.0225 3.52 14.6839 3.52C15.7719 3.52 16.6092 3.792 17.1959 4.336C17.7932 4.86933 18.0919 5.68533 18.0919 6.784V12H17.0039ZM14.1079 12.08C13.4785 12.08 12.9292 11.9787 12.4599 11.776C12.0012 11.5627 11.6492 11.2747 11.4039 10.912C11.1585 10.5387 11.0359 10.112 11.0359 9.632C11.0359 9.19467 11.1372 8.8 11.3399 8.448C11.5532 8.08533 11.8945 7.79733 12.3639 7.584C12.8439 7.36 13.4839 7.248 14.2839 7.248H17.1799V8.096H14.3159C13.5052 8.096 12.9399 8.24 12.6199 8.528C12.3105 8.816 12.1559 9.17333 12.1559 9.6C12.1559 10.08 12.3425 10.464 12.7159 10.752C13.0892 11.04 13.6119 11.184 14.2839 11.184C14.9239 11.184 15.4732 11.04 15.9319 10.752C16.4012 10.4533 16.7425 10.0267 16.9559 9.472L17.2119 10.256C16.9985 10.8107 16.6252 11.2533 16.0919 11.584C15.5692 11.9147 14.9079 12.08 14.1079 12.08ZM26.876 11.456V4.592H22.828L22.732 6.464C22.7107 7.02933 22.6733 7.584 22.62 8.128C22.5773 8.672 22.4973 9.17333 22.38 9.632C22.2733 10.08 22.1187 10.448 21.916 10.736C21.7133 11.0133 21.452 11.1733 21.132 11.216L19.996 11.008C20.3267 11.0187 20.5987 10.9013 20.812 10.656C21.0253 10.4 21.1907 10.0533 21.308 9.616C21.4253 9.17867 21.5107 8.68267 21.564 8.128C21.6173 7.56267 21.66 6.98667 21.692 6.4L21.804 3.6H28.012V11.456H26.876ZM19.644 14.032V11.008H29.324V14.032H28.252V12H20.716V14.032H19.644ZM36.7539 12V10.144L36.7059 9.84V6.736C36.7059 6.02133 36.5032 5.472 36.0979 5.088C35.7032 4.704 35.1112 4.512 34.3219 4.512C33.7779 4.512 33.2605 4.60267 32.7699 4.784C32.2792 4.96533 31.8632 5.20533 31.5219 5.504L31.0099 4.656C31.4365 4.29333 31.9485 4.016 32.5459 3.824C33.1432 3.62133 33.7725 3.52 34.4339 3.52C35.5219 3.52 36.3592 3.792 36.9459 4.336C37.5432 4.86933 37.8419 5.68533 37.8419 6.784V12H36.7539ZM33.8579 12.08C33.2285 12.08 32.6792 11.9787 32.2099 11.776C31.7512 11.5627 31.3992 11.2747 31.1539 10.912C30.9085 10.5387 30.7859 10.112 30.7859 9.632C30.7859 9.19467 30.8872 8.8 31.0899 8.448C31.3032 8.08533 31.6445 7.79733 32.1139 7.584C32.5939 7.36 33.2339 7.248 34.0339 7.248H36.9299V8.096H34.0659C33.2552 8.096 32.6899 8.24 32.3699 8.528C32.0605 8.816 31.9059 9.17333 31.9059 9.6C31.9059 10.08 32.0925 10.464 32.4659 10.752C32.8392 11.04 33.3619 11.184 34.0339 11.184C34.6739 11.184 35.2232 11.04 35.6819 10.752C36.1512 10.4533 36.4925 10.0267 36.7059 9.472L36.9619 10.256C36.7485 10.8107 36.3752 11.2533 35.8419 11.584C35.3192 11.9147 34.6579 12.08 33.8579 12.08ZM46.178 8.448C45.6873 8.66133 45.1913 8.832 44.69 8.96C44.1993 9.07733 43.7087 9.136 43.218 9.136C42.226 9.136 41.442 8.912 40.866 8.464C40.29 8.00533 40.002 7.30133 40.002 6.352V3.6H41.122V6.288C41.122 6.928 41.33 7.408 41.746 7.728C42.162 8.048 42.722 8.208 43.426 8.208C43.8527 8.208 44.3007 8.15467 44.77 8.048C45.2393 7.93067 45.714 7.76533 46.194 7.552L46.178 8.448ZM46.082 12V3.6H47.218V12H46.082ZM50.4441 12V3.6H51.5801V10.272L57.1961 3.6H58.2041V12H57.0681V5.312L51.4681 12H50.4441ZM65.6473 12V3.6H69.3593C70.3086 3.6 71.0553 3.78133 71.5993 4.144C72.1539 4.50667 72.4313 5.04 72.4313 5.744C72.4313 6.42667 72.1699 6.95467 71.6473 7.328C71.1246 7.69067 70.4366 7.872 69.5833 7.872L69.8073 7.536C70.8099 7.536 71.5459 7.72267 72.0153 8.096C72.4846 8.46933 72.7193 9.008 72.7193 9.712C72.7193 10.4373 72.4526 11.0027 71.9193 11.408C71.3966 11.8027 70.5806 12 69.4713 12H65.6473ZM66.7513 11.104H69.4233C70.1379 11.104 70.6766 10.992 71.0393 10.768C71.4126 10.5333 71.5993 10.16 71.5993 9.648C71.5993 9.136 71.4339 8.76267 71.1033 8.528C70.7726 8.29333 70.2499 8.176 69.5353 8.176H66.7513V11.104ZM66.7513 7.328H69.2793C69.9299 7.328 70.4259 7.20533 70.7673 6.96C71.1193 6.71467 71.2953 6.35733 71.2953 5.888C71.2953 5.41867 71.1193 5.06667 70.7673 4.832C70.4259 4.59733 69.9299 4.48 69.2793 4.48H66.7513V7.328ZM78.8376 12.08C78.027 12.08 77.2963 11.8987 76.6456 11.536C76.0056 11.1627 75.499 10.656 75.1256 10.016C74.7523 9.36533 74.5656 8.624 74.5656 7.792C74.5656 6.94933 74.7523 6.208 75.1256 5.568C75.499 4.928 76.0056 4.42667 76.6456 4.064C77.2856 3.70133 78.0163 3.52 78.8376 3.52C79.6696 3.52 80.4056 3.70133 81.0456 4.064C81.6963 4.42667 82.203 4.928 82.5656 5.568C82.939 6.208 83.1256 6.94933 83.1256 7.792C83.1256 8.624 82.939 9.36533 82.5656 10.016C82.203 10.656 81.6963 11.1627 81.0456 11.536C80.395 11.8987 79.659 12.08 78.8376 12.08ZM78.8376 11.072C79.4456 11.072 79.9843 10.9387 80.4536 10.672C80.923 10.3947 81.291 10.0107 81.5576 9.52C81.835 9.01867 81.9736 8.44267 81.9736 7.792C81.9736 7.13067 81.835 6.55467 81.5576 6.064C81.291 5.57333 80.923 5.19467 80.4536 4.928C79.9843 4.65067 79.451 4.512 78.8536 4.512C78.2563 4.512 77.723 4.65067 77.2536 4.928C76.7843 5.19467 76.411 5.57333 76.1336 6.064C75.8563 6.55467 75.7176 7.13067 75.7176 7.792C75.7176 8.44267 75.8563 9.01867 76.1336 9.52C76.411 10.0107 76.7843 10.3947 77.2536 10.672C77.723 10.9387 78.251 11.072 78.8376 11.072ZM85.5535 12V3.6H93.1055V12H91.9695V4.288L92.2575 4.592H86.4015L86.6895 4.288V12H85.5535ZM94.7988 11.984L94.8788 11.008C94.9534 11.0187 95.0228 11.0347 95.0868 11.056C95.1614 11.0667 95.2254 11.072 95.2788 11.072C95.6201 11.072 95.8921 10.944 96.0948 10.688C96.3081 10.432 96.4681 10.0907 96.5748 9.664C96.6814 9.23733 96.7561 8.75733 96.7988 8.224C96.8414 7.68 96.8788 7.136 96.9108 6.592L97.0548 3.6H103.215V12H102.079V4.256L102.367 4.592H97.7908L98.0628 4.24L97.9348 6.672C97.9028 7.39733 97.8441 8.09067 97.7588 8.752C97.6841 9.41333 97.5614 9.99467 97.3908 10.496C97.2308 10.9973 97.0068 11.392 96.7188 11.68C96.4308 11.9573 96.0628 12.096 95.6148 12.096C95.4868 12.096 95.3534 12.0853 95.2148 12.064C95.0868 12.0427 94.9481 12.016 94.7988 11.984ZM111.66 12V10.144L111.612 9.84V6.736C111.612 6.02133 111.409 5.472 111.004 5.088C110.609 4.704 110.017 4.512 109.228 4.512C108.684 4.512 108.167 4.60267 107.676 4.784C107.185 4.96533 106.769 5.20533 106.428 5.504L105.916 4.656C106.343 4.29333 106.855 4.016 107.452 3.824C108.049 3.62133 108.679 3.52 109.34 3.52C110.428 3.52 111.265 3.792 111.852 4.336C112.449 4.86933 112.748 5.68533 112.748 6.784V12H111.66ZM108.764 12.08C108.135 12.08 107.585 11.9787 107.116 11.776C106.657 11.5627 106.305 11.2747 106.06 10.912C105.815 10.5387 105.692 10.112 105.692 9.632C105.692 9.19467 105.793 8.8 105.996 8.448C106.209 8.08533 106.551 7.79733 107.02 7.584C107.5 7.36 108.14 7.248 108.94 7.248H111.836V8.096H108.972C108.161 8.096 107.596 8.24 107.276 8.528C106.967 8.816 106.812 9.17333 106.812 9.6C106.812 10.08 106.999 10.464 107.372 10.752C107.745 11.04 108.268 11.184 108.94 11.184C109.58 11.184 110.129 11.04 110.588 10.752C111.057 10.4533 111.399 10.0267 111.612 9.472L111.868 10.256C111.655 10.8107 111.281 11.2533 110.748 11.584C110.225 11.9147 109.564 12.08 108.764 12.08ZM121.292 11.008L121.036 11.312V3.6H122.172V11.312L121.868 11.008H126.556L126.252 11.312V3.6H127.388V12H115.772V3.6H116.908V11.312L116.62 11.008H121.292ZM127.612 13.84V11.696L127.9 12H126.188V11.008H128.684V13.84H127.612ZM134.216 12.08C133.341 12.08 132.573 11.8987 131.912 11.536C131.251 11.1627 130.733 10.656 130.36 10.016C129.987 9.36533 129.8 8.624 129.8 7.792C129.8 6.96 129.976 6.224 130.328 5.584C130.691 4.944 131.181 4.44267 131.8 4.08C132.429 3.70667 133.133 3.52 133.912 3.52C134.701 3.52 135.4 3.70133 136.008 4.064C136.627 4.416 137.112 4.91733 137.464 5.568C137.816 6.208 137.992 6.94933 137.992 7.792C137.992 7.84533 137.987 7.904 137.976 7.968C137.976 8.02133 137.976 8.08 137.976 8.144H130.664V7.296H137.368L136.92 7.632C136.92 7.024 136.787 6.48533 136.52 6.016C136.264 5.536 135.912 5.16267 135.464 4.896C135.016 4.62933 134.499 4.496 133.912 4.496C133.336 4.496 132.819 4.62933 132.36 4.896C131.901 5.16267 131.544 5.536 131.288 6.016C131.032 6.496 130.904 7.04533 130.904 7.664V7.84C130.904 8.48 131.043 9.04533 131.32 9.536C131.608 10.016 132.003 10.3947 132.504 10.672C133.016 10.9387 133.597 11.072 134.248 11.072C134.76 11.072 135.235 10.9813 135.672 10.8C136.12 10.6187 136.504 10.3413 136.824 9.968L137.464 10.704C137.091 11.152 136.621 11.4933 136.056 11.728C135.501 11.9627 134.888 12.08 134.216 12.08ZM140.507 12V3.6H141.643V7.312H146.939V3.6H148.075V12H146.939V8.288H141.643V12H140.507ZM151.304 12V3.6H152.44V10.272L158.056 3.6H159.064V12H157.928V5.312L152.328 12H151.304ZM167.743 12V8.976L167.951 9.216H165.103C164.026 9.216 163.183 8.98133 162.575 8.512C161.967 8.04267 161.663 7.36 161.663 6.464C161.663 5.504 161.988 4.78933 162.639 4.32C163.29 3.84 164.159 3.6 165.247 3.6H168.783V12H167.743ZM161.599 12L163.903 8.768H165.087L162.831 12H161.599ZM167.743 8.64V4.256L167.951 4.592H165.279C164.5 4.592 163.892 4.74133 163.455 5.04C163.028 5.33867 162.815 5.824 162.815 6.496C162.815 7.744 163.61 8.368 165.199 8.368H167.951L167.743 8.64ZM181.97 11.456V4.592H177.922L177.826 6.464C177.804 7.02933 177.767 7.584 177.714 8.128C177.671 8.672 177.591 9.17333 177.474 9.632C177.367 10.08 177.212 10.448 177.01 10.736C176.807 11.0133 176.546 11.1733 176.226 11.216L175.09 11.008C175.42 11.0187 175.692 10.9013 175.906 10.656C176.119 10.4 176.284 10.0533 176.402 9.616C176.519 9.17867 176.604 8.68267 176.658 8.128C176.711 7.56267 176.754 6.98667 176.786 6.4L176.898 3.6H183.106V11.456H181.97ZM174.738 14.032V11.008H184.418V14.032H183.346V12H175.81V14.032H174.738ZM191.848 12V10.144L191.8 9.84V6.736C191.8 6.02133 191.597 5.472 191.192 5.088C190.797 4.704 190.205 4.512 189.416 4.512C188.872 4.512 188.354 4.60267 187.864 4.784C187.373 4.96533 186.957 5.20533 186.616 5.504L186.104 4.656C186.53 4.29333 187.042 4.016 187.64 3.824C188.237 3.62133 188.866 3.52 189.528 3.52C190.616 3.52 191.453 3.792 192.04 4.336C192.637 4.86933 192.936 5.68533 192.936 6.784V12H191.848ZM188.952 12.08C188.322 12.08 187.773 11.9787 187.304 11.776C186.845 11.5627 186.493 11.2747 186.248 10.912C186.002 10.5387 185.88 10.112 185.88 9.632C185.88 9.19467 185.981 8.8 186.184 8.448C186.397 8.08533 186.738 7.79733 187.208 7.584C187.688 7.36 188.328 7.248 189.128 7.248H192.024V8.096H189.16C188.349 8.096 187.784 8.24 187.464 8.528C187.154 8.816 187 9.17333 187 9.6C187 10.08 187.186 10.464 187.56 10.752C187.933 11.04 188.456 11.184 189.128 11.184C189.768 11.184 190.317 11.04 190.776 10.752C191.245 10.4533 191.586 10.0267 191.8 9.472L192.056 10.256C191.842 10.8107 191.469 11.2533 190.936 11.584C190.413 11.9147 189.752 12.08 188.952 12.08ZM195.96 12V3.6H197.096V7.312H202.392V3.6H203.528V12H202.392V8.288H197.096V12H195.96ZM206.757 12V3.6H207.893V7.312H213.189V3.6H214.325V12H213.189V8.288H207.893V12H206.757ZM221.01 12.08C220.199 12.08 219.468 11.8987 218.818 11.536C218.178 11.1627 217.671 10.656 217.298 10.016C216.924 9.36533 216.738 8.624 216.738 7.792C216.738 6.94933 216.924 6.208 217.298 5.568C217.671 4.928 218.178 4.42667 218.818 4.064C219.458 3.70133 220.188 3.52 221.01 3.52C221.842 3.52 222.578 3.70133 223.218 4.064C223.868 4.42667 224.375 4.928 224.738 5.568C225.111 6.208 225.298 6.94933 225.298 7.792C225.298 8.624 225.111 9.36533 224.738 10.016C224.375 10.656 223.868 11.1627 223.218 11.536C222.567 11.8987 221.831 12.08 221.01 12.08ZM221.01 11.072C221.618 11.072 222.156 10.9387 222.626 10.672C223.095 10.3947 223.463 10.0107 223.73 9.52C224.007 9.01867 224.146 8.44267 224.146 7.792C224.146 7.13067 224.007 6.55467 223.73 6.064C223.463 5.57333 223.095 5.19467 222.626 4.928C222.156 4.65067 221.623 4.512 221.026 4.512C220.428 4.512 219.895 4.65067 219.426 4.928C218.956 5.19467 218.583 5.57333 218.306 6.064C218.028 6.55467 217.89 7.13067 217.89 7.792C217.89 8.44267 218.028 9.01867 218.306 9.52C218.583 10.0107 218.956 10.3947 219.426 10.672C219.895 10.9387 220.423 11.072 221.01 11.072ZM227.725 12V3.6H233.677V4.592H228.573L228.861 4.304V12H227.725ZM238.385 12.08C237.574 12.08 236.843 11.8987 236.193 11.536C235.553 11.1627 235.046 10.656 234.673 10.016C234.299 9.36533 234.113 8.624 234.113 7.792C234.113 6.94933 234.299 6.208 234.673 5.568C235.046 4.928 235.553 4.42667 236.193 4.064C236.833 3.70133 237.563 3.52 238.385 3.52C239.217 3.52 239.953 3.70133 240.593 4.064C241.243 4.42667 241.75 4.928 242.113 5.568C242.486 6.208 242.673 6.94933 242.673 7.792C242.673 8.624 242.486 9.36533 242.113 10.016C241.75 10.656 241.243 11.1627 240.593 11.536C239.942 11.8987 239.206 12.08 238.385 12.08ZM238.385 11.072C238.993 11.072 239.531 10.9387 240.001 10.672C240.47 10.3947 240.838 10.0107 241.105 9.52C241.382 9.01867 241.521 8.44267 241.521 7.792C241.521 7.13067 241.382 6.55467 241.105 6.064C240.838 5.57333 240.47 5.19467 240.001 4.928C239.531 4.65067 238.998 4.512 238.401 4.512C237.803 4.512 237.27 4.65067 236.801 4.928C236.331 5.19467 235.958 5.57333 235.681 6.064C235.403 6.55467 235.265 7.13067 235.265 7.792C235.265 8.44267 235.403 9.01867 235.681 9.52C235.958 10.0107 236.331 10.3947 236.801 10.672C237.27 10.9387 237.798 11.072 238.385 11.072ZM249.288 12V3.6H256.84V12H255.704V4.288L255.992 4.592H250.136L250.424 4.288V12H249.288ZM264.405 12.08C263.68 12.08 263.024 11.9147 262.437 11.584C261.85 11.2427 261.381 10.7573 261.029 10.128C260.688 9.488 260.517 8.70933 260.517 7.792C260.517 6.87467 260.688 6.10133 261.029 5.472C261.37 4.832 261.834 4.34667 262.421 4.016C263.008 3.68533 263.669 3.52 264.405 3.52C265.205 3.52 265.92 3.70133 266.549 4.064C267.189 4.416 267.69 4.91733 268.053 5.568C268.416 6.208 268.597 6.94933 268.597 7.792C268.597 8.64533 268.416 9.392 268.053 10.032C267.69 10.672 267.189 11.1733 266.549 11.536C265.92 11.8987 265.205 12.08 264.405 12.08ZM260.069 15.104V3.6H261.157V6.128L261.045 7.808L261.205 9.504V15.104H260.069ZM264.325 11.072C264.922 11.072 265.456 10.9387 265.925 10.672C266.394 10.3947 266.768 10.0107 267.045 9.52C267.322 9.01867 267.461 8.44267 267.461 7.792C267.461 7.14133 267.322 6.57067 267.045 6.08C266.768 5.58933 266.394 5.20533 265.925 4.928C265.456 4.65067 264.922 4.512 264.325 4.512C263.728 4.512 263.189 4.65067 262.709 4.928C262.24 5.20533 261.866 5.58933 261.589 6.08C261.322 6.57067 261.189 7.14133 261.189 7.792C261.189 8.44267 261.322 9.01867 261.589 9.52C261.866 10.0107 262.24 10.3947 262.709 10.672C263.189 10.9387 263.728 11.072 264.325 11.072ZM274.494 12.08C273.683 12.08 272.953 11.8987 272.302 11.536C271.662 11.1627 271.155 10.656 270.782 10.016C270.409 9.36533 270.222 8.624 270.222 7.792C270.222 6.94933 270.409 6.208 270.782 5.568C271.155 4.928 271.662 4.42667 272.302 4.064C272.942 3.70133 273.673 3.52 274.494 3.52C275.326 3.52 276.062 3.70133 276.702 4.064C277.353 4.42667 277.859 4.928 278.222 5.568C278.595 6.208 278.782 6.94933 278.782 7.792C278.782 8.624 278.595 9.36533 278.222 10.016C277.859 10.656 277.353 11.1627 276.702 11.536C276.051 11.8987 275.315 12.08 274.494 12.08ZM274.494 11.072C275.102 11.072 275.641 10.9387 276.11 10.672C276.579 10.3947 276.947 10.0107 277.214 9.52C277.491 9.01867 277.63 8.44267 277.63 7.792C277.63 7.13067 277.491 6.55467 277.214 6.064C276.947 5.57333 276.579 5.19467 276.11 4.928C275.641 4.65067 275.107 4.512 274.51 4.512C273.913 4.512 273.379 4.65067 272.91 4.928C272.441 5.19467 272.067 5.57333 271.79 6.064C271.513 6.55467 271.374 7.13067 271.374 7.792C271.374 8.44267 271.513 9.01867 271.79 9.52C272.067 10.0107 272.441 10.3947 272.91 10.672C273.379 10.9387 273.907 11.072 274.494 11.072ZM284.81 12.08C283.935 12.08 283.167 11.8987 282.506 11.536C281.844 11.1627 281.327 10.656 280.954 10.016C280.58 9.36533 280.394 8.624 280.394 7.792C280.394 6.96 280.57 6.224 280.922 5.584C281.284 4.944 281.775 4.44267 282.394 4.08C283.023 3.70667 283.727 3.52 284.506 3.52C285.295 3.52 285.994 3.70133 286.602 4.064C287.22 4.416 287.706 4.91733 288.058 5.568C288.41 6.208 288.586 6.94933 288.586 7.792C288.586 7.84533 288.58 7.904 288.57 7.968C288.57 8.02133 288.57 8.08 288.57 8.144H281.258V7.296H287.962L287.514 7.632C287.514 7.024 287.38 6.48533 287.114 6.016C286.858 5.536 286.506 5.16267 286.058 4.896C285.61 4.62933 285.092 4.496 284.506 4.496C283.93 4.496 283.412 4.62933 282.954 4.896C282.495 5.16267 282.138 5.536 281.882 6.016C281.626 6.496 281.498 7.04533 281.498 7.664V7.84C281.498 8.48 281.636 9.04533 281.914 9.536C282.202 10.016 282.596 10.3947 283.098 10.672C283.61 10.9387 284.191 11.072 284.842 11.072C285.354 11.072 285.828 10.9813 286.266 10.8C286.714 10.6187 287.098 10.3413 287.418 9.968L288.058 10.704C287.684 11.152 287.215 11.4933 286.65 11.728C286.095 11.9627 285.482 12.08 284.81 12.08ZM297.26 12L293.804 7.84L294.748 7.28L298.604 12H297.26ZM291.1 12V3.6H292.236V12H291.1ZM291.884 8.256V7.28H294.588V8.256H291.884ZM294.844 7.92L293.788 7.76L297.132 3.6H298.364L294.844 7.92ZM301.825 12V4.288L302.113 4.592H298.641V3.6H306.145V4.592H302.673L302.961 4.288V12H301.825ZM313.004 12V10.144L312.956 9.84V6.736C312.956 6.02133 312.753 5.472 312.348 5.088C311.953 4.704 311.361 4.512 310.572 4.512C310.028 4.512 309.511 4.60267 309.02 4.784C308.529 4.96533 308.113 5.20533 307.772 5.504L307.26 4.656C307.687 4.29333 308.199 4.016 308.796 3.824C309.393 3.62133 310.023 3.52 310.684 3.52C311.772 3.52 312.609 3.792 313.196 4.336C313.793 4.86933 314.092 5.68533 314.092 6.784V12H313.004ZM310.108 12.08C309.479 12.08 308.929 11.9787 308.46 11.776C308.001 11.5627 307.649 11.2747 307.404 10.912C307.159 10.5387 307.036 10.112 307.036 9.632C307.036 9.19467 307.137 8.8 307.34 8.448C307.553 8.08533 307.895 7.79733 308.364 7.584C308.844 7.36 309.484 7.248 310.284 7.248H313.18V8.096H310.316C309.505 8.096 308.94 8.24 308.62 8.528C308.311 8.816 308.156 9.17333 308.156 9.6C308.156 10.08 308.343 10.464 308.716 10.752C309.089 11.04 309.612 11.184 310.284 11.184C310.924 11.184 311.473 11.04 311.932 10.752C312.401 10.4533 312.743 10.0267 312.956 9.472L313.212 10.256C312.999 10.8107 312.625 11.2533 312.092 11.584C311.569 11.9147 310.908 12.08 310.108 12.08Z" fill="white"/>
</svg>
