<svg width="273" height="19" viewBox="0 0 273 19" fill="none" xmlns="http://www.w3.org/2000/svg">
<path d="M10.22 15L5.48 8.18L7.58 6.88L13.16 15H10.22ZM0.96 15V0.999999H3.52V15H0.96ZM2.74 9.1V6.86H7.46V9.1H2.74ZM7.82 8.3L5.44 7.98L10.22 0.999999H12.98L7.82 8.3ZM19.2681 15.14C18.1748 15.14 17.2015 14.9067 16.3481 14.44C15.4948 13.96 14.8215 13.3067 14.3281 12.48C13.8348 11.6533 13.5881 10.7133 13.5881 9.66C13.5881 8.59333 13.8348 7.65333 14.3281 6.84C14.8215 6.01333 15.4948 5.36667 16.3481 4.9C17.2015 4.43333 18.1748 4.2 19.2681 4.2C20.3748 4.2 21.3548 4.43333 22.2081 4.9C23.0748 5.36667 23.7481 6.00667 24.2281 6.82C24.7215 7.63333 24.9681 8.58 24.9681 9.66C24.9681 10.7133 24.7215 11.6533 24.2281 12.48C23.7481 13.3067 23.0748 13.96 22.2081 14.44C21.3548 14.9067 20.3748 15.14 19.2681 15.14ZM19.2681 13C19.8815 13 20.4281 12.8667 20.9081 12.6C21.3881 12.3333 21.7615 11.9467 22.0281 11.44C22.3081 10.9333 22.4481 10.34 22.4481 9.66C22.4481 8.96667 22.3081 8.37333 22.0281 7.88C21.7615 7.37333 21.3881 6.98667 20.9081 6.72C20.4281 6.45333 19.8881 6.32 19.2881 6.32C18.6748 6.32 18.1281 6.45333 17.6481 6.72C17.1815 6.98667 16.8081 7.37333 16.5281 7.88C16.2481 8.37333 16.1081 8.96667 16.1081 9.66C16.1081 10.34 16.2481 10.9333 16.5281 11.44C16.8081 11.9467 17.1815 12.3333 17.6481 12.6C18.1281 12.8667 18.6681 13 19.2681 13ZM27.4378 15V4.32H30.0578L34.3578 11.9H33.3178L37.8378 4.32H40.1778L40.1978 15H37.9378V7L38.3378 7.26L34.3378 13.88H33.2578L29.2378 7.08L29.7178 6.96V15H27.4378ZM50.3311 15.2C50.3178 15.2 50.2578 15.2 50.1511 15.2C50.0578 15.2 49.9644 15.2 49.8711 15.2C49.7911 15.2 49.7378 15.2 49.7111 15.2C47.4578 15.1733 45.7111 14.6867 44.4711 13.74C43.2311 12.78 42.6111 11.4133 42.6111 9.64C42.6111 7.88 43.2311 6.53333 44.4711 5.6C45.7111 4.66667 47.4778 4.18667 49.7711 4.16C49.7978 4.16 49.8511 4.16 49.9311 4.16C50.0244 4.16 50.1111 4.16 50.1911 4.16C50.2844 4.16 50.3378 4.16 50.3511 4.16C52.6578 4.16 54.4511 4.63333 55.7311 5.58C57.0244 6.51333 57.6711 7.86667 57.6711 9.64C57.6711 11.4267 57.0244 12.8 55.7311 13.76C54.4511 14.72 52.6511 15.2 50.3311 15.2ZM50.2511 13.12C51.3844 13.12 52.3178 12.9933 53.0511 12.74C53.7844 12.4733 54.3311 12.0867 54.6911 11.58C55.0511 11.06 55.2311 10.4133 55.2311 9.64C55.2311 8.88 55.0511 8.25333 54.6911 7.76C54.3311 7.25333 53.7844 6.88 53.0511 6.64C52.3178 6.38667 51.3844 6.26 50.2511 6.26C50.2244 6.26 50.1578 6.26 50.0511 6.26C49.9578 6.26 49.8978 6.26 49.8711 6.26C48.7644 6.26 47.8578 6.39333 47.1511 6.66C46.4444 6.91333 45.9178 7.28667 45.5711 7.78C45.2378 8.27333 45.0711 8.89333 45.0711 9.64C45.0711 10.4 45.2378 11.0333 45.5711 11.54C45.9178 12.0467 46.4444 12.4333 47.1511 12.7C47.8711 12.9667 48.7778 13.1067 49.8711 13.12C49.8978 13.12 49.9578 13.12 50.0511 13.12C50.1578 13.12 50.2244 13.12 50.2511 13.12ZM48.9511 18.88V0.159999H51.3111V18.88H48.9511ZM64.8541 15.14C63.7607 15.14 62.7874 14.9067 61.9341 14.44C61.0807 13.96 60.4074 13.3067 59.9141 12.48C59.4207 11.6533 59.1741 10.7133 59.1741 9.66C59.1741 8.59333 59.4207 7.65333 59.9141 6.84C60.4074 6.01333 61.0807 5.36667 61.9341 4.9C62.7874 4.43333 63.7607 4.2 64.8541 4.2C65.9607 4.2 66.9407 4.43333 67.7941 4.9C68.6607 5.36667 69.3341 6.00667 69.8141 6.82C70.3074 7.63333 70.5541 8.58 70.5541 9.66C70.5541 10.7133 70.3074 11.6533 69.8141 12.48C69.3341 13.3067 68.6607 13.96 67.7941 14.44C66.9407 14.9067 65.9607 15.14 64.8541 15.14ZM64.8541 13C65.4674 13 66.0141 12.8667 66.4941 12.6C66.9741 12.3333 67.3474 11.9467 67.6141 11.44C67.8941 10.9333 68.0341 10.34 68.0341 9.66C68.0341 8.96667 67.8941 8.37333 67.6141 7.88C67.3474 7.37333 66.9741 6.98667 66.4941 6.72C66.0141 6.45333 65.4741 6.32 64.8741 6.32C64.2607 6.32 63.7141 6.45333 63.2341 6.72C62.7674 6.98667 62.3941 7.37333 62.1141 7.88C61.8341 8.37333 61.6941 8.96667 61.6941 9.66C61.6941 10.34 61.8341 10.9333 62.1141 11.44C62.3941 11.9467 62.7674 12.3333 63.2341 12.6C63.7141 12.8667 64.2541 13 64.8541 13ZM78.9438 15.14C78.0771 15.14 77.2838 14.94 76.5638 14.54C75.8571 14.14 75.2904 13.54 74.8638 12.74C74.4504 11.9267 74.2438 10.9 74.2438 9.66C74.2438 8.40667 74.4438 7.38 74.8438 6.58C75.2571 5.78 75.8171 5.18667 76.5238 4.8C77.2304 4.4 78.0371 4.2 78.9438 4.2C79.9971 4.2 80.9238 4.42667 81.7238 4.88C82.5371 5.33333 83.1771 5.96667 83.6438 6.78C84.1238 7.59333 84.3638 8.55333 84.3638 9.66C84.3638 10.7667 84.1238 11.7333 83.6438 12.56C83.1771 13.3733 82.5371 14.0067 81.7238 14.46C80.9238 14.9133 79.9971 15.14 78.9438 15.14ZM73.0238 18.88V4.32H75.4038V6.84L75.3238 9.68L75.5238 12.52V18.88H73.0238ZM78.6638 13C79.2638 13 79.7971 12.8667 80.2638 12.6C80.7438 12.3333 81.1238 11.9467 81.4038 11.44C81.6838 10.9333 81.8238 10.34 81.8238 9.66C81.8238 8.96667 81.6838 8.37333 81.4038 7.88C81.1238 7.37333 80.7438 6.98667 80.2638 6.72C79.7971 6.45333 79.2638 6.32 78.6638 6.32C78.0638 6.32 77.5238 6.45333 77.0438 6.72C76.5638 6.98667 76.1838 7.37333 75.9038 7.88C75.6238 8.37333 75.4838 8.96667 75.4838 9.66C75.4838 10.34 75.6238 10.9333 75.9038 11.44C76.1838 11.9467 76.5638 12.3333 77.0438 12.6C77.5238 12.8667 78.0638 13 78.6638 13ZM88.6813 15V5.84L89.2613 6.44H84.9213V4.32H94.9213V6.44H90.6013L91.1813 5.84V15H88.6813ZM102.262 15V4.32H112.502V15H110.022V5.86L110.602 6.44H104.182L104.762 5.86V15H102.262ZM121.795 15.14C120.929 15.14 120.135 14.94 119.415 14.54C118.709 14.14 118.142 13.54 117.715 12.74C117.302 11.9267 117.095 10.9 117.095 9.66C117.095 8.40667 117.295 7.38 117.695 6.58C118.109 5.78 118.669 5.18667 119.375 4.8C120.082 4.4 120.889 4.2 121.795 4.2C122.849 4.2 123.775 4.42667 124.575 4.88C125.389 5.33333 126.029 5.96667 126.495 6.78C126.975 7.59333 127.215 8.55333 127.215 9.66C127.215 10.7667 126.975 11.7333 126.495 12.56C126.029 13.3733 125.389 14.0067 124.575 14.46C123.775 14.9133 122.849 15.14 121.795 15.14ZM115.875 18.88V4.32H118.255V6.84L118.175 9.68L118.375 12.52V18.88H115.875ZM121.515 13C122.115 13 122.649 12.8667 123.115 12.6C123.595 12.3333 123.975 11.9467 124.255 11.44C124.535 10.9333 124.675 10.34 124.675 9.66C124.675 8.96667 124.535 8.37333 124.255 7.88C123.975 7.37333 123.595 6.98667 123.115 6.72C122.649 6.45333 122.115 6.32 121.515 6.32C120.915 6.32 120.375 6.45333 119.895 6.72C119.415 6.98667 119.035 7.37333 118.755 7.88C118.475 8.37333 118.335 8.96667 118.335 9.66C118.335 10.34 118.475 10.9333 118.755 11.44C119.035 11.9467 119.415 12.3333 119.895 12.6C120.375 12.8667 120.915 13 121.515 13ZM129.703 15V4.32H132.203V11.36L138.103 4.32H140.383V15H137.883V7.96L132.003 15H129.703ZM149.274 15V4.32H154.494C155.787 4.32 156.8 4.56 157.534 5.04C158.28 5.52 158.654 6.2 158.654 7.08C158.654 7.94667 158.307 8.62667 157.614 9.12C156.92 9.6 156 9.84 154.854 9.84L155.154 9.22C156.447 9.22 157.407 9.46 158.034 9.94C158.674 10.4067 158.994 11.0933 158.994 12C158.994 12.9467 158.64 13.6867 157.934 14.22C157.227 14.74 156.154 15 154.714 15H149.274ZM151.654 13.18H154.514C155.194 13.18 155.707 13.0733 156.054 12.86C156.4 12.6333 156.574 12.2933 156.574 11.84C156.574 11.36 156.414 11.0067 156.094 10.78C155.774 10.5533 155.274 10.44 154.594 10.44H151.654V13.18ZM151.654 8.78H154.274C154.914 8.78 155.394 8.66667 155.714 8.44C156.047 8.2 156.214 7.86667 156.214 7.44C156.214 7 156.047 6.67333 155.714 6.46C155.394 6.24667 154.914 6.14 154.274 6.14H151.654V8.78ZM172.437 15V4.32H174.937V15H172.437ZM166.857 7.84C168.23 7.84 169.27 8.14667 169.977 8.76C170.697 9.37333 171.057 10.24 171.057 11.36C171.057 12.52 170.657 13.4267 169.857 14.08C169.07 14.72 167.95 15.0333 166.497 15.02L161.657 15V4.32H164.157V7.82L166.857 7.84ZM166.277 13.18C167.01 13.1933 167.57 13.04 167.957 12.72C168.343 12.4 168.537 11.9333 168.537 11.32C168.537 10.7067 168.343 10.2667 167.957 10C167.583 9.72 167.023 9.57333 166.277 9.56L164.157 9.54V13.16L166.277 13.18ZM185.477 12.88L184.937 13.48V4.32H187.437V13.48L186.837 12.88H192.117L191.537 13.48V4.32H194.037V15H178.297V4.32H180.797V13.48L180.217 12.88H185.477ZM202.379 15.14C201.192 15.14 200.152 14.9067 199.259 14.44C198.379 13.96 197.692 13.3067 197.199 12.48C196.719 11.6533 196.479 10.7133 196.479 9.66C196.479 8.59333 196.712 7.65333 197.179 6.84C197.659 6.01333 198.312 5.36667 199.139 4.9C199.979 4.43333 200.932 4.2 201.999 4.2C203.039 4.2 203.965 4.42667 204.779 4.88C205.592 5.33333 206.232 5.97333 206.699 6.8C207.165 7.62667 207.399 8.6 207.399 9.72C207.399 9.82667 207.392 9.94667 207.379 10.08C207.379 10.2133 207.372 10.34 207.359 10.46H198.459V8.8H206.039L205.059 9.32C205.072 8.70667 204.945 8.16667 204.679 7.7C204.412 7.23333 204.045 6.86667 203.579 6.6C203.125 6.33333 202.599 6.2 201.999 6.2C201.385 6.2 200.845 6.33333 200.379 6.6C199.925 6.86667 199.565 7.24 199.299 7.72C199.045 8.18667 198.919 8.74 198.919 9.38V9.78C198.919 10.42 199.065 10.9867 199.359 11.48C199.652 11.9733 200.065 12.3533 200.599 12.62C201.132 12.8867 201.745 13.02 202.439 13.02C203.039 13.02 203.579 12.9267 204.059 12.74C204.539 12.5533 204.965 12.26 205.339 11.86L206.679 13.4C206.199 13.96 205.592 14.3933 204.859 14.7C204.139 14.9933 203.312 15.14 202.379 15.14ZM215.66 15V4.32H220.88C222.174 4.32 223.187 4.56 223.92 5.04C224.667 5.52 225.04 6.2 225.04 7.08C225.04 7.94667 224.694 8.62667 224 9.12C223.307 9.6 222.387 9.84 221.24 9.84L221.54 9.22C222.834 9.22 223.794 9.46 224.42 9.94C225.06 10.4067 225.38 11.0933 225.38 12C225.38 12.9467 225.027 13.6867 224.32 14.22C223.614 14.74 222.54 15 221.1 15H215.66ZM218.04 13.18H220.9C221.58 13.18 222.094 13.0733 222.44 12.86C222.787 12.6333 222.96 12.2933 222.96 11.84C222.96 11.36 222.8 11.0067 222.48 10.78C222.16 10.5533 221.66 10.44 220.98 10.44H218.04V13.18ZM218.04 8.78H220.66C221.3 8.78 221.78 8.66667 222.1 8.44C222.434 8.2 222.6 7.86667 222.6 7.44C222.6 7 222.434 6.67333 222.1 6.46C221.78 6.24667 221.3 6.14 220.66 6.14H218.04V8.78ZM232.903 15.14C231.783 15.14 230.783 14.9067 229.903 14.44C229.037 13.96 228.357 13.3067 227.863 12.48C227.37 11.6533 227.123 10.7133 227.123 9.66C227.123 8.59333 227.37 7.65333 227.863 6.84C228.357 6.01333 229.037 5.36667 229.903 4.9C230.783 4.43333 231.783 4.2 232.903 4.2C233.943 4.2 234.857 4.41333 235.643 4.84C236.443 5.25333 237.05 5.86667 237.463 6.68L235.543 7.8C235.223 7.29333 234.83 6.92 234.363 6.68C233.91 6.44 233.417 6.32 232.883 6.32C232.27 6.32 231.717 6.45333 231.223 6.72C230.73 6.98667 230.343 7.37333 230.063 7.88C229.783 8.37333 229.643 8.96667 229.643 9.66C229.643 10.3533 229.783 10.9533 230.063 11.46C230.343 11.9533 230.73 12.3333 231.223 12.6C231.717 12.8667 232.27 13 232.883 13C233.417 13 233.91 12.88 234.363 12.64C234.83 12.4 235.223 12.0267 235.543 11.52L237.463 12.64C237.05 13.44 236.443 14.06 235.643 14.5C234.857 14.9267 233.943 15.14 232.903 15.14ZM244.488 15.14C243.301 15.14 242.261 14.9067 241.368 14.44C240.488 13.96 239.801 13.3067 239.308 12.48C238.828 11.6533 238.588 10.7133 238.588 9.66C238.588 8.59333 238.821 7.65333 239.288 6.84C239.768 6.01333 240.421 5.36667 241.248 4.9C242.088 4.43333 243.041 4.2 244.108 4.2C245.148 4.2 246.075 4.42667 246.888 4.88C247.701 5.33333 248.341 5.97333 248.808 6.8C249.275 7.62667 249.508 8.6 249.508 9.72C249.508 9.82667 249.501 9.94667 249.488 10.08C249.488 10.2133 249.481 10.34 249.468 10.46H240.568V8.8H248.148L247.168 9.32C247.181 8.70667 247.055 8.16667 246.788 7.7C246.521 7.23333 246.155 6.86667 245.688 6.6C245.235 6.33333 244.708 6.2 244.108 6.2C243.495 6.2 242.955 6.33333 242.488 6.6C242.035 6.86667 241.675 7.24 241.408 7.72C241.155 8.18667 241.028 8.74 241.028 9.38V9.78C241.028 10.42 241.175 10.9867 241.468 11.48C241.761 11.9733 242.175 12.3533 242.708 12.62C243.241 12.8867 243.855 13.02 244.548 13.02C245.148 13.02 245.688 12.9267 246.168 12.74C246.648 12.5533 247.075 12.26 247.448 11.86L248.788 13.4C248.308 13.96 247.701 14.3933 246.968 14.7C246.248 14.9933 245.421 15.14 244.488 15.14ZM252.243 15V4.32H260.443V6.44H254.163L254.743 5.88V15H252.243ZM266.553 15.14C265.46 15.14 264.487 14.9067 263.633 14.44C262.78 13.96 262.107 13.3067 261.613 12.48C261.12 11.6533 260.873 10.7133 260.873 9.66C260.873 8.59333 261.12 7.65333 261.613 6.84C262.107 6.01333 262.78 5.36667 263.633 4.9C264.487 4.43333 265.46 4.2 266.553 4.2C267.66 4.2 268.64 4.43333 269.493 4.9C270.36 5.36667 271.033 6.00667 271.513 6.82C272.007 7.63333 272.253 8.58 272.253 9.66C272.253 10.7133 272.007 11.6533 271.513 12.48C271.033 13.3067 270.36 13.96 269.493 14.44C268.64 14.9067 267.66 15.14 266.553 15.14ZM266.553 13C267.167 13 267.713 12.8667 268.193 12.6C268.673 12.3333 269.047 11.9467 269.313 11.44C269.593 10.9333 269.733 10.34 269.733 9.66C269.733 8.96667 269.593 8.37333 269.313 7.88C269.047 7.37333 268.673 6.98667 268.193 6.72C267.713 6.45333 267.173 6.32 266.573 6.32C265.96 6.32 265.413 6.45333 264.933 6.72C264.467 6.98667 264.093 7.37333 263.813 7.88C263.533 8.37333 263.393 8.96667 263.393 9.66C263.393 10.34 263.533 10.9333 263.813 11.44C264.093 11.9467 264.467 12.3333 264.933 12.6C265.413 12.8667 265.953 13 266.553 13Z" fill="white"/>
</svg>
