<svg width="326" height="19" viewBox="0 0 326 19" fill="none" xmlns="http://www.w3.org/2000/svg">
<path d="M-0.00242174 15V0.999999H12.3776V15H9.81758V2.56L10.4176 3.2H1.95758L2.55758 2.56V15H-0.00242174ZM21.9652 15.14C21.0986 15.14 20.3052 14.94 19.5852 14.54C18.8786 14.14 18.3119 13.54 17.8852 12.74C17.4719 11.9267 17.2652 10.9 17.2652 9.66C17.2652 8.40667 17.4652 7.38 17.8652 6.58C18.2786 5.78 18.8386 5.18667 19.5452 4.8C20.2519 4.4 21.0586 4.2 21.9652 4.2C23.0186 4.2 23.9452 4.42667 24.7452 4.88C25.5586 5.33333 26.1986 5.96667 26.6652 6.78C27.1452 7.59333 27.3852 8.55333 27.3852 9.66C27.3852 10.7667 27.1452 11.7333 26.6652 12.56C26.1986 13.3733 25.5586 14.0067 24.7452 14.46C23.9452 14.9133 23.0186 15.14 21.9652 15.14ZM16.0452 18.88V4.32H18.4252V6.84L18.3452 9.68L18.5452 12.52V18.88H16.0452ZM21.6852 13C22.2852 13 22.8186 12.8667 23.2852 12.6C23.7652 12.3333 24.1452 11.9467 24.4252 11.44C24.7052 10.9333 24.8452 10.34 24.8452 9.66C24.8452 8.96667 24.7052 8.37333 24.4252 7.88C24.1452 7.37333 23.7652 6.98667 23.2852 6.72C22.8186 6.45333 22.2852 6.32 21.6852 6.32C21.0852 6.32 20.5452 6.45333 20.0652 6.72C19.5852 6.98667 19.2052 7.37333 18.9252 7.88C18.6452 8.37333 18.5052 8.96667 18.5052 9.66C18.5052 10.34 18.6452 10.9333 18.9252 11.44C19.2052 11.9467 19.5852 12.3333 20.0652 12.6C20.5452 12.8667 21.0852 13 21.6852 13ZM34.6334 15.14C33.54 15.14 32.5667 14.9067 31.7134 14.44C30.86 13.96 30.1867 13.3067 29.6934 12.48C29.2 11.6533 28.9534 10.7133 28.9534 9.66C28.9534 8.59333 29.2 7.65333 29.6934 6.84C30.1867 6.01333 30.86 5.36667 31.7134 4.9C32.5667 4.43333 33.54 4.2 34.6334 4.2C35.74 4.2 36.72 4.43333 37.5734 4.9C38.44 5.36667 39.1134 6.00667 39.5934 6.82C40.0867 7.63333 40.3334 8.58 40.3334 9.66C40.3334 10.7133 40.0867 11.6533 39.5934 12.48C39.1134 13.3067 38.44 13.96 37.5734 14.44C36.72 14.9067 35.74 15.14 34.6334 15.14ZM34.6334 13C35.2467 13 35.7934 12.8667 36.2734 12.6C36.7534 12.3333 37.1267 11.9467 37.3934 11.44C37.6734 10.9333 37.8134 10.34 37.8134 9.66C37.8134 8.96667 37.6734 8.37333 37.3934 7.88C37.1267 7.37333 36.7534 6.98667 36.2734 6.72C35.7934 6.45333 35.2534 6.32 34.6534 6.32C34.04 6.32 33.4934 6.45333 33.0134 6.72C32.5467 6.98667 32.1734 7.37333 31.8934 7.88C31.6134 8.37333 31.4734 8.96667 31.4734 9.66C31.4734 10.34 31.6134 10.9333 31.8934 11.44C32.1734 11.9467 32.5467 12.3333 33.0134 12.6C33.4934 12.8667 34.0334 13 34.6334 13ZM47.783 15.14C46.5964 15.14 45.5564 14.9067 44.663 14.44C43.783 13.96 43.0964 13.3067 42.603 12.48C42.123 11.6533 41.883 10.7133 41.883 9.66C41.883 8.59333 42.1164 7.65333 42.583 6.84C43.063 6.01333 43.7164 5.36667 44.543 4.9C45.383 4.43333 46.3364 4.2 47.403 4.2C48.443 4.2 49.3697 4.42667 50.183 4.88C50.9964 5.33333 51.6364 5.97333 52.103 6.8C52.5697 7.62667 52.803 8.6 52.803 9.72C52.803 9.82667 52.7964 9.94667 52.783 10.08C52.783 10.2133 52.7764 10.34 52.763 10.46H43.863V8.8H51.443L50.463 9.32C50.4764 8.70667 50.3497 8.16667 50.083 7.7C49.8164 7.23333 49.4497 6.86667 48.983 6.6C48.5297 6.33333 48.003 6.2 47.403 6.2C46.7897 6.2 46.2497 6.33333 45.783 6.6C45.3297 6.86667 44.9697 7.24 44.703 7.72C44.4497 8.18667 44.323 8.74 44.323 9.38V9.78C44.323 10.42 44.4697 10.9867 44.763 11.48C45.0564 11.9733 45.4697 12.3533 46.003 12.62C46.5364 12.8867 47.1497 13.02 47.843 13.02C48.443 13.02 48.983 12.9267 49.463 12.74C49.943 12.5533 50.3697 12.26 50.743 11.86L52.083 13.4C51.603 13.96 50.9964 14.3933 50.263 14.7C49.543 14.9933 48.7164 15.14 47.783 15.14ZM63.1974 15L59.3374 9.88L61.3774 8.62L66.1374 15H63.1974ZM55.5374 15V4.32H58.0374V15H55.5374ZM57.2974 10.72V8.64H60.9174V10.72H57.2974ZM61.6174 9.96L59.2774 9.68L63.1974 4.32H65.8774L61.6174 9.96ZM69.984 15V5.84L70.564 6.44H66.224V4.32H76.224V6.44H71.904L72.484 5.84V15H69.984ZM88.8174 15V4.32H91.3174V15H88.8174ZM83.2374 7.84C84.6108 7.84 85.6508 8.14667 86.3574 8.76C87.0774 9.37333 87.4374 10.24 87.4374 11.36C87.4374 12.52 87.0374 13.4267 86.2374 14.08C85.4508 14.72 84.3308 15.0333 82.8774 15.02L78.0374 15V4.32H80.5374V7.82L83.2374 7.84ZM82.6574 13.18C83.3908 13.1933 83.9508 13.04 84.3374 12.72C84.7241 12.4 84.9174 11.9333 84.9174 11.32C84.9174 10.7067 84.7241 10.2667 84.3374 10C83.9641 9.72 83.4041 9.57333 82.6574 9.56L80.5374 9.54V13.16L82.6574 13.18ZM107.865 15L104.005 9.88L106.045 8.62L110.805 15H107.865ZM100.205 15V4.32H102.705V15H100.205ZM101.965 10.72V8.64H105.585V10.72H101.965ZM106.285 9.96L103.945 9.68L107.865 4.32H110.545L106.285 9.96ZM116.977 15.14C115.884 15.14 114.91 14.9067 114.057 14.44C113.204 13.96 112.53 13.3067 112.037 12.48C111.544 11.6533 111.297 10.7133 111.297 9.66C111.297 8.59333 111.544 7.65333 112.037 6.84C112.53 6.01333 113.204 5.36667 114.057 4.9C114.91 4.43333 115.884 4.2 116.977 4.2C118.084 4.2 119.064 4.43333 119.917 4.9C120.784 5.36667 121.457 6.00667 121.937 6.82C122.43 7.63333 122.677 8.58 122.677 9.66C122.677 10.7133 122.43 11.6533 121.937 12.48C121.457 13.3067 120.784 13.96 119.917 14.44C119.064 14.9067 118.084 15.14 116.977 15.14ZM116.977 13C117.59 13 118.137 12.8667 118.617 12.6C119.097 12.3333 119.47 11.9467 119.737 11.44C120.017 10.9333 120.157 10.34 120.157 9.66C120.157 8.96667 120.017 8.37333 119.737 7.88C119.47 7.37333 119.097 6.98667 118.617 6.72C118.137 6.45333 117.597 6.32 116.997 6.32C116.384 6.32 115.837 6.45333 115.357 6.72C114.89 6.98667 114.517 7.37333 114.237 7.88C113.957 8.37333 113.817 8.96667 113.817 9.66C113.817 10.34 113.957 10.9333 114.237 11.44C114.517 11.9467 114.89 12.3333 115.357 12.6C115.837 12.8667 116.377 13 116.977 13ZM125.147 15V4.32H127.767L132.067 11.9H131.027L135.547 4.32H137.887L137.907 15H135.647V7L136.047 7.26L132.047 13.88H130.967L126.947 7.08L127.427 6.96V15H125.147ZM141.26 15V4.32H151.5V15H149.02V5.86L149.6 6.44H143.18L143.76 5.86V15H141.26ZM161.353 15V12.84L161.213 12.38V8.6C161.213 7.86667 160.993 7.3 160.553 6.9C160.113 6.48667 159.447 6.28 158.553 6.28C157.953 6.28 157.36 6.37333 156.773 6.56C156.2 6.74667 155.713 7.00667 155.313 7.34L154.333 5.52C154.907 5.08 155.587 4.75333 156.373 4.54C157.173 4.31333 158 4.2 158.853 4.2C160.4 4.2 161.593 4.57333 162.433 5.32C163.287 6.05333 163.713 7.19333 163.713 8.74V15H161.353ZM157.993 15.14C157.193 15.14 156.493 15.0067 155.893 14.74C155.293 14.46 154.827 14.08 154.493 13.6C154.173 13.1067 154.013 12.5533 154.013 11.94C154.013 11.34 154.153 10.8 154.433 10.32C154.727 9.84 155.2 9.46 155.853 9.18C156.507 8.9 157.373 8.76 158.453 8.76H161.553V10.42H158.633C157.78 10.42 157.207 10.56 156.913 10.84C156.62 11.1067 156.473 11.44 156.473 11.84C156.473 12.2933 156.653 12.6533 157.013 12.92C157.373 13.1867 157.873 13.32 158.513 13.32C159.127 13.32 159.673 13.18 160.153 12.9C160.647 12.62 161 12.2067 161.213 11.66L161.633 13.16C161.393 13.7867 160.96 14.2733 160.333 14.62C159.72 14.9667 158.94 15.14 157.993 15.14ZM166.807 15V4.32H169.307V8.66H174.687V4.32H177.187V15H174.687V10.78H169.307V15H166.807ZM180.537 15V4.32H183.037V11.36L188.937 4.32H191.217V15H188.717V7.96L182.837 15H180.537ZM194.58 15V4.32H197.08V11.36L202.98 4.32H205.26V15H202.76V7.96L196.88 15H194.58ZM199.76 3.06C198.694 3.06 197.874 2.81333 197.3 2.32C196.727 1.81333 196.434 1.08 196.42 0.12H198.08C198.094 0.6 198.24 0.98 198.52 1.26C198.814 1.54 199.22 1.68 199.74 1.68C200.247 1.68 200.647 1.54 200.94 1.26C201.247 0.98 201.407 0.6 201.42 0.12H203.12C203.107 1.08 202.807 1.81333 202.22 2.32C201.647 2.81333 200.827 3.06 199.76 3.06ZM214.151 15V4.32H216.651V11.36L222.551 4.32H224.831V15H222.331V7.96L216.451 15H214.151ZM238.581 15.14C237.461 15.14 236.461 14.9067 235.581 14.44C234.714 13.96 234.034 13.3067 233.541 12.48C233.048 11.6533 232.801 10.7133 232.801 9.66C232.801 8.59333 233.048 7.65333 233.541 6.84C234.034 6.01333 234.714 5.36667 235.581 4.9C236.461 4.43333 237.461 4.2 238.581 4.2C239.621 4.2 240.534 4.41333 241.321 4.84C242.121 5.25333 242.728 5.86667 243.141 6.68L241.221 7.8C240.901 7.29333 240.508 6.92 240.041 6.68C239.588 6.44 239.094 6.32 238.561 6.32C237.948 6.32 237.394 6.45333 236.901 6.72C236.408 6.98667 236.021 7.37333 235.741 7.88C235.461 8.37333 235.321 8.96667 235.321 9.66C235.321 10.3533 235.461 10.9533 235.741 11.46C236.021 11.9533 236.408 12.3333 236.901 12.6C237.394 12.8667 237.948 13 238.561 13C239.094 13 239.588 12.88 240.041 12.64C240.508 12.4 240.901 12.0267 241.221 11.52L243.141 12.64C242.728 13.44 242.121 14.06 241.321 14.5C240.534 14.9267 239.621 15.14 238.581 15.14ZM247.484 15V5.84L248.064 6.44H243.724V4.32H253.724V6.44H249.404L249.984 5.84V15H247.484ZM262.017 15V12.84L261.877 12.38V8.6C261.877 7.86667 261.657 7.3 261.217 6.9C260.777 6.48667 260.111 6.28 259.217 6.28C258.617 6.28 258.024 6.37333 257.437 6.56C256.864 6.74667 256.377 7.00667 255.977 7.34L254.997 5.52C255.571 5.08 256.251 4.75333 257.037 4.54C257.837 4.31333 258.664 4.2 259.517 4.2C261.064 4.2 262.257 4.57333 263.097 5.32C263.951 6.05333 264.377 7.19333 264.377 8.74V15H262.017ZM258.657 15.14C257.857 15.14 257.157 15.0067 256.557 14.74C255.957 14.46 255.491 14.08 255.157 13.6C254.837 13.1067 254.677 12.5533 254.677 11.94C254.677 11.34 254.817 10.8 255.097 10.32C255.391 9.84 255.864 9.46 256.517 9.18C257.171 8.9 258.037 8.76 259.117 8.76H262.217V10.42H259.297C258.444 10.42 257.871 10.56 257.577 10.84C257.284 11.1067 257.137 11.44 257.137 11.84C257.137 12.2933 257.317 12.6533 257.677 12.92C258.037 13.1867 258.537 13.32 259.177 13.32C259.791 13.32 260.337 13.18 260.817 12.9C261.311 12.62 261.664 12.2067 261.877 11.66L262.297 13.16C262.057 13.7867 261.624 14.2733 260.997 14.62C260.384 14.9667 259.604 15.14 258.657 15.14ZM273.391 15.14C272.524 15.14 271.731 14.94 271.011 14.54C270.304 14.14 269.738 13.54 269.311 12.74C268.898 11.9267 268.691 10.9 268.691 9.66C268.691 8.40667 268.891 7.38 269.291 6.58C269.704 5.78 270.264 5.18667 270.971 4.8C271.678 4.4 272.484 4.2 273.391 4.2C274.444 4.2 275.371 4.42667 276.171 4.88C276.984 5.33333 277.624 5.96667 278.091 6.78C278.571 7.59333 278.811 8.55333 278.811 9.66C278.811 10.7667 278.571 11.7333 278.091 12.56C277.624 13.3733 276.984 14.0067 276.171 14.46C275.371 14.9133 274.444 15.14 273.391 15.14ZM267.471 18.88V4.32H269.851V6.84L269.771 9.68L269.971 12.52V18.88H267.471ZM273.111 13C273.711 13 274.244 12.8667 274.711 12.6C275.191 12.3333 275.571 11.9467 275.851 11.44C276.131 10.9333 276.271 10.34 276.271 9.66C276.271 8.96667 276.131 8.37333 275.851 7.88C275.571 7.37333 275.191 6.98667 274.711 6.72C274.244 6.45333 273.711 6.32 273.111 6.32C272.511 6.32 271.971 6.45333 271.491 6.72C271.011 6.98667 270.631 7.37333 270.351 7.88C270.071 8.37333 269.931 8.96667 269.931 9.66C269.931 10.34 270.071 10.9333 270.351 11.44C270.631 11.9467 271.011 12.3333 271.491 12.6C271.971 12.8667 272.511 13 273.111 13ZM283.129 15V5.84L283.709 6.44H279.369V4.32H289.369V6.44H285.049L285.629 5.84V15H283.129ZM297.662 15V12.84L297.522 12.38V8.6C297.522 7.86667 297.302 7.3 296.862 6.9C296.422 6.48667 295.755 6.28 294.862 6.28C294.262 6.28 293.669 6.37333 293.082 6.56C292.509 6.74667 292.022 7.00667 291.622 7.34L290.642 5.52C291.215 5.08 291.895 4.75333 292.682 4.54C293.482 4.31333 294.309 4.2 295.162 4.2C296.709 4.2 297.902 4.57333 298.742 5.32C299.595 6.05333 300.022 7.19333 300.022 8.74V15H297.662ZM294.302 15.14C293.502 15.14 292.802 15.0067 292.202 14.74C291.602 14.46 291.135 14.08 290.802 13.6C290.482 13.1067 290.322 12.5533 290.322 11.94C290.322 11.34 290.462 10.8 290.742 10.32C291.035 9.84 291.509 9.46 292.162 9.18C292.815 8.9 293.682 8.76 294.762 8.76H297.862V10.42H294.942C294.089 10.42 293.515 10.56 293.222 10.84C292.929 11.1067 292.782 11.44 292.782 11.84C292.782 12.2933 292.962 12.6533 293.322 12.92C293.682 13.1867 294.182 13.32 294.822 13.32C295.435 13.32 295.982 13.18 296.462 12.9C296.955 12.62 297.309 12.2067 297.522 11.66L297.942 13.16C297.702 13.7867 297.269 14.2733 296.642 14.62C296.029 14.9667 295.249 15.14 294.302 15.14ZM303.116 15V4.32H313.356V15H310.876V5.86L311.456 6.44H305.036L305.616 5.86V15H303.116ZM323.209 15V12.84L323.069 12.38V8.6C323.069 7.86667 322.849 7.3 322.409 6.9C321.969 6.48667 321.302 6.28 320.409 6.28C319.809 6.28 319.215 6.37333 318.629 6.56C318.055 6.74667 317.569 7.00667 317.169 7.34L316.189 5.52C316.762 5.08 317.442 4.75333 318.229 4.54C319.029 4.31333 319.855 4.2 320.709 4.2C322.255 4.2 323.449 4.57333 324.289 5.32C325.142 6.05333 325.569 7.19333 325.569 8.74V15H323.209ZM319.849 15.14C319.049 15.14 318.349 15.0067 317.749 14.74C317.149 14.46 316.682 14.08 316.349 13.6C316.029 13.1067 315.869 12.5533 315.869 11.94C315.869 11.34 316.009 10.8 316.289 10.32C316.582 9.84 317.055 9.46 317.709 9.18C318.362 8.9 319.229 8.76 320.309 8.76H323.409V10.42H320.489C319.635 10.42 319.062 10.56 318.769 10.84C318.475 11.1067 318.329 11.44 318.329 11.84C318.329 12.2933 318.509 12.6533 318.869 12.92C319.229 13.1867 319.729 13.32 320.369 13.32C320.982 13.32 321.529 13.18 322.009 12.9C322.502 12.62 322.855 12.2067 323.069 11.66L323.489 13.16C323.249 13.7867 322.815 14.2733 322.189 14.62C321.575 14.9667 320.795 15.14 319.849 15.14Z" fill="white"/>
</svg>
