<svg width="277" height="42" viewBox="0 0 277 42" fill="none" xmlns="http://www.w3.org/2000/svg">
<path d="M0.126485 14V-9.53674e-07H6.38648C7.95982 -9.53674e-07 9.18648 0.313332 10.0665 0.939999C10.9465 1.55333 11.3865 2.44 11.3865 3.6C11.3865 4.74667 10.9665 5.63333 10.1265 6.26C9.28648 6.87333 8.17982 7.18 6.80648 7.18L7.16649 6.46C8.72648 6.46 9.93315 6.77333 10.7865 7.4C11.6398 8.02667 12.0665 8.93333 12.0665 10.12C12.0665 11.3333 11.6198 12.2867 10.7265 12.98C9.83315 13.66 8.51315 14 6.76648 14H0.126485ZM2.68648 12H6.68648C7.59315 12 8.27982 11.8333 8.74648 11.5C9.21315 11.1533 9.44648 10.6267 9.44648 9.92C9.44648 9.21333 9.21315 8.7 8.74648 8.38C8.27982 8.04667 7.59315 7.88 6.68648 7.88H2.68648V12ZM2.68648 5.98H6.16648C7.00648 5.98 7.64648 5.81333 8.08648 5.48C8.52648 5.13333 8.74648 4.64 8.74648 4C8.74648 3.33333 8.52648 2.83333 8.08648 2.5C7.64648 2.16667 7.00648 2 6.16648 2H2.68648V5.98ZM19.5084 14.14C18.415 14.14 17.4417 13.9067 16.5884 13.44C15.735 12.96 15.0617 12.3067 14.5684 11.48C14.075 10.6533 13.8284 9.71333 13.8284 8.66C13.8284 7.59333 14.075 6.65333 14.5684 5.84C15.0617 5.01333 15.735 4.36667 16.5884 3.9C17.4417 3.43333 18.415 3.2 19.5084 3.2C20.615 3.2 21.595 3.43333 22.4484 3.9C23.315 4.36667 23.9884 5.00667 24.4684 5.82C24.9617 6.63333 25.2084 7.58 25.2084 8.66C25.2084 9.71333 24.9617 10.6533 24.4684 11.48C23.9884 12.3067 23.315 12.96 22.4484 13.44C21.595 13.9067 20.615 14.14 19.5084 14.14ZM19.5084 12C20.1217 12 20.6684 11.8667 21.1484 11.6C21.6284 11.3333 22.0017 10.9467 22.2684 10.44C22.5484 9.93333 22.6884 9.34 22.6884 8.66C22.6884 7.96667 22.5484 7.37333 22.2684 6.88C22.0017 6.37333 21.6284 5.98667 21.1484 5.72C20.6684 5.45333 20.1284 5.32 19.5284 5.32C18.915 5.32 18.3684 5.45333 17.8884 5.72C17.4217 5.98667 17.0484 6.37333 16.7684 6.88C16.4884 7.37333 16.3484 7.96667 16.3484 8.66C16.3484 9.34 16.4884 9.93333 16.7684 10.44C17.0484 10.9467 17.4217 11.3333 17.8884 11.6C18.3684 11.8667 18.9084 12 19.5084 12ZM30.9018 14.18C30.0885 14.18 29.2818 14.0867 28.4818 13.9C27.6951 13.7 26.9818 13.42 26.3418 13.06L27.0418 11.2C27.5618 11.4933 28.1485 11.72 28.8018 11.88C29.4551 12.04 30.1085 12.12 30.7618 12.12C31.3218 12.12 31.8018 12.0667 32.2018 11.96C32.6018 11.84 32.9085 11.6667 33.1218 11.44C33.3485 11.2133 33.4618 10.9533 33.4618 10.66C33.4618 10.2333 33.2751 9.91333 32.9018 9.7C32.5418 9.47333 32.0218 9.36 31.3418 9.36H29.2818V7.68H31.1418C31.5685 7.68 31.9285 7.63333 32.2218 7.54C32.5285 7.44667 32.7618 7.30667 32.9218 7.12C33.0818 6.93333 33.1618 6.71333 33.1618 6.46C33.1618 6.20667 33.0618 5.98667 32.8618 5.8C32.6751 5.6 32.4018 5.45333 32.0418 5.36C31.6818 5.25333 31.2485 5.2 30.7418 5.2C30.2085 5.2 29.6551 5.26667 29.0818 5.4C28.5218 5.53333 27.9485 5.72667 27.3618 5.98L26.7218 4.14C27.4018 3.83333 28.0618 3.6 28.7018 3.44C29.3551 3.26667 30.0018 3.17333 30.6418 3.16C31.6151 3.12 32.4818 3.22 33.2418 3.46C34.0018 3.7 34.6018 4.04667 35.0418 4.5C35.4818 4.95333 35.7018 5.48667 35.7018 6.1C35.7018 6.60667 35.5418 7.06667 35.2218 7.48C34.9151 7.88 34.4885 8.19333 33.9418 8.42C33.4085 8.64667 32.7951 8.76 32.1018 8.76L32.1818 8.22C33.3685 8.22 34.3018 8.46 34.9818 8.94C35.6618 9.40667 36.0018 10.0467 36.0018 10.86C36.0018 11.5133 35.7818 12.0933 35.3418 12.6C34.9018 13.0933 34.2951 13.48 33.5218 13.76C32.7618 14.04 31.8885 14.18 30.9018 14.18ZM38.5765 14V3.32H41.1965L45.4965 10.9H44.4565L48.9765 3.32H51.3165L51.3365 14H49.0765V6L49.4765 6.26L45.4765 12.88H44.3965L40.3765 6.08L40.8565 5.96V14H38.5765ZM59.4498 14.14C58.3564 14.14 57.3831 13.9067 56.5298 13.44C55.6764 12.96 55.0031 12.3067 54.5098 11.48C54.0164 10.6533 53.7698 9.71333 53.7698 8.66C53.7698 7.59333 54.0164 6.65333 54.5098 5.84C55.0031 5.01333 55.6764 4.36667 56.5298 3.9C57.3831 3.43333 58.3564 3.2 59.4498 3.2C60.5564 3.2 61.5364 3.43333 62.3898 3.9C63.2564 4.36667 63.9298 5.00667 64.4098 5.82C64.9031 6.63333 65.1498 7.58 65.1498 8.66C65.1498 9.71333 64.9031 10.6533 64.4098 11.48C63.9298 12.3067 63.2564 12.96 62.3898 13.44C61.5364 13.9067 60.5564 14.14 59.4498 14.14ZM59.4498 12C60.0631 12 60.6098 11.8667 61.0898 11.6C61.5698 11.3333 61.9431 10.9467 62.2098 10.44C62.4898 9.93333 62.6298 9.34 62.6298 8.66C62.6298 7.96667 62.4898 7.37333 62.2098 6.88C61.9431 6.37333 61.5698 5.98667 61.0898 5.72C60.6098 5.45333 60.0698 5.32 59.4698 5.32C58.8564 5.32 58.3098 5.45333 57.8298 5.72C57.3631 5.98667 56.9898 6.37333 56.7098 6.88C56.4298 7.37333 56.2898 7.96667 56.2898 8.66C56.2898 9.34 56.4298 9.93333 56.7098 10.44C56.9898 10.9467 57.3631 11.3333 57.8298 11.6C58.3098 11.8667 58.8498 12 59.4498 12ZM80.0079 14L76.8879 8.88L78.9279 7.62L82.9879 14H80.0079ZM74.8679 9.72V7.64H78.4479V9.72H74.8679ZM79.1679 8.96L76.8079 8.68L80.0479 3.32H82.7079L79.1679 8.96ZM68.7279 14H65.7679L69.8079 7.62L71.8479 8.88L68.7279 14ZM75.6079 14H73.1279V3.32H75.6079V14ZM73.8679 9.72H70.3079V7.64H73.8679V9.72ZM69.5679 8.96L66.0279 3.32H68.6879L71.9079 8.68L69.5679 8.96ZM84.846 14V3.32H87.346V7.66H92.726V3.32H95.226V14H92.726V9.78H87.346V14H84.846ZM103.336 14.14C102.243 14.14 101.27 13.9067 100.416 13.44C99.5632 12.96 98.8898 12.3067 98.3965 11.48C97.9032 10.6533 97.6565 9.71333 97.6565 8.66C97.6565 7.59333 97.9032 6.65333 98.3965 5.84C98.8898 5.01333 99.5632 4.36667 100.416 3.9C101.27 3.43333 102.243 3.2 103.336 3.2C104.443 3.2 105.423 3.43333 106.276 3.9C107.143 4.36667 107.816 5.00667 108.296 5.82C108.79 6.63333 109.036 7.58 109.036 8.66C109.036 9.71333 108.79 10.6533 108.296 11.48C107.816 12.3067 107.143 12.96 106.276 13.44C105.423 13.9067 104.443 14.14 103.336 14.14ZM103.336 12C103.95 12 104.496 11.8667 104.976 11.6C105.456 11.3333 105.83 10.9467 106.096 10.44C106.376 9.93333 106.516 9.34 106.516 8.66C106.516 7.96667 106.376 7.37333 106.096 6.88C105.83 6.37333 105.456 5.98667 104.976 5.72C104.496 5.45333 103.956 5.32 103.356 5.32C102.743 5.32 102.196 5.45333 101.716 5.72C101.25 5.98667 100.876 6.37333 100.596 6.88C100.316 7.37333 100.176 7.96667 100.176 8.66C100.176 9.34 100.316 9.93333 100.596 10.44C100.876 10.9467 101.25 11.3333 101.716 11.6C102.196 11.8667 102.736 12 103.336 12ZM116.366 14.14C115.246 14.14 114.246 13.9067 113.366 13.44C112.5 12.96 111.82 12.3067 111.326 11.48C110.833 10.6533 110.586 9.71333 110.586 8.66C110.586 7.59333 110.833 6.65333 111.326 5.84C111.82 5.01333 112.5 4.36667 113.366 3.9C114.246 3.43333 115.246 3.2 116.366 3.2C117.406 3.2 118.32 3.41333 119.106 3.84C119.906 4.25333 120.513 4.86667 120.926 5.68L119.006 6.8C118.686 6.29333 118.293 5.92 117.826 5.68C117.373 5.44 116.88 5.32 116.346 5.32C115.733 5.32 115.18 5.45333 114.686 5.72C114.193 5.98667 113.806 6.37333 113.526 6.88C113.246 7.37333 113.106 7.96667 113.106 8.66C113.106 9.35333 113.246 9.95333 113.526 10.46C113.806 10.9533 114.193 11.3333 114.686 11.6C115.18 11.8667 115.733 12 116.346 12C116.88 12 117.373 11.88 117.826 11.64C118.293 11.4 118.686 11.0267 119.006 10.52L120.926 11.64C120.513 12.44 119.906 13.06 119.106 13.5C118.32 13.9267 117.406 14.14 116.366 14.14ZM125.269 14V4.84L125.849 5.44H121.509V3.32H131.509V5.44H127.189L127.769 4.84V14H125.269ZM138.683 6.84C140.056 6.84 141.103 7.14667 141.823 7.76C142.543 8.37333 142.903 9.24 142.903 10.36C142.903 11.52 142.503 12.4267 141.703 13.08C140.903 13.72 139.776 14.0333 138.323 14.02L133.323 14V3.32H135.823V6.82L138.683 6.84ZM138.103 12.18C138.836 12.1933 139.396 12.04 139.783 11.72C140.169 11.4 140.363 10.9333 140.363 10.32C140.363 9.70667 140.169 9.26667 139.783 9C139.409 8.72 138.849 8.57333 138.103 8.56L135.823 8.54V12.16L138.103 12.18ZM150.627 14V3.32H153.127V10.36L159.027 3.32H161.307V14H158.807V6.96L152.927 14H150.627ZM164.67 14V3.32H167.17V7.66H172.55V3.32H175.05V14H172.55V9.78H167.17V14H164.67ZM178.401 14V3.32H183.621C184.914 3.32 185.927 3.56 186.661 4.04C187.407 4.52 187.781 5.2 187.781 6.08C187.781 6.94667 187.434 7.62667 186.741 8.12C186.047 8.6 185.127 8.84 183.981 8.84L184.281 8.22C185.574 8.22 186.534 8.46 187.161 8.94C187.801 9.40667 188.121 10.0933 188.121 11C188.121 11.9467 187.767 12.6867 187.061 13.22C186.354 13.74 185.281 14 183.841 14H178.401ZM180.781 12.18H183.641C184.321 12.18 184.834 12.0733 185.181 11.86C185.527 11.6333 185.701 11.2933 185.701 10.84C185.701 10.36 185.541 10.0067 185.221 9.78C184.901 9.55333 184.401 9.44 183.721 9.44H180.781V12.18ZM180.781 7.78H183.401C184.041 7.78 184.521 7.66667 184.841 7.44C185.174 7.2 185.341 6.86667 185.341 6.44C185.341 6 185.174 5.67333 184.841 5.46C184.521 5.24667 184.041 5.14 183.401 5.14H180.781V7.78ZM195.764 14.14C194.577 14.14 193.537 13.9067 192.644 13.44C191.764 12.96 191.077 12.3067 190.584 11.48C190.104 10.6533 189.864 9.71333 189.864 8.66C189.864 7.59333 190.097 6.65333 190.564 5.84C191.044 5.01333 191.697 4.36667 192.524 3.9C193.364 3.43333 194.317 3.2 195.384 3.2C196.424 3.2 197.35 3.42667 198.164 3.88C198.977 4.33333 199.617 4.97333 200.084 5.8C200.55 6.62667 200.784 7.6 200.784 8.72C200.784 8.82667 200.777 8.94667 200.764 9.08C200.764 9.21333 200.757 9.34 200.744 9.46H191.844V7.8H199.424L198.444 8.32C198.457 7.70667 198.33 7.16667 198.064 6.7C197.797 6.23333 197.43 5.86667 196.964 5.6C196.51 5.33333 195.984 5.2 195.384 5.2C194.77 5.2 194.23 5.33333 193.764 5.6C193.31 5.86667 192.95 6.24 192.684 6.72C192.43 7.18667 192.304 7.74 192.304 8.38V8.78C192.304 9.42 192.45 9.98667 192.744 10.48C193.037 10.9733 193.45 11.3533 193.984 11.62C194.517 11.8867 195.13 12.02 195.824 12.02C196.424 12.02 196.964 11.9267 197.444 11.74C197.924 11.5533 198.35 11.26 198.724 10.86L200.064 12.4C199.584 12.96 198.977 13.3933 198.244 13.7C197.524 13.9933 196.697 14.14 195.764 14.14ZM208.378 14.14C207.258 14.14 206.258 13.9067 205.378 13.44C204.511 12.96 203.831 12.3067 203.338 11.48C202.845 10.6533 202.598 9.71333 202.598 8.66C202.598 7.59333 202.845 6.65333 203.338 5.84C203.831 5.01333 204.511 4.36667 205.378 3.9C206.258 3.43333 207.258 3.2 208.378 3.2C209.418 3.2 210.331 3.41333 211.118 3.84C211.918 4.25333 212.525 4.86667 212.938 5.68L211.018 6.8C210.698 6.29333 210.305 5.92 209.838 5.68C209.385 5.44 208.891 5.32 208.358 5.32C207.745 5.32 207.191 5.45333 206.698 5.72C206.205 5.98667 205.818 6.37333 205.538 6.88C205.258 7.37333 205.118 7.96667 205.118 8.66C205.118 9.35333 205.258 9.95333 205.538 10.46C205.818 10.9533 206.205 11.3333 206.698 11.6C207.191 11.8667 207.745 12 208.358 12C208.891 12 209.385 11.88 209.838 11.64C210.305 11.4 210.698 11.0267 211.018 10.52L212.938 11.64C212.525 12.44 211.918 13.06 211.118 13.5C210.331 13.9267 209.418 14.14 208.378 14.14ZM217.281 14V4.84L217.861 5.44H213.521V3.32H223.521V5.44H219.201L219.781 4.84V14H217.281ZM229.626 14.14C228.532 14.14 227.559 13.9067 226.706 13.44C225.852 12.96 225.179 12.3067 224.686 11.48C224.192 10.6533 223.946 9.71333 223.946 8.66C223.946 7.59333 224.192 6.65333 224.686 5.84C225.179 5.01333 225.852 4.36667 226.706 3.9C227.559 3.43333 228.532 3.2 229.626 3.2C230.732 3.2 231.712 3.43333 232.566 3.9C233.432 4.36667 234.106 5.00667 234.586 5.82C235.079 6.63333 235.326 7.58 235.326 8.66C235.326 9.71333 235.079 10.6533 234.586 11.48C234.106 12.3067 233.432 12.96 232.566 13.44C231.712 13.9067 230.732 14.14 229.626 14.14ZM229.626 12C230.239 12 230.786 11.8667 231.266 11.6C231.746 11.3333 232.119 10.9467 232.386 10.44C232.666 9.93333 232.806 9.34 232.806 8.66C232.806 7.96667 232.666 7.37333 232.386 6.88C232.119 6.37333 231.746 5.98667 231.266 5.72C230.786 5.45333 230.246 5.32 229.646 5.32C229.032 5.32 228.486 5.45333 228.006 5.72C227.539 5.98667 227.166 6.37333 226.886 6.88C226.606 7.37333 226.466 7.96667 226.466 8.66C226.466 9.34 226.606 9.93333 226.886 10.44C227.166 10.9467 227.539 11.3333 228.006 11.6C228.486 11.8667 229.026 12 229.626 12ZM243.715 14.14C242.849 14.14 242.055 13.94 241.335 13.54C240.629 13.14 240.062 12.54 239.635 11.74C239.222 10.9267 239.015 9.9 239.015 8.66C239.015 7.40667 239.215 6.38 239.615 5.58C240.029 4.78 240.589 4.18667 241.295 3.8C242.002 3.4 242.809 3.2 243.715 3.2C244.769 3.2 245.695 3.42667 246.495 3.88C247.309 4.33333 247.949 4.96667 248.415 5.78C248.895 6.59333 249.135 7.55333 249.135 8.66C249.135 9.76667 248.895 10.7333 248.415 11.56C247.949 12.3733 247.309 13.0067 246.495 13.46C245.695 13.9133 244.769 14.14 243.715 14.14ZM237.795 17.88V3.32H240.175V5.84L240.095 8.68L240.295 11.52V17.88H237.795ZM243.435 12C244.035 12 244.569 11.8667 245.035 11.6C245.515 11.3333 245.895 10.9467 246.175 10.44C246.455 9.93333 246.595 9.34 246.595 8.66C246.595 7.96667 246.455 7.37333 246.175 6.88C245.895 6.37333 245.515 5.98667 245.035 5.72C244.569 5.45333 244.035 5.32 243.435 5.32C242.835 5.32 242.295 5.45333 241.815 5.72C241.335 5.98667 240.955 6.37333 240.675 6.88C240.395 7.37333 240.255 7.96667 240.255 8.66C240.255 9.34 240.395 9.93333 240.675 10.44C240.955 10.9467 241.335 11.3333 241.815 11.6C242.295 11.8667 242.835 12 243.435 12ZM257.967 14V11.84L257.827 11.38V7.6C257.827 6.86667 257.607 6.3 257.167 5.9C256.727 5.48667 256.06 5.28 255.167 5.28C254.567 5.28 253.973 5.37333 253.387 5.56C252.813 5.74667 252.327 6.00667 251.927 6.34L250.947 4.52C251.52 4.08 252.2 3.75333 252.987 3.54C253.787 3.31333 254.613 3.2 255.467 3.2C257.013 3.2 258.207 3.57333 259.047 4.32C259.9 5.05333 260.327 6.19333 260.327 7.74V14H257.967ZM254.607 14.14C253.807 14.14 253.107 14.0067 252.507 13.74C251.907 13.46 251.44 13.08 251.107 12.6C250.787 12.1067 250.627 11.5533 250.627 10.94C250.627 10.34 250.767 9.8 251.047 9.32C251.34 8.84 251.813 8.46 252.467 8.18C253.12 7.9 253.987 7.76 255.067 7.76H258.167V9.42H255.247C254.393 9.42 253.82 9.56 253.527 9.84C253.233 10.1067 253.087 10.44 253.087 10.84C253.087 11.2933 253.267 11.6533 253.627 11.92C253.987 12.1867 254.487 12.32 255.127 12.32C255.74 12.32 256.287 12.18 256.767 11.9C257.26 11.62 257.613 11.2067 257.827 10.66L258.247 12.16C258.007 12.7867 257.573 13.2733 256.947 13.62C256.333 13.9667 255.553 14.14 254.607 14.14ZM263.42 14V3.32H266.04L270.34 10.9H269.3L273.82 3.32H276.16L276.18 14H273.92V6L274.32 6.26L270.32 12.88H269.24L265.22 6.08L265.7 5.96V14H263.42ZM19.9046 38V27.32H22.4046V31.66H27.7846V27.32H30.2846V38H27.7846V33.78H22.4046V38H19.9046ZM40.1151 38V35.84L39.9751 35.38V31.6C39.9751 30.8667 39.7551 30.3 39.3151 29.9C38.8751 29.4867 38.2084 29.28 37.3151 29.28C36.7151 29.28 36.1217 29.3733 35.5351 29.56C34.9617 29.7467 34.4751 30.0067 34.0751 30.34L33.0951 28.52C33.6684 28.08 34.3484 27.7533 35.1351 27.54C35.9351 27.3133 36.7617 27.2 37.6151 27.2C39.1617 27.2 40.3551 27.5733 41.1951 28.32C42.0484 29.0533 42.4751 30.1933 42.4751 31.74V38H40.1151ZM36.7551 38.14C35.9551 38.14 35.2551 38.0067 34.6551 37.74C34.0551 37.46 33.5884 37.08 33.2551 36.6C32.9351 36.1067 32.7751 35.5533 32.7751 34.94C32.7751 34.34 32.9151 33.8 33.1951 33.32C33.4884 32.84 33.9617 32.46 34.6151 32.18C35.2684 31.9 36.1351 31.76 37.2151 31.76H40.3151V33.42H37.3951C36.5417 33.42 35.9684 33.56 35.6751 33.84C35.3817 34.1067 35.2351 34.44 35.2351 34.84C35.2351 35.2933 35.4151 35.6533 35.7751 35.92C36.1351 36.1867 36.6351 36.32 37.2751 36.32C37.8884 36.32 38.4351 36.18 38.9151 35.9C39.4084 35.62 39.7617 35.2067 39.9751 34.66L40.3951 36.16C40.1551 36.7867 39.7217 37.2733 39.0951 37.62C38.4817 37.9667 37.7017 38.14 36.7551 38.14ZM43.9887 38L48.6887 31.88L48.6487 33.22L44.1687 27.32H46.9487L50.0887 31.52H49.0287L52.1887 27.32H54.8887L50.3687 33.22L50.3887 31.88L55.0687 38H52.2487L48.9487 33.54L49.9887 33.68L46.7487 38H43.9887ZM61.2662 38.14C60.1728 38.14 59.1995 37.9067 58.3462 37.44C57.4928 36.96 56.8195 36.3067 56.3262 35.48C55.8328 34.6533 55.5862 33.7133 55.5862 32.66C55.5862 31.5933 55.8328 30.6533 56.3262 29.84C56.8195 29.0133 57.4928 28.3667 58.3462 27.9C59.1995 27.4333 60.1728 27.2 61.2662 27.2C62.3728 27.2 63.3528 27.4333 64.2062 27.9C65.0728 28.3667 65.7462 29.0067 66.2262 29.82C66.7195 30.6333 66.9662 31.58 66.9662 32.66C66.9662 33.7133 66.7195 34.6533 66.2262 35.48C65.7462 36.3067 65.0728 36.96 64.2062 37.44C63.3528 37.9067 62.3728 38.14 61.2662 38.14ZM61.2662 36C61.8795 36 62.4262 35.8667 62.9062 35.6C63.3862 35.3333 63.7595 34.9467 64.0262 34.44C64.3062 33.9333 64.4462 33.34 64.4462 32.66C64.4462 31.9667 64.3062 31.3733 64.0262 30.88C63.7595 30.3733 63.3862 29.9867 62.9062 29.72C62.4262 29.4533 61.8862 29.32 61.2862 29.32C60.6728 29.32 60.1262 29.4533 59.6462 29.72C59.1795 29.9867 58.8062 30.3733 58.5262 30.88C58.2462 31.3733 58.1062 31.9667 58.1062 32.66C58.1062 33.34 58.2462 33.9333 58.5262 34.44C58.8062 34.9467 59.1795 35.3333 59.6462 35.6C60.1262 35.8667 60.6662 36 61.2662 36ZM76.6387 36.84V29.44H72.5387L72.4787 31.16C72.452 31.7733 72.412 32.3667 72.3587 32.94C72.3053 33.5 72.2187 34.02 72.0987 34.5C71.9787 34.9667 71.8053 35.3533 71.5787 35.66C71.352 35.9667 71.052 36.1667 70.6787 36.26L68.1987 35.88C68.5987 35.88 68.9187 35.7533 69.1587 35.5C69.412 35.2333 69.6053 34.8733 69.7387 34.42C69.8853 33.9533 69.992 33.4267 70.0587 32.84C70.1253 32.24 70.172 31.62 70.1987 30.98L70.3387 27.32H79.1387V36.84H76.6387ZM67.8187 40.38V35.88H80.7187V40.38H78.3787V38H70.1387V40.38H67.8187ZM82.9515 38V27.32H85.4515V34.36L91.3515 27.32H93.6315V38H91.1315V30.96L85.2515 38H82.9515ZM99.2145 38V28.84L99.7945 29.44H95.4545V27.32H105.454V29.44H101.134L101.714 28.84V38H99.2145ZM112.628 30.84C114.001 30.84 115.048 31.1467 115.768 31.76C116.488 32.3733 116.848 33.24 116.848 34.36C116.848 35.52 116.448 36.4267 115.648 37.08C114.848 37.72 113.721 38.0333 112.268 38.02L107.268 38V27.32H109.768V30.82L112.628 30.84ZM112.048 36.18C112.781 36.1933 113.341 36.04 113.728 35.72C114.115 35.4 114.308 34.9333 114.308 34.32C114.308 33.7067 114.115 33.2667 113.728 33C113.355 32.72 112.795 32.5733 112.048 32.56L109.768 32.54V36.16L112.048 36.18ZM129.433 38.14C128.313 38.14 127.313 37.9067 126.433 37.44C125.566 36.96 124.886 36.3067 124.393 35.48C123.899 34.6533 123.653 33.7133 123.653 32.66C123.653 31.5933 123.899 30.6533 124.393 29.84C124.886 29.0133 125.566 28.3667 126.433 27.9C127.313 27.4333 128.313 27.2 129.433 27.2C130.473 27.2 131.386 27.4133 132.173 27.84C132.973 28.2533 133.579 28.8667 133.993 29.68L132.073 30.8C131.753 30.2933 131.359 29.92 130.893 29.68C130.439 29.44 129.946 29.32 129.413 29.32C128.799 29.32 128.246 29.4533 127.753 29.72C127.259 29.9867 126.873 30.3733 126.593 30.88C126.313 31.3733 126.173 31.9667 126.173 32.66C126.173 33.3533 126.313 33.9533 126.593 34.46C126.873 34.9533 127.259 35.3333 127.753 35.6C128.246 35.8667 128.799 36 129.413 36C129.946 36 130.439 35.88 130.893 35.64C131.359 35.4 131.753 35.0267 132.073 34.52L133.993 35.64C133.579 36.44 132.973 37.06 132.173 37.5C131.386 37.9267 130.473 38.14 129.433 38.14ZM138.336 38V28.84L138.916 29.44H134.576V27.32H144.576V29.44H140.256L140.836 28.84V38H138.336ZM152.869 38V35.84L152.729 35.38V31.6C152.729 30.8667 152.509 30.3 152.069 29.9C151.629 29.4867 150.962 29.28 150.069 29.28C149.469 29.28 148.876 29.3733 148.289 29.56C147.716 29.7467 147.229 30.0067 146.829 30.34L145.849 28.52C146.422 28.08 147.102 27.7533 147.889 27.54C148.689 27.3133 149.516 27.2 150.369 27.2C151.916 27.2 153.109 27.5733 153.949 28.32C154.802 29.0533 155.229 30.1933 155.229 31.74V38H152.869ZM149.509 38.14C148.709 38.14 148.009 38.0067 147.409 37.74C146.809 37.46 146.342 37.08 146.009 36.6C145.689 36.1067 145.529 35.5533 145.529 34.94C145.529 34.34 145.669 33.8 145.949 33.32C146.242 32.84 146.716 32.46 147.369 32.18C148.022 31.9 148.889 31.76 149.969 31.76H153.069V33.42H150.149C149.296 33.42 148.722 33.56 148.429 33.84C148.136 34.1067 147.989 34.44 147.989 34.84C147.989 35.2933 148.169 35.6533 148.529 35.92C148.889 36.1867 149.389 36.32 150.029 36.32C150.642 36.32 151.189 36.18 151.669 35.9C152.162 35.62 152.516 35.2067 152.729 34.66L153.149 36.16C152.909 36.7867 152.476 37.2733 151.849 37.62C151.236 37.9667 150.456 38.14 149.509 38.14ZM164.243 38.14C163.376 38.14 162.583 37.94 161.863 37.54C161.156 37.14 160.589 36.54 160.163 35.74C159.749 34.9267 159.543 33.9 159.543 32.66C159.543 31.4067 159.743 30.38 160.143 29.58C160.556 28.78 161.116 28.1867 161.823 27.8C162.529 27.4 163.336 27.2 164.243 27.2C165.296 27.2 166.223 27.4267 167.023 27.88C167.836 28.3333 168.476 28.9667 168.943 29.78C169.423 30.5933 169.663 31.5533 169.663 32.66C169.663 33.7667 169.423 34.7333 168.943 35.56C168.476 36.3733 167.836 37.0067 167.023 37.46C166.223 37.9133 165.296 38.14 164.243 38.14ZM158.323 41.88V27.32H160.703V29.84L160.623 32.68L160.823 35.52V41.88H158.323ZM163.963 36C164.563 36 165.096 35.8667 165.563 35.6C166.043 35.3333 166.423 34.9467 166.703 34.44C166.983 33.9333 167.123 33.34 167.123 32.66C167.123 31.9667 166.983 31.3733 166.703 30.88C166.423 30.3733 166.043 29.9867 165.563 29.72C165.096 29.4533 164.563 29.32 163.963 29.32C163.363 29.32 162.823 29.4533 162.343 29.72C161.863 29.9867 161.483 30.3733 161.203 30.88C160.923 31.3733 160.783 31.9667 160.783 32.66C160.783 33.34 160.923 33.9333 161.203 34.44C161.483 34.9467 161.863 35.3333 162.343 35.6C162.823 35.8667 163.363 36 163.963 36ZM173.98 38V28.84L174.56 29.44H170.22V27.32H180.22V29.44H175.9L176.48 28.84V38H173.98ZM188.514 38V35.84L188.374 35.38V31.6C188.374 30.8667 188.154 30.3 187.714 29.9C187.274 29.4867 186.607 29.28 185.714 29.28C185.114 29.28 184.52 29.3733 183.934 29.56C183.36 29.7467 182.874 30.0067 182.474 30.34L181.494 28.52C182.067 28.08 182.747 27.7533 183.534 27.54C184.334 27.3133 185.16 27.2 186.014 27.2C187.56 27.2 188.754 27.5733 189.594 28.32C190.447 29.0533 190.874 30.1933 190.874 31.74V38H188.514ZM185.154 38.14C184.354 38.14 183.654 38.0067 183.054 37.74C182.454 37.46 181.987 37.08 181.654 36.6C181.334 36.1067 181.174 35.5533 181.174 34.94C181.174 34.34 181.314 33.8 181.594 33.32C181.887 32.84 182.36 32.46 183.014 32.18C183.667 31.9 184.534 31.76 185.614 31.76H188.714V33.42H185.794C184.94 33.42 184.367 33.56 184.074 33.84C183.78 34.1067 183.634 34.44 183.634 34.84C183.634 35.2933 183.814 35.6533 184.174 35.92C184.534 36.1867 185.034 36.32 185.674 36.32C186.287 36.32 186.834 36.18 187.314 35.9C187.807 35.62 188.16 35.2067 188.374 34.66L188.794 36.16C188.554 36.7867 188.12 37.2733 187.494 37.62C186.88 37.9667 186.1 38.14 185.154 38.14ZM193.967 38V27.32H204.207V38H201.727V28.86L202.307 29.44H195.887L196.467 28.86V38H193.967ZM212.56 38.14C211.374 38.14 210.334 37.9067 209.44 37.44C208.56 36.96 207.874 36.3067 207.38 35.48C206.9 34.6533 206.66 33.7133 206.66 32.66C206.66 31.5933 206.894 30.6533 207.36 29.84C207.84 29.0133 208.494 28.3667 209.32 27.9C210.16 27.4333 211.114 27.2 212.18 27.2C213.22 27.2 214.147 27.4267 214.96 27.88C215.774 28.3333 216.414 28.9733 216.88 29.8C217.347 30.6267 217.58 31.6 217.58 32.72C217.58 32.8267 217.574 32.9467 217.56 33.08C217.56 33.2133 217.554 33.34 217.54 33.46H208.64V31.8H216.22L215.24 32.32C215.254 31.7067 215.127 31.1667 214.86 30.7C214.594 30.2333 214.227 29.8667 213.76 29.6C213.307 29.3333 212.78 29.2 212.18 29.2C211.567 29.2 211.027 29.3333 210.56 29.6C210.107 29.8667 209.747 30.24 209.48 30.72C209.227 31.1867 209.1 31.74 209.1 32.38V32.78C209.1 33.42 209.247 33.9867 209.54 34.48C209.834 34.9733 210.247 35.3533 210.78 35.62C211.314 35.8867 211.927 36.02 212.62 36.02C213.22 36.02 213.76 35.9267 214.24 35.74C214.72 35.5533 215.147 35.26 215.52 34.86L216.86 36.4C216.38 36.96 215.774 37.3933 215.04 37.7C214.32 37.9933 213.494 38.14 212.56 38.14ZM226.235 38.14C225.368 38.14 224.575 37.94 223.855 37.54C223.148 37.14 222.581 36.54 222.155 35.74C221.741 34.9267 221.535 33.9 221.535 32.66C221.535 31.4067 221.735 30.38 222.135 29.58C222.548 28.78 223.108 28.1867 223.815 27.8C224.521 27.4 225.328 27.2 226.235 27.2C227.288 27.2 228.215 27.4267 229.015 27.88C229.828 28.3333 230.468 28.9667 230.935 29.78C231.415 30.5933 231.655 31.5533 231.655 32.66C231.655 33.7667 231.415 34.7333 230.935 35.56C230.468 36.3733 229.828 37.0067 229.015 37.46C228.215 37.9133 227.288 38.14 226.235 38.14ZM220.315 41.88V27.32H222.695V29.84L222.615 32.68L222.815 35.52V41.88H220.315ZM225.955 36C226.555 36 227.088 35.8667 227.555 35.6C228.035 35.3333 228.415 34.9467 228.695 34.44C228.975 33.9333 229.115 33.34 229.115 32.66C229.115 31.9667 228.975 31.3733 228.695 30.88C228.415 30.3733 228.035 29.9867 227.555 29.72C227.088 29.4533 226.555 29.32 225.955 29.32C225.355 29.32 224.815 29.4533 224.335 29.72C223.855 29.9867 223.475 30.3733 223.195 30.88C222.915 31.3733 222.775 31.9667 222.775 32.66C222.775 33.34 222.915 33.9333 223.195 34.44C223.475 34.9467 223.855 35.3333 224.335 35.6C224.815 35.8667 225.355 36 225.955 36ZM238.903 38.14C237.81 38.14 236.836 37.9067 235.983 37.44C235.13 36.96 234.456 36.3067 233.963 35.48C233.47 34.6533 233.223 33.7133 233.223 32.66C233.223 31.5933 233.47 30.6533 233.963 29.84C234.456 29.0133 235.13 28.3667 235.983 27.9C236.836 27.4333 237.81 27.2 238.903 27.2C240.01 27.2 240.99 27.4333 241.843 27.9C242.71 28.3667 243.383 29.0067 243.863 29.82C244.356 30.6333 244.603 31.58 244.603 32.66C244.603 33.7133 244.356 34.6533 243.863 35.48C243.383 36.3067 242.71 36.96 241.843 37.44C240.99 37.9067 240.01 38.14 238.903 38.14ZM238.903 36C239.516 36 240.063 35.8667 240.543 35.6C241.023 35.3333 241.396 34.9467 241.663 34.44C241.943 33.9333 242.083 33.34 242.083 32.66C242.083 31.9667 241.943 31.3733 241.663 30.88C241.396 30.3733 241.023 29.9867 240.543 29.72C240.063 29.4533 239.523 29.32 238.923 29.32C238.31 29.32 237.763 29.4533 237.283 29.72C236.816 29.9867 236.443 30.3733 236.163 30.88C235.883 31.3733 235.743 31.9667 235.743 32.66C235.743 33.34 235.883 33.9333 236.163 34.44C236.443 34.9467 236.816 35.3333 237.283 35.6C237.763 35.8667 238.303 36 238.903 36ZM247.073 38V27.32H252.293C253.586 27.32 254.599 27.56 255.333 28.04C256.079 28.52 256.453 29.2 256.453 30.08C256.453 30.9467 256.106 31.6267 255.413 32.12C254.719 32.6 253.799 32.84 252.653 32.84L252.953 32.22C254.246 32.22 255.206 32.46 255.833 32.94C256.473 33.4067 256.793 34.0933 256.793 35C256.793 35.9467 256.439 36.6867 255.733 37.22C255.026 37.74 253.953 38 252.513 38H247.073ZM249.453 36.18H252.313C252.993 36.18 253.506 36.0733 253.853 35.86C254.199 35.6333 254.373 35.2933 254.373 34.84C254.373 34.36 254.213 34.0067 253.893 33.78C253.573 33.5533 253.073 33.44 252.393 33.44H249.453V36.18ZM249.453 31.78H252.073C252.713 31.78 253.193 31.6667 253.513 31.44C253.846 31.2 254.013 30.8667 254.013 30.44C254.013 30 253.846 29.6733 253.513 29.46C253.193 29.2467 252.713 29.14 252.073 29.14H249.453V31.78Z" fill="white"/>
</svg>
