<svg width="292" height="21" viewBox="0 0 292 21" fill="none" xmlns="http://www.w3.org/2000/svg">
<path d="M8.4 16.2C7.33333 16.2 6.34 16.0267 5.42 15.68C4.51333 15.32 3.72 14.82 3.04 14.18C2.37333 13.5267 1.85333 12.76 1.48 11.88C1.10667 11 0.92 10.04 0.92 9C0.92 7.96 1.10667 7 1.48 6.12C1.85333 5.24 2.38 4.48 3.06 3.84C3.74 3.18667 4.53333 2.68667 5.44 2.34C6.34667 1.98 7.34 1.8 8.42 1.8C9.56667 1.8 10.6133 2 11.56 2.4C12.5067 2.78667 13.3067 3.36667 13.96 4.14L12.28 5.72C11.7733 5.17333 11.2067 4.76667 10.58 4.5C9.95333 4.22 9.27333 4.08 8.54 4.08C7.80667 4.08 7.13333 4.2 6.52 4.44C5.92 4.68 5.39333 5.02 4.94 5.46C4.5 5.9 4.15333 6.42 3.9 7.02C3.66 7.62 3.54 8.28 3.54 9C3.54 9.72 3.66 10.38 3.9 10.98C4.15333 11.58 4.5 12.1 4.94 12.54C5.39333 12.98 5.92 13.32 6.52 13.56C7.13333 13.8 7.80667 13.92 8.54 13.92C9.27333 13.92 9.95333 13.7867 10.58 13.52C11.2067 13.24 11.7733 12.82 12.28 12.26L13.96 13.86C13.3067 14.62 12.5067 15.2 11.56 15.6C10.6133 16 9.56 16.2 8.4 16.2ZM18.0211 16V6.84L18.6011 7.44H14.2611V5.32H24.2611V7.44H19.9411L20.5211 6.84V16H18.0211ZM32.5545 16V13.84L32.4145 13.38V9.6C32.4145 8.86667 32.1945 8.3 31.7545 7.9C31.3145 7.48667 30.6479 7.28 29.7545 7.28C29.1545 7.28 28.5612 7.37333 27.9745 7.56C27.4012 7.74667 26.9145 8.00667 26.5145 8.34L25.5345 6.52C26.1079 6.08 26.7879 5.75333 27.5745 5.54C28.3745 5.31333 29.2012 5.2 30.0545 5.2C31.6012 5.2 32.7945 5.57333 33.6345 6.32C34.4879 7.05333 34.9145 8.19333 34.9145 9.74V16H32.5545ZM29.1945 16.14C28.3945 16.14 27.6945 16.0067 27.0945 15.74C26.4945 15.46 26.0279 15.08 25.6945 14.6C25.3745 14.1067 25.2145 13.5533 25.2145 12.94C25.2145 12.34 25.3545 11.8 25.6345 11.32C25.9279 10.84 26.4012 10.46 27.0545 10.18C27.7079 9.9 28.5745 9.76 29.6545 9.76H32.7545V11.42H29.8345C28.9812 11.42 28.4079 11.56 28.1145 11.84C27.8212 12.1067 27.6745 12.44 27.6745 12.84C27.6745 13.2933 27.8545 13.6533 28.2145 13.92C28.5745 14.1867 29.0745 14.32 29.7145 14.32C30.3279 14.32 30.8745 14.18 31.3545 13.9C31.8479 13.62 32.2012 13.2067 32.4145 12.66L32.8345 14.16C32.5945 14.7867 32.1612 15.2733 31.5345 15.62C30.9212 15.9667 30.1412 16.14 29.1945 16.14ZM43.9281 16.14C43.0615 16.14 42.2681 15.94 41.5481 15.54C40.8415 15.14 40.2748 14.54 39.8481 13.74C39.4348 12.9267 39.2281 11.9 39.2281 10.66C39.2281 9.40667 39.4281 8.38 39.8281 7.58C40.2415 6.78 40.8015 6.18667 41.5081 5.8C42.2148 5.4 43.0215 5.2 43.9281 5.2C44.9815 5.2 45.9081 5.42667 46.7081 5.88C47.5215 6.33333 48.1615 6.96667 48.6281 7.78C49.1081 8.59333 49.3481 9.55333 49.3481 10.66C49.3481 11.7667 49.1081 12.7333 48.6281 13.56C48.1615 14.3733 47.5215 15.0067 46.7081 15.46C45.9081 15.9133 44.9815 16.14 43.9281 16.14ZM38.0081 19.88V5.32H40.3881V7.84L40.3081 10.68L40.5081 13.52V19.88H38.0081ZM43.6481 14C44.2481 14 44.7815 13.8667 45.2481 13.6C45.7281 13.3333 46.1081 12.9467 46.3881 12.44C46.6681 11.9333 46.8081 11.34 46.8081 10.66C46.8081 9.96667 46.6681 9.37333 46.3881 8.88C46.1081 8.37333 45.7281 7.98667 45.2481 7.72C44.7815 7.45333 44.2481 7.32 43.6481 7.32C43.0481 7.32 42.5081 7.45333 42.0281 7.72C41.5481 7.98667 41.1681 8.37333 40.8881 8.88C40.6081 9.37333 40.4681 9.96667 40.4681 10.66C40.4681 11.34 40.6081 11.9333 40.8881 12.44C41.1681 12.9467 41.5481 13.3333 42.0281 13.6C42.5081 13.8667 43.0481 14 43.6481 14ZM53.6656 16V6.84L54.2456 7.44H49.9056V5.32H59.9056V7.44H55.5856L56.1656 6.84V16H53.6656ZM68.1991 16V13.84L68.0591 13.38V9.6C68.0591 8.86667 67.8391 8.3 67.3991 7.9C66.9591 7.48667 66.2924 7.28 65.3991 7.28C64.7991 7.28 64.2057 7.37333 63.6191 7.56C63.0457 7.74667 62.5591 8.00667 62.1591 8.34L61.1791 6.52C61.7524 6.08 62.4324 5.75333 63.2191 5.54C64.0191 5.31333 64.8457 5.2 65.6991 5.2C67.2457 5.2 68.4391 5.57333 69.2791 6.32C70.1324 7.05333 70.5591 8.19333 70.5591 9.74V16H68.1991ZM64.8391 16.14C64.0391 16.14 63.3391 16.0067 62.7391 15.74C62.1391 15.46 61.6724 15.08 61.3391 14.6C61.0191 14.1067 60.8591 13.5533 60.8591 12.94C60.8591 12.34 60.9991 11.8 61.2791 11.32C61.5724 10.84 62.0457 10.46 62.6991 10.18C63.3524 9.9 64.2191 9.76 65.2991 9.76H68.3991V11.42H65.4791C64.6257 11.42 64.0524 11.56 63.7591 11.84C63.4657 12.1067 63.3191 12.44 63.3191 12.84C63.3191 13.2933 63.4991 13.6533 63.8591 13.92C64.2191 14.1867 64.7191 14.32 65.3591 14.32C65.9724 14.32 66.5191 14.18 66.9991 13.9C67.4924 13.62 67.8457 13.2067 68.0591 12.66L68.4791 14.16C68.2391 14.7867 67.8057 15.2733 67.1791 15.62C66.5657 15.9667 65.7857 16.14 64.8391 16.14ZM73.6527 16V5.32H83.8927V16H81.4127V6.86L81.9927 7.44H75.5727L76.1527 6.86V16H73.6527ZM92.2459 16.14C91.0593 16.14 90.0193 15.9067 89.1259 15.44C88.2459 14.96 87.5593 14.3067 87.0659 13.48C86.5859 12.6533 86.3459 11.7133 86.3459 10.66C86.3459 9.59333 86.5793 8.65333 87.0459 7.84C87.5259 7.01333 88.1793 6.36667 89.0059 5.9C89.8459 5.43333 90.7993 5.2 91.8659 5.2C92.9059 5.2 93.8326 5.42667 94.6459 5.88C95.4593 6.33333 96.0993 6.97333 96.5659 7.8C97.0326 8.62667 97.2659 9.6 97.2659 10.72C97.2659 10.8267 97.2593 10.9467 97.2459 11.08C97.2459 11.2133 97.2393 11.34 97.2259 11.46H88.3259V9.8H95.9059L94.9259 10.32C94.9393 9.70667 94.8126 9.16667 94.5459 8.7C94.2793 8.23333 93.9126 7.86667 93.4459 7.6C92.9926 7.33333 92.4659 7.2 91.8659 7.2C91.2526 7.2 90.7126 7.33333 90.2459 7.6C89.7926 7.86667 89.4326 8.24 89.1659 8.72C88.9126 9.18667 88.7859 9.74 88.7859 10.38V10.78C88.7859 11.42 88.9326 11.9867 89.2259 12.48C89.5193 12.9733 89.9326 13.3533 90.4659 13.62C90.9993 13.8867 91.6126 14.02 92.3059 14.02C92.9059 14.02 93.4459 13.9267 93.9259 13.74C94.4059 13.5533 94.8326 13.26 95.2059 12.86L96.5459 14.4C96.0659 14.96 95.4593 15.3933 94.7259 15.7C94.0059 15.9933 93.1793 16.14 92.2459 16.14ZM105.92 16.14C105.054 16.14 104.26 15.94 103.54 15.54C102.834 15.14 102.267 14.54 101.84 13.74C101.427 12.9267 101.22 11.9 101.22 10.66C101.22 9.40667 101.42 8.38 101.82 7.58C102.234 6.78 102.794 6.18667 103.5 5.8C104.207 5.4 105.014 5.2 105.92 5.2C106.974 5.2 107.9 5.42667 108.7 5.88C109.514 6.33333 110.154 6.96667 110.62 7.78C111.1 8.59333 111.34 9.55333 111.34 10.66C111.34 11.7667 111.1 12.7333 110.62 13.56C110.154 14.3733 109.514 15.0067 108.7 15.46C107.9 15.9133 106.974 16.14 105.92 16.14ZM100 19.88V5.32H102.38V7.84L102.3 10.68L102.5 13.52V19.88H100ZM105.64 14C106.24 14 106.774 13.8667 107.24 13.6C107.72 13.3333 108.1 12.9467 108.38 12.44C108.66 11.9333 108.8 11.34 108.8 10.66C108.8 9.96667 108.66 9.37333 108.38 8.88C108.1 8.37333 107.72 7.98667 107.24 7.72C106.774 7.45333 106.24 7.32 105.64 7.32C105.04 7.32 104.5 7.45333 104.02 7.72C103.54 7.98667 103.16 8.37333 102.88 8.88C102.6 9.37333 102.46 9.96667 102.46 10.66C102.46 11.34 102.6 11.9333 102.88 12.44C103.16 12.9467 103.54 13.3333 104.02 13.6C104.5 13.8667 105.04 14 105.64 14ZM114.495 20.02C113.975 20.02 113.455 19.9333 112.935 19.76C112.415 19.5867 111.982 19.3467 111.635 19.04L112.635 17.2C112.889 17.4267 113.175 17.6067 113.495 17.74C113.815 17.8733 114.142 17.94 114.475 17.94C114.929 17.94 115.295 17.8267 115.575 17.6C115.855 17.3733 116.115 16.9933 116.355 16.46L116.975 15.06L117.175 14.76L121.215 5.32H123.615L118.615 16.86C118.282 17.66 117.909 18.2933 117.495 18.76C117.095 19.2267 116.642 19.5533 116.135 19.74C115.642 19.9267 115.095 20.02 114.495 20.02ZM116.695 16.38L111.875 5.32H114.475L118.395 14.54L116.695 16.38ZM131.839 20.02C131.319 20.02 130.799 19.9333 130.279 19.76C129.759 19.5867 129.326 19.3467 128.979 19.04L129.979 17.2C130.233 17.4267 130.519 17.6067 130.839 17.74C131.159 17.8733 131.486 17.94 131.819 17.94C132.273 17.94 132.639 17.8267 132.919 17.6C133.199 17.3733 133.459 16.9933 133.699 16.46L134.319 15.06L134.519 14.76L138.559 5.32H140.959L135.959 16.86C135.626 17.66 135.253 18.2933 134.839 18.76C134.439 19.2267 133.986 19.5533 133.479 19.74C132.986 19.9267 132.439 20.02 131.839 20.02ZM134.039 16.38L129.219 5.32H131.819L135.739 14.54L134.039 16.38ZM149.371 14.84V7.44H145.271L145.211 9.16C145.184 9.77333 145.144 10.3667 145.091 10.94C145.038 11.5 144.951 12.02 144.831 12.5C144.711 12.9667 144.538 13.3533 144.311 13.66C144.084 13.9667 143.784 14.1667 143.411 14.26L140.931 13.88C141.331 13.88 141.651 13.7533 141.891 13.5C142.144 13.2333 142.338 12.8733 142.471 12.42C142.618 11.9533 142.724 11.4267 142.791 10.84C142.858 10.24 142.904 9.62 142.931 8.98L143.071 5.32H151.871V14.84H149.371ZM140.551 18.38V13.88H153.451V18.38H151.111V16H142.871V18.38H140.551ZM160.444 16.14C159.351 16.14 158.377 15.9067 157.524 15.44C156.671 14.96 155.997 14.3067 155.504 13.48C155.011 12.6533 154.764 11.7133 154.764 10.66C154.764 9.59333 155.011 8.65333 155.504 7.84C155.997 7.01333 156.671 6.36667 157.524 5.9C158.377 5.43333 159.351 5.2 160.444 5.2C161.551 5.2 162.531 5.43333 163.384 5.9C164.251 6.36667 164.924 7.00667 165.404 7.82C165.897 8.63333 166.144 9.58 166.144 10.66C166.144 11.7133 165.897 12.6533 165.404 13.48C164.924 14.3067 164.251 14.96 163.384 15.44C162.531 15.9067 161.551 16.14 160.444 16.14ZM160.444 14C161.057 14 161.604 13.8667 162.084 13.6C162.564 13.3333 162.937 12.9467 163.204 12.44C163.484 11.9333 163.624 11.34 163.624 10.66C163.624 9.96667 163.484 9.37333 163.204 8.88C162.937 8.37333 162.564 7.98667 162.084 7.72C161.604 7.45333 161.064 7.32 160.464 7.32C159.851 7.32 159.304 7.45333 158.824 7.72C158.357 7.98667 157.984 8.37333 157.704 8.88C157.424 9.37333 157.284 9.96667 157.284 10.66C157.284 11.34 157.424 11.9333 157.704 12.44C157.984 12.9467 158.357 13.3333 158.824 13.6C159.304 13.8667 159.844 14 160.444 14ZM173.714 16.2C172.834 16.2 172.047 16.0667 171.354 15.8C170.66 15.5333 170.06 15.1267 169.554 14.58C169.06 14.02 168.68 13.3133 168.414 12.46C168.147 11.6067 168.014 10.5933 168.014 9.42C168.014 8.56667 168.087 7.78667 168.234 7.08C168.38 6.37333 168.6 5.74 168.894 5.18C169.187 4.60667 169.554 4.1 169.994 3.66C170.447 3.22 170.974 2.85333 171.574 2.56C172.174 2.26667 172.854 2.04 173.614 1.88L178.574 0.819999L178.934 3.06L174.434 3.98C174.18 4.03333 173.874 4.11333 173.514 4.22C173.167 4.31333 172.807 4.46 172.434 4.66C172.074 4.84667 171.734 5.12 171.414 5.48C171.107 5.82667 170.854 6.28 170.654 6.84C170.467 7.38667 170.374 8.07333 170.374 8.9C170.374 9.15333 170.38 9.34667 170.394 9.48C170.42 9.6 170.44 9.73333 170.454 9.88C170.48 10.0133 170.494 10.2133 170.494 10.48L169.554 9.5C169.82 8.82 170.187 8.24 170.654 7.76C171.134 7.26667 171.687 6.89333 172.314 6.64C172.954 6.37333 173.647 6.24 174.394 6.24C175.394 6.24 176.28 6.44667 177.054 6.86C177.827 7.27333 178.434 7.85333 178.874 8.6C179.314 9.34667 179.534 10.1933 179.534 11.14C179.534 12.1267 179.294 13 178.814 13.76C178.334 14.52 177.654 15.12 176.774 15.56C175.907 15.9867 174.887 16.2 173.714 16.2ZM173.914 14.18C174.514 14.18 175.04 14.0533 175.494 13.8C175.96 13.5333 176.32 13.1733 176.574 12.72C176.84 12.2667 176.974 11.76 176.974 11.2C176.974 10.64 176.84 10.1533 176.574 9.74C176.32 9.31333 175.96 8.97333 175.494 8.72C175.04 8.46667 174.5 8.34 173.874 8.34C173.274 8.34 172.734 8.46 172.254 8.7C171.787 8.94 171.42 9.27333 171.154 9.7C170.9 10.1133 170.774 10.5933 170.774 11.14C170.774 11.7 170.907 12.2133 171.174 12.68C171.44 13.1467 171.807 13.5133 172.274 13.78C172.754 14.0467 173.3 14.18 173.914 14.18ZM181.953 16V5.32H184.453V9.66H189.833V5.32H192.333V16H189.833V11.78H184.453V16H181.953ZM200.444 16.14C199.351 16.14 198.377 15.9067 197.524 15.44C196.671 14.96 195.997 14.3067 195.504 13.48C195.011 12.6533 194.764 11.7133 194.764 10.66C194.764 9.59333 195.011 8.65333 195.504 7.84C195.997 7.01333 196.671 6.36667 197.524 5.9C198.377 5.43333 199.351 5.2 200.444 5.2C201.551 5.2 202.531 5.43333 203.384 5.9C204.251 6.36667 204.924 7.00667 205.404 7.82C205.897 8.63333 206.144 9.58 206.144 10.66C206.144 11.7133 205.897 12.6533 205.404 13.48C204.924 14.3067 204.251 14.96 203.384 15.44C202.531 15.9067 201.551 16.14 200.444 16.14ZM200.444 14C201.057 14 201.604 13.8667 202.084 13.6C202.564 13.3333 202.937 12.9467 203.204 12.44C203.484 11.9333 203.624 11.34 203.624 10.66C203.624 9.96667 203.484 9.37333 203.204 8.88C202.937 8.37333 202.564 7.98667 202.084 7.72C201.604 7.45333 201.064 7.32 200.464 7.32C199.851 7.32 199.304 7.45333 198.824 7.72C198.357 7.98667 197.984 8.37333 197.704 8.88C197.424 9.37333 197.284 9.96667 197.284 10.66C197.284 11.34 197.424 11.9333 197.704 12.44C197.984 12.9467 198.357 13.3333 198.824 13.6C199.304 13.8667 199.844 14 200.444 14ZM214.141 16V5.32H216.641V12.36L222.541 5.32H224.821V16H222.321V8.96L216.441 16H214.141ZM232.151 15.98L232.271 13.88C232.365 13.8933 232.451 13.9067 232.531 13.92C232.611 13.9333 232.685 13.94 232.751 13.94C233.165 13.94 233.485 13.8133 233.711 13.56C233.938 13.3067 234.105 12.9667 234.211 12.54C234.331 12.1 234.411 11.6133 234.451 11.08C234.505 10.5333 234.545 9.98667 234.571 9.44L234.751 5.32H243.391V16H240.891V6.76L241.471 7.44H236.391L236.931 6.74L236.791 9.56C236.751 10.5067 236.671 11.3867 236.551 12.2C236.445 13 236.271 13.7 236.031 14.3C235.805 14.9 235.485 15.3667 235.071 15.7C234.671 16.0333 234.158 16.2 233.531 16.2C233.331 16.2 233.111 16.18 232.871 16.14C232.645 16.1 232.405 16.0467 232.151 15.98ZM251.738 16.14C250.551 16.14 249.511 15.9067 248.618 15.44C247.738 14.96 247.051 14.3067 246.558 13.48C246.078 12.6533 245.838 11.7133 245.838 10.66C245.838 9.59333 246.071 8.65333 246.538 7.84C247.018 7.01333 247.671 6.36667 248.498 5.9C249.338 5.43333 250.291 5.2 251.358 5.2C252.398 5.2 253.325 5.42667 254.138 5.88C254.951 6.33333 255.591 6.97333 256.058 7.8C256.525 8.62667 256.758 9.6 256.758 10.72C256.758 10.8267 256.751 10.9467 256.738 11.08C256.738 11.2133 256.731 11.34 256.718 11.46H247.818V9.8H255.398L254.418 10.32C254.431 9.70667 254.305 9.16667 254.038 8.7C253.771 8.23333 253.405 7.86667 252.938 7.6C252.485 7.33333 251.958 7.2 251.358 7.2C250.745 7.2 250.205 7.33333 249.738 7.6C249.285 7.86667 248.925 8.24 248.658 8.72C248.405 9.18667 248.278 9.74 248.278 10.38V10.78C248.278 11.42 248.425 11.9867 248.718 12.48C249.011 12.9733 249.425 13.3533 249.958 13.62C250.491 13.8867 251.105 14.02 251.798 14.02C252.398 14.02 252.938 13.9267 253.418 13.74C253.898 13.5533 254.325 13.26 254.698 12.86L256.038 14.4C255.558 14.96 254.951 15.3933 254.218 15.7C253.498 15.9933 252.671 16.14 251.738 16.14ZM259.493 16V5.32H267.693V7.44H261.413L261.993 6.88V16H259.493ZM277.172 16L273.312 10.88L275.352 9.62L280.112 16H277.172ZM269.512 16V5.32H272.012V16H269.512ZM271.272 11.72V9.64H274.892V11.72H271.272ZM275.592 10.96L273.252 10.68L277.172 5.32H279.852L275.592 10.96ZM286.284 16.14C285.19 16.14 284.217 15.9067 283.364 15.44C282.51 14.96 281.837 14.3067 281.344 13.48C280.85 12.6533 280.604 11.7133 280.604 10.66C280.604 9.59333 280.85 8.65333 281.344 7.84C281.837 7.01333 282.51 6.36667 283.364 5.9C284.217 5.43333 285.19 5.2 286.284 5.2C287.39 5.2 288.37 5.43333 289.224 5.9C290.09 6.36667 290.764 7.00667 291.244 7.82C291.737 8.63333 291.984 9.58 291.984 10.66C291.984 11.7133 291.737 12.6533 291.244 13.48C290.764 14.3067 290.09 14.96 289.224 15.44C288.37 15.9067 287.39 16.14 286.284 16.14ZM286.284 14C286.897 14 287.444 13.8667 287.924 13.6C288.404 13.3333 288.777 12.9467 289.044 12.44C289.324 11.9333 289.464 11.34 289.464 10.66C289.464 9.96667 289.324 9.37333 289.044 8.88C288.777 8.37333 288.404 7.98667 287.924 7.72C287.444 7.45333 286.904 7.32 286.304 7.32C285.69 7.32 285.144 7.45333 284.664 7.72C284.197 7.98667 283.824 8.37333 283.544 8.88C283.264 9.37333 283.124 9.96667 283.124 10.66C283.124 11.34 283.264 11.9333 283.544 12.44C283.824 12.9467 284.197 13.3333 284.664 13.6C285.144 13.8667 285.684 14 286.284 14Z" fill="white"/>
</svg>
