<svg width="111" height="19" viewBox="0 0 111 19" fill="none" xmlns="http://www.w3.org/2000/svg">
<path d="M10.6 0.999999H12.06V15H10.6V0.999999ZM1.84 15H0.36V0.999999H1.84V15ZM10.74 8.54H1.68V7.24H10.74V8.54ZM22.9658 15V12.68L22.9058 12.3V8.42C22.9058 7.52667 22.6524 6.84 22.1458 6.36C21.6524 5.88 20.9124 5.64 19.9258 5.64C19.2458 5.64 18.5991 5.75333 17.9858 5.98C17.3724 6.20667 16.8524 6.50667 16.4258 6.88L15.7858 5.82C16.3191 5.36667 16.9591 5.02 17.7058 4.78C18.4524 4.52667 19.2391 4.4 20.0658 4.4C21.4258 4.4 22.4724 4.74 23.2058 5.42C23.9524 6.08667 24.3258 7.10667 24.3258 8.48V15H22.9658ZM19.3458 15.1C18.5591 15.1 17.8724 14.9733 17.2858 14.72C16.7124 14.4533 16.2724 14.0933 15.9658 13.64C15.6591 13.1733 15.5058 12.64 15.5058 12.04C15.5058 11.4933 15.6324 11 15.8858 10.56C16.1524 10.1067 16.5791 9.74667 17.1658 9.48C17.7658 9.2 18.5658 9.06 19.5658 9.06H23.1858V10.12H19.6058C18.5924 10.12 17.8858 10.3 17.4858 10.66C17.0991 11.02 16.9058 11.4667 16.9058 12C16.9058 12.6 17.1391 13.08 17.6058 13.44C18.0724 13.8 18.7258 13.98 19.5658 13.98C20.3658 13.98 21.0524 13.8 21.6258 13.44C22.2124 13.0667 22.6391 12.5333 22.9058 11.84L23.2258 12.82C22.9591 13.5133 22.4924 14.0667 21.8258 14.48C21.1724 14.8933 20.3458 15.1 19.3458 15.1ZM32.5059 15.1C31.4659 15.1 30.5326 14.8733 29.7059 14.42C28.8926 13.9533 28.2526 13.32 27.7859 12.52C27.3193 11.7067 27.0859 10.78 27.0859 9.74C27.0859 8.68667 27.3193 7.76 27.7859 6.96C28.2526 6.16 28.8926 5.53333 29.7059 5.08C30.5326 4.62667 31.4659 4.4 32.5059 4.4C33.3993 4.4 34.2059 4.57333 34.9259 4.92C35.6459 5.26667 36.2126 5.78667 36.6259 6.48L35.5659 7.2C35.2059 6.66667 34.7593 6.27333 34.2259 6.02C33.6926 5.76667 33.1126 5.64 32.4859 5.64C31.7393 5.64 31.0659 5.81333 30.4659 6.16C29.8659 6.49333 29.3926 6.96667 29.0459 7.58C28.6993 8.19333 28.5259 8.91333 28.5259 9.74C28.5259 10.5667 28.6993 11.2867 29.0459 11.9C29.3926 12.5133 29.8659 12.9933 30.4659 13.34C31.0659 13.6733 31.7393 13.84 32.4859 13.84C33.1126 13.84 33.6926 13.7133 34.2259 13.46C34.7593 13.2067 35.2059 12.82 35.5659 12.3L36.6259 13.02C36.2126 13.7 35.6459 14.22 34.9259 14.58C34.2059 14.9267 33.3993 15.1 32.5059 15.1ZM41.1802 15V5.36L41.5402 5.74H37.2002V4.5H46.5802V5.74H42.2402L42.6002 5.36V15H41.1802ZM54.0533 15.1C53.1466 15.1 52.3266 14.8933 51.5933 14.48C50.8599 14.0533 50.2733 13.4467 49.8333 12.66C49.4066 11.86 49.1933 10.8867 49.1933 9.74C49.1933 8.59333 49.4066 7.62667 49.8333 6.84C50.2599 6.04 50.8399 5.43333 51.5733 5.02C52.3066 4.60667 53.1333 4.4 54.0533 4.4C55.0533 4.4 55.9466 4.62667 56.7333 5.08C57.5333 5.52 58.1599 6.14667 58.6133 6.96C59.0666 7.76 59.2933 8.68667 59.2933 9.74C59.2933 10.8067 59.0666 11.74 58.6133 12.54C58.1599 13.34 57.5333 13.9667 56.7333 14.42C55.9466 14.8733 55.0533 15.1 54.0533 15.1ZM48.6333 18.88V4.5H49.9933V7.66L49.8533 9.76L50.0533 11.88V18.88H48.6333ZM53.9533 13.84C54.6999 13.84 55.3666 13.6733 55.9533 13.34C56.5399 12.9933 57.0066 12.5133 57.3533 11.9C57.6999 11.2733 57.8733 10.5533 57.8733 9.74C57.8733 8.92667 57.6999 8.21333 57.3533 7.6C57.0066 6.98667 56.5399 6.50667 55.9533 6.16C55.3666 5.81333 54.6999 5.64 53.9533 5.64C53.2066 5.64 52.5333 5.81333 51.9333 6.16C51.3466 6.50667 50.8799 6.98667 50.5333 7.6C50.1999 8.21333 50.0333 8.92667 50.0333 9.74C50.0333 10.5533 50.1999 11.2733 50.5333 11.9C50.8799 12.5133 51.3466 12.9933 51.9333 13.34C52.5333 13.6733 53.2066 13.84 53.9533 13.84ZM66.6642 15.1C65.6509 15.1 64.7376 14.8733 63.9242 14.42C63.1242 13.9533 62.4909 13.32 62.0242 12.52C61.5576 11.7067 61.3242 10.78 61.3242 9.74C61.3242 8.68667 61.5576 7.76 62.0242 6.96C62.4909 6.16 63.1242 5.53333 63.9242 5.08C64.7242 4.62667 65.6376 4.4 66.6642 4.4C67.7042 4.4 68.6242 4.62667 69.4242 5.08C70.2376 5.53333 70.8709 6.16 71.3242 6.96C71.7909 7.76 72.0242 8.68667 72.0242 9.74C72.0242 10.78 71.7909 11.7067 71.3242 12.52C70.8709 13.32 70.2376 13.9533 69.4242 14.42C68.6109 14.8733 67.6909 15.1 66.6642 15.1ZM66.6642 13.84C67.4242 13.84 68.0976 13.6733 68.6842 13.34C69.2709 12.9933 69.7309 12.5133 70.0642 11.9C70.4109 11.2733 70.5842 10.5533 70.5842 9.74C70.5842 8.91333 70.4109 8.19333 70.0642 7.58C69.7309 6.96667 69.2709 6.49333 68.6842 6.16C68.0976 5.81333 67.4309 5.64 66.6842 5.64C65.9376 5.64 65.2709 5.81333 64.6842 6.16C64.0976 6.49333 63.6309 6.96667 63.2842 7.58C62.9376 8.19333 62.7642 8.91333 62.7642 9.74C62.7642 10.5533 62.9376 11.2733 63.2842 11.9C63.6309 12.5133 64.0976 12.9933 64.6842 13.34C65.2709 13.6733 65.9309 13.84 66.6642 13.84ZM75.0591 15V4.5H76.4791V12.84L83.4991 4.5H84.7591V15H83.3391V6.64L76.3391 15H75.0591ZM79.8191 2.98C78.9391 2.98 78.2257 2.76 77.6791 2.32C77.1457 1.86667 76.8657 1.22 76.8391 0.38H77.8591C77.8724 0.913333 78.0591 1.33333 78.4191 1.64C78.7791 1.94667 79.2457 2.1 79.8191 2.1C80.3924 2.1 80.8591 1.94667 81.2191 1.64C81.5924 1.33333 81.7857 0.913333 81.7991 0.38H82.8191C82.8057 1.22 82.5257 1.86667 81.9791 2.32C81.4324 2.76 80.7124 2.98 79.8191 2.98ZM96.5286 15L92.2086 9.8L93.3886 9.1L98.2086 15H96.5286ZM88.8286 15V4.5H90.2486V15H88.8286ZM89.8086 10.32V9.1H93.1886V10.32H89.8086ZM93.5086 9.9L92.1886 9.7L96.3686 4.5H97.9086L93.5086 9.9ZM100.45 15V4.5H101.87V12.84L108.89 4.5H110.15V15H108.73V6.64L101.73 15H100.45Z" fill="white"/>
</svg>
