<svg width="399" height="312" viewBox="0 0 399 312" fill="none" xmlns="http://www.w3.org/2000/svg">
<g clip-path="url(#clip0_615_449)">
<rect width="399" height="312" fill="#1B2D3B"/>
<path fill-rule="evenodd" clip-rule="evenodd" d="M0 0.287148V203.009C79.4391 201.823 143.153 229.841 205.707 257.769C265.521 284.475 324.741 311.111 398.879 312.166V110.954C327.228 109.159 270.247 82.8025 212.554 56.1211C148.809 26.6408 83.7484 -3.25831 0 0.287148Z" fill="url(#paint0_linear_615_449)"/>
<g filter="url(#filter0_b_615_449)">
<path d="M292.561 305.389H345.162C348.068 305.389 350.423 303.108 350.423 300.293C350.423 297.479 348.068 295.197 345.162 295.197H292.561C289.656 295.197 287.301 297.479 287.301 300.293C287.301 303.108 289.656 305.389 292.561 305.389Z" fill="url(#paint1_radial_615_449)"/>
<path fill-rule="evenodd" clip-rule="evenodd" d="M286.203 266.504C286.203 266.504 285.125 264.371 283.202 262.9C283.202 262.9 272.739 255.013 266.893 243.483C266.893 243.483 261.043 231.946 261 219.099C261 219.099 260.947 207.889 265.353 197.545C265.353 197.545 269.607 187.56 277.408 179.761C277.408 179.761 285.217 171.955 295.379 167.54C295.379 167.54 305.92 162.96 317.488 162.702C317.488 162.702 336.174 162.273 351.588 172.516C351.588 172.516 367.002 182.759 373.318 199.802C373.318 199.802 379.633 216.846 374.463 234.248C374.463 234.248 369.293 251.649 354.56 262.856C354.56 262.856 352.607 264.319 351.517 266.464C351.517 266.464 350.427 268.61 350.423 270.991V274.813C350.423 274.813 350.423 279.035 347.341 282.02C347.341 282.02 344.26 285.005 339.902 285.005H297.821C297.821 285.005 293.463 285.005 290.382 282.02C290.382 282.02 287.301 279.035 287.301 274.813L287.301 271.026C287.301 271.026 287.284 268.644 286.203 266.504ZM289.702 254.885C289.702 254.885 293.518 257.799 295.652 262.024C295.652 262.024 297.788 266.25 297.821 270.956L297.821 274.813H339.902V270.991C339.902 270.991 339.912 266.228 342.078 261.964C342.078 261.964 344.245 257.699 348.126 254.792C348.126 254.792 360.123 245.666 364.353 231.428C364.353 231.428 368.583 217.19 363.416 203.246C363.416 203.246 358.249 189.301 345.637 180.92C345.637 180.92 333.026 172.54 317.737 172.891C317.737 172.891 308.286 173.102 299.684 176.84C299.684 176.84 291.365 180.454 284.963 186.854C284.963 186.854 278.563 193.252 275.078 201.433C275.078 201.433 271.477 209.887 271.52 219.052C271.52 219.052 271.556 229.562 276.336 238.99C276.336 238.99 281.116 248.417 289.675 254.865L289.702 254.885Z" fill="url(#paint2_radial_615_449)"/>
<path d="M337.451 200.779C343.362 206.491 344.778 214.462 344.778 214.462C345.213 216.907 347.401 218.694 349.962 218.694L350.02 218.693C350.3 218.69 350.579 218.666 350.854 218.62C353.378 218.199 355.222 216.078 355.222 213.598L355.222 213.541C355.219 213.27 355.193 213 355.146 212.733C353.161 201.568 344.88 193.563 344.88 193.563C336.599 185.56 325.066 183.666 325.066 183.666C324.776 183.619 324.482 183.595 324.187 183.595L324.108 183.595C321.572 183.632 319.425 185.417 319.001 187.839C318.952 188.12 318.927 188.405 318.927 188.691L318.929 188.826C318.957 189.837 319.294 190.817 319.899 191.641C320.706 192.743 321.933 193.489 323.308 193.715C331.54 195.067 337.451 200.779 337.451 200.779Z" fill="url(#paint3_radial_615_449)"/>
<path d="M292.561 305.389H345.162C348.068 305.389 350.423 303.108 350.423 300.293C350.423 297.479 348.068 295.197 345.162 295.197H292.561C289.656 295.197 287.301 297.479 287.301 300.293C287.301 303.108 289.656 305.389 292.561 305.389Z" stroke="url(#paint4_radial_615_449)" stroke-width="3"/>
<path d="M292.561 305.389H345.162C348.068 305.389 350.423 303.108 350.423 300.293C350.423 297.479 348.068 295.197 345.162 295.197H292.561C289.656 295.197 287.301 297.479 287.301 300.293C287.301 303.108 289.656 305.389 292.561 305.389Z" stroke="url(#paint5_radial_615_449)" stroke-width="3"/>
<path fill-rule="evenodd" clip-rule="evenodd" d="M286.203 266.504C286.203 266.504 285.125 264.371 283.202 262.9C283.202 262.9 272.739 255.013 266.893 243.483C266.893 243.483 261.043 231.946 261 219.099C261 219.099 260.947 207.889 265.353 197.545C265.353 197.545 269.607 187.56 277.408 179.761C277.408 179.761 285.217 171.955 295.379 167.54C295.379 167.54 305.92 162.96 317.488 162.702C317.488 162.702 336.174 162.273 351.588 172.516C351.588 172.516 367.002 182.759 373.318 199.802C373.318 199.802 379.633 216.846 374.463 234.248C374.463 234.248 369.293 251.649 354.56 262.856C354.56 262.856 352.607 264.319 351.517 266.464C351.517 266.464 350.427 268.61 350.423 270.991V274.813C350.423 274.813 350.423 279.035 347.341 282.02C347.341 282.02 344.26 285.005 339.902 285.005H297.821C297.821 285.005 293.463 285.005 290.382 282.02C290.382 282.02 287.301 279.035 287.301 274.813L287.301 271.026C287.301 271.026 287.284 268.644 286.203 266.504ZM289.702 254.885C289.702 254.885 293.518 257.799 295.652 262.024C295.652 262.024 297.788 266.25 297.821 270.956L297.821 274.813H339.902V270.991C339.902 270.991 339.912 266.228 342.078 261.964C342.078 261.964 344.245 257.699 348.126 254.792C348.126 254.792 360.123 245.666 364.353 231.428C364.353 231.428 368.583 217.19 363.416 203.246C363.416 203.246 358.249 189.301 345.637 180.92C345.637 180.92 333.026 172.54 317.737 172.891C317.737 172.891 308.286 173.102 299.684 176.84C299.684 176.84 291.365 180.454 284.963 186.854C284.963 186.854 278.563 193.252 275.078 201.433C275.078 201.433 271.477 209.887 271.52 219.052C271.52 219.052 271.556 229.562 276.336 238.99C276.336 238.99 281.116 248.417 289.675 254.865L289.702 254.885Z" stroke="url(#paint6_radial_615_449)" stroke-width="3"/>
<path fill-rule="evenodd" clip-rule="evenodd" d="M286.203 266.504C286.203 266.504 285.125 264.371 283.202 262.9C283.202 262.9 272.739 255.013 266.893 243.483C266.893 243.483 261.043 231.946 261 219.099C261 219.099 260.947 207.889 265.353 197.545C265.353 197.545 269.607 187.56 277.408 179.761C277.408 179.761 285.217 171.955 295.379 167.54C295.379 167.54 305.92 162.96 317.488 162.702C317.488 162.702 336.174 162.273 351.588 172.516C351.588 172.516 367.002 182.759 373.318 199.802C373.318 199.802 379.633 216.846 374.463 234.248C374.463 234.248 369.293 251.649 354.56 262.856C354.56 262.856 352.607 264.319 351.517 266.464C351.517 266.464 350.427 268.61 350.423 270.991V274.813C350.423 274.813 350.423 279.035 347.341 282.02C347.341 282.02 344.26 285.005 339.902 285.005H297.821C297.821 285.005 293.463 285.005 290.382 282.02C290.382 282.02 287.301 279.035 287.301 274.813L287.301 271.026C287.301 271.026 287.284 268.644 286.203 266.504ZM289.702 254.885C289.702 254.885 293.518 257.799 295.652 262.024C295.652 262.024 297.788 266.25 297.821 270.956L297.821 274.813H339.902V270.991C339.902 270.991 339.912 266.228 342.078 261.964C342.078 261.964 344.245 257.699 348.126 254.792C348.126 254.792 360.123 245.666 364.353 231.428C364.353 231.428 368.583 217.19 363.416 203.246C363.416 203.246 358.249 189.301 345.637 180.92C345.637 180.92 333.026 172.54 317.737 172.891C317.737 172.891 308.286 173.102 299.684 176.84C299.684 176.84 291.365 180.454 284.963 186.854C284.963 186.854 278.563 193.252 275.078 201.433C275.078 201.433 271.477 209.887 271.52 219.052C271.52 219.052 271.556 229.562 276.336 238.99C276.336 238.99 281.116 248.417 289.675 254.865L289.702 254.885Z" stroke="url(#paint7_radial_615_449)" stroke-width="3"/>
<path d="M337.451 200.779C343.362 206.491 344.778 214.462 344.778 214.462C345.213 216.907 347.401 218.694 349.962 218.694L350.02 218.693C350.3 218.69 350.579 218.666 350.854 218.62C353.378 218.199 355.222 216.078 355.222 213.598L355.222 213.541C355.219 213.27 355.193 213 355.146 212.733C353.161 201.568 344.88 193.563 344.88 193.563C336.599 185.56 325.066 183.666 325.066 183.666C324.776 183.619 324.482 183.595 324.187 183.595L324.108 183.595C321.572 183.632 319.425 185.417 319.001 187.839C318.952 188.12 318.927 188.405 318.927 188.691L318.929 188.826C318.957 189.837 319.294 190.817 319.899 191.641C320.706 192.743 321.933 193.489 323.308 193.715C331.54 195.067 337.451 200.779 337.451 200.779Z" stroke="url(#paint8_radial_615_449)" stroke-width="3"/>
<path d="M337.451 200.779C343.362 206.491 344.778 214.462 344.778 214.462C345.213 216.907 347.401 218.694 349.962 218.694L350.02 218.693C350.3 218.69 350.579 218.666 350.854 218.62C353.378 218.199 355.222 216.078 355.222 213.598L355.222 213.541C355.219 213.27 355.193 213 355.146 212.733C353.161 201.568 344.88 193.563 344.88 193.563C336.599 185.56 325.066 183.666 325.066 183.666C324.776 183.619 324.482 183.595 324.187 183.595L324.108 183.595C321.572 183.632 319.425 185.417 319.001 187.839C318.952 188.12 318.927 188.405 318.927 188.691L318.929 188.826C318.957 189.837 319.294 190.817 319.899 191.641C320.706 192.743 321.933 193.489 323.308 193.715C331.54 195.067 337.451 200.779 337.451 200.779Z" stroke="url(#paint9_radial_615_449)" stroke-width="3"/>
</g>
<g filter="url(#filter1_b_615_449)">
<path d="M277.958 174.862C270.498 171.112 262.574 168.263 254.727 165.305C250.176 163.595 245.819 161.597 241.966 158.805C234.377 153.294 235.766 144.301 244.588 140.711C247.086 139.696 249.706 139.363 252.366 139.211C262.616 138.672 272.372 140.365 281.674 144.432C286.305 146.465 287.827 145.813 289.364 141.385C290.977 136.705 292.316 131.955 293.812 127.24C294.809 124.072 293.543 121.991 290.286 120.672C284.322 118.284 278.205 116.579 271.781 115.666C263.398 114.508 263.398 114.472 263.309 106.742C263.199 95.8482 263.199 95.8482 251.302 95.8889C249.58 95.8948 247.858 95.8647 246.136 95.9065C240.58 96.0694 239.646 96.9714 239.523 102.113C239.46 104.415 239.553 106.715 239.529 109.053C239.534 115.884 239.495 115.776 232.387 118.173C215.205 123.985 204.631 134.808 203.608 152.069C202.69 167.353 211.445 177.642 225.152 185.11C233.596 189.719 242.928 192.42 251.874 196.02C255.367 197.411 258.704 199.017 261.614 201.236C270.227 207.715 268.732 218.542 258.583 222.676C253.158 224.888 247.408 225.447 241.495 224.784C232.369 223.772 223.628 221.609 215.384 217.718C210.556 215.433 209.151 216.049 207.538 220.837C206.156 224.976 204.931 229.151 203.706 233.326C202.059 238.941 202.694 240.269 208.542 242.874C215.999 246.156 223.955 247.819 232.064 248.977C238.41 249.89 238.607 250.141 238.724 256.181C238.781 258.914 238.799 261.682 238.856 264.415C238.918 267.866 240.731 269.873 244.606 269.932C248.99 269.989 253.412 269.974 257.794 269.851C261.394 269.767 263.222 267.963 263.2 264.619C263.176 260.88 263.347 257.104 263.166 253.365C262.946 249.555 264.733 247.607 268.718 246.587C277.9 244.254 285.698 239.697 291.681 232.918C308.309 214.164 301.752 186.825 277.958 174.862Z" fill="url(#paint10_radial_615_449)"/>
<path d="M263.166 253.365C262.946 249.555 264.733 247.607 268.718 246.587C277.9 244.254 285.698 239.697 291.681 232.918C308.309 214.164 301.752 186.825 277.958 174.862M263.166 253.365L261.668 253.433C261.668 253.435 261.668 253.438 261.668 253.44M263.166 253.365C263.282 255.77 263.253 258.19 263.224 260.606C263.208 261.946 263.191 263.285 263.2 264.619C263.222 267.963 261.394 269.767 257.794 269.851L240.224 256.155M263.166 253.365L261.669 253.447C261.668 253.445 261.668 253.442 261.668 253.44M261.668 253.44C261.545 251.285 261.982 249.429 263.216 247.962C264.42 246.531 266.209 245.68 268.342 245.134L268.345 245.133C277.263 242.868 284.788 238.457 290.555 231.923L290.557 231.92C306.443 214.004 300.324 187.784 277.287 176.202M261.668 253.44C261.782 255.804 261.754 258.135 261.724 260.513C261.708 261.863 261.691 263.229 261.7 264.624C261.709 266.025 261.335 266.867 260.808 267.38C260.266 267.907 259.329 268.314 257.755 268.351L257.748 268.351C253.39 268.474 248.988 268.489 244.621 268.432M277.287 176.202C277.288 176.202 277.288 176.202 277.288 176.202L277.958 174.862M277.287 176.202L277.958 174.862M277.287 176.202C270.749 172.915 263.849 170.328 256.873 167.712C255.984 167.379 255.094 167.045 254.203 166.709M277.958 174.862C271.343 171.537 264.363 168.92 257.396 166.308C256.506 165.974 255.616 165.64 254.727 165.305M254.727 165.305L254.203 166.709M254.727 165.305C250.176 163.595 245.819 161.597 241.966 158.805C234.377 153.294 235.766 144.301 244.588 140.711M254.727 165.305L254.202 166.709C254.203 166.709 254.203 166.709 254.203 166.709M254.203 166.709C249.596 164.978 245.097 162.923 241.088 160.019L241.087 160.018C236.931 157 235.04 152.858 235.639 148.814C236.235 144.791 239.234 141.269 244.019 139.322L244.019 139.321C246.745 138.213 249.56 137.869 252.275 137.713L252.283 137.713C262.756 137.162 272.746 138.893 282.271 143.058L282.273 143.058C283.392 143.55 284.235 143.838 284.889 143.963C285.531 144.085 285.891 144.03 286.117 143.939C286.579 143.754 287.168 143.131 287.946 140.892C288.968 137.925 289.871 134.959 290.783 131.962C291.305 130.248 291.829 128.524 292.381 126.783M244.588 140.711L293.812 127.24M244.588 140.711C247.086 139.696 249.706 139.363 252.366 139.211L244.588 140.711ZM292.381 126.783C292.382 126.783 292.382 126.782 292.382 126.782L293.812 127.24M292.381 126.783C292.381 126.784 292.381 126.785 292.381 126.785L293.812 127.24M292.381 126.783C292.795 125.468 292.676 124.606 292.332 123.987C291.967 123.326 291.19 122.655 289.729 122.063M293.812 127.24C294.809 124.072 293.543 121.991 290.286 120.672M289.729 122.063C289.73 122.064 289.731 122.064 289.732 122.064L290.286 120.672M289.729 122.063C289.728 122.063 289.727 122.062 289.726 122.062L290.286 120.672M289.729 122.063C283.869 119.716 277.871 118.046 271.577 117.151C269.513 116.866 267.854 116.636 266.583 116.327C265.316 116.019 264.179 115.578 263.347 114.697C262.496 113.798 262.164 112.657 262.004 111.423C261.849 110.226 261.831 108.702 261.81 106.85L261.809 106.755L261.809 106.753C261.781 103.989 261.759 102.055 261.572 100.636C261.386 99.219 261.07 98.6414 260.722 98.3264C260.346 97.9865 259.642 97.6857 258.039 97.5284C256.459 97.3731 254.319 97.3786 251.312 97.3888C250.715 97.3909 250.13 97.3888 249.551 97.3867C248.417 97.3827 247.307 97.3787 246.181 97.406C244.813 97.4462 243.827 97.5308 243.097 97.6883C242.377 97.8435 242.025 98.0453 241.823 98.2361C241.629 98.4181 241.435 98.7185 241.287 99.3467C241.133 99.9984 241.053 100.89 241.023 102.154L241.023 102.159C240.986 103.475 241.001 104.713 241.016 105.989C241.028 106.974 241.04 107.981 241.029 109.064C241.03 110.735 241.031 112.107 240.905 113.199C240.775 114.322 240.495 115.34 239.8 116.213C239.122 117.063 238.182 117.608 237.101 118.075C236.108 118.504 234.828 118.936 233.263 119.463C233.134 119.506 233.004 119.55 232.872 119.595C224.452 122.442 217.765 126.481 213.065 131.82C208.383 137.141 205.599 143.839 205.105 152.163L205.105 152.164C204.666 159.472 206.533 165.529 210.124 170.664C213.734 175.826 219.138 180.127 225.866 183.793L225.867 183.794C231.528 186.883 237.521 189.073 243.644 191.31C246.549 192.371 249.484 193.443 252.427 194.628M290.286 120.672L251.874 196.02M252.427 194.628C252.428 194.628 252.429 194.629 252.431 194.629L251.874 196.02M252.427 194.628C252.426 194.627 252.426 194.627 252.426 194.627L251.874 196.02M252.427 194.628C255.972 196.039 259.451 197.704 262.518 200.042M251.874 196.02C255.367 197.411 258.704 199.017 261.614 201.236M262.518 200.042C262.516 200.041 262.515 200.04 262.513 200.039L261.614 201.236M262.518 200.042C267.19 203.558 269.272 208.395 268.62 213.048C267.968 217.696 264.634 221.833 259.153 224.065M262.518 200.042C262.519 200.043 262.52 200.044 262.521 200.045L261.614 201.236M261.614 201.236L259.153 224.065M244.621 268.432C242.928 268.406 241.937 267.96 241.357 267.384C240.778 266.807 240.382 265.873 240.356 264.392L240.356 264.388C240.328 263.028 240.309 261.658 240.29 260.282L240.29 260.279C240.271 258.906 240.253 257.526 240.224 256.155M244.621 268.432C244.622 268.432 244.623 268.432 244.624 268.432L244.606 269.932L244.621 268.432ZM240.224 256.155C240.224 256.156 240.224 256.156 240.224 256.157L238.724 256.181L240.224 256.155L240.224 256.155ZM259.153 224.065L258.585 222.68L259.153 224.065C259.153 224.065 259.153 224.065 259.153 224.065ZM205.145 233.753C206.371 229.574 207.589 225.426 208.961 221.317C209.353 220.154 209.698 219.35 210.039 218.806C210.369 218.276 210.63 218.094 210.82 218.017C211.018 217.937 211.36 217.882 212.022 218.031C212.695 218.183 213.57 218.517 214.746 219.073L214.747 219.074L205.145 233.753ZM205.145 233.753C205.145 233.753 205.145 233.752 205.145 233.752L203.706 233.326L205.145 233.753ZM209.146 241.502C209.145 241.502 209.144 241.501 209.143 241.501L208.542 242.874L209.149 241.504C209.148 241.503 209.147 241.503 209.146 241.502ZM241.495 224.784L241.332 226.274C241.333 226.274 241.333 226.274 241.334 226.274L241.495 224.784Z" stroke="url(#paint11_radial_615_449)" stroke-width="3"/>
<path d="M263.166 253.365C262.946 249.555 264.733 247.607 268.718 246.587C277.9 244.254 285.698 239.697 291.681 232.918C308.309 214.164 301.752 186.825 277.958 174.862M263.166 253.365L261.668 253.433C261.668 253.435 261.668 253.438 261.668 253.44M263.166 253.365C263.282 255.77 263.253 258.19 263.224 260.606C263.208 261.946 263.191 263.285 263.2 264.619C263.222 267.963 261.394 269.767 257.794 269.851L240.224 256.155M263.166 253.365L261.669 253.447C261.668 253.445 261.668 253.442 261.668 253.44M261.668 253.44C261.545 251.285 261.982 249.429 263.216 247.962C264.42 246.531 266.209 245.68 268.342 245.134L268.345 245.133C277.263 242.868 284.788 238.457 290.555 231.923L290.557 231.92C306.443 214.004 300.324 187.784 277.287 176.202M261.668 253.44C261.782 255.804 261.754 258.135 261.724 260.513C261.708 261.863 261.691 263.229 261.7 264.624C261.709 266.025 261.335 266.867 260.808 267.38C260.266 267.907 259.329 268.314 257.755 268.351L257.748 268.351C253.39 268.474 248.988 268.489 244.621 268.432M277.287 176.202C277.288 176.202 277.288 176.202 277.288 176.202L277.958 174.862M277.287 176.202L277.958 174.862M277.287 176.202C270.749 172.915 263.849 170.328 256.873 167.712C255.984 167.379 255.094 167.045 254.203 166.709M277.958 174.862C271.343 171.537 264.363 168.92 257.396 166.308C256.506 165.974 255.616 165.64 254.727 165.305M254.727 165.305L254.203 166.709M254.727 165.305C250.176 163.595 245.819 161.597 241.966 158.805C234.377 153.294 235.766 144.301 244.588 140.711M254.727 165.305L254.202 166.709C254.203 166.709 254.203 166.709 254.203 166.709M254.203 166.709C249.596 164.978 245.097 162.923 241.088 160.019L241.087 160.018C236.931 157 235.04 152.858 235.639 148.814C236.235 144.791 239.234 141.269 244.019 139.322L244.019 139.321C246.745 138.213 249.56 137.869 252.275 137.713L252.283 137.713C262.756 137.162 272.746 138.893 282.271 143.058L282.273 143.058C283.392 143.55 284.235 143.838 284.889 143.963C285.531 144.085 285.891 144.03 286.117 143.939C286.579 143.754 287.168 143.131 287.946 140.892C288.968 137.925 289.871 134.959 290.783 131.962C291.305 130.248 291.829 128.524 292.381 126.783M244.588 140.711L293.812 127.24M244.588 140.711C247.086 139.696 249.706 139.363 252.366 139.211L244.588 140.711ZM292.381 126.783C292.382 126.783 292.382 126.782 292.382 126.782L293.812 127.24M292.381 126.783C292.381 126.784 292.381 126.785 292.381 126.785L293.812 127.24M292.381 126.783C292.795 125.468 292.676 124.606 292.332 123.987C291.967 123.326 291.19 122.655 289.729 122.063M293.812 127.24C294.809 124.072 293.543 121.991 290.286 120.672M289.729 122.063C289.73 122.064 289.731 122.064 289.732 122.064L290.286 120.672M289.729 122.063C289.728 122.063 289.727 122.062 289.726 122.062L290.286 120.672M289.729 122.063C283.869 119.716 277.871 118.046 271.577 117.151C269.513 116.866 267.854 116.636 266.583 116.327C265.316 116.019 264.179 115.578 263.347 114.697C262.496 113.798 262.164 112.657 262.004 111.423C261.849 110.226 261.831 108.702 261.81 106.85L261.809 106.755L261.809 106.753C261.781 103.989 261.759 102.055 261.572 100.636C261.386 99.219 261.07 98.6414 260.722 98.3264C260.346 97.9865 259.642 97.6857 258.039 97.5284C256.459 97.3731 254.319 97.3786 251.312 97.3888C250.715 97.3909 250.13 97.3888 249.551 97.3867C248.417 97.3827 247.307 97.3787 246.181 97.406C244.813 97.4462 243.827 97.5308 243.097 97.6883C242.377 97.8435 242.025 98.0453 241.823 98.2361C241.629 98.4181 241.435 98.7185 241.287 99.3467C241.133 99.9984 241.053 100.89 241.023 102.154L241.023 102.159C240.986 103.475 241.001 104.713 241.016 105.989C241.028 106.974 241.04 107.981 241.029 109.064C241.03 110.735 241.031 112.107 240.905 113.199C240.775 114.322 240.495 115.34 239.8 116.213C239.122 117.063 238.182 117.608 237.101 118.075C236.108 118.504 234.828 118.936 233.263 119.463C233.134 119.506 233.004 119.55 232.872 119.595C224.452 122.442 217.765 126.481 213.065 131.82C208.383 137.141 205.599 143.839 205.105 152.163L205.105 152.164C204.666 159.472 206.533 165.529 210.124 170.664C213.734 175.826 219.138 180.127 225.866 183.793L225.867 183.794C231.528 186.883 237.521 189.073 243.644 191.31C246.549 192.371 249.484 193.443 252.427 194.628M290.286 120.672L251.874 196.02M252.427 194.628C252.428 194.628 252.429 194.629 252.431 194.629L251.874 196.02M252.427 194.628C252.426 194.627 252.426 194.627 252.426 194.627L251.874 196.02M252.427 194.628C255.972 196.039 259.451 197.704 262.518 200.042M251.874 196.02C255.367 197.411 258.704 199.017 261.614 201.236M262.518 200.042C262.516 200.041 262.515 200.04 262.513 200.039L261.614 201.236M262.518 200.042C267.19 203.558 269.272 208.395 268.62 213.048C267.968 217.696 264.634 221.833 259.153 224.065M262.518 200.042C262.519 200.043 262.52 200.044 262.521 200.045L261.614 201.236M261.614 201.236L259.153 224.065M244.621 268.432C242.928 268.406 241.937 267.96 241.357 267.384C240.778 266.807 240.382 265.873 240.356 264.392L240.356 264.388C240.328 263.028 240.309 261.658 240.29 260.282L240.29 260.279C240.271 258.906 240.253 257.526 240.224 256.155M244.621 268.432C244.622 268.432 244.623 268.432 244.624 268.432L244.606 269.932L244.621 268.432ZM240.224 256.155C240.224 256.156 240.224 256.156 240.224 256.157L238.724 256.181L240.224 256.155L240.224 256.155ZM259.153 224.065L258.585 222.68L259.153 224.065C259.153 224.065 259.153 224.065 259.153 224.065ZM205.145 233.753C206.371 229.574 207.589 225.426 208.961 221.317C209.353 220.154 209.698 219.35 210.039 218.806C210.369 218.276 210.63 218.094 210.82 218.017C211.018 217.937 211.36 217.882 212.022 218.031C212.695 218.183 213.57 218.517 214.746 219.073L214.747 219.074L205.145 233.753ZM205.145 233.753C205.145 233.753 205.145 233.752 205.145 233.752L203.706 233.326L205.145 233.753ZM209.146 241.502C209.145 241.502 209.144 241.501 209.143 241.501L208.542 242.874L209.149 241.504C209.148 241.503 209.147 241.503 209.146 241.502ZM241.495 224.784L241.332 226.274C241.333 226.274 241.333 226.274 241.334 226.274L241.495 224.784Z" stroke="url(#paint12_radial_615_449)" stroke-width="3"/>
<path d="M263.166 253.365C262.946 249.555 264.733 247.607 268.718 246.587C277.9 244.254 285.698 239.697 291.681 232.918C308.309 214.164 301.752 186.825 277.958 174.862M263.166 253.365L261.668 253.433C261.668 253.435 261.668 253.438 261.668 253.44M263.166 253.365C263.282 255.77 263.253 258.19 263.224 260.606C263.208 261.946 263.191 263.285 263.2 264.619C263.222 267.963 261.394 269.767 257.794 269.851L240.224 256.155M263.166 253.365L261.669 253.447C261.668 253.445 261.668 253.442 261.668 253.44M261.668 253.44C261.545 251.285 261.982 249.429 263.216 247.962C264.42 246.531 266.209 245.68 268.342 245.134L268.345 245.133C277.263 242.868 284.788 238.457 290.555 231.923L290.557 231.92C306.443 214.004 300.324 187.784 277.287 176.202M261.668 253.44C261.782 255.804 261.754 258.135 261.724 260.513C261.708 261.863 261.691 263.229 261.7 264.624C261.709 266.025 261.335 266.867 260.808 267.38C260.266 267.907 259.329 268.314 257.755 268.351L257.748 268.351C253.39 268.474 248.988 268.489 244.621 268.432M277.287 176.202C277.288 176.202 277.288 176.202 277.288 176.202L277.958 174.862M277.287 176.202L277.958 174.862M277.287 176.202C270.749 172.915 263.849 170.328 256.873 167.712C255.984 167.379 255.094 167.045 254.203 166.709M277.958 174.862C271.343 171.537 264.363 168.92 257.396 166.308C256.506 165.974 255.616 165.64 254.727 165.305M254.727 165.305L254.203 166.709M254.727 165.305C250.176 163.595 245.819 161.597 241.966 158.805C234.377 153.294 235.766 144.301 244.588 140.711M254.727 165.305L254.202 166.709C254.203 166.709 254.203 166.709 254.203 166.709M254.203 166.709C249.596 164.978 245.097 162.923 241.088 160.019L241.087 160.018C236.931 157 235.04 152.858 235.639 148.814C236.235 144.791 239.234 141.269 244.019 139.322L244.019 139.321C246.745 138.213 249.56 137.869 252.275 137.713L252.283 137.713C262.756 137.162 272.746 138.893 282.271 143.058L282.273 143.058C283.392 143.55 284.235 143.838 284.889 143.963C285.531 144.085 285.891 144.03 286.117 143.939C286.579 143.754 287.168 143.131 287.946 140.892C288.968 137.925 289.871 134.959 290.783 131.962C291.305 130.248 291.829 128.524 292.381 126.783M244.588 140.711L293.812 127.24M244.588 140.711C247.086 139.696 249.706 139.363 252.366 139.211L244.588 140.711ZM292.381 126.783C292.382 126.783 292.382 126.782 292.382 126.782L293.812 127.24M292.381 126.783C292.381 126.784 292.381 126.785 292.381 126.785L293.812 127.24M292.381 126.783C292.795 125.468 292.676 124.606 292.332 123.987C291.967 123.326 291.19 122.655 289.729 122.063M293.812 127.24C294.809 124.072 293.543 121.991 290.286 120.672M289.729 122.063C289.73 122.064 289.731 122.064 289.732 122.064L290.286 120.672M289.729 122.063C289.728 122.063 289.727 122.062 289.726 122.062L290.286 120.672M289.729 122.063C283.869 119.716 277.871 118.046 271.577 117.151C269.513 116.866 267.854 116.636 266.583 116.327C265.316 116.019 264.179 115.578 263.347 114.697C262.496 113.798 262.164 112.657 262.004 111.423C261.849 110.226 261.831 108.702 261.81 106.85L261.809 106.755L261.809 106.753C261.781 103.989 261.759 102.055 261.572 100.636C261.386 99.219 261.07 98.6414 260.722 98.3264C260.346 97.9865 259.642 97.6857 258.039 97.5284C256.459 97.3731 254.319 97.3786 251.312 97.3888C250.715 97.3909 250.13 97.3888 249.551 97.3867C248.417 97.3827 247.307 97.3787 246.181 97.406C244.813 97.4462 243.827 97.5308 243.097 97.6883C242.377 97.8435 242.025 98.0453 241.823 98.2361C241.629 98.4181 241.435 98.7185 241.287 99.3467C241.133 99.9984 241.053 100.89 241.023 102.154L241.023 102.159C240.986 103.475 241.001 104.713 241.016 105.989C241.028 106.974 241.04 107.981 241.029 109.064C241.03 110.735 241.031 112.107 240.905 113.199C240.775 114.322 240.495 115.34 239.8 116.213C239.122 117.063 238.182 117.608 237.101 118.075C236.108 118.504 234.828 118.936 233.263 119.463C233.134 119.506 233.004 119.55 232.872 119.595C224.452 122.442 217.765 126.481 213.065 131.82C208.383 137.141 205.599 143.839 205.105 152.163L205.105 152.164C204.666 159.472 206.533 165.529 210.124 170.664C213.734 175.826 219.138 180.127 225.866 183.793L225.867 183.794C231.528 186.883 237.521 189.073 243.644 191.31C246.549 192.371 249.484 193.443 252.427 194.628M290.286 120.672L251.874 196.02M252.427 194.628C252.428 194.628 252.429 194.629 252.431 194.629L251.874 196.02M252.427 194.628C252.426 194.627 252.426 194.627 252.426 194.627L251.874 196.02M252.427 194.628C255.972 196.039 259.451 197.704 262.518 200.042M251.874 196.02C255.367 197.411 258.704 199.017 261.614 201.236M262.518 200.042C262.516 200.041 262.515 200.04 262.513 200.039L261.614 201.236M262.518 200.042C267.19 203.558 269.272 208.395 268.62 213.048C267.968 217.696 264.634 221.833 259.153 224.065M262.518 200.042C262.519 200.043 262.52 200.044 262.521 200.045L261.614 201.236M261.614 201.236L259.153 224.065M244.621 268.432C242.928 268.406 241.937 267.96 241.357 267.384C240.778 266.807 240.382 265.873 240.356 264.392L240.356 264.388C240.328 263.028 240.309 261.658 240.29 260.282L240.29 260.279C240.271 258.906 240.253 257.526 240.224 256.155M244.621 268.432C244.622 268.432 244.623 268.432 244.624 268.432L244.606 269.932L244.621 268.432ZM240.224 256.155C240.224 256.156 240.224 256.156 240.224 256.157L238.724 256.181L240.224 256.155L240.224 256.155ZM259.153 224.065L258.585 222.68L259.153 224.065C259.153 224.065 259.153 224.065 259.153 224.065ZM205.145 233.753C206.371 229.574 207.589 225.426 208.961 221.317C209.353 220.154 209.698 219.35 210.039 218.806C210.369 218.276 210.63 218.094 210.82 218.017C211.018 217.937 211.36 217.882 212.022 218.031C212.695 218.183 213.57 218.517 214.746 219.073L214.747 219.074L205.145 233.753ZM205.145 233.753C205.145 233.753 205.145 233.752 205.145 233.752L203.706 233.326L205.145 233.753ZM209.146 241.502C209.145 241.502 209.144 241.501 209.143 241.501L208.542 242.874L209.149 241.504C209.148 241.503 209.147 241.503 209.146 241.502ZM241.495 224.784L241.332 226.274C241.333 226.274 241.333 226.274 241.334 226.274L241.495 224.784Z" stroke="url(#paint13_linear_615_449)" stroke-width="3"/>
</g>
</g>
<defs>
<filter id="filter0_b_615_449" x="217.5" y="119.199" width="202.498" height="229.69" filterUnits="userSpaceOnUse" color-interpolation-filters="sRGB">
<feFlood flood-opacity="0" result="BackgroundImageFix"/>
<feGaussianBlur in="BackgroundImageFix" stdDeviation="21"/>
<feComposite in2="SourceAlpha" operator="in" result="effect1_backgroundBlur_615_449"/>
<feBlend mode="normal" in="SourceGraphic" in2="effect1_backgroundBlur_615_449" result="shape"/>
</filter>
<filter id="filter1_b_615_449" x="160.919" y="53.8838" width="182.001" height="258.08" filterUnits="userSpaceOnUse" color-interpolation-filters="sRGB">
<feFlood flood-opacity="0" result="BackgroundImageFix"/>
<feGaussianBlur in="BackgroundImageFix" stdDeviation="21"/>
<feComposite in2="SourceAlpha" operator="in" result="effect1_backgroundBlur_615_449"/>
<feBlend mode="normal" in="SourceGraphic" in2="effect1_backgroundBlur_615_449" result="shape"/>
</filter>
<linearGradient id="paint0_linear_615_449" x1="6.82384e-06" y1="79.766" x2="618.777" y2="223.075" gradientUnits="userSpaceOnUse">
<stop stop-color="#9BEC8B"/>
<stop offset="1" stop-color="#24B8B1"/>
</linearGradient>
<radialGradient id="paint1_radial_615_449" cx="0" cy="0" r="1" gradientUnits="userSpaceOnUse" gradientTransform="translate(262.039 166.945) rotate(50.1037) scale(175.688 276.685)">
<stop stop-color="#90E78E" stop-opacity="0.65"/>
<stop offset="1" stop-color="white" stop-opacity="0"/>
</radialGradient>
<radialGradient id="paint2_radial_615_449" cx="0" cy="0" r="1" gradientUnits="userSpaceOnUse" gradientTransform="translate(262.039 166.945) rotate(50.1037) scale(175.688 276.685)">
<stop stop-color="#90E78E" stop-opacity="0.65"/>
<stop offset="1" stop-color="white" stop-opacity="0"/>
</radialGradient>
<radialGradient id="paint3_radial_615_449" cx="0" cy="0" r="1" gradientUnits="userSpaceOnUse" gradientTransform="translate(262.039 166.945) rotate(50.1037) scale(175.688 276.685)">
<stop stop-color="#90E78E" stop-opacity="0.65"/>
<stop offset="1" stop-color="white" stop-opacity="0"/>
</radialGradient>
<radialGradient id="paint4_radial_615_449" cx="0" cy="0" r="1" gradientUnits="userSpaceOnUse" gradientTransform="translate(262.039 166.945) rotate(50.1037) scale(175.688 276.685)">
<stop stop-color="#4E6847" stop-opacity="0.24"/>
<stop offset="1" stop-color="#DAFFD1"/>
</radialGradient>
<radialGradient id="paint5_radial_615_449" cx="0" cy="0" r="1" gradientUnits="userSpaceOnUse" gradientTransform="translate(262.589 301.026) rotate(-50.0932) scale(174.793 275.006)">
<stop stop-color="#4DDB2C" stop-opacity="0.04"/>
<stop offset="1" stop-color="#DAFFD1"/>
</radialGradient>
<radialGradient id="paint6_radial_615_449" cx="0" cy="0" r="1" gradientUnits="userSpaceOnUse" gradientTransform="translate(262.039 166.945) rotate(50.1037) scale(175.688 276.685)">
<stop stop-color="#4E6847" stop-opacity="0.24"/>
<stop offset="1" stop-color="#DAFFD1"/>
</radialGradient>
<radialGradient id="paint7_radial_615_449" cx="0" cy="0" r="1" gradientUnits="userSpaceOnUse" gradientTransform="translate(262.589 301.026) rotate(-50.0932) scale(174.793 275.006)">
<stop stop-color="#4DDB2C" stop-opacity="0.04"/>
<stop offset="1" stop-color="#DAFFD1"/>
</radialGradient>
<radialGradient id="paint8_radial_615_449" cx="0" cy="0" r="1" gradientUnits="userSpaceOnUse" gradientTransform="translate(262.039 166.945) rotate(50.1037) scale(175.688 276.685)">
<stop stop-color="#4E6847" stop-opacity="0.24"/>
<stop offset="1" stop-color="#DAFFD1"/>
</radialGradient>
<radialGradient id="paint9_radial_615_449" cx="0" cy="0" r="1" gradientUnits="userSpaceOnUse" gradientTransform="translate(262.589 301.026) rotate(-50.0932) scale(174.793 275.006)">
<stop stop-color="#4DDB2C" stop-opacity="0.04"/>
<stop offset="1" stop-color="#DAFFD1"/>
</radialGradient>
<radialGradient id="paint10_radial_615_449" cx="0" cy="0" r="1" gradientUnits="userSpaceOnUse" gradientTransform="translate(202.917 101.218) rotate(59.4507) scale(190.568 264.552)">
<stop stop-color="#93E98E" stop-opacity="0.4"/>
<stop offset="1" stop-color="white" stop-opacity="0"/>
</radialGradient>
<radialGradient id="paint11_radial_615_449" cx="0" cy="0" r="1" gradientUnits="userSpaceOnUse" gradientTransform="translate(202.917 101.218) rotate(59.4507) scale(190.568 264.552)">
<stop stop-color="#D8D8D8" stop-opacity="0"/>
<stop offset="1" stop-color="#D8D8D8"/>
</radialGradient>
<radialGradient id="paint12_radial_615_449" cx="0" cy="0" r="1" gradientUnits="userSpaceOnUse" gradientTransform="translate(204.448 264.796) rotate(-60.0969) scale(189.078 263.667)">
<stop stop-color="#D8D8D8" stop-opacity="0"/>
<stop offset="1" stop-color="#D8D8D8"/>
</radialGradient>
<linearGradient id="paint13_linear_615_449" x1="203.849" y1="100.783" x2="332.936" y2="133.179" gradientUnits="userSpaceOnUse">
<stop stop-color="#93E98E" stop-opacity="0.9"/>
<stop offset="1" stop-color="#93E98E" stop-opacity="0"/>
</linearGradient>
<clipPath id="clip0_615_449">
<rect width="399" height="312" fill="white"/>
</clipPath>
</defs>
</svg>
