<svg width="34" height="9" viewBox="0 0 34 9" fill="none" xmlns="http://www.w3.org/2000/svg">
<path d="M0.253672 7V-4.76837e-07H3.38367C4.17034 -4.76837e-07 4.78367 0.156666 5.22367 0.469999C5.66367 0.776666 5.88367 1.22 5.88367 1.8C5.88367 2.37333 5.67367 2.81667 5.25367 3.13C4.83367 3.43667 4.28034 3.59 3.59367 3.59L3.77367 3.23C4.55367 3.23 5.15701 3.38667 5.58367 3.7C6.01034 4.01333 6.22367 4.46667 6.22367 5.06C6.22367 5.66667 6.00034 6.14333 5.55367 6.49C5.10701 6.83 4.44701 7 3.57367 7H0.253672ZM1.53367 6H3.53367C3.98701 6 4.33034 5.91667 4.56367 5.75C4.79701 5.57667 4.91367 5.31333 4.91367 4.96C4.91367 4.60667 4.79701 4.35 4.56367 4.19C4.33034 4.02333 3.98701 3.94 3.53367 3.94H1.53367V6ZM1.53367 2.99H3.27367C3.69367 2.99 4.01367 2.90667 4.23367 2.74C4.45367 2.56667 4.56367 2.32 4.56367 2C4.56367 1.66667 4.45367 1.41667 4.23367 1.25C4.01367 1.08333 3.69367 1 3.27367 1H1.53367V2.99ZM12.9546 7V1.66H14.2046V7H12.9546ZM10.1646 3.42C10.8513 3.42 11.3713 3.57333 11.7246 3.88C12.0846 4.18667 12.2646 4.62 12.2646 5.18C12.2646 5.76 12.0646 6.21333 11.6646 6.54C11.2713 6.86 10.7113 7.01667 9.98461 7.01L7.56461 7V1.66H8.81461V3.41L10.1646 3.42ZM9.87461 6.09C10.2413 6.09667 10.5213 6.02 10.7146 5.86C10.9079 5.7 11.0046 5.46667 11.0046 5.16C11.0046 4.85333 10.9079 4.63333 10.7146 4.5C10.5279 4.36 10.2479 4.28667 9.87461 4.28L8.81461 4.27V6.08L9.87461 6.09ZM15.0949 7L17.4449 3.94L17.4249 4.61L15.1849 1.66H16.5749L18.1449 3.76H17.6149L19.1949 1.66H20.5449L18.2849 4.61L18.2949 3.94L20.6349 7H19.2249L17.5749 4.77L18.0949 4.84L16.4749 7H15.0949ZM23.7337 7.07C23.187 7.07 22.7003 6.95333 22.2737 6.72C21.847 6.48 21.5103 6.15333 21.2637 5.74C21.017 5.32667 20.8937 4.85667 20.8937 4.33C20.8937 3.79667 21.017 3.32667 21.2637 2.92C21.5103 2.50667 21.847 2.18333 22.2737 1.95C22.7003 1.71667 23.187 1.6 23.7337 1.6C24.287 1.6 24.777 1.71667 25.2037 1.95C25.637 2.18333 25.9737 2.50333 26.2137 2.91C26.4603 3.31667 26.5837 3.79 26.5837 4.33C26.5837 4.85667 26.4603 5.32667 26.2137 5.74C25.9737 6.15333 25.637 6.48 25.2037 6.72C24.777 6.95333 24.287 7.07 23.7337 7.07ZM23.7337 6C24.0403 6 24.3137 5.93333 24.5537 5.8C24.7937 5.66667 24.9803 5.47333 25.1137 5.22C25.2537 4.96667 25.3237 4.67 25.3237 4.33C25.3237 3.98333 25.2537 3.68667 25.1137 3.44C24.9803 3.18667 24.7937 2.99333 24.5537 2.86C24.3137 2.72667 24.0437 2.66 23.7437 2.66C23.437 2.66 23.1637 2.72667 22.9237 2.86C22.6903 2.99333 22.5037 3.18667 22.3637 3.44C22.2237 3.68667 22.1537 3.98333 22.1537 4.33C22.1537 4.67 22.2237 4.96667 22.3637 5.22C22.5037 5.47333 22.6903 5.66667 22.9237 5.8C23.1637 5.93333 23.4337 6 23.7337 6ZM31.4199 6.42V2.72H29.3699L29.3399 3.58C29.3266 3.88667 29.3066 4.18333 29.2799 4.47C29.2533 4.75 29.2099 5.01 29.1499 5.25C29.0899 5.48333 29.0033 5.67667 28.8899 5.83C28.7766 5.98333 28.6266 6.08333 28.4399 6.13L27.1999 5.94C27.3999 5.94 27.5599 5.87667 27.6799 5.75C27.8066 5.61667 27.9033 5.43667 27.9699 5.21C28.0433 4.97667 28.0966 4.71333 28.1299 4.42C28.1633 4.12 28.1866 3.81 28.1999 3.49L28.2699 1.66H32.6699V6.42H31.4199ZM27.0099 8.19V5.94H33.4599V8.19H32.2899V7H28.1699V8.19H27.0099Z" fill="white"/>
</svg>
